<?xml version="1.0" encoding="utf-8"?>
<!-- Generator: Adobe Illustrator 16.0.4, SVG Export Plug-In . SVG Version: 6.00 Build 0)  -->
<!DOCTYPE svg PUBLIC "-//W3C//DTD SVG 1.1//EN" "http://www.w3.org/Graphics/SVG/1.1/DTD/svg11.dtd">
<svg version="1.1" id="Layer_1" xmlns="http://www.w3.org/2000/svg" xmlns:xlink="http://www.w3.org/1999/xlink" x="0px" y="0px"
	 width="200px" height="200px" viewBox="0 0 200 200" enable-background="new 0 0 200 200" xml:space="preserve">
<g>
	<path fill-rule="evenodd" clip-rule="evenodd" fill="#42B277" d="M661.481,472.924c0-32.619,26.459-59.014,59.131-59.028
		c31.897-0.015,58.954,25.827,58.927,59.084c-0.026,33.154-27.16,59.217-59.744,59.001
		C687.908,531.771,661.48,505.179,661.481,472.924z M669.273,472.896c0,28.134,23.047,51.268,51.119,51.242
		c28.902-0.025,50.78-23.438,51.334-50.158c0.58-28.017-22.069-52.217-51.155-52.287
		C692.403,421.627,669.274,444.715,669.273,472.896z"/>
	<path fill-rule="evenodd" clip-rule="evenodd" d="M606.018,412.721c2.321,7.521,4.602,14.898,6.876,22.279
		c3.515,11.411,7.028,22.824,10.536,34.238c0.885,2.878-0.073,5.143-2.471,5.897c-2.617,0.825-4.984-0.515-5.869-3.381
		c-6.25-20.253-12.494-40.509-18.729-60.768c-1.006-3.27,0.527-5.565,4.006-6.171c13.473-2.349,26.09-6.99,37.69-14.267
		c8.835-5.541,16.308-12.511,21.919-21.373c0.262-0.413,0.498-0.841,0.581-0.984c-2.972-0.263-6.014-0.216-8.905-0.847
		c-7.389-1.614-12.355-7.418-13.544-15.336c-1.497-9.979,5.675-20.356,15.507-22.438c9.262-1.961,18.778,3.703,22.01,13.055
		c1.816,5.256,1.065,10.441-0.425,15.572c-2.712,9.336-7.693,17.429-14.056,24.682c-13.137,14.977-29.756,24.035-49.002,28.55
		C610.163,411.895,608.163,412.271,606.018,412.721z M657.248,359.171c6.153,0.013,10.609-4.502,10.629-10.763
		c0.016-5.541-4.906-10.461-10.483-10.478c-6.067-0.019-10.829,4.66-10.845,10.653C646.533,354.916,650.822,359.158,657.248,359.171
		z"/>
	<path fill-rule="evenodd" clip-rule="evenodd" d="M579.462,531.959c0.035-13.18,2.966-24.184,10.437-33.699
		c6.557-8.351,15.269-13.603,25.068-17.302c3.584-1.353,7.268-2.622,10.561-4.527c9.071-5.253,13.211-13.505,13.661-23.825
		c0.245-5.631-1.411-10.891-2.889-16.197c-1.403-5.039-2.822-10.074-4.196-15.121c-0.571-2.1,0.338-4.119,2.176-5.066
		c1.82-0.938,4.096-0.473,5.395,1.158c0.338,0.424,0.631,0.938,0.775,1.457c2.24,8.073,4.902,16.062,6.57,24.254
		c2.642,12.974,0.105,24.898-9.234,34.817c-4.75,5.042-10.697,8.202-17.211,10.351c-7.156,2.361-13.81,5.634-19.439,10.732
		c-6.982,6.322-10.939,14.262-12.326,23.518c-1.355,9.052-0.399,17.923,2.222,26.65c0.64,2.133,0.052,4.018-1.606,5.165
		c-2.545,1.763-5.801,0.723-6.618-2.427c-1.161-4.471-2.071-9.016-2.86-13.569C579.513,535.831,579.551,533.252,579.462,531.959z"/>
	<path fill-rule="evenodd" clip-rule="evenodd" d="M608.94,353.697c11.45,0.043,20.483,9.252,20.446,20.84
		c-0.035,11.234-9.375,20.211-20.979,20.162c-10.992-0.045-20.09-9.448-20.023-20.693
		C588.451,362.77,597.677,353.654,608.94,353.697z M608.866,362.619c-6.343,0.018-11.644,5.348-11.567,11.629
		c0.076,6.373,5.356,11.597,11.671,11.545c6.259-0.051,11.485-5.307,11.511-11.574C620.506,367.919,615.182,362.602,608.866,362.619
		z"/>
	<path fill-rule="evenodd" clip-rule="evenodd" d="M687.037,554.094c-0.023,3.408-3.557,5.289-6.785,3.558
		c-6.875-3.687-13.389-7.937-19.52-12.763c-13.866-10.918-25.26-23.942-33.497-39.613c-1.374-2.614-2.555-5.346-3.631-8.099
		c-0.911-2.331,0.298-4.748,2.522-5.562c2.268-0.83,4.627,0.208,5.585,2.525c4.828,11.668,11.969,21.811,20.499,31.024
		c9.34,10.089,20.162,18.272,32.219,24.85C686.254,551.01,687.049,552.266,687.037,554.094z"/>
	<path fill-rule="evenodd" clip-rule="evenodd" d="M546.065,445.332c-0.88,0-1.778,0.117-2.635-0.022
		c-2.187-0.355-3.761-2.48-3.544-4.634c0.23-2.293,2.025-3.924,4.422-3.951c14.13-0.163,26.517-5.021,37.347-13.963
		c2.135-1.764,4.093-3.76,5.996-5.777c1.937-2.055,4.464-2.488,6.398-0.877c1.983,1.655,2.146,4.367,0.267,6.538
		c-5.152,5.946-11.279,10.688-18.148,14.489C566.801,442.318,556.762,445.052,546.065,445.332z"/>
	<path fill-rule="evenodd" clip-rule="evenodd" fill="#42B277" d="M711.525,484.29c0.53-0.708,0.791-1.161,1.148-1.52
		c9.664-9.68,19.34-19.349,29.009-29.025c1.144-1.145,2.456-1.614,4.042-1.14c1.527,0.457,2.416,1.518,2.723,3.043
		c0.303,1.498-0.297,2.709-1.347,3.752c-2.302,2.287-4.592,4.588-6.888,6.883c-8.459,8.46-16.918,16.921-25.379,25.379
		c-2.341,2.34-4.392,2.349-6.707,0.035c-4.787-4.786-9.582-9.567-14.355-14.367c-1.373-1.379-1.627-3.295-0.723-4.839
		c0.895-1.528,2.684-2.31,4.428-1.746c0.754,0.243,1.484,0.763,2.059,1.326c3.605,3.542,7.167,7.129,10.733,10.71
		C710.627,483.141,710.923,483.562,711.525,484.29z"/>
</g>
<g>
	<path fill-rule="evenodd" clip-rule="evenodd" fill="#42B277" d="M101.949,122.73c0-26.09,21.163-47.201,47.296-47.213
		c25.514-0.012,47.154,20.657,47.133,47.258c-0.021,26.519-21.724,47.364-47.786,47.191
		C123.087,169.8,101.949,148.529,101.949,122.73z M108.183,122.709c0,22.503,18.434,41.007,40.887,40.986
		c23.118-0.02,40.617-18.748,41.06-40.119c0.465-22.409-17.652-41.766-40.916-41.822
		C126.683,81.701,108.183,100.168,108.183,122.709z"/>
	<path fill-rule="evenodd" clip-rule="evenodd" d="M57.586,74.578c1.857,6.016,3.681,11.916,5.5,17.819
		c2.811,9.128,5.622,18.256,8.427,27.386c0.708,2.302-0.059,4.113-1.976,4.718c-2.094,0.659-3.987-0.412-4.695-2.705
		c-4.999-16.199-9.994-32.401-14.98-48.605c-0.804-2.615,0.422-4.451,3.204-4.935c10.776-1.879,20.868-5.592,30.147-11.412
		c7.066-4.432,13.044-10.006,17.531-17.095c0.21-0.33,0.399-0.673,0.465-0.787c-2.377-0.21-4.81-0.172-7.123-0.678
		c-5.91-1.291-9.882-5.933-10.833-12.267C82.057,18.036,87.793,9.735,95.658,8.07c7.408-1.568,15.02,2.962,17.605,10.442
		c1.452,4.205,0.852,8.352-0.34,12.456c-2.17,7.468-6.153,13.94-11.243,19.742c-10.507,11.979-23.8,19.225-39.194,22.835
		C60.902,73.916,59.303,74.218,57.586,74.578z M98.563,31.746c4.921,0.009,8.487-3.601,8.501-8.609
		c0.013-4.432-3.924-8.366-8.385-8.38c-4.853-0.015-8.662,3.728-8.674,8.521C89.993,28.342,93.423,31.735,98.563,31.746z"/>
	<path fill-rule="evenodd" clip-rule="evenodd" d="M36.346,169.95c0.028-10.542,2.372-19.343,8.348-26.954
		c5.244-6.679,12.213-10.88,20.051-13.839c2.866-1.082,5.813-2.098,8.447-3.621c7.256-4.201,10.567-10.803,10.927-19.057
		c0.196-4.504-1.129-8.711-2.311-12.955c-1.123-4.03-2.257-8.058-3.356-12.095c-0.458-1.68,0.27-3.295,1.74-4.053
		c1.456-0.751,3.276-0.378,4.315,0.926c0.27,0.34,0.504,0.75,0.62,1.166c1.792,6.457,3.92,12.848,5.255,19.4
		c2.113,10.376,0.084,19.914-7.386,27.848c-3.799,4.033-8.556,6.561-13.766,8.279c-5.724,1.889-11.046,4.506-15.549,8.584
		c-5.585,5.058-8.75,11.407-9.859,18.811c-1.084,7.241-0.319,14.336,1.777,21.316c0.512,1.706,0.042,3.214-1.285,4.132
		c-2.036,1.409-4.64,0.577-5.294-1.941c-0.928-3.575-1.656-7.211-2.288-10.853C36.386,173.047,36.417,170.984,36.346,169.95z"/>
	<path fill-rule="evenodd" clip-rule="evenodd" d="M59.924,27.367c9.159,0.035,16.383,7.4,16.354,16.668
		c-0.028,8.986-7.499,16.167-16.78,16.127c-8.792-0.037-16.069-7.558-16.016-16.552C43.536,34.623,50.915,27.333,59.924,27.367z
		 M59.865,34.504c-5.073,0.014-9.313,4.277-9.252,9.301c0.061,5.097,4.284,9.275,9.335,9.234c5.006-0.04,9.187-4.244,9.207-9.257
		C69.175,38.743,64.917,34.489,59.865,34.504z"/>
	<path fill-rule="evenodd" clip-rule="evenodd" d="M122.39,187.655c-0.018,2.726-2.844,4.23-5.427,2.845
		c-5.499-2.948-10.709-6.347-15.613-10.208c-11.09-8.732-20.204-19.15-26.792-31.684c-1.099-2.092-2.043-4.277-2.904-6.479
		c-0.729-1.864,0.238-3.798,2.018-4.448c1.813-0.664,3.701,0.166,4.467,2.021c3.862,9.332,9.573,17.444,16.396,24.813
		c7.471,8.07,16.127,14.615,25.771,19.877C121.764,185.188,122.399,186.193,122.39,187.655z"/>
	<path fill-rule="evenodd" clip-rule="evenodd" d="M9.633,100.661c-0.704,0-1.422,0.094-2.107-0.018
		c-1.749-0.284-3.008-1.983-2.834-3.706c0.184-1.834,1.62-3.139,3.537-3.16C19.53,93.646,29.438,89.761,38.1,82.608
		c1.708-1.41,3.273-3.007,4.796-4.621c1.549-1.644,3.57-1.989,5.118-0.701c1.586,1.324,1.716,3.493,0.213,5.229
		c-4.121,4.756-9.022,8.549-14.517,11.59C26.219,98.251,18.189,100.438,9.633,100.661z"/>
	<path fill-rule="evenodd" clip-rule="evenodd" fill="#42B277" d="M141.978,131.822c0.424-0.566,0.633-0.929,0.919-1.215
		c7.729-7.743,15.468-15.477,23.202-23.216c0.914-0.916,1.964-1.292,3.233-0.912c1.221,0.365,1.932,1.213,2.177,2.434
		c0.243,1.198-0.237,2.167-1.077,3.001c-1.841,1.829-3.673,3.67-5.508,5.506c-6.767,6.766-13.532,13.534-20.301,20.299
		c-1.872,1.871-3.512,1.879-5.364,0.028c-3.829-3.829-7.664-7.652-11.482-11.491c-1.099-1.104-1.301-2.636-0.577-3.871
		c0.715-1.222,2.146-1.847,3.541-1.396c0.603,0.194,1.188,0.609,1.646,1.062c2.884,2.833,5.732,5.702,8.585,8.566
		C141.259,130.903,141.495,131.24,141.978,131.822z"/>
</g>
</svg>
