<?xml version="1.0" encoding="utf-8"?>
<!-- Generator: Adobe Illustrator 16.0.4, SVG Export Plug-In . SVG Version: 6.00 Build 0)  -->
<!DOCTYPE svg PUBLIC "-//W3C//DTD SVG 1.1//EN" "http://www.w3.org/Graphics/SVG/1.1/DTD/svg11.dtd">
<svg version="1.1" id="Layer_1" xmlns="http://www.w3.org/2000/svg" xmlns:xlink="http://www.w3.org/1999/xlink" x="0px" y="0px"
	 width="123.573px" height="117.472px" viewBox="0 0 123.573 117.472" enable-background="new 0 0 123.573 117.472"
	 xml:space="preserve">
<g id="RrY0IG.tif">
	<g>
		<path fill-rule="evenodd" clip-rule="evenodd" d="M116.104,34.542c-3.134-0.059-6.256-0.437-9.387-0.59
			c-9.84-0.474-19.624-1.422-29.379-2.618l-5.019-2.001l4.616-0.594l-4.333-1.349l3.782-0.81l-3.875-0.551l3.998-1.645l-9.541-1.126
			l14.331-0.986l-14.297-2.584l14.004,0.273l-11.677-2.352l8.907,0.072l-9.208-2.377l8.08-0.15l-1.787-1.164
			c13.855,0.338,27.718,1.575,41.576,2.352c7.285,0.408,6.936,5.759,6.457,11.554C122.989,32.38,120.619,34.622,116.104,34.542z"/>
		<path fill-rule="evenodd" clip-rule="evenodd" d="M72.568,30.332c-9.61,12.56-19.721,24.73-29.53,37.15
			c-10.73,13.57-20.08,28.221-30.01,42.42c-0.41,0.57-0.71,1.5-0.55,2.13c0.62,2.521-0.57,4.11-2.45,5.44h-2.35
			c-2.02-1.38-4.25-2.54-5.98-4.21c-1.03-0.99-1.782-2.449-1.69-4.19c0.091-1.732,0.95-2.06,2.07-3.01
			c0.97-0.84,2.796,0.137,3.526-0.863c16.56-22.77,31.614-48.297,45.534-72.767c1.76-3.09,3.58-6.14,5.46-9.16l1.91-0.95l-3.97,7.04
			l6.72-6.73l-4.58,7.64l7.95-8.87l-7.34,11.93l9.479-11.01l-6.42,12.85l5.811-7.65l-0.61,4.28l2.44-3.06l-1.221,3.67l3.36-3.05
			l-1.83,4.28L72.568,30.332z"/>
	</g>
</g>
<polygon fill-rule="evenodd" clip-rule="evenodd" points="64.014,11.315 64.014,1.529 61.873,8.562 62.205,11.723 62.484,14.373 "/>
<polygon fill-rule="evenodd" clip-rule="evenodd" points="70.436,7.034 67.989,3.364 72.882,7.645 "/>
<polygon fill-rule="evenodd" clip-rule="evenodd" points="80.436,37.034 77.989,33.364 82.882,37.645 "/>
<polygon fill-rule="evenodd" clip-rule="evenodd" points="49.029,10.703 51.781,14.679 53.922,15.291 "/>
<polygon fill-rule="evenodd" clip-rule="evenodd" points="59.121,19.266 55.146,19.572 56.98,18.043 "/>
<polygon fill-rule="evenodd" clip-rule="evenodd" points="57.703,9.917 53.559,4.401 57.262,7.434 "/>
<polygon fill-rule="evenodd" clip-rule="evenodd" points="77.368,46.397 75.84,39.67 77.98,43.951 "/>
<polygon fill-rule="evenodd" clip-rule="evenodd" points="66.766,15.291 66.154,9.48 67.072,12.232 "/>
<polygon fill-rule="evenodd" clip-rule="evenodd" points="64.295,19.183 60.319,15.208 62.46,18.572 "/>
<polygon fill-rule="evenodd" clip-rule="evenodd" points="52.699,21.712 47.5,22.63 50.252,23.242 "/>
<polygon fill-rule="evenodd" clip-rule="evenodd" points="50.252,17.125 45.665,15.291 48.723,14.985 "/>
<polygon fill-rule="evenodd" clip-rule="evenodd" points="58.815,5.199 58.815,0 59.732,3.058 "/>
<polygon fill-rule="evenodd" clip-rule="evenodd" points="75.329,9.174 73.494,3.67 75.635,7.645 "/>
<polygon fill-rule="evenodd" clip-rule="evenodd" points="50.864,25.382 44.748,25.382 47.194,26.3 "/>
<polygon fill-rule="evenodd" clip-rule="evenodd" points="74.988,31.683 76.033,36.403 77.783,37.779 "/>
<polygon fill-rule="evenodd" clip-rule="evenodd" points="73.014,42.315 73.014,32.529 70.873,39.562 71.205,42.723 71.484,45.374 
	"/>
</svg>
