<?xml version="1.0" encoding="utf-8"?>
<!-- Generator: Adobe Illustrator 16.0.4, SVG Export Plug-In . SVG Version: 6.00 Build 0)  -->
<!DOCTYPE svg PUBLIC "-//W3C//DTD SVG 1.1//EN" "http://www.w3.org/Graphics/SVG/1.1/DTD/svg11.dtd">
<svg version="1.1" id="Layer_1" xmlns="http://www.w3.org/2000/svg" xmlns:xlink="http://www.w3.org/1999/xlink" x="0px" y="0px"
	 width="56.781px" height="34.624px" viewBox="0 0 56.781 34.624" enable-background="new 0 0 56.781 34.624" xml:space="preserve">
<g>
	<g>
		<path fill="#8D4846" d="M29.419,32.926c-2.663,1.132-5.996,1.697-9.998,1.697c-11.652,0-17.479-5.545-17.479-16.633
			c0-10.493,5.926-15.74,17.779-15.74c3.617,0,6.849,0.521,9.697,1.563v5.358c-2.848-1.19-5.926-1.786-9.235-1.786
			c-7.928,0-11.892,3.535-11.892,10.605c0,7.666,3.741,11.498,11.222,11.498c1.108,0,2.371-0.179,3.787-0.536v-9.288h6.118V32.926z"
			/>
		<path fill="#8D4846" d="M56.781,2.474v5.135h-9.467v26.792h-6.118V7.609h-9.467V2.474H56.781z"/>
	</g>
	<polygon fill="#F3AE71" points="3.149,5.029 6.298,1.984 7.451,6.144 8.603,10.303 4.302,9.189 0,8.074 	"/>
	<polygon fill="#F3AE71" points="44.23,0 48.683,0 46.458,3.729 44.231,7.458 42.003,3.729 39.777,0 	"/>
</g>
</svg>
