<?xml version="1.0" encoding="utf-8"?>
<!-- Generator: Adobe Illustrator 16.0.4, SVG Export Plug-In . SVG Version: 6.00 Build 0)  -->
<!DOCTYPE svg PUBLIC "-//W3C//DTD SVG 1.1//EN" "http://www.w3.org/Graphics/SVG/1.1/DTD/svg11.dtd">
<svg version="1.1" id="Layer_1" xmlns="http://www.w3.org/2000/svg" xmlns:xlink="http://www.w3.org/1999/xlink" x="0px" y="0px"
	 width="101.641px" height="104.027px" viewBox="0 0 101.641 104.027" enable-background="new 0 0 101.641 104.027"
	 xml:space="preserve">
<path fill="#FFFFFF" d="M73.837,20.693c0,0,0.333-5,1.333-6s3.667-3,3.667-3l2.667-1l2.666,0.667l0.667-1.667l3.333,1l2.334-5
	l2-5.333c0,0,6.666-1.001,8.333,0.333s0.388,2.334-0.667,2.334c-4.332-0.002-4,4.333-4,4.333l2,2l-5,3.667l-3,3.333l-2.333,3.667
	v5.666l-3.667,1l-2.333,4.667v3v3.333c0,0-3.999,6.334-5.333,8.334s-1.667,4.666-1.667,4.666l3,2.334l7.667,2l4-2.667
	c0,0,3.333-3.334,5.333-0.667s-2,7.334-2,7.334l-2.333,3.333h-4.667l-2.667-2h-2.333l-8.333-1.333l-5-3.334l1.333,4l7,7l4.333,12
	l4,6l6.334,8.667h2.666l1.667,3.667l4.333,3.333c0,0,2.334-0.333,2.334,1s-4.667,2.333-4.667,2.333l-6.667,0.334l-6.666-4.334
	v-1.666l-3-4.334l-4.667-4.666l-3.667-6l-3.333-4.667l-13-10.667c0,0-10.667,10.334-12,10.667l-7.333,2l-5.667-0.333l-6,1l-7,2.666
	l-3,1l-2.333,1l-2.333,3l-5,1.667l-3.333,2.667c0,0-3-1.667-1.333-4.667s4-7,4-7l2.667-3l2.333-1.667l3.667,0.667l5-2.333l8-4.667
	c0,0,4-1.667,7-1.667s3,0,3,0l4.333-4.666l3.333-6v-6c0,0,3.333-6.334,5.333-7.334s3.333-3.666,3.333-3.666l3.666-3l1.334-5
	l6.666-5.667l7.334-5.333L73.837,20.693z"/>
</svg>
