<?xml version="1.0" encoding="utf-8"?>
<!-- Generator: Adobe Illustrator 16.0.4, SVG Export Plug-In . SVG Version: 6.00 Build 0)  -->
<!DOCTYPE svg PUBLIC "-//W3C//DTD SVG 1.1//EN" "http://www.w3.org/Graphics/SVG/1.1/DTD/svg11.dtd">
<svg version="1.1" id="Layer_1" xmlns="http://www.w3.org/2000/svg" xmlns:xlink="http://www.w3.org/1999/xlink" x="0px" y="0px"
	 width="38.453px" height="111.043px" viewBox="0 0 38.453 111.043" enable-background="new 0 0 38.453 111.043"
	 xml:space="preserve">
<path fill="#FFFFFF" d="M17.667,12.376c0,0,1.667-8.334,4-9.667C24,1.376,26.334-0.29,28,0.043s5.666,3.333,6,7.333
	c0,0,4.334,7.333,2.334,7h-4l-1,2.333l2.332,3.667h3c0,0,2.334,3.667,1.668,7.667c-0.668,4-2.334,6-2.334,6s-0.334,5.334-3.334,8
	l-4.332-0.667l-3.668,5.667c0,0-0.332,6.332-1.332,7.666S22,61.376,22,61.376l1.666,8.333c0,0,0.001,2-0.332,4
	C23,75.709,20,84.042,20,85.709s0.334,12.334,0.334,12.334L21,100.376l2.334,2.333l2.332,2.667L29,108.043c0,0,2,3-0.666,3
	c-2.668,0-8,0-8,0l-4.667-3.667h-2.333l-0.667-5.667l-1-5.333c0,0-0.333-9.334-0.333-10.667s-3.667,8.666-3.333,10
	c0,0,1,6.667,1,7.667s6,5.001,2.667,6.667S3,109.709,3,109.709l-3-2.333c0,0,0.333-6.001,0.667-7.667s1.667-13.666,3-15.333
	s4-10.333,4-10.333L7,67.376c0,0-6.667-16.667-5.667-19.667l1.333-1.666l1-7.334c0,0,1-14.334,1.667-16s2.667-7,3.667-8
	S15.667,11.376,17.667,12.376z"/>
</svg>
