<?xml version="1.0" encoding="utf-8"?>
<!-- Generator: Adobe Illustrator 16.0.4, SVG Export Plug-In . SVG Version: 6.00 Build 0)  -->
<!DOCTYPE svg PUBLIC "-//W3C//DTD SVG 1.1//EN" "http://www.w3.org/Graphics/SVG/1.1/DTD/svg11.dtd">
<svg version="1.1" id="Layer_1" xmlns="http://www.w3.org/2000/svg" xmlns:xlink="http://www.w3.org/1999/xlink" x="0px" y="0px"
	 width="41.6px" height="114.805px" viewBox="0 0 41.6 114.805" enable-background="new 0 0 41.6 114.805" xml:space="preserve">
<path fill="#FFFFFF" d="M13,16.336l-3.333-4.333c0,0-0.333-8.334,1.667-9.667S18,0.003,18,0.003s3.667-0.333,5.667,6l2,1.333
	c0,0,4.667,0.999,1.334,2.333l-3.668,0.667l0.334,3l6.666,1.667c0,0,5.667,2.334,7,7c0,0,6.668,11.667,3.334,12L38,34.669
	l0.666,4.667l2,7c0,0,1.666,4.667-3.334,7.667l-3.666,3c0,0-6,3.667-6.334,6c-0.332,2.333-3,7-3,7l-1.666,9.666l-1,7.667l-1,7.667
	l-1.667,6l-0.667,2.666l0.667,4v2.334l-2,1.666l-1,1.667c0,0-2.334,1.999-4.667,1.333S9,114.003,9,114.003s-1.667-1.668,0.667-3.334
	S13,107.003,13,107.003l-0.333-4.334v-10l-0.333-7l1-7l-0.667-7.333L13,63.003c0,0-9.667-3.668-12.333-9.334
	c0,0,0.333-1.666,2.333-1.666s7.667,0.333,7.667,0.333l3-2.667v-4L12,41.003c0,0-4.333,3.999-6.333,4.666
	c0,0-5.667,0.668-5.667-2.666l1.333-6.667L3,29.003l1-4c0,0,0-3,1-2.667s0.667-3.333,1.667-2.333c0,0,1.333-2,2.333-1
	c0,0,1-2.334,2.667-1.334C11.667,17.669,13.333,18.003,13,16.336z"/>
</svg>
