<?xml version="1.0" encoding="utf-8"?>
<!-- Generator: Adobe Illustrator 16.0.4, SVG Export Plug-In . SVG Version: 6.00 Build 0)  -->
<!DOCTYPE svg PUBLIC "-//W3C//DTD SVG 1.1//EN" "http://www.w3.org/Graphics/SVG/1.1/DTD/svg11.dtd">
<svg version="1.1" id="Layer_1" xmlns="http://www.w3.org/2000/svg" xmlns:xlink="http://www.w3.org/1999/xlink" x="0px" y="0px"
	 width="114.507px" height="103.396px" viewBox="0 0 114.507 103.396" enable-background="new 0 0 114.507 103.396"
	 xml:space="preserve">
<path fill="#FFFFFF" d="M62.668,21.335l1.667-4.667l-2-2l1.333-5c0,0-1-3.001,0.667-3.667c1.666-0.666,6.333-2.333,6.333-2.333
	s4,0.333,4.667,2c0.666,1.667,2,3.333,2,3.333l1.333,0.334c0,0,7.667,2,2,3l-3,0.666l0.667,2.334l-0.667,2l-0.333,4l2.333,0.666
	l1.667,1l3,2.334c0,0,2.333,2.999,3.333,7.666l2.333,4.667l9,8.667l1.667,1.333h1.333c0,0,3.667,2.666,4.334,4.333
	c0.666,1.667,0,5.334,0,5.334l-2.334,0.333c0,0-0.333,0.999-1.333,1.333s-3.667-0.666-3.667-0.666s-4.666-0.334-5.666-2.667
	s0.333-2,1.333-2s-1.333-2.667-1.333-2.667s-0.334-0.666,1.333-0.666s-1.667-2.334-1.667-2.334l-6.666-5.333l-1.334-1l-4-2.667
	l-2,1.667l-1.666,2.667l-0.334,5l-2.333,5v2.666l2.333,2.667l7,3.333l7.667,5.334c0,0,3,2.999,3,4.666s1.333,8.334,1.333,8.334
	l3.334,8l3.666,5.333l2,3l2.334,2.667l2,1l2.666,0.333l1.667,0.333l1,2.667h-4.667h-5h-2.666h-2.334c0,0-3.666,0.333-3.666-0.667
	s0.333-2.666,0.333-2.666l0.333-2l-2.666-4l-5-11l-4-4l-5.334-3l-5.666-3.667l-4.667-2.667l-5-0.666h-4l-3,2.333l-8.333,6
	c0,0-1.333,2.667-2.667,3s-5,0.333-5,0.333l-7.667,1.334l-8.667,2l-7.667,3l-3,2.333l-3,2l-2.667,1.667l-3.667,2
	c0,0-7.667,1.666-4.333-5.334l1.667-2.333l3.333-2l2.667-0.667l2-3.333h3h2.333c0,0,11-7.334,13-7.667s10.667-3,10.667-3l1.667-1
	l4-5.666c0,0,5.333-10,7-10.667l1-3l1.333-2.333l1-3.334v-3l-3-5l-3-2.333l-2.667-0.333l-4,0.666l-4.333-1c0,0-3.667-1-5-7.333
	l-1.333-6.333l-1-8.667V8.335l-0.333-1.667c0,0-0.667-3.001,1-2.667s1.667-1.666,1.667-1.666s1-3,2.667-1.667
	s0.667,2.667,0.667,2.667l1.667,2.666l-2,4.334l-0.667,2l2.333,8.666c0,0,1,2,1.333,2.667c1.282,2.564,3.667,1.333,3.667,1.333
	l1.667-2h3.333l3-0.666l3-1.667C54.334,20.668,62.668,20.002,62.668,21.335z"/>
</svg>
