<?xml version="1.0" encoding="utf-8"?>
<!-- Generator: Adobe Illustrator 16.0.4, SVG Export Plug-In . SVG Version: 6.00 Build 0)  -->
<!DOCTYPE svg PUBLIC "-//W3C//DTD SVG 1.1//EN" "http://www.w3.org/Graphics/SVG/1.1/DTD/svg11.dtd">
<svg version="1.1" id="Layer_1" xmlns="http://www.w3.org/2000/svg" xmlns:xlink="http://www.w3.org/1999/xlink" x="0px" y="0px"
	 width="200px" height="200px" viewBox="0 0 200 200" enable-background="new 0 0 200 200" xml:space="preserve">
<g>
	<path fill="#D0492E" d="M16.012,178.698c0-0.939,0-1.633,0-2.326c0-52.169,0-104.338-0.003-156.507
		c0-0.647,0.017-1.303-0.071-1.942c-0.299-2.176-2.07-3.764-4.256-3.871c-2.938-0.144-4.855,1.935-4.855,5.287
		C6.824,73.781,6.837,128.222,6.79,182.662c-0.002,2.889,1.802,5.273,5.343,5.27c53.142-0.07,106.285-0.049,159.428-0.05
		c5.611,0,11.222,0.013,16.833-0.005c2.335-0.008,4.216-1.689,4.472-3.926c0.275-2.394-1.101-4.482-3.4-5.035
		c-0.755-0.182-1.561-0.209-2.342-0.209c-56.342-0.01-112.685-0.009-169.027-0.009C17.458,178.698,16.821,178.698,16.012,178.698z
		 M98.628,89.39c0.338-0.473,0.594-0.851,0.871-1.211c3.78-4.929,7.567-9.853,11.347-14.782c1.912-2.494,1.775-4.775-0.439-6.924
		c-3.161-3.066-6.34-6.113-9.513-9.167C87.632,44.547,74.37,31.789,61.107,19.031c-2.372-2.281-4.731-4.576-7.125-6.833
		c-1.596-1.506-3.7-1.766-5.516-0.758c-1.688,0.936-2.745,2.909-2.177,4.829c0.346,1.17,1.139,2.333,2.026,3.199
		c6.499,6.349,13.075,12.618,19.621,18.917c8.517,8.196,17.067,16.358,25.521,24.618c2.608,2.548,4.949,5.371,7.413,8.068
		c0.163,0.04-0.124,0.454-0.431,0.854c-3.785,4.925-7.576,9.847-11.358,14.773c-1.795,2.339-1.635,4.745,0.489,6.697
		c19.275,17.726,38.559,35.442,57.838,53.162c0.385,0.353,0.757,0.718,1.414,1.343c-0.92,0-1.42,0-1.921,0
		c-5.937,0-11.874-0.057-17.808,0.051c-1.119,0.021-2.385,0.476-3.303,1.124c-1.584,1.119-1.987,3.187-1.329,5.019
		c0.674,1.875,2.374,2.985,4.714,2.988c10.156,0.012,20.312,0.017,30.47-0.002c3.146-0.006,4.956-1.858,4.962-5.071
		c0.018-9.831,0.014-19.663-0.008-29.495c-0.002-0.729-0.099-1.498-0.349-2.175c-0.755-2.046-2.917-3.229-5.018-2.849
		c-2.225,0.405-3.778,2.168-3.793,4.484c-0.034,5.844-0.013,11.688-0.013,17.531c0,0.484,0,0.969,0,1.867
		C136.301,123.867,117.487,106.649,98.628,89.39z"/>
	<path fill-rule="evenodd" clip-rule="evenodd" d="M16.012,178.698c0.81,0,1.447,0,2.084,0c56.342,0,112.685-0.001,169.027,0.009
		c0.781,0,1.587,0.027,2.342,0.209c2.3,0.553,3.676,2.642,3.4,5.035c-0.256,2.236-2.137,3.918-4.472,3.926
		c-5.611,0.018-11.222,0.005-16.833,0.005c-53.143,0.001-106.286-0.021-159.428,0.05c-3.541,0.004-5.345-2.381-5.343-5.27
		c0.047-54.44,0.034-108.881,0.036-163.323c0-3.353,1.917-5.431,4.855-5.287c2.187,0.107,3.957,1.695,4.256,3.871
		c0.088,0.639,0.071,1.294,0.071,1.942c0.003,52.169,0.003,104.338,0.003,156.507C16.012,177.065,16.012,177.759,16.012,178.698z"/>
	<path fill-rule="evenodd" clip-rule="evenodd" fill="#D0492E" d="M98.628,89.39c18.859,17.26,37.672,34.478,56.799,51.983
		c0-0.898,0-1.383,0-1.867c0-5.844-0.021-11.688,0.013-17.531c0.015-2.316,1.568-4.079,3.793-4.484
		c2.101-0.381,4.263,0.803,5.018,2.849c0.25,0.677,0.347,1.446,0.349,2.175c0.021,9.832,0.025,19.664,0.008,29.495
		c-0.006,3.213-1.816,5.065-4.962,5.071c-10.157,0.019-20.313,0.014-30.47,0.002c-2.34-0.003-4.04-1.113-4.714-2.988
		c-0.658-1.832-0.255-3.899,1.329-5.019c0.918-0.648,2.184-1.104,3.303-1.124c5.934-0.107,11.871-0.051,17.808-0.051
		c0.501,0,1.001,0,1.921,0c-0.657-0.625-1.029-0.99-1.414-1.343c-19.279-17.72-38.562-35.437-57.838-53.162
		c-2.124-1.952-2.284-4.358-0.489-6.697c3.782-4.927,7.573-9.848,11.358-14.773c0.307-0.4,0.594-0.814,0.431-0.854
		c-2.463-2.697-4.804-5.52-7.413-8.068c-8.454-8.26-17.004-16.422-25.521-24.618c-6.546-6.3-13.122-12.569-19.621-18.917
		c-0.887-0.866-1.68-2.029-2.026-3.199c-0.568-1.92,0.49-3.894,2.177-4.829c1.816-1.007,3.92-0.748,5.516,0.758
		c2.394,2.258,4.753,4.552,7.125,6.833c13.263,12.758,26.524,25.516,39.786,38.274c3.173,3.054,6.352,6.101,9.513,9.167
		c2.215,2.149,2.352,4.43,0.439,6.924c-3.779,4.929-7.566,9.853-11.347,14.782C99.222,88.539,98.967,88.917,98.628,89.39z"/>
</g>
</svg>
