<?xml version="1.0" encoding="utf-8"?>
<!-- Generator: Adobe Illustrator 16.0.4, SVG Export Plug-In . SVG Version: 6.00 Build 0)  -->
<!DOCTYPE svg PUBLIC "-//W3C//DTD SVG 1.1//EN" "http://www.w3.org/Graphics/SVG/1.1/DTD/svg11.dtd">
<svg version="1.1" id="Layer_1" xmlns="http://www.w3.org/2000/svg" xmlns:xlink="http://www.w3.org/1999/xlink" x="0px" y="0px"
	 width="200px" height="200px" viewBox="0 0 200 200" enable-background="new 0 0 200 200" xml:space="preserve">
<g>
	<path fill="#42B277" d="M16.081,176.775c0-0.939,0-1.633,0-2.326c0-52.169,0-104.337-0.002-156.506
		c0-0.648,0.017-1.303-0.071-1.942c-0.3-2.175-2.07-3.764-4.256-3.872c-2.938-0.144-4.855,1.935-4.856,5.288
		C6.893,71.857,6.906,126.299,6.859,180.74c-0.002,2.889,1.803,5.272,5.342,5.268c53.05-0.07,106.1-0.049,159.151-0.049
		c5.703,0,11.406,0.012,17.11-0.006c2.335-0.006,4.216-1.688,4.473-3.925c0.274-2.394-1.101-4.481-3.401-5.034
		c-0.754-0.182-1.559-0.211-2.341-0.211c-56.343-0.009-112.685-0.008-169.027-0.008C17.528,176.775,16.891,176.775,16.081,176.775z
		 M169.318,56.015c0,0.907,0,1.402,0,1.897c0,5.889-0.02,11.777,0.008,17.667c0.016,3.637,3.016,5.917,6.217,4.782
		c1.985-0.705,3.033-2.396,3.046-5.103c0.025-5.379,0.009-10.757,0.009-16.136c0-4.544,0.033-9.088-0.013-13.632
		c-0.036-3.565-1.796-5.256-5.345-5.257c-9.691-0.003-19.382-0.008-29.073,0.013c-0.774,0.001-1.593,0.07-2.313,0.326
		c-2.099,0.744-3.267,2.916-2.872,5.129c0.374,2.103,2.265,3.693,4.575,3.706c5.843,0.032,11.686,0.01,17.527,0.016
		c0.463,0.001,0.926,0.058,1.646,0.106c-17.425,19.039-34.621,37.828-51.868,56.672c-0.498-0.363-0.91-0.649-1.307-0.954
		c-5-3.838-9.99-7.688-15.001-11.512c-2.089-1.595-4.597-1.408-6.405,0.461c-3.609,3.73-7.196,7.482-10.795,11.222
		c-12.755,13.26-25.512,26.518-38.268,39.776c-1.8,1.87-3.615,3.726-5.394,5.614c-1.472,1.564-1.76,3.566-0.839,5.394
		c0.885,1.755,2.689,2.677,4.746,2.425c1.6-0.195,2.614-1.287,3.647-2.363c5.809-6.051,11.623-12.097,17.437-18.143
		c6.938-7.217,13.875-14.435,20.819-21.645c4.176-4.336,8.366-8.659,12.596-13.036c0.463,0.333,0.879,0.617,1.278,0.923
		c4.779,3.669,9.557,7.34,14.333,11.013c2.99,2.301,5.074,2.146,7.605-0.606c12.892-14.019,25.779-28.041,38.668-42.062
		C158.997,67.249,164.01,61.791,169.318,56.015z"/>
	<path fill-rule="evenodd" clip-rule="evenodd" d="M16.081,176.775c0.81,0,1.448,0,2.084,0c56.343,0,112.685-0.001,169.027,0.008
		c0.782,0,1.587,0.029,2.341,0.211c2.301,0.553,3.676,2.641,3.401,5.034c-0.257,2.237-2.138,3.919-4.473,3.925
		c-5.704,0.018-11.407,0.006-17.11,0.006c-53.051,0-106.101-0.021-159.151,0.049c-3.539,0.005-5.344-2.379-5.342-5.268
		C6.906,126.299,6.893,71.857,6.895,17.417c0-3.353,1.917-5.431,4.856-5.288c2.186,0.107,3.957,1.696,4.256,3.872
		c0.088,0.639,0.071,1.294,0.071,1.942c0.003,52.169,0.002,104.337,0.002,156.506C16.081,175.143,16.081,175.836,16.081,176.775z"/>
	<path fill-rule="evenodd" clip-rule="evenodd" fill="#42B277" d="M169.318,56.015c-5.309,5.776-10.321,11.234-15.336,16.69
		c-12.889,14.021-25.776,28.044-38.668,42.062c-2.531,2.752-4.615,2.907-7.605,0.606c-4.776-3.673-9.555-7.344-14.333-11.013
		c-0.399-0.306-0.815-0.59-1.278-0.923c-4.23,4.377-8.42,8.7-12.596,13.036c-6.944,7.21-13.88,14.428-20.819,21.645
		c-5.813,6.046-11.627,12.092-17.437,18.143c-1.033,1.076-2.047,2.168-3.647,2.363c-2.057,0.252-3.861-0.67-4.746-2.425
		c-0.92-1.827-0.633-3.829,0.839-5.394c1.778-1.889,3.594-3.744,5.394-5.614c12.756-13.259,25.513-26.517,38.268-39.776
		c3.599-3.74,7.186-7.492,10.795-11.222c1.808-1.869,4.315-2.056,6.405-0.461c5.011,3.824,10.001,7.674,15.001,11.512
		c0.396,0.305,0.809,0.591,1.307,0.954c17.247-18.845,34.443-37.633,51.868-56.672c-0.72-0.048-1.183-0.105-1.646-0.106
		c-5.842-0.006-11.685,0.017-17.527-0.016c-2.311-0.013-4.201-1.603-4.575-3.706c-0.395-2.214,0.773-4.386,2.872-5.129
		c0.721-0.255,1.539-0.324,2.313-0.326c9.691-0.021,19.382-0.016,29.073-0.013c3.549,0.001,5.309,1.692,5.345,5.257
		c0.046,4.544,0.013,9.088,0.013,13.632c0,5.379,0.017,10.757-0.009,16.136c-0.013,2.708-1.061,4.398-3.046,5.103
		c-3.201,1.135-6.201-1.145-6.217-4.782c-0.027-5.889-0.008-11.778-0.008-17.667C169.318,57.417,169.318,56.921,169.318,56.015z"/>
</g>
</svg>
