<?xml version="1.0" encoding="utf-8"?>
<!-- Generator: Adobe Illustrator 16.0.0, SVG Export Plug-In . SVG Version: 6.00 Build 0)  -->
<!DOCTYPE svg PUBLIC "-//W3C//DTD SVG 1.1//EN" "http://www.w3.org/Graphics/SVG/1.1/DTD/svg11.dtd">
<svg version="1.1" id="Layer_1" xmlns="http://www.w3.org/2000/svg" xmlns:xlink="http://www.w3.org/1999/xlink" x="0px" y="0px"
	 width="310.774px" height="113.79px" viewBox="0 0 310.774 113.79" enable-background="new 0 0 310.774 113.79"
	 xml:space="preserve">
<g>
	<path fill-rule="evenodd" clip-rule="evenodd" fill="#0A5BAD" d="M69.042,78.609c0-1.021,0-1.879,0-2.737
		c0-10.29,0.041-20.58-0.043-30.869c-0.013-1.541-0.333-3.211-0.998-4.588c-1.415-2.933-4.847-4.431-7.826-3.756
		c-3.343,0.758-5.728,3.445-6.059,6.873c-0.069,0.711-0.032,1.434-0.032,2.152c-0.001,10.05,0,20.101,0,30.151
		c0,0.859,0,1.719,0,2.51c-2.072,0.545-16.868,0.613-19.553,0.086c0-0.859,0-1.787,0-2.717c0-10.21-0.011-20.42,0.01-30.63
		c0.004-1.793-0.243-3.498-1.224-5.03c-1.715-2.681-4.938-4.021-7.85-3.285c-3.309,0.836-5.575,3.432-5.861,6.747
		c-0.055,0.634-0.027,1.275-0.027,1.914c-0.001,7.258-0.001,14.518-0.001,21.775c0,0.863,0,1.727,0,2.912
		C9.565,66.666,3.017,60.233,0.823,50.178C-1.629,38.94,1.812,29.3,11.173,22.562c10.955-7.886,22.204-6.918,33.194,0.611
		c0.712-0.488,1.421-0.995,2.152-1.469c15.87-10.276,36.797-2.016,41.191,16.179c0.427,1.768,0.722,3.615,0.733,5.428
		c0.067,11.167,0.037,22.334,0.032,33.501c0,0.542-0.058,1.085-0.099,1.797C81.987,78.609,75.727,78.609,69.042,78.609z"/>
	<path fill-rule="evenodd" clip-rule="evenodd" fill="#0A5BAD" d="M158.057,48.005c0.357,17.25-14.53,30.687-30.925,30.752
		c-16.699,0.067-31.047-14.054-30.898-31.069c0.135-15.509,12.844-30.7,31.156-30.603C145.272,17.181,158.556,31.854,158.057,48.005
		z M127.099,36.877c-5.301-0.241-10.981,4.207-11.134,11.051c-0.135,6.013,5.313,11.252,11.352,11.199
		c5.964-0.053,11.135-5.227,11.121-11.178C138.423,41.979,133.337,36.604,127.099,36.877z"/>
	<path fill-rule="evenodd" clip-rule="evenodd" fill="#0A5BAD" d="M242.343,18.152c6.713,0,13.14,0,19.714,0
		c0.055,0.61,0.145,1.143,0.145,1.676c0.002,10.289,0.061,20.578-0.047,30.866c-0.043,4.223-0.447,8.45-2.262,12.37
		c-4.504,9.732-12.238,14.792-22.831,15.567c-7.687,0.563-14.492-1.72-20.294-6.788c-5.041-4.404-8.056-10.1-8.314-16.684
		c-0.473-12.025-0.342-24.074-0.457-36.112c-0.001-0.228,0.092-0.456,0.174-0.839c6.414,0,12.83,0,19.516,0
		c0.035,0.809,0.103,1.651,0.104,2.494c0.008,9.332-0.021,18.663,0.027,27.995c0.01,1.742,0.16,3.517,0.525,5.215
		c0.75,3.476,3.148,5.331,6.622,5.374c3.75,0.049,6.028-1.631,6.896-5.276c0.328-1.377,0.457-2.833,0.463-4.253
		c0.039-9.571,0.021-19.142,0.021-28.712C242.343,20.171,242.343,19.299,242.343,18.152z"/>
	<path fill-rule="evenodd" clip-rule="evenodd" fill="#0A5BAD" d="M196.543,37.921c-3.648,0-7.12,0-10.717,0
		c-0.088,0.829-0.207,1.439-0.209,2.051c-0.016,3.667-0.025,7.334,0.013,11c0.011,0.947,0.102,1.917,0.33,2.832
		c0.874,3.501,3.048,5.254,6.636,5.401c1.259,0.053,2.521,0.009,3.938,0.009c0,6.49,0,12.812,0,19.287
		c-8.44,0.96-15.898-1.013-22.154-6.73c-5.032-4.6-7.869-10.353-8.196-17.226c-0.197-4.135-0.397-8.274-0.415-12.412
		c-0.053-13.153-0.02-26.307-0.02-39.46c0-0.856,0-1.711,0-2.673c6.69,0,13.113,0,19.802,0c0,5.9,0,11.759,0,17.924
		c3.767,0.28,7.323-0.008,10.993,0.186C196.543,24.684,196.543,31.104,196.543,37.921z"/>
	<path fill-rule="evenodd" clip-rule="evenodd" fill="#0A5BAD" d="M310.774,37.316c-0.979,0.043-1.844,0.065-2.705,0.123
		c-3.465,0.234-5.771,1.923-6.476,5.309c-0.596,2.866-0.848,5.827-0.983,8.758c-0.151,3.272-0.291,6.534-1.294,9.668
		c-2.998,9.37-9.654,14.69-19.014,16.92c-3.04,0.725-6.138,0.746-9.58,0.558c-0.081-6.662-0.021-13.219-0.043-19.852
		c1.16-0.208,2.088-0.386,3.02-0.537c3.805-0.621,5.722-2.231,6.421-6.033c0.544-2.959,0.589-6.008,0.967-9.003
		c0.349-2.755,0.602-5.557,1.32-8.224c2.454-9.112,8.943-14.189,17.593-16.874c3.441-1.067,7.002-1.363,10.774-0.867
		C310.774,23.886,310.774,30.46,310.774,37.316z"/>
	<path fill-rule="evenodd" clip-rule="evenodd" fill="#4D4D4D" d="M19.544,70.838c0,2.809,0,5.334,0,8.014
		c-6.426,0-12.753,0-19.081-0.001c-0.487-1.698-0.635-10.171-0.225-15.013C5.848,68.5,12.245,70.665,19.544,70.838z"/>
</g>
<path fill="#4D4D4D" d="M131.295,99.629c0-2.21-1.79-4-4-4h-19.83v18.16h3v-5.39h16.97c2.2,0,4-1.79,4-4.001L131.295,99.629z
	 M128.375,105.459h-17.91v-6.67h17.91V105.459z"/>
<path fill="none" stroke="#308E6C" stroke-miterlimit="10" d="M107.465,95.629"/>
<path fill="none" stroke="#308E6C" stroke-miterlimit="10" d="M110.465,108.4"/>
<path fill="#4D4D4D" d="M162.215,106.549c0.85-0.73,1.39-1.82,1.39-3.029v-4c0-2.211-1.79-4-3.999-4h-20.061v18.189l3.33,0.08v-5.41
	h17.84v5.41h3v-4.08C163.725,108.049,162.975,107.089,162.215,106.549z M160.378,105.459h-17.917v-6.666h17.917V105.459z"/>
<path fill="none" stroke="#308E6C" stroke-miterlimit="10" d="M139.545,95.52"/>
<path fill="#4D4D4D" d="M192.294,95.709h-15.916c-2.209,0-4,1.791-4,4v10c0,2.209,1.791,3.999,4,3.999h15.916
	c2.209,0,4-1.79,4-3.999v-10C196.294,97.5,194.503,95.709,192.294,95.709z M193.378,110.875h-17.917V98.793h17.917V110.875z"/>
<path fill="none" stroke="#308E6C" stroke-miterlimit="10" d="M110.465,108.4"/>
<path fill="none" stroke="#308E6C" stroke-miterlimit="10" d="M107.465,95.629"/>
<path fill="none" stroke="#308E6C" stroke-miterlimit="10" d="M162.215,106.549"/>
<path fill="none" stroke="#308E6C" stroke-miterlimit="10" d="M139.545,95.52"/>
<polygon fill="#4D4D4D" points="212.295,95.584 203.233,95.584 203.233,97.209 207.045,97.209 207.045,101.772 208.608,101.772 
	208.608,97.209 212.295,97.209 "/>
<path fill="#308E6C" d="M219.045,100.149l-0.07,1.551c-0.01,0-0.02,0-0.029,0.01c-0.021,0-0.04,0-0.061-0.01
	c-0.02,0.01-0.04,0.01-0.06,0.01h-0.03v-0.01l-0.06-1.551c0.05,0.011,0.1,0,0.159-0.01
	C218.946,100.149,218.996,100.149,219.045,100.149z"/>
<path fill="#4D4D4D" d="M224.015,96.899c-0.038-1.396-1.723-2.04-2.51-0.852c-0.779,1.176-1.269,2.544-2.12,3.691
	c-0.18,0.24-0.34,0.361-0.49,0.4c-0.159-0.039-0.33-0.15-0.51-0.4c-0.485-0.653-0.877-1.385-1.275-2.093
	c-0.434-0.771-0.624-2.04-1.646-2.228c-1.029-0.189-1.682,0.486-1.708,1.48c-0.06,2.25,0,4.681,0,4.681h1.35v-4.56l2.78,4.189
	c0,0,0.101,0.439,0.91,0.49c0.01,0,0.02,0,0.03,0.01c0.02,0,0.04,0,0.06-0.01c0.021,0.01,0.04,0.01,0.061,0.01
	c0,0,0.029,0,0.029-0.01c0.811-0.051,0.91-0.49,0.91-0.49l2.78-4.189v4.56h1.35C224.015,101.58,224.076,99.15,224.015,96.899z"/>
</svg>
