<?xml version="1.0" encoding="utf-8"?>
<!-- Generator: Adobe Illustrator 16.0.4, SVG Export Plug-In . SVG Version: 6.00 Build 0)  -->
<!DOCTYPE svg PUBLIC "-//W3C//DTD SVG 1.1//EN" "http://www.w3.org/Graphics/SVG/1.1/DTD/svg11.dtd">
<svg version="1.1" id="Layer_1" xmlns="http://www.w3.org/2000/svg" xmlns:xlink="http://www.w3.org/1999/xlink" x="0px" y="0px"
	 width="200px" height="200px" viewBox="0 0 200 200" enable-background="new 0 0 200 200" xml:space="preserve">
<g>
	<path fill-rule="evenodd" clip-rule="evenodd" fill="#42B277" d="M661.481,472.924c0-32.619,26.459-59.014,59.131-59.028
		c31.897-0.015,58.954,25.827,58.927,59.084c-0.026,33.154-27.16,59.217-59.744,59.001
		C687.908,531.771,661.48,505.179,661.481,472.924z M669.273,472.896c0,28.134,23.047,51.268,51.119,51.242
		c28.902-0.025,50.78-23.438,51.334-50.158c0.58-28.017-22.069-52.217-51.155-52.287
		C692.403,421.627,669.274,444.715,669.273,472.896z"/>
	<path fill-rule="evenodd" clip-rule="evenodd" d="M606.018,412.721c2.321,7.521,4.602,14.898,6.876,22.279
		c3.515,11.411,7.028,22.824,10.536,34.238c0.885,2.878-0.073,5.143-2.471,5.897c-2.617,0.825-4.984-0.515-5.869-3.381
		c-6.25-20.253-12.494-40.509-18.729-60.768c-1.006-3.27,0.527-5.565,4.006-6.171c13.473-2.349,26.09-6.99,37.69-14.267
		c8.835-5.541,16.308-12.511,21.919-21.373c0.262-0.413,0.498-0.841,0.581-0.984c-2.972-0.263-6.014-0.216-8.905-0.847
		c-7.389-1.614-12.355-7.418-13.544-15.336c-1.497-9.979,5.675-20.356,15.507-22.438c9.262-1.961,18.778,3.703,22.01,13.055
		c1.816,5.256,1.065,10.441-0.425,15.572c-2.712,9.336-7.693,17.429-14.056,24.682c-13.137,14.977-29.756,24.035-49.002,28.55
		C610.163,411.895,608.163,412.271,606.018,412.721z M657.248,359.171c6.153,0.013,10.609-4.502,10.629-10.763
		c0.016-5.541-4.906-10.461-10.483-10.478c-6.067-0.019-10.829,4.66-10.845,10.653C646.533,354.916,650.822,359.158,657.248,359.171
		z"/>
	<path fill-rule="evenodd" clip-rule="evenodd" d="M579.462,531.959c0.035-13.18,2.966-24.184,10.437-33.699
		c6.557-8.351,15.269-13.603,25.068-17.302c3.584-1.353,7.268-2.622,10.561-4.527c9.071-5.253,13.211-13.505,13.661-23.825
		c0.245-5.631-1.411-10.891-2.889-16.197c-1.403-5.039-2.822-10.074-4.196-15.121c-0.571-2.1,0.338-4.119,2.176-5.066
		c1.82-0.938,4.096-0.473,5.395,1.158c0.338,0.424,0.631,0.938,0.775,1.457c2.24,8.073,4.902,16.062,6.57,24.254
		c2.642,12.974,0.105,24.898-9.234,34.817c-4.75,5.042-10.697,8.202-17.211,10.351c-7.156,2.361-13.81,5.634-19.439,10.732
		c-6.982,6.322-10.939,14.262-12.326,23.518c-1.355,9.052-0.399,17.923,2.222,26.65c0.64,2.133,0.052,4.018-1.606,5.165
		c-2.545,1.763-5.801,0.723-6.618-2.427c-1.161-4.471-2.071-9.016-2.86-13.569C579.513,535.831,579.551,533.252,579.462,531.959z"/>
	<path fill-rule="evenodd" clip-rule="evenodd" d="M608.94,353.697c11.45,0.043,20.483,9.252,20.446,20.84
		c-0.035,11.234-9.375,20.211-20.979,20.162c-10.992-0.045-20.09-9.448-20.023-20.693
		C588.451,362.77,597.677,353.654,608.94,353.697z M608.866,362.619c-6.343,0.018-11.644,5.348-11.567,11.629
		c0.076,6.373,5.356,11.597,11.671,11.545c6.259-0.051,11.485-5.307,11.511-11.574C620.506,367.919,615.182,362.602,608.866,362.619
		z"/>
	<path fill-rule="evenodd" clip-rule="evenodd" d="M687.037,554.094c-0.023,3.408-3.557,5.289-6.785,3.558
		c-6.875-3.687-13.389-7.937-19.52-12.763c-13.866-10.918-25.26-23.942-33.497-39.613c-1.374-2.614-2.555-5.346-3.631-8.099
		c-0.911-2.331,0.298-4.748,2.522-5.562c2.268-0.83,4.627,0.208,5.585,2.525c4.828,11.668,11.969,21.811,20.499,31.024
		c9.34,10.089,20.162,18.272,32.219,24.85C686.254,551.01,687.049,552.266,687.037,554.094z"/>
	<path fill-rule="evenodd" clip-rule="evenodd" d="M546.065,445.332c-0.88,0-1.778,0.117-2.635-0.022
		c-2.187-0.355-3.761-2.48-3.544-4.634c0.23-2.293,2.025-3.924,4.422-3.951c14.13-0.163,26.517-5.021,37.347-13.963
		c2.135-1.764,4.093-3.76,5.996-5.777c1.937-2.055,4.464-2.488,6.398-0.877c1.983,1.655,2.146,4.367,0.267,6.538
		c-5.152,5.946-11.279,10.688-18.148,14.489C566.801,442.318,556.762,445.052,546.065,445.332z"/>
	<path fill-rule="evenodd" clip-rule="evenodd" fill="#42B277" d="M711.525,484.29c0.53-0.708,0.791-1.161,1.148-1.52
		c9.664-9.68,19.34-19.349,29.009-29.025c1.144-1.145,2.456-1.614,4.042-1.14c1.527,0.457,2.416,1.518,2.723,3.043
		c0.303,1.498-0.297,2.709-1.347,3.752c-2.302,2.287-4.592,4.588-6.888,6.883c-8.459,8.46-16.918,16.921-25.379,25.379
		c-2.341,2.34-4.392,2.349-6.707,0.035c-4.787-4.786-9.582-9.567-14.355-14.367c-1.373-1.379-1.627-3.295-0.723-4.839
		c0.895-1.528,2.684-2.31,4.428-1.746c0.754,0.243,1.484,0.763,2.059,1.326c3.605,3.542,7.167,7.129,10.733,10.71
		C710.627,483.141,710.923,483.562,711.525,484.29z"/>
</g>
<g>
	<path fill-rule="evenodd" clip-rule="evenodd" fill="#D0492E" d="M85.955,172.66c-21.282,0-42.564,0.001-63.845-0.001
		c-2.568,0-4.427-1.295-5.042-3.534c-0.387-1.408-0.106-2.716,0.6-3.99c3.758-6.789,7.491-13.593,11.232-20.393
		c17.539-31.878,35.081-63.753,52.606-95.638c1.001-1.822,2.404-2.945,4.519-2.93c2.07,0.014,3.452,1.119,4.435,2.907
		c21.252,38.655,42.521,77.301,63.785,115.95c2.148,3.907-0.067,7.628-4.54,7.628C128.453,172.66,107.205,172.66,85.955,172.66z
		 M142.116,162.965c-18.724-34.027-37.392-67.953-56.129-102.004c-18.768,34.111-37.429,68.028-56.124,102.004
		C67.335,162.965,104.652,162.965,142.116,162.965z"/>
	<path fill-rule="evenodd" clip-rule="evenodd" d="M147.231,92.588c12.458,0,24.694,0,36.987,0c0,3.687,0,7.284,0,10.957
		c-17.486,0-34.976,0-52.544,0c-0.025-0.203-0.082-0.444-0.083-0.686c-0.006-2.676-0.031-5.353,0.023-8.027
		c0.01-0.446,0.282-0.983,0.604-1.31c3.318-3.384,6.696-6.709,10.008-10.098c5.902-6.039,11.81-12.074,17.634-18.188
		c3.165-3.322,5.993-6.925,7.721-11.25c1.244-3.113,1.695-6.356,1.115-9.668c-0.855-4.88-4.309-8.038-9.241-8.612
		c-5.327-0.62-10.239,0.632-14.781,3.38c-2.005,1.214-3.909,2.597-5.962,3.97c-2.193-2.674-4.43-5.401-6.706-8.178
		c4.692-3.93,9.685-7.166,15.611-8.708c6.781-1.765,13.597-2.034,20.282,0.287c9.174,3.185,14.174,10.615,13.634,20.753
		c-0.388,7.258-3.506,13.378-8.097,18.721c-3.856,4.488-8.102,8.65-12.288,12.843c-4.394,4.4-8.924,8.665-13.388,12.997
		C147.58,91.949,147.477,92.204,147.231,92.588z"/>
	<path fill-rule="evenodd" clip-rule="evenodd" fill="#D0492E" d="M92.023,112.301c0,5.737,0.021,11.474-0.01,17.209
		c-0.013,2.454-1.078,4.366-3.31,5.476c-2.173,1.08-4.324,0.904-6.292-0.522c-1.548-1.122-2.407-2.682-2.409-4.618
		c-0.013-11.666-0.02-23.333,0.002-34.998c0.005-3.216,2.661-5.756,5.915-5.768c3.403-0.013,6.033,2.496,6.09,5.917
		c0.055,3.318,0.013,6.639,0.013,9.957C92.023,107.403,92.023,109.853,92.023,112.301z"/>
	<path fill-rule="evenodd" clip-rule="evenodd" fill="#D0492E" d="M92.314,148.105c0.021,3.562-2.793,6.401-6.343,6.399
		c-3.477-0.001-6.321-2.847-6.33-6.335c-0.008-3.497,2.806-6.322,6.312-6.338C89.478,141.816,92.294,144.595,92.314,148.105z"/>
</g>
</svg>
