<?xml version="1.0" encoding="utf-8"?>
<!-- Generator: Adobe Illustrator 16.0.4, SVG Export Plug-In . SVG Version: 6.00 Build 0)  -->
<!DOCTYPE svg PUBLIC "-//W3C//DTD SVG 1.1//EN" "http://www.w3.org/Graphics/SVG/1.1/DTD/svg11.dtd">
<svg version="1.1" id="Layer_1" xmlns="http://www.w3.org/2000/svg" xmlns:xlink="http://www.w3.org/1999/xlink" x="0px" y="0px"
	 width="200px" height="200px" viewBox="0 0 200 200" enable-background="new 0 0 200 200" xml:space="preserve">
<g>
	<path fill-rule="evenodd" clip-rule="evenodd" fill="#42B277" d="M661.481,472.924c0-32.619,26.459-59.014,59.131-59.028
		c31.897-0.015,58.954,25.827,58.927,59.084c-0.026,33.154-27.16,59.217-59.744,59.001
		C687.908,531.771,661.48,505.179,661.481,472.924z M669.273,472.896c0,28.134,23.047,51.268,51.119,51.242
		c28.902-0.025,50.78-23.438,51.334-50.158c0.58-28.017-22.069-52.217-51.155-52.287
		C692.403,421.627,669.274,444.715,669.273,472.896z"/>
	<path fill-rule="evenodd" clip-rule="evenodd" d="M606.018,412.721c2.321,7.521,4.602,14.898,6.876,22.279
		c3.515,11.411,7.028,22.824,10.536,34.238c0.885,2.878-0.073,5.143-2.471,5.897c-2.617,0.825-4.984-0.515-5.869-3.381
		c-6.25-20.253-12.494-40.509-18.729-60.768c-1.006-3.27,0.527-5.565,4.006-6.171c13.473-2.349,26.09-6.99,37.69-14.267
		c8.835-5.541,16.308-12.511,21.919-21.373c0.262-0.413,0.498-0.841,0.581-0.984c-2.972-0.263-6.014-0.216-8.905-0.847
		c-7.389-1.614-12.355-7.418-13.544-15.336c-1.497-9.979,5.675-20.356,15.507-22.438c9.262-1.961,18.778,3.703,22.01,13.055
		c1.816,5.256,1.065,10.441-0.425,15.572c-2.712,9.336-7.693,17.429-14.056,24.682c-13.137,14.977-29.756,24.035-49.002,28.55
		C610.163,411.895,608.163,412.271,606.018,412.721z M657.248,359.171c6.153,0.013,10.609-4.502,10.629-10.763
		c0.016-5.541-4.906-10.461-10.483-10.478c-6.067-0.019-10.829,4.66-10.845,10.653C646.533,354.916,650.822,359.158,657.248,359.171
		z"/>
	<path fill-rule="evenodd" clip-rule="evenodd" d="M579.462,531.959c0.035-13.18,2.966-24.184,10.437-33.699
		c6.557-8.351,15.269-13.603,25.068-17.302c3.584-1.353,7.268-2.622,10.561-4.527c9.071-5.253,13.211-13.505,13.661-23.825
		c0.245-5.631-1.411-10.891-2.889-16.197c-1.403-5.039-2.822-10.074-4.196-15.121c-0.571-2.1,0.338-4.119,2.176-5.066
		c1.82-0.938,4.096-0.473,5.395,1.158c0.338,0.424,0.631,0.938,0.775,1.457c2.24,8.073,4.902,16.062,6.57,24.254
		c2.642,12.974,0.105,24.898-9.234,34.817c-4.75,5.042-10.697,8.202-17.211,10.351c-7.156,2.361-13.81,5.634-19.439,10.732
		c-6.982,6.322-10.939,14.262-12.326,23.518c-1.355,9.052-0.399,17.923,2.222,26.65c0.64,2.133,0.052,4.018-1.606,5.165
		c-2.545,1.763-5.801,0.723-6.618-2.427c-1.161-4.471-2.071-9.016-2.86-13.569C579.513,535.831,579.551,533.252,579.462,531.959z"/>
	<path fill-rule="evenodd" clip-rule="evenodd" d="M608.94,353.697c11.45,0.043,20.483,9.252,20.446,20.84
		c-0.035,11.234-9.375,20.211-20.979,20.162c-10.992-0.045-20.09-9.448-20.023-20.693
		C588.451,362.77,597.677,353.654,608.94,353.697z M608.866,362.619c-6.343,0.018-11.644,5.348-11.567,11.629
		c0.076,6.373,5.356,11.597,11.671,11.545c6.259-0.051,11.485-5.307,11.511-11.574C620.506,367.919,615.182,362.602,608.866,362.619
		z"/>
	<path fill-rule="evenodd" clip-rule="evenodd" d="M687.037,554.094c-0.023,3.408-3.557,5.289-6.785,3.558
		c-6.875-3.687-13.389-7.937-19.52-12.763c-13.866-10.918-25.26-23.942-33.497-39.613c-1.374-2.614-2.555-5.346-3.631-8.099
		c-0.911-2.331,0.298-4.748,2.522-5.562c2.268-0.83,4.627,0.208,5.585,2.525c4.828,11.668,11.969,21.811,20.499,31.024
		c9.34,10.089,20.162,18.272,32.219,24.85C686.254,551.01,687.049,552.266,687.037,554.094z"/>
	<path fill-rule="evenodd" clip-rule="evenodd" d="M546.065,445.332c-0.88,0-1.778,0.117-2.635-0.022
		c-2.187-0.355-3.761-2.48-3.544-4.634c0.23-2.293,2.025-3.924,4.422-3.951c14.13-0.163,26.517-5.021,37.347-13.963
		c2.135-1.764,4.093-3.76,5.996-5.777c1.937-2.055,4.464-2.488,6.398-0.877c1.983,1.655,2.146,4.367,0.267,6.538
		c-5.152,5.946-11.279,10.688-18.148,14.489C566.801,442.318,556.762,445.052,546.065,445.332z"/>
	<path fill-rule="evenodd" clip-rule="evenodd" fill="#42B277" d="M711.525,484.29c0.53-0.708,0.791-1.161,1.148-1.52
		c9.664-9.68,19.34-19.349,29.009-29.025c1.144-1.145,2.456-1.614,4.042-1.14c1.527,0.457,2.416,1.518,2.723,3.043
		c0.303,1.498-0.297,2.709-1.347,3.752c-2.302,2.287-4.592,4.588-6.888,6.883c-8.459,8.46-16.918,16.921-25.379,25.379
		c-2.341,2.34-4.392,2.349-6.707,0.035c-4.787-4.786-9.582-9.567-14.355-14.367c-1.373-1.379-1.627-3.295-0.723-4.839
		c0.895-1.528,2.684-2.31,4.428-1.746c0.754,0.243,1.484,0.763,2.059,1.326c3.605,3.542,7.167,7.129,10.733,10.71
		C710.627,483.141,710.923,483.562,711.525,484.29z"/>
</g>
<g>
	<path fill-rule="evenodd" clip-rule="evenodd" fill="#D0492E" d="M100.303,173.321c-21.282,0-42.564,0.001-63.846-0.001
		c-2.627,0-4.511-1.307-5.107-3.577c-0.371-1.41-0.068-2.714,0.636-3.987c4.178-7.551,8.329-15.117,12.489-22.678
		C61.577,111.989,78.695,80.91,95.76,49.8c1.687-3.075,4.967-3.712,7.139-2.167c0.753,0.536,1.396,1.348,1.848,2.167
		c10.629,19.253,21.225,38.525,31.826,57.792c10.68,19.408,21.361,38.814,32.038,58.224c1.625,2.957,0.518,6.227-2.471,7.202
		c-0.688,0.225-1.455,0.29-2.186,0.291C142.736,173.324,121.52,173.321,100.303,173.321z M156.429,163.656
		c-18.743-34.065-37.407-67.983-56.145-102.035c-18.754,34.087-37.423,68.018-56.14,102.035
		C81.636,163.656,118.938,163.656,156.429,163.656z"/>
	<path fill-rule="evenodd" clip-rule="evenodd" d="M146.055,40.534c-4.793,3.961-9.677,7.998-14.628,12.091
		c-2.149-2.713-4.22-5.328-6.331-7.993c3.016-2.371,5.949-4.681,8.886-6.987c4.458-3.503,8.916-7.009,13.384-10.501
		c0.262-0.205,0.61-0.421,0.922-0.423c3.317-0.03,6.634-0.019,10.031-0.019c0,25.842,0,51.64,0,77.51c-4.074,0-8.184,0-12.264,0
		C146.055,82.948,146.055,61.669,146.055,40.534z"/>
	<path fill-rule="evenodd" clip-rule="evenodd" fill="#D0492E" d="M94.293,113.04c0-5.704-0.002-11.408,0.001-17.112
		c0.001-3.555,2.493-6.168,5.89-6.188c3.535-0.02,6.127,2.559,6.131,6.174c0.016,11.408,0.015,22.816,0,34.225
		c-0.004,3.257-2.192,5.743-5.298,6.109c-3.101,0.367-5.839-1.52-6.573-4.565c-0.127-0.523-0.144-1.083-0.146-1.626
		C94.289,124.384,94.293,118.712,94.293,113.04z"/>
	<path fill-rule="evenodd" clip-rule="evenodd" fill="#D0492E" d="M106.611,148.8c0.005,3.561-2.824,6.384-6.377,6.366
		c-3.475-0.018-6.303-2.878-6.296-6.368c0.008-3.496,2.837-6.307,6.346-6.305C103.809,142.496,106.606,145.284,106.611,148.8z"/>
</g>
</svg>
