<?xml version="1.0" encoding="utf-8"?>
<!-- Generator: Adobe Illustrator 16.0.4, SVG Export Plug-In . SVG Version: 6.00 Build 0)  -->
<!DOCTYPE svg PUBLIC "-//W3C//DTD SVG 1.1//EN" "http://www.w3.org/Graphics/SVG/1.1/DTD/svg11.dtd">
<svg version="1.1" id="Layer_1" xmlns="http://www.w3.org/2000/svg" xmlns:xlink="http://www.w3.org/1999/xlink" x="0px" y="0px"
	 width="200px" height="200px" viewBox="0 0 200 200" enable-background="new 0 0 200 200" xml:space="preserve">
<g>
	<path fill="#D0492E" d="M102.064,123.266c0-26.083,21.166-47.206,47.302-47.201c25.957,0.005,47.129,21.125,47.134,47.151
		c0.005,26.563-21.697,47.472-47.805,47.298C123.195,170.342,102.064,149.07,102.064,123.266z M108.296,123.247
		c0,22.506,18.431,41.011,40.88,40.993c23.107-0.018,40.621-18.727,41.067-40.112c0.468-22.403-17.638-41.765-40.909-41.83
		C126.812,82.235,108.298,100.71,108.296,123.247z"/>
	<path fill="#D0492E" d="M153.57,123.107c3.812,3.811,7.346,7.354,10.894,10.883c0.804,0.8,1.331,1.701,1.188,2.865
		c-0.153,1.242-0.828,2.151-2.006,2.582c-1.16,0.424-2.295,0.267-3.209-0.61c-1.604-1.542-3.17-3.125-4.744-4.697
		c-2.121-2.114-4.236-4.237-6.473-6.475c-1.132,1.172-2.197,2.303-3.293,3.403c-2.511,2.525-5.023,5.049-7.559,7.551
		c-1.112,1.1-2.525,1.33-3.77,0.701c-1.199-0.607-1.906-1.83-1.613-3.234c0.147-0.71,0.582-1.452,1.095-1.977
		c3.239-3.316,6.534-6.58,9.821-9.852c0.285-0.286,0.639-0.505,1.031-0.811c-0.42-0.446-0.683-0.744-0.961-1.022
		c-3.25-3.255-6.522-6.488-9.738-9.776c-0.545-0.559-1.031-1.299-1.23-2.039c-0.359-1.352,0.329-2.675,1.473-3.312
		c1.287-0.716,2.719-0.53,3.871,0.606c2.98,2.944,5.938,5.916,8.895,8.888c0.654,0.655,1.271,1.349,1.959,2.085
		c0.387-0.355,0.681-0.61,0.953-0.885c3.308-3.303,6.609-6.609,9.916-9.912c1.49-1.487,3.303-1.606,4.635-0.317
		c1.365,1.321,1.303,3.218-0.199,4.728c-3.27,3.287-6.551,6.563-9.839,9.832C154.381,122.598,154.008,122.795,153.57,123.107z"/>
	<g>
		<path fill-rule="evenodd" clip-rule="evenodd" d="M119.722,182.33c-0.567-0.473-1.276-0.778-1.934-1.137
			c-19.125-10.428-32.857-25.719-40.732-46.012c-3.221-8.301-5.663-16.91-8.332-25.419c-3.588-11.437-7.052-22.913-10.629-34.566
			c0.947-0.246,1.752-0.387,2.509-0.661c6.961-2.523,14.212-4.467,20.81-7.73c14.848-7.343,25.673-18.595,30.478-34.853
			c0.819-2.77,1.298-5.719,1.398-8.604c0.134-3.812-2.921-6.871-6.652-7.257c-3.74-0.388-7.121,2.004-8.076,5.714
			c-1.081,4.203,1.231,7.699,6.471,9.473c-0.305,0.836-0.545,1.535-0.813,2.222c-5.166,13.153-14.883,21.894-27.253,28.037
			c-7.373,3.662-15.215,5.899-23.25,7.548c-2.808,0.576-3.724,2.157-3.016,4.926c0.148,0.581,0.326,1.154,0.503,1.727
			c5.808,18.838,11.363,37.759,17.49,56.493c7.926,24.229,23.249,42.531,45.622,54.854c0.784,0.432,1.593,0.879,2.445,1.113
			c1.643,0.451,3.021-0.119,3.807-1.62C121.387,185.009,121.118,183.492,119.722,182.33z"/>
		<path fill-rule="evenodd" clip-rule="evenodd" d="M60.27,61.16c8.84,0,15.91-7.02,15.93-15.82c0.02-8.92-7.15-16.07-16.02-16
			c-8.79,0.06-15.89,7.21-15.86,15.97C44.35,54.09,51.46,61.16,60.27,61.16z M60.21,36.27c4.92-0.03,9.09,4.07,9.1,8.98
			c0,4.89-4.17,9.05-9.06,9.02c-4.85-0.02-8.88-4.02-8.94-8.87C51.25,40.41,55.25,36.31,60.21,36.27z"/>
		<path fill-rule="evenodd" clip-rule="evenodd" d="M61.754,129.86c-15.47,7.196-24.241,17.857-24.4,36.405
			c0.797,5.63,1.532,11.271,2.422,16.886c0.346,2.181,2.157,3.371,4.029,2.99c1.93-0.392,2.946-2.032,2.643-4.285
			c-0.05-0.371-0.172-0.731-0.217-1.103c-0.583-4.83-1.466-9.649-1.672-14.497c-0.518-12.186,4.646-21.427,15.18-27.612
			c1.614-0.947,3.302-1.768,4.958-2.643c2.061-1.091,2.833-3.022,1.923-4.818C65.756,129.478,63.839,128.892,61.754,129.86z"/>
		<path fill-rule="evenodd" clip-rule="evenodd" d="M76.781,122.271c-0.766,0.657-1.108,2.618-0.711,3.593
			c0.4,0.98,1.902,1.872,3.047,2.068c0.876,0.15,2.103-0.664,2.91-1.357c6.329-5.433,8.52-12.62,8.579-20.001
			c-0.088-9.827-2.936-18.355-5.96-26.832c-0.637-1.784-2.61-2.555-4.282-1.845c-1.724,0.731-2.506,2.089-2.103,3.981
			c0.156,0.729,0.454,1.426,0.653,2.148c1.436,5.189,3.269,10.309,4.198,15.586C84.594,108.03,83.979,116.085,76.781,122.271z"/>
		<path fill-rule="evenodd" clip-rule="evenodd" d="M48.435,83.525c1.957-2.088,2.048-4.032,0.457-5.518
			c-1.573-1.468-3.531-1.125-5.44,0.912c-6.089,6.496-13.363,11.137-22.002,13.326c-3.672,0.931-7.528,1.166-11.312,1.619
			c-2.122,0.254-3.464,1.456-3.458,3.373c0.006,1.906,1.357,3.242,3.459,3.396c0.448,0.032,0.899,0.005,1.588,0.005
			C26.125,99.946,38.432,94.204,48.435,83.525z"/>
	</g>
</g>
</svg>
