<?xml version="1.0" encoding="utf-8"?>
<!-- Generator: Adobe Illustrator 16.0.4, SVG Export Plug-In . SVG Version: 6.00 Build 0)  -->
<!DOCTYPE svg PUBLIC "-//W3C//DTD SVG 1.1//EN" "http://www.w3.org/Graphics/SVG/1.1/DTD/svg11.dtd">
<svg version="1.1" id="Layer_1" xmlns="http://www.w3.org/2000/svg" xmlns:xlink="http://www.w3.org/1999/xlink" x="0px" y="0px"
	 width="200px" height="200px" viewBox="0 0 200 200" enable-background="new 0 0 200 200" xml:space="preserve">
<g>
	<path fill-rule="evenodd" clip-rule="evenodd" fill="#42B277" d="M661.481,472.924c0-32.619,26.459-59.014,59.131-59.028
		c31.897-0.015,58.954,25.827,58.927,59.084c-0.026,33.154-27.16,59.217-59.744,59.001
		C687.908,531.771,661.48,505.179,661.481,472.924z M669.273,472.896c0,28.134,23.047,51.268,51.119,51.242
		c28.902-0.025,50.78-23.438,51.334-50.158c0.58-28.017-22.069-52.217-51.155-52.287
		C692.403,421.627,669.274,444.715,669.273,472.896z"/>
	<path fill-rule="evenodd" clip-rule="evenodd" d="M606.018,412.721c2.321,7.521,4.602,14.898,6.876,22.279
		c3.515,11.411,7.028,22.824,10.536,34.238c0.885,2.878-0.073,5.143-2.471,5.897c-2.617,0.825-4.984-0.515-5.869-3.381
		c-6.25-20.253-12.494-40.509-18.729-60.768c-1.006-3.27,0.527-5.565,4.006-6.171c13.473-2.349,26.09-6.99,37.69-14.267
		c8.835-5.541,16.308-12.511,21.919-21.373c0.262-0.413,0.498-0.841,0.581-0.984c-2.972-0.263-6.014-0.216-8.905-0.847
		c-7.389-1.614-12.355-7.418-13.544-15.336c-1.497-9.979,5.675-20.356,15.507-22.438c9.262-1.961,18.778,3.703,22.01,13.055
		c1.816,5.256,1.065,10.441-0.425,15.572c-2.712,9.336-7.693,17.429-14.056,24.682c-13.137,14.977-29.756,24.035-49.002,28.55
		C610.163,411.895,608.163,412.271,606.018,412.721z M657.248,359.171c6.153,0.013,10.609-4.502,10.629-10.763
		c0.016-5.541-4.906-10.461-10.483-10.478c-6.067-0.019-10.829,4.66-10.845,10.653C646.533,354.916,650.822,359.158,657.248,359.171
		z"/>
	<path fill-rule="evenodd" clip-rule="evenodd" d="M579.462,531.959c0.035-13.18,2.966-24.184,10.437-33.699
		c6.557-8.351,15.269-13.603,25.068-17.302c3.584-1.353,7.268-2.622,10.561-4.527c9.071-5.253,13.211-13.505,13.661-23.825
		c0.245-5.631-1.411-10.891-2.889-16.197c-1.403-5.039-2.822-10.074-4.196-15.121c-0.571-2.1,0.338-4.119,2.176-5.066
		c1.82-0.938,4.096-0.473,5.395,1.158c0.338,0.424,0.631,0.938,0.775,1.457c2.24,8.073,4.902,16.062,6.57,24.254
		c2.642,12.974,0.105,24.898-9.234,34.817c-4.75,5.042-10.697,8.202-17.211,10.351c-7.156,2.361-13.81,5.634-19.439,10.732
		c-6.982,6.322-10.939,14.262-12.326,23.518c-1.355,9.052-0.399,17.923,2.222,26.65c0.64,2.133,0.052,4.018-1.606,5.165
		c-2.545,1.763-5.801,0.723-6.618-2.427c-1.161-4.471-2.071-9.016-2.86-13.569C579.513,535.831,579.551,533.252,579.462,531.959z"/>
	<path fill-rule="evenodd" clip-rule="evenodd" d="M608.94,353.697c11.45,0.043,20.483,9.252,20.446,20.84
		c-0.035,11.234-9.375,20.211-20.979,20.162c-10.992-0.045-20.09-9.448-20.023-20.693
		C588.451,362.77,597.677,353.654,608.94,353.697z M608.866,362.619c-6.343,0.018-11.644,5.348-11.567,11.629
		c0.076,6.373,5.356,11.597,11.671,11.545c6.259-0.051,11.485-5.307,11.511-11.574C620.506,367.919,615.182,362.602,608.866,362.619
		z"/>
	<path fill-rule="evenodd" clip-rule="evenodd" d="M687.037,554.094c-0.023,3.408-3.557,5.289-6.785,3.558
		c-6.875-3.687-13.389-7.937-19.52-12.763c-13.866-10.918-25.26-23.942-33.497-39.613c-1.374-2.614-2.555-5.346-3.631-8.099
		c-0.911-2.331,0.298-4.748,2.522-5.562c2.268-0.83,4.627,0.208,5.585,2.525c4.828,11.668,11.969,21.811,20.499,31.024
		c9.34,10.089,20.162,18.272,32.219,24.85C686.254,551.01,687.049,552.266,687.037,554.094z"/>
	<path fill-rule="evenodd" clip-rule="evenodd" d="M546.065,445.332c-0.88,0-1.778,0.117-2.635-0.022
		c-2.187-0.355-3.761-2.48-3.544-4.634c0.23-2.293,2.025-3.924,4.422-3.951c14.13-0.163,26.517-5.021,37.347-13.963
		c2.135-1.764,4.093-3.76,5.996-5.777c1.937-2.055,4.464-2.488,6.398-0.877c1.983,1.655,2.146,4.367,0.267,6.538
		c-5.152,5.946-11.279,10.688-18.148,14.489C566.801,442.318,556.762,445.052,546.065,445.332z"/>
	<path fill-rule="evenodd" clip-rule="evenodd" fill="#42B277" d="M711.525,484.29c0.53-0.708,0.791-1.161,1.148-1.52
		c9.664-9.68,19.34-19.349,29.009-29.025c1.144-1.145,2.456-1.614,4.042-1.14c1.527,0.457,2.416,1.518,2.723,3.043
		c0.303,1.498-0.297,2.709-1.347,3.752c-2.302,2.287-4.592,4.588-6.888,6.883c-8.459,8.46-16.918,16.921-25.379,25.379
		c-2.341,2.34-4.392,2.349-6.707,0.035c-4.787-4.786-9.582-9.567-14.355-14.367c-1.373-1.379-1.627-3.295-0.723-4.839
		c0.895-1.528,2.684-2.31,4.428-1.746c0.754,0.243,1.484,0.763,2.059,1.326c3.605,3.542,7.167,7.129,10.733,10.71
		C710.627,483.141,710.923,483.562,711.525,484.29z"/>
</g>
<g>
	<path fill-rule="evenodd" clip-rule="evenodd" d="M34.569,100.84c4.14-3.835,8.287-7.662,12.417-11.509
		c1.285-1.197,2.682-1.953,4.506-1.498c3.332,0.83,4.552,4.827,2.089,7.23c-3.197,3.118-6.53,6.095-9.807,9.132
		c-3.63,3.364-7.259,6.729-10.896,10.087c-2.504,2.311-4.911,2.221-7.194-0.252c-6.391-6.916-12.785-13.828-19.169-20.75
		c-1.758-1.906-1.996-4.207-0.659-5.958c1.716-2.249,4.84-2.349,6.86-0.178c3.82,4.104,7.612,8.232,11.426,12.341
		c0.35,0.376,0.772,0.688,1.274,1.13c0.061-0.922,0.144-1.802,0.174-2.686c0.646-18.659,6.795-35.322,18.529-49.798
		c13.608-16.789,31.179-27.085,52.558-30.349c42.865-6.543,83.467,20.018,94.015,62.042c7.459,29.72,0.351,56.269-20.504,78.777
		c-13.032,14.065-29.357,22.413-48.329,25.178c-21.223,3.094-40.905-1.332-58.89-13.088c-2.465-1.611-3.103-4.261-1.623-6.455
		c1.436-2.13,4.097-2.519,6.488-0.942c13.183,8.69,27.69,13.187,43.452,12.506c28.848-1.248,50.411-14.781,64.52-39.919
		c6.37-11.345,9.126-23.744,8.773-36.74c-0.528-19.472-7.538-36.344-21.018-50.419c-11.755-12.274-26.113-19.86-42.922-22.234
		c-23.647-3.34-44.534,3.103-62.17,19.237c-13.39,12.25-21.118,27.612-23.527,45.603c-0.417,3.109-0.503,6.263-0.742,9.396
		C34.322,100.764,34.446,100.801,34.569,100.84z"/>
	<path fill-rule="evenodd" clip-rule="evenodd" fill="#D0492E" d="M109.5,63.058c21.563,0.083,38.189,17.911,37.656,38.675
		c-0.524,20.405-17.632,37.232-38.695,36.69c-19.74-0.507-36.7-16.698-36.666-37.794C71.829,79.894,88.782,63.028,109.5,63.058z
		 M138.32,100.791c0.008-15.696-12.885-28.863-28.275-28.878c-16.409-0.017-29.405,12.698-29.438,28.8
		c-0.032,15.863,12.953,28.868,28.832,28.878C125.365,129.599,138.315,116.688,138.32,100.791z"/>
	<path fill-rule="evenodd" clip-rule="evenodd" fill="#D0492E" d="M110.135,106.341c-0.492,0.467-0.844,0.783-1.178,1.117
		c-3.811,3.809-7.688,7.556-11.404,11.453c-2.042,2.142-4.487,1.797-5.794,0.48c-1.19-1.199-1.665-3.683,0.563-5.81
		c4.211-4.021,8.271-8.204,12.485-12.41c-0.35-0.371-0.659-0.715-0.986-1.042c-3.932-3.935-7.873-7.861-11.796-11.807
		c-1.54-1.548-1.737-3.573-0.556-5.101c1.396-1.801,3.944-1.937,5.646-0.248c3.948,3.919,7.875,7.86,11.802,11.802
		c0.336,0.339,0.602,0.75,1.487,1.394c0.226-0.432,0.363-0.951,0.692-1.283c3.942-3.985,7.918-7.939,11.879-11.909
		c1.135-1.138,2.486-1.453,3.978-0.972c1.415,0.456,2.229,1.509,2.431,2.983c0.179,1.31-0.315,2.373-1.246,3.296
		c-3.946,3.922-7.866,7.868-11.816,11.788c-0.337,0.335-0.81,0.534-1.278,0.833c4.555,4.55,8.791,8.795,13.047,13.022
		c0.925,0.918,1.466,1.964,1.302,3.279c-0.185,1.469-0.966,2.535-2.372,3.04c-1.558,0.558-2.924,0.156-4.083-1.004
		c-3.376-3.377-6.755-6.749-10.127-10.132C111.922,108.22,111.06,107.301,110.135,106.341z"/>
</g>
</svg>
