<?xml version="1.0" encoding="utf-8"?>
<!-- Generator: Adobe Illustrator 16.0.4, SVG Export Plug-In . SVG Version: 6.00 Build 0)  -->
<!DOCTYPE svg PUBLIC "-//W3C//DTD SVG 1.1//EN" "http://www.w3.org/Graphics/SVG/1.1/DTD/svg11.dtd">
<svg version="1.1" id="Layer_1" xmlns="http://www.w3.org/2000/svg" xmlns:xlink="http://www.w3.org/1999/xlink" x="0px" y="0px"
	 width="200px" height="200px" viewBox="0 0 200 200" enable-background="new 0 0 200 200" xml:space="preserve">
<g>
	<path fill-rule="evenodd" clip-rule="evenodd" fill="#D0492E" d="M102.064,123.266c0-26.084,21.166-47.206,47.302-47.201
		c25.957,0.005,47.129,21.125,47.134,47.151c0.005,26.563-21.697,47.472-47.804,47.297
		C123.196,170.342,102.064,149.071,102.064,123.266z M108.296,123.247c0,22.506,18.43,41.011,40.88,40.993
		c23.107-0.018,40.621-18.726,41.067-40.112c0.468-22.403-17.638-41.765-40.909-41.83
		C126.812,82.235,108.298,100.71,108.296,123.247z"/>
	<path fill-rule="evenodd" clip-rule="evenodd" d="M101.539,39.137c-3.934,0.576-7.5,0.167-10.82-1.59
		c-5.807-3.074-8.692-10.232-6.968-16.999c1.671-6.558,7.912-13.097,16.731-12.146c6.631,0.716,12.812,6.762,13.584,13.516
		c0.567,4.95-0.703,9.579-2.607,14.044c-4.846,11.358-12.824,20.105-22.93,26.999c-9.203,6.278-19.411,10.081-30.341,12.034
		c-0.108,0.019-0.212,0.054-0.46,0.118c0.338,1.128,0.664,2.24,1.005,3.348c4.306,13.975,8.614,27.948,12.917,41.923
		c0.702,2.277-0.11,4.096-2.056,4.676c-2.071,0.615-3.903-0.443-4.621-2.674c-0.068-0.21-0.123-0.426-0.188-0.638
		c-4.892-15.887-9.785-31.771-14.676-47.656c-0.955-3.097,0.175-4.746,3.354-5.344c14.579-2.742,27.879-8.25,38.988-18.364
		c3.167-2.883,5.892-6.159,8.208-9.767C100.934,40.188,101.182,39.74,101.539,39.137z M98.652,32.29
		c4.935,0.014,8.495-3.571,8.527-8.583c0.026-4.433-3.905-8.388-8.358-8.406c-4.858-0.02-8.677,3.709-8.7,8.496
		C90.096,28.864,93.522,32.276,98.652,32.29z"/>
	<path fill-rule="evenodd" clip-rule="evenodd" d="M36.392,169.492c0.096-9.585,2.458-18.423,8.487-26.043
		c5.543-7.005,12.919-11.329,21.255-14.159c3.424-1.163,6.724-2.54,9.596-4.784c5.683-4.44,8.196-10.41,8.504-17.485
		c0.195-4.506-1.13-8.712-2.312-12.957c-1.123-4.031-2.257-8.057-3.357-12.094c-0.456-1.678,0.277-3.295,1.747-4.05
		c1.457-0.749,3.276-0.374,4.313,0.932c0.271,0.34,0.503,0.75,0.619,1.166c1.793,6.458,3.923,12.848,5.255,19.399
		c2.109,10.376,0.088,19.917-7.391,27.848c-3.801,4.031-8.558,6.557-13.768,8.277c-5.795,1.915-11.173,4.575-15.709,8.739
		c-5.492,5.04-8.595,11.339-9.693,18.658c-1.086,7.24-0.317,14.337,1.778,21.317c0.532,1.771-0.034,3.396-1.473,4.255
		c-2.047,1.223-4.482,0.361-5.109-2.073c-0.92-3.579-1.655-7.213-2.286-10.854C36.501,173.588,36.531,171.525,36.392,169.492z"/>
	<path fill-rule="evenodd" clip-rule="evenodd" d="M60.008,27.912c9.162,0.016,16.409,7.375,16.385,16.637
		c-0.023,8.958-7.452,16.173-16.637,16.158c-8.85-0.014-16.167-7.444-16.16-16.409C43.605,35.233,50.954,27.896,60.008,27.912z
		 M59.853,35.049c-5.169,0.162-9.32,4.452-9.123,9.428c0.205,5.168,4.445,9.25,9.46,9.106c5.081-0.146,9.258-4.516,9.078-9.496
		C69.084,39.025,64.782,34.895,59.853,35.049z"/>
	<path fill-rule="evenodd" clip-rule="evenodd" d="M122.514,187.738c0.005,3.145-2.889,4.8-5.383,3.308
		c-4.352-2.604-8.757-5.166-12.852-8.14c-12.855-9.338-23.169-20.935-30.338-35.201c-0.829-1.65-1.562-3.358-2.195-5.092
		c-0.668-1.828,0.263-3.715,1.997-4.374c1.808-0.688,3.732,0.121,4.493,1.963c3.871,9.372,9.606,17.512,16.458,24.905
		c7.451,8.039,16.075,14.566,25.689,19.8C121.703,185.624,122.483,186.624,122.514,187.738z"/>
	<path fill-rule="evenodd" clip-rule="evenodd" d="M9.673,101.253c-0.445,0.002-0.891,0.01-1.336-0.001
		c-2.025-0.043-3.563-1.571-3.542-3.512c0.022-1.901,1.526-3.398,3.511-3.417c7-0.066,13.654-1.597,19.934-4.692
		c5.677-2.796,10.707-6.465,14.905-11.229c1.375-1.561,3.454-1.819,4.957-0.594c1.542,1.258,1.776,3.444,0.401,5.05
		c-4.691,5.481-10.373,9.692-16.811,12.906C24.761,99.224,17.411,101.021,9.673,101.253z"/>
	<path fill-rule="evenodd" clip-rule="evenodd" fill="#D0492E" d="M153.571,123.107c3.812,3.811,7.345,7.354,10.893,10.883
		c0.803,0.8,1.331,1.701,1.188,2.865c-0.153,1.243-0.828,2.152-2.005,2.582c-1.161,0.425-2.295,0.267-3.209-0.61
		c-1.604-1.542-3.17-3.125-4.744-4.697c-2.122-2.115-4.237-4.237-6.473-6.475c-1.132,1.172-2.197,2.303-3.293,3.404
		c-2.511,2.525-5.023,5.049-7.559,7.55c-1.112,1.1-2.525,1.33-3.769,0.701c-1.2-0.607-1.906-1.83-1.613-3.234
		c0.147-0.71,0.582-1.452,1.094-1.977c3.24-3.316,6.534-6.58,9.821-9.851c0.286-0.286,0.639-0.505,1.032-0.81
		c-0.42-0.447-0.683-0.744-0.961-1.023c-3.251-3.255-6.523-6.488-9.738-9.776c-0.545-0.559-1.032-1.299-1.231-2.039
		c-0.359-1.352,0.329-2.675,1.472-3.312c1.287-0.716,2.72-0.53,3.871,0.606c2.981,2.945,5.938,5.917,8.895,8.888
		c0.654,0.655,1.271,1.349,1.959,2.085c0.387-0.355,0.681-0.61,0.953-0.885c3.308-3.302,6.61-6.609,9.917-9.912
		c1.49-1.487,3.302-1.606,4.634-0.317c1.365,1.321,1.303,3.217-0.199,4.727c-3.269,3.288-6.551,6.564-9.839,9.833
		C154.381,122.597,154.008,122.795,153.571,123.107z"/>
</g>
<g>
	<path fill-rule="evenodd" clip-rule="evenodd" fill="#42B277" d="M661.481,472.924c0-32.619,26.459-59.014,59.131-59.028
		c31.897-0.015,58.954,25.827,58.927,59.084c-0.026,33.154-27.16,59.217-59.744,59.001
		C687.908,531.771,661.48,505.179,661.481,472.924z M669.273,472.896c0,28.134,23.047,51.268,51.119,51.242
		c28.902-0.025,50.78-23.438,51.334-50.158c0.58-28.017-22.069-52.217-51.155-52.287
		C692.403,421.627,669.274,444.715,669.273,472.896z"/>
	<path fill-rule="evenodd" clip-rule="evenodd" d="M606.018,412.721c2.321,7.521,4.602,14.898,6.876,22.279
		c3.515,11.411,7.028,22.824,10.536,34.238c0.885,2.878-0.073,5.143-2.471,5.897c-2.617,0.825-4.984-0.515-5.869-3.381
		c-6.25-20.253-12.494-40.509-18.729-60.768c-1.006-3.27,0.527-5.565,4.006-6.171c13.473-2.349,26.09-6.99,37.69-14.267
		c8.835-5.541,16.308-12.511,21.919-21.373c0.262-0.413,0.498-0.841,0.581-0.984c-2.972-0.263-6.014-0.216-8.905-0.847
		c-7.389-1.614-12.355-7.418-13.544-15.336c-1.497-9.979,5.675-20.356,15.507-22.438c9.262-1.961,18.778,3.703,22.01,13.055
		c1.816,5.256,1.065,10.441-0.425,15.572c-2.712,9.336-7.693,17.429-14.056,24.682c-13.137,14.977-29.756,24.035-49.002,28.55
		C610.163,411.895,608.163,412.271,606.018,412.721z M657.248,359.171c6.153,0.013,10.609-4.502,10.629-10.763
		c0.016-5.541-4.906-10.461-10.483-10.478c-6.067-0.019-10.829,4.66-10.845,10.653C646.533,354.916,650.822,359.158,657.248,359.171
		z"/>
	<path fill-rule="evenodd" clip-rule="evenodd" d="M579.462,531.959c0.035-13.18,2.966-24.184,10.437-33.699
		c6.557-8.351,15.269-13.603,25.068-17.302c3.584-1.353,7.268-2.622,10.561-4.527c9.071-5.253,13.211-13.505,13.661-23.825
		c0.245-5.631-1.411-10.891-2.889-16.197c-1.403-5.039-2.822-10.074-4.196-15.121c-0.571-2.1,0.338-4.119,2.176-5.066
		c1.82-0.938,4.096-0.473,5.395,1.158c0.338,0.424,0.631,0.938,0.775,1.457c2.24,8.073,4.902,16.062,6.57,24.254
		c2.642,12.974,0.105,24.898-9.234,34.817c-4.75,5.042-10.697,8.202-17.211,10.351c-7.156,2.361-13.81,5.634-19.439,10.732
		c-6.982,6.322-10.939,14.262-12.326,23.518c-1.355,9.052-0.399,17.923,2.222,26.65c0.64,2.133,0.052,4.018-1.606,5.165
		c-2.545,1.763-5.801,0.723-6.618-2.427c-1.161-4.471-2.071-9.016-2.86-13.569C579.513,535.831,579.551,533.252,579.462,531.959z"/>
	<path fill-rule="evenodd" clip-rule="evenodd" d="M608.94,353.697c11.45,0.043,20.483,9.252,20.446,20.84
		c-0.035,11.234-9.375,20.211-20.979,20.162c-10.992-0.045-20.09-9.448-20.023-20.693
		C588.451,362.77,597.677,353.654,608.94,353.697z M608.866,362.619c-6.343,0.018-11.644,5.348-11.567,11.629
		c0.076,6.373,5.356,11.597,11.671,11.545c6.259-0.051,11.485-5.307,11.511-11.574C620.506,367.919,615.182,362.602,608.866,362.619
		z"/>
	<path fill-rule="evenodd" clip-rule="evenodd" d="M687.037,554.094c-0.023,3.408-3.557,5.289-6.785,3.558
		c-6.875-3.687-13.389-7.937-19.52-12.763c-13.866-10.918-25.26-23.942-33.497-39.613c-1.374-2.614-2.555-5.346-3.631-8.099
		c-0.911-2.331,0.298-4.748,2.522-5.562c2.268-0.83,4.627,0.208,5.585,2.525c4.828,11.668,11.969,21.811,20.499,31.024
		c9.34,10.089,20.162,18.272,32.219,24.85C686.254,551.01,687.049,552.266,687.037,554.094z"/>
	<path fill-rule="evenodd" clip-rule="evenodd" d="M546.065,445.332c-0.88,0-1.778,0.117-2.635-0.022
		c-2.187-0.355-3.761-2.48-3.544-4.634c0.23-2.293,2.025-3.924,4.422-3.951c14.13-0.163,26.517-5.021,37.347-13.963
		c2.135-1.764,4.093-3.76,5.996-5.777c1.937-2.055,4.464-2.488,6.398-0.877c1.983,1.655,2.146,4.367,0.267,6.538
		c-5.152,5.946-11.279,10.688-18.148,14.489C566.801,442.318,556.762,445.052,546.065,445.332z"/>
	<path fill-rule="evenodd" clip-rule="evenodd" fill="#42B277" d="M711.525,484.29c0.53-0.708,0.791-1.161,1.148-1.52
		c9.664-9.68,19.34-19.349,29.009-29.025c1.144-1.145,2.456-1.614,4.042-1.14c1.527,0.457,2.416,1.518,2.723,3.043
		c0.303,1.498-0.297,2.709-1.347,3.752c-2.302,2.287-4.592,4.588-6.888,6.883c-8.459,8.46-16.918,16.921-25.379,25.379
		c-2.341,2.34-4.392,2.349-6.707,0.035c-4.787-4.786-9.582-9.567-14.355-14.367c-1.373-1.379-1.627-3.295-0.723-4.839
		c0.895-1.528,2.684-2.31,4.428-1.746c0.754,0.243,1.484,0.763,2.059,1.326c3.605,3.542,7.167,7.129,10.733,10.71
		C710.627,483.141,710.923,483.562,711.525,484.29z"/>
</g>
</svg>
