<?xml version="1.0" encoding="utf-8"?>
<!-- Generator: Adobe Illustrator 16.0.4, SVG Export Plug-In . SVG Version: 6.00 Build 0)  -->
<!DOCTYPE svg PUBLIC "-//W3C//DTD SVG 1.1//EN" "http://www.w3.org/Graphics/SVG/1.1/DTD/svg11.dtd">
<svg version="1.1" id="Layer_1" xmlns="http://www.w3.org/2000/svg" xmlns:xlink="http://www.w3.org/1999/xlink" x="0px" y="0px"
	 width="250px" height="250px" viewBox="0 0 250 250" enable-background="new 0 0 250 250" xml:space="preserve">
<g>
	<path fill="#FFFFFF" d="M138.455,237.774h63.965c-5.905-4.013-11.127-11.04-13.454-19.087l-17.882-61.353
		c-1.934-6.608,1.21-13.212,6.236-17.679c-7.136-2.2-13.465-7.142-15.451-13.982l-10.021-34.346
		c14.241-4.768,23.517-13.201,23.517-23.005c0-12.798-15.834-23.28-37.883-26.279l-8.377-28.719h-9.369l-8.366,28.725
		c-22.059,3-37.914,13.476-37.914,26.274c0,9.804,9.297,18.237,23.548,23.005l-10.011,34.346
		c-1.976,6.841-8.326,11.784-15.461,13.982c5.016,4.467,8.181,11.07,6.247,17.679l-17.891,61.353
		c-2.369,8.047-7.55,15.074-13.434,19.087h63.964c-5.233-4.013-8.088-11.04-5.741-19.087l1.572-5.336h36.383l1.55,5.336
		C146.521,226.734,143.667,233.762,138.455,237.774 M118.919,169.89l5.522-18.981l5.513,18.981H118.919z"/>
	<path fill="#003263" d="M191.663,233.425c-3.06-3.986-5.479-8.63-6.907-13.496l-17.768-60.949
		c-2.803-9.671,2.398-16.548,3.081-17.643c-6.174-3.342-10.693-8.436-12.41-14.449l-10.807-37.096
		c15.243-4.059,25.637-12.141,25.637-21.469c0-11.795-16.702-21.641-38.823-23.818l-7.808-26.816h-2.834l-7.808,26.816
		c-22.142,2.171-38.854,12.018-38.854,23.818c0,9.329,10.404,17.411,25.648,21.469l-10.807,37.096
		c-1.748,6.015-6.247,11.107-12.421,14.449c0.693,1.095,5.905,7.972,3.072,17.643l-17.758,60.949
		c-1.417,4.866-3.847,9.51-6.908,13.496h44.294c-3.567-7.891-1.695-13.641-0.093-19.055l1.572-5.387h42.939l1.582,5.387
		c1.573,5.414,3.454,11.164-0.113,19.055 M113.055,174.253l11.386-38.987l11.345,38.987H113.055z"/>
	<path fill="#CD1141" d="M136.199,77.867h0.012l-5.699-19.582l0,0l1.117,3.898c-2.327-0.128-4.737-0.217-7.188-0.217v12.705
		l34.118,116.955l7.838,26.829l13.487,8.071c-0.942-2.047-1.79-4.146-2.432-6.297l-16.981-58.121
		c-2.668-9.085-1.2-13.006,0.734-18.488c-5.098-3.914-8.489-9.007-10.146-14.746l-12.886-44.27c-0.011,0-0.02,0.006-0.031,0.006"/>
	<path fill="#CD1141" d="M128.435,51.139l-3.993-13.693V51.05C125.786,51.051,127.12,51.087,128.435,51.139"/>
	<path fill="#CD1141" d="M82.257,219.164l10.901,7.363c-0.589-3.667-0.031-8.49,1.013-11.914l3.62-12.512l-7.487-10.473"/>
	<polyline fill="#CD1141" points="103.872,181.143 124.441,110.714 124.441,74.672 90.303,191.627 158.561,191.627 144.949,181.143 
			"/>
	<polyline fill="#8F0028" points="124.441,110.714 144.949,181.143 158.561,191.627 124.441,74.672 	"/>
	<path fill="#8F0028" d="M179.884,226.527l-13.485-8.071l-7.84-26.829H90.303l34.139-116.955V61.967c2.451,0,4.86,0.088,7.188,0.217
		l-1.117-3.898c-0.301-0.021-0.609-0.031-0.92-0.041c-1.676-0.088-3.392-0.14-5.15-0.14c-2.079,0-4.105,0.067-6.081,0.181
		l-5.708,19.582l0,0l-1.945,6.743c-0.01,0-0.021,0-0.021-0.006l-12.896,44.27c-1.656,5.739-5.016,10.832-10.146,14.747
		c1.924,5.48,3.402,9.402,0.744,18.487l-17.001,58.12c-0.642,2.152-1.448,4.25-2.441,6.298h24.211l-10.901-7.363l8.047-27.536
		l7.487,10.473h53.27l3.672,12.514c0.973,3.423,1.531,8.247,0.973,11.913"/>
	<path fill="#8F0028" d="M124.441,37.447l-3.993,13.693c1.313-0.052,2.648-0.088,3.993-0.088"/>
	<path fill="#C4CDD3" d="M112.652,77.867L112.652,77.867c-12.359-1.479-21.14-5.207-21.14-9.545c0-4.995,11.562-9.153,26.848-10.037
		c1.975-0.114,4.002-0.181,6.081-0.181c1.759,0,3.475,0.051,5.15,0.14c0.311,0.01,0.62,0.02,0.92,0.041l0,0
		c15.275,0.885,26.849,5.031,26.849,10.037c0,4.338-8.792,8.066-21.149,9.545h-0.012l1.945,6.743c0.011,0,0.02-0.006,0.031-0.006
		c15.915-2.388,27.333-8.754,27.333-16.283c0-8.961-16.278-16.34-37.076-17.184c-1.312-0.051-2.646-0.088-3.992-0.088
		c-1.345,0-2.679,0.037-3.992,0.088c-20.839,0.843-37.086,8.222-37.086,17.184c0,7.528,11.396,13.899,27.323,16.283
		c0,0.006,0.01,0.006,0.021,0.006"/>
	<path fill="#003263" d="M204.126,228.011h-1.893v5.162h-1.283v-5.162h-1.892v-1.121h5.068 M212.709,233.172h-1.282v-5h-0.031
		l-1.819,5h-1.24l-1.748-5h-0.03v5h-1.283v-6.282h2.214l1.458,4.101h0.042l1.509-4.101h2.213L212.709,233.172L212.709,233.172z"/>
</g>
</svg>
