<?xml version="1.0" encoding="utf-8"?>
<!-- Generator: Adobe Illustrator 16.0.4, SVG Export Plug-In . SVG Version: 6.00 Build 0)  -->
<!DOCTYPE svg PUBLIC "-//W3C//DTD SVG 1.1//EN" "http://www.w3.org/Graphics/SVG/1.1/DTD/svg11.dtd">
<svg version="1.1" id="Layer_1" xmlns="http://www.w3.org/2000/svg" xmlns:xlink="http://www.w3.org/1999/xlink" x="0px" y="0px"
	 width="250px" height="250px" viewBox="0 0 250 250" enable-background="new 0 0 250 250" xml:space="preserve">
<g>
	<path fill="#B32317" d="M184.337,162.432c-2.15-0.429-4.494-2.001-4.206-4.977c0.184-1.977,1.245-3.267,2.708-4.06
		c0.986-0.536,2.473-0.983,3.542-1.273c-0.363-0.725-1.006-0.939-1.16-0.922c-1.785,0.147-5.949,3.749-7.482,9.436
		c-0.822,3.058-0.615,4.855-0.233,5.801c0.189,0.453,0.41,0.697,0.571,0.81c0.078,0.062,0.146,0.081,0.191,0.104
		C180.467,167.169,182.713,165.588,184.337,162.432 M64.457,133.85c-3.046-0.219-6.916,0.911-10.461,4.033
		c-3.779,3.321-7.117,9.452-10.141,16.193l2.622,0.269c1.337,0.143,2.645,0.32,3.935,0.442c1.131,0.104,2.25,0.151,3.358,0.051
		c2.239-0.207,3.454-1.424,3.507-1.579C58.183,150.661,62.298,139.681,64.457,133.85z M133.614,153.777
		c-0.48,0.515-1.052,1.015-1.71,1.466c-1.995,1.364-3.84,1.831-5.645,1.997c-0.901,0.081-1.818,0.081-2.613,0.051l-5.102,14.207
		c-0.487,1.351-0.381,1.87-0.33,1.999c0.051,0.045,0.219,0.196,0.397,0.255c1.058,0.382,2.962,0.248,4.706-0.124
		c2.026-0.424,4.48-1.194,6.24-1.866l5.863-16.326C134.748,155.011,134.102,154.461,133.614,153.777z M82.53,170.853l0.282,0.324
		c0.483,0.554,0.422,1.454-0.122,1.939l-1.071,0.945c-0.478,0.425-0.859,1.256-0.789,2.021c0.172,1.889,1.109,2.68,4.19,2.424
		c2.859-0.236,3.973-1.554,4.056-2.541c0.058-0.701-0.416-1.709-2.44-2.83L82.53,170.853z M90.788,157.522
		c-0.664-0.377-1.222-0.52-2.398-0.416c-2.141,0.186-2.656,0.901-2.758,1.417c-0.005,0.032-0.005,0.072,0.027,0.134
		c0.036,0.077,0.133,0.208,0.35,0.351c1.555,1.016,5.205,2.848,8.233,4.555c4.304,2.419,8.013,6.091,7.351,11.958
		c-1.002,8.814-11.032,11.601-17.402,12.12c-4.904,0.41-7.981-0.495-10.752-2.096c-1.919,1.343-4.558,2.922-7.927,4.091
		c-10.419,3.602-16.761-3.036-16.14-10.859c0.209-2.646,2.031-8.719,4.065-14.656c-0.38,0.052-0.789,0.095-1.218,0.144
		c-4.048,0.41-9.67,0.147-12.637-0.058l-3.432,8.271c3.87,12.915,1.618,27.095-6.168,36.296c-2.644,3.114-6.832,5.378-10.369,4.948
		c-4.083-0.494-6.253-4.261-5.295-10.78c0.689-4.692,1.848-9.228,3.388-14.328c1.494-4.932,2.89-9.905,5.418-16.647
		c-0.063-0.142-0.195-0.401-0.47-0.789c-0.639-0.887-1.649-1.898-2.795-2.921c-0.571-0.507-1.728-1.404-2.765-2.278
		c-0.6-0.511-1.158-1.009-1.584-1.442c-0.229-0.232-0.488-0.51-0.708-0.8c-0.16-0.221-0.567-0.769-0.719-1.528
		c-0.749-3.762,3.521-7.151,7.742-8.3c3.271-0.893,6.503-1.009,8.897-0.992c3.748-8.287,8.266-16.037,16.051-21.8
		c7.34-5.428,13.851-7.56,22.598-7.737c5.007-0.095,6.644,0.259,7.811,1.034c1.801,1.208,2.137,3.27,1.528,4.928
		c-0.28,0.814-3.695,10.798-7.234,21.432c-3.649,10.963-7.446,22.62-7.997,25.408c-0.662,3.372-0.215,4.324-0.072,4.481
		c0.023,0.007,0.12,0.052,0.231,0.047c0.243,0,0.586-0.082,1.026-0.247c1.007-0.375,2.232-1.029,3.313-1.718
		c-0.293-1.151-0.424-2.499-0.065-3.863c0.493-1.866,1.614-3.731,3.695-5.138c1.625-1.103,4.144-1.967,6.493-1.643
		c-2.485-1.922-4.645-4.593-4.402-8.395c0.453-7.148,6.385-10.651,15.859-11.43c4.141-0.342,7.734,0.254,10.234,2.432
		c1.942-1.562,4.446-2.647,7.026-3.175c2.354-0.479,4.438-0.678,6.585-0.77l2.896-8.089c0.634-1.77,2.269-2.617,3.24-3.013
		c1.135-0.462,2.424-0.723,3.567-0.868c1.945-0.238,3.554-0.217,4.772,0.259c1.45,0.567,2.918,2.206,2.161,4.335l-2.489,7.061
		l0.717-0.072c2.529-0.274,6.726-1.927,6.769-1.944c0.882-0.354,1.585-0.057,1.801,0.644c1.043-0.547,2.136-0.894,3.047-1.032
		c2.928-0.434,5.422,0.618,7.268,2.376c5.003,0.473,7.818-1.102,8.373-1.797l1.167-1.475c0.131-0.166,0.899-0.517,1.112-0.509
		l0.716,0.035c0.683,0.026,1.254,0.273,1.554,0.415c0.312,0.147,0.683,0.356,1.091,0.624c0.712,0.464,1.512,1.087,2.301,1.814
		c0.797,0.728,1.496,1.45,2.024,2.07c0.312,0.358,0.554,0.68,0.729,0.934c0.484,0.737,0.65,1.435,0.654,1.939
		c0.003,0.822-0.497,1.84-1.114,2.512c-0.187,0.203-0.371,0.386-0.476,0.482c-1.966,2.068-3.802,5.129-5.385,9.061
		c-2.472,6.157-0.719,8.05-0.643,8.075c1.729,0.657,4.122,0.528,6.081-0.222c-3.152-8.922,2.563-19.761,6.224-23.506
		c5.708-5.828,15.953-9.006,22.274-3.889c1.231,0.997,2.785,2.858,3.751,5.601c0.683-0.401,1.428-0.854,2.185-1.327
		c1.783-1.111,3.954-2.695,4.763-3.299c2.792-3.356,7.166-5.708,13.227-6.208c5.769-0.479,9.467,0.566,11.978,4.472
		c0.831,1.309,1.696,3.427,1.446,5.847c-0.372,3.585-3.184,5.77-6.096,6.01c-3.82,0.315-6.893-2.585-6.036-6.745
		c-0.019-0.079-0.044-0.166-0.068-0.253c-0.019-0.056-0.036-0.111-0.053-0.168c-0.107-0.064-0.208-0.122-0.297-0.164
		c-0.101-0.052-0.17-0.079-0.23-0.092c-0.174-0.039-0.478-0.051-1.385,0.026c-1.724,0.138-2.79,1.232-2.989,2.646
		c-0.1,0.632-0.048,0.948,0.216,1.316c0.347,0.503,1.127,1.182,2.862,2.234l5.226,3.151c4.703,2.849,7.15,7.747,6.557,12.387
		c-0.227,1.757-0.928,3.716-1.56,5.006l0.068,0.086c0.122,0.151,0.388,0.398,0.91,0.676c0.784-1.567,2.346-2.682,4.183-2.832
		c2.749-0.225,5.013,1.694,5.438,4.413c0.483,3.046-1.733,4.986-2.643,5.724c-4.182,3.387-13.084,7.772-19.744,10.103
		c-14.955,5.232-35.112,9.105-59.062,10.959c-24.883,1.921-40.981-0.179-63.996-0.854c-7.555-0.221-15.199-0.464-21.986-0.489
		c-6.641-0.026-12.451,0.151-16.491,0.779c-3.646,0.567-6.125,1.333-7.788,2.063c0.762,0.799,1.223,1.854,1.329,2.989
		c0.308,3.295-2.592,5.164-5.116,5.381c-2.89,0.256-8.592-1.388-8.021-7.399c0.567-5.962,9.489-9.734,19.173-11.37
		c8.736-1.485,22.012-1.281,35.745-1.607c15.344-0.364,32.329,0.565,47.02,0.305c30.54-0.547,57.501-4.336,74.12-8.782
		c-6.275,0.329-11.136-1.666-13.469-4.865c-1.243-1.664-2.127-3.746-2.261-6.304c-0.101-1.867,0.206-5.707,3.269-8.056
		c3.193-2.445,8.113-2.743,10.828,0.56l0.816,0.99c0.4,0.492,0.366,1.385-0.075,1.841l-0.894,0.923
		c-0.709,0.732-1.073,1.507-0.96,2.459c0.285,2.445,1.445,3.175,4.373,2.935c2.174-0.18,3.628-1.973,3.776-3.333
		c0.191-1.71-0.927-3.352-2.34-4.235l-5.252-3.269c-2.53-1.575-4.947-4.1-6.115-7.081c-1.542,1.146-3.175,2.319-4.491,3.18
		c-0.247,4.022-2.445,10.694-8.078,15.082c-3.987,3.107-8.04,5.073-13.661,4.364c-1.956-0.248-3.523-0.811-4.615-1.333l-0.148-0.069
		c-3.998,2.216-8.915,3.503-13.386,2.896c-3.144-0.416-6.409-1.478-8.409-4.383c-2.841-4.108-2.675-8.819-1.783-12.837
		c0.385-1.72,1.158-4.062,1.908-6.128c-0.562-0.007-1.073-0.037-1.529-0.08l-7.731,22.392c-0.538,1.53-1.615,2.422-2.876,2.85
		c-0.415,0.144-0.9,0.251-1.463,0.337c-0.397,0.055-0.845,0.109-1.351,0.173c-1.463,0.188-3.438,0.312-4.073,0.268
		c-0.854-0.066-2.181-0.556-2.906-1.625c-2.647,0.874-5.662,1.697-8.364,2.087c-10.461,1.502-17.697-3.165-14.128-13.583
		c0.67-1.944,3.135-8.629,4.728-12.925c-1.121,0.053-2.226,0.144-3.157,0.273c-1.33,0.182-2.301,0.354-3.02,0.654
		c-0.353,0.148-0.555,0.286-0.677,0.42c0,0.189-0.006,0.385-0.019,0.566c-0.012,0.207-0.048,0.637-0.195,1.08
		c-0.908,2.774-2.859,3.887-5.478,4.104c-2.938,0.238-6.866-1.874-6.329-5.88c-0.019-0.092-0.052-0.195-0.085-0.312
		C90.833,157.638,90.811,157.577,90.788,157.522z"/>
	<path fill="#231F20" d="M101.007,112.821c0.027-0.079,0.432-0.638,0.493-0.685l24.393-17.911c0.353-0.259,1.24-0.259,1.594,0.004
		l8.21,6.04l-3.134-9.777c-0.14-0.42,0.138-1.269,0.494-1.528l8.209-6.049h-10.149c-0.438,0-1.156-0.52-1.29-0.944l-3.135-9.777
		l-3.134,9.777c-0.139,0.424-0.852,0.944-1.291,0.944H91.091c-0.085,0-0.735-0.213-0.804-0.264l-12.25-9.102
		c-1.313-0.978-0.83-2.477,0.802-2.477h35.567l10.996-34.257c0.511-1.572,2.072-1.572,2.571,0l10.997,34.257h35.583
		c1.637,0,2.122,1.506,0.798,2.48l-28.784,21.172l10.996,34.258c0.504,1.571-0.761,2.503-2.087,1.534l-28.785-21.178l-28.786,21.178
		c-1.32,0.971-2.59,0.037-2.083-1.534L101.007,112.821"/>
	<path fill="#E7D2AD" d="M31.023,182.474c-0.957,2.581-2.184,5.958-3.302,9.344c-1.565,4.714-2.879,9.314-3.078,11.912
		c-0.022,0.282-0.017,0.492,0,0.653c0.156-0.144,0.346-0.359,0.554-0.616C29.274,198.751,31.474,188.601,31.023,182.474
		 M25.876,162.467c0.589,0.554,1.177,1.15,1.701,1.719l0.741-1.936C27.477,162.262,26.651,162.337,25.876,162.467z M181.475,157.587
		c0.14-1.458,0.88-2.378,2.005-2.983c0.885-0.48,2.339-0.913,3.439-1.208c0.382-0.104,0.753-0.199,1.074-0.276
		c-0.101-2.291-1.829-3.369-2.885-3.283c-2.632,0.221-7.084,4.538-8.672,10.435c-1.737,6.434,0.579,8.578,2.005,8.452
		c3.315-0.274,6.218-2.979,7.939-7.574c-0.289,0.022-0.536,0.029-0.683,0.036C183.629,161.264,181.249,159.955,181.475,157.587z
		 M41.855,155.249l0.327,0.029c1.29,0.135,2.89,0.294,4.149,0.424c1.35,0.143,2.666,0.325,3.961,0.44
		c1.21,0.108,2.407,0.171,3.599,0.059c2.438-0.223,4.342-1.572,4.66-2.482c0.995-2.857,5.859-15.818,7.751-20.946
		c-0.036-0.015-0.072-0.022-0.102-0.03c-3.672-0.862-8.707,0.248-13.092,4.104C48.748,140.68,45.064,147.871,41.855,155.249z
		 M134.035,150.922c-0.585,1.045-1.505,2.239-2.893,3.188c-1.758,1.206-3.37,1.619-5.006,1.766
		c-1.243,0.117-2.524,0.065-3.416-0.009l-5.449,15.159c-1.045,2.913-0.098,3.662,0.887,4.018c1.44,0.52,3.676,0.299,5.442-0.073
		c2.32-0.484,5.195-1.415,7.018-2.151l6.474-18.033c-1.278-0.569-2.485-1.525-2.876-2.792
		C134.102,151.624,134.052,151.267,134.035,150.922z M34.716,172.406c3.956,12.669,1.77,26.581-5.759,35.471
		c-4.93,5.823-15.128,7.711-13.296-4.737c0.677-4.629,1.823-9.096,3.342-14.128c1.506-4.97,2.91-9.994,5.494-16.833
		c0.053-0.149,0.056-0.68-0.745-1.802c-0.728-1.012-1.836-2.113-2.999-3.147c-0.576-0.516-1.748-1.425-2.788-2.303
		c-0.567-0.478-1.095-0.948-1.498-1.355c-0.211-0.213-0.419-0.442-0.587-0.672c-0.136-0.182-0.381-0.528-0.47-0.971
		c-0.504-2.529,2.586-5.558,6.772-6.697c3.502-0.958,6.99-0.979,9.41-0.928c3.788-8.533,8.227-16.344,15.98-22.081
		c7.111-5.261,13.355-7.304,21.833-7.468c5.051-0.105,6.269,0.293,7.032,0.8c1.197,0.796,1.441,2.147,1,3.315
		c-0.231,0.671-3.672,10.738-7.241,21.459c-3.673,11.037-7.493,22.778-8.042,25.584c-1.298,6.624,1.012,6.56,2.978,5.832
		c1.421-0.524,3.141-1.52,4.446-2.425c-0.438-1.217-0.728-2.677-0.355-4.086c0.412-1.569,1.354-3.148,3.134-4.352
		c2.409-1.627,6.356-2.342,8.504,0.126l0.935,1.077l-1.065,0.939c-0.784,0.698-1.359,1.947-1.25,3.183
		c0.28,3.012,2.265,3.948,5.649,3.662c3.11-0.255,5.127-1.788,5.293-3.783c0.135-1.559-1-2.972-3.134-4.156l-5.059-2.807
		c-3.54-1.958-7.474-4.725-7.182-9.331c0.386-6.058,5.301-9.387,14.621-10.157c4.559-0.372,7.995,0.468,10.064,2.959
		c1.811-1.828,4.497-3.14,7.35-3.727c2.61-0.526,4.876-0.704,7.28-0.769l3.209-8.955c0.431-1.196,1.57-1.845,2.475-2.212
		c0.984-0.399,2.149-0.645,3.232-0.78c1.886-0.238,3.22-0.173,4.112,0.174c1.043,0.401,1.797,1.41,1.382,2.598l-3.198,9.058
		c0.787-0.043,1.679-0.122,2.844-0.245c2.74-0.292,7.111-2.036,7.111-2.036s-0.258,1.477-0.454,2.441
		c1.274-1.534,3.444-2.516,5.012-2.744c2.618-0.389,4.831,0.62,6.454,2.33c5.487,0.637,9.051-0.992,10.044-2.253l1.168-1.475
		l0.71,0.031c0.408,0.02,0.792,0.175,1.048,0.296c0.259,0.122,0.581,0.299,0.922,0.534c0.638,0.41,1.373,0.994,2.127,1.679
		c0.766,0.699,1.429,1.379,1.915,1.948c0.268,0.309,0.475,0.589,0.625,0.806c0.347,0.521,0.423,0.96,0.423,1.184
		c0,0.354-0.282,1.063-0.756,1.57c-0.172,0.194-0.347,0.36-0.424,0.433c-2.139,2.234-4.061,5.483-5.689,9.526
		c-2.413,5.993-1.298,9.33,0.133,9.872c2.483,0.944,5.913,0.524,8.299-0.806c-3.862-8.361,1.761-19.469,5.442-23.242
		c5.499-5.615,14.946-8.247,20.462-3.782c1.256,1.017,3.014,3.188,3.768,6.564c1.041-0.558,2.363-1.33,3.732-2.191
		c1.923-1.199,4.291-2.936,4.989-3.468c2.52-3.096,6.562-5.356,12.396-5.837c5.552-0.458,8.62,0.56,10.729,3.858
		c0.726,1.125,1.449,2.931,1.244,4.946c-0.294,2.855-2.522,4.597-4.867,4.79c-3.079,0.257-5.367-2.029-4.547-5.352
		c0.019-0.052-0.226-1.268-0.562-1.475c-0.979-0.606-1.18-0.72-2.958-0.573c-2.308,0.187-3.919,1.729-4.222,3.812
		c-0.269,1.717,0.225,2.805,3.729,4.928l5.226,3.159c4.303,2.598,6.42,6.996,5.905,11.029c-0.227,1.749-0.996,3.781-1.612,4.927
		c-0.067,0.471,0.097,1.799,3.222,2.845c0.208-1.746,1.639-3.147,3.442-3.291c2.014-0.164,3.676,1.215,3.997,3.257
		c0.347,2.221-1.248,3.705-2.149,4.441c-4.018,3.248-12.754,7.568-19.345,9.879c-14.811,5.184-34.847,9.037-58.725,10.887
		c-24.826,1.918-40.89-0.183-63.853-0.854c-7.569-0.225-15.226-0.473-22.023-0.496c-6.729-0.025-12.608,0.154-16.7,0.8
		c-5.698,0.884-8.774,2.273-10.362,3.407c1.605,0.312,2.619,1.585,2.767,3.133c0.203,2.206-1.748,3.699-3.893,3.887
		c-2.646,0.229-6.997-1.27-6.552-5.906c0.452-4.768,8.078-8.469,18.049-10.157c8.689-1.477,21.893-1.261,35.55-1.58
		c15.343-0.364,32.325,0.567,47.013,0.304c31.621-0.571,59.467-4.603,76.063-9.275c4.681-1.316,8.218-2.646,11.503-4.095
		c-1.207-0.408-2.315-0.978-3.234-1.667c-2.866,1.833-6.319,3.199-9.546,3.47c-6.4,0.523-11.025-1.451-13.072-4.26
		c-1.101-1.464-1.879-3.296-2.001-5.574c-0.094-1.723,0.234-4.966,2.738-6.883c2.809-2.157,6.856-2.224,8.979,0.347l0.811,0.99
		l-0.892,0.922c-0.905,0.928-1.511,2.097-1.339,3.585c0.404,3.451,2.485,4.416,5.827,4.132c2.806-0.229,4.788-2.528,5.005-4.544
		c0.266-2.405-1.28-4.499-2.969-5.551l-5.252-3.272c-2.871-1.787-5.467-4.826-6.078-8.188c-2.127,1.614-4.774,3.569-6.568,4.685
		c0.009,3.541-1.957,10.387-7.569,14.764c-3.835,2.983-7.533,4.741-12.674,4.093c-1.801-0.228-3.224-0.747-4.213-1.218
		c-0.286-0.134-0.536-0.264-0.749-0.391c-3.91,2.339-8.819,3.691-13.18,3.104c-3.017-0.397-5.808-1.377-7.487-3.813
		c-2.511-3.637-2.424-7.891-1.562-11.748c0.505-2.255,1.706-5.61,2.593-7.943c-0.555,0.081-1.169,0.143-1.824,0.143
		c-1.076,0-1.97-0.108-2.622-0.222l-8.099,23.45c-0.375,1.082-1.112,1.692-2.025,2.006c-0.351,0.12-0.761,0.206-1.234,0.28
		c-0.389,0.058-0.822,0.108-1.32,0.17c-1.459,0.186-3.32,0.294-3.805,0.261c-0.918-0.075-2.148-0.754-2.199-1.993
		c-2.831,1.009-6.295,2.023-9.361,2.468c-10.056,1.442-15.713-2.856-12.657-11.782c0.775-2.263,3.984-10.927,5.417-14.772
		c-1.813-0.018-3.777,0.102-5.308,0.318c-1.313,0.174-2.45,0.371-3.354,0.753c-0.756,0.309-1.244,0.704-1.523,1.273
		c0,0.095,0.004,0.191,0.004,0.288c0.004,0.193,0,0.401-0.01,0.59c-0.012,0.178-0.038,0.464-0.131,0.737
		c-0.702,2.14-2.099,2.986-4.301,3.169c-2.556,0.213-5.347-1.641-4.854-4.496c0.021-0.128-0.254-1.341-0.6-1.551
		c-1.02-0.62-1.854-0.873-3.428-0.728c-2.314,0.198-3.686,1.052-3.968,2.503c-0.134,0.692,0.195,1.404,0.973,1.908
		c1.574,1.021,5.25,2.879,8.308,4.599c4.13,2.324,7.235,5.571,6.664,10.608c-0.87,7.635-9.706,10.378-16.166,10.913
		c-5.072,0.416-7.963-0.626-10.703-2.371c-1.893,1.394-4.657,3.165-8.308,4.429c-9.51,3.29-14.892-2.628-14.35-9.447
		c0.216-2.748,2.406-9.839,4.742-16.479c-0.875,0.178-1.987,0.346-3.382,0.483c-4.469,0.46-10.894,0.066-13.371-0.115
		L34.716,172.406z"/>
	<polyline fill="#E7D2AD" points="97.107,129.406 102.3,113.246 126.69,95.336 138.272,103.854 133.847,90.067 145.429,81.551 
		131.116,81.551 126.69,67.765 122.265,81.551 91.091,81.551 78.84,72.447 115.392,72.447 126.69,37.24 137.991,72.447 
		174.553,72.447 144.973,94.207 156.271,129.406 126.69,107.646 97.107,129.406 	"/>
	<path fill="#231F20" d="M30.65,179.435c-0.966,2.581-2.712,7.231-4.269,11.928c-1.553,4.689-2.927,9.457-3.143,12.255
		c-0.213,2.81,1.486,2.978,3.051,1.056c4.86-5.98,7.141-18.479,5.833-24.498C31.635,177.915,30.86,178.88,30.65,179.435
		 M27.786,166.64l0.236,0.322l2.324-6.059l-0.289-0.03c-2.386-0.191-4.878,0.096-6.793,0.814l-0.386,0.143l0.333,0.248
		C24.731,163.18,26.88,165.4,27.786,166.64z M185.644,159.759c-1.703,0.063-2.869-0.952-2.771-2.038
		c0.091-0.923,0.503-1.446,1.274-1.865c1.429-0.776,5.187-1.582,5.187-1.582c0.52-3.715-2.122-6.042-4.344-5.856
		c-3.522,0.295-8.266,5.368-9.91,11.482c-1.671,6.186,0.116,10.528,3.479,10.247c4.635-0.384,8.158-4.561,9.812-10.584
		C188.372,159.562,186.233,159.738,185.644,159.759z M46.186,157.123c2.715,0.286,5.287,0.737,7.831,0.498
		c2.644-0.238,5.267-1.729,5.86-3.431c1.026-2.931,6.114-16.495,7.884-21.303c0.325-0.772-0.39-1.332-1.241-1.536
		c-4.183-0.979-9.661,0.304-14.34,4.421c-4.988,4.383-9.021,12.766-12.387,20.696C39.779,156.475,43.677,156.864,46.186,157.123z
		 M32.495,155.755c3.853-8.814,8.199-16.678,15.907-22.375c6.879-5.093,12.84-7.04,21.031-7.2c5.102-0.104,5.883,0.336,6.234,0.57
		c0.559,0.373,0.699,0.979,0.447,1.629c-0.131,0.395-3.627,10.611-7.249,21.497c-3.697,11.11-7.538,22.935-8.091,25.759
		c-1.376,7.01,1.241,8.794,4.843,7.452c1.932-0.713,4.29-2.165,5.686-3.274c-0.602-1.312-1.071-2.862-0.716-4.212
		c0.325-1.257,1.076-2.533,2.555-3.529c2.2-1.492,5.229-1.758,6.665-0.122c-1.099,0.98-1.883,2.668-1.725,4.391
		c0.39,4.217,3.517,5.261,7.164,4.958c3.339-0.286,6.324-2.021,6.587-5.092c0.203-2.455-1.625-4.282-3.867-5.521l-5.055-2.811
		c-3.625-2.008-6.681-4.373-6.451-7.988c0.311-4.927,4.18-8.075,13.326-8.828c5.323-0.438,8.415,0.888,9.829,3.988
		c1.312-2.251,4.296-4.074,7.749-4.771c2.871-0.585,5.303-0.728,7.999-0.767l3.539-9.874c0.419-1.174,2.517-1.805,4.553-2.066
		c3.675-0.455,4.156,0.412,3.992,0.877l-3.889,11.013c1.439,0.009,2.706-0.052,5.007-0.302c2.961-0.318,5.134-1.189,5.134-1.189
		s-0.571,3.066-3.343,4.964c-1.52,1.039-2.892,1.396-4.348,1.529c-2.051,0.19-4.233-0.122-4.233-0.122l-5.821,16.207
		c-1.238,3.438-0.188,5.161,1.738,5.845c1.836,0.669,4.42,0.355,6.196-0.018c2.665-0.566,6.036-1.688,7.844-2.476l7.189-20.009
		c-1.526-0.289-3.042-1.281-3.352-2.312c-0.675-2.203,2.1-4.377,4.724-4.77c2.266-0.333,4.162,0.613,5.556,2.279
		c5.983,0.819,10.363-0.839,11.833-2.713l0.723-0.905c0.505,0.021,1.799,0.844,3.213,2.139c1.454,1.327,2.498,2.569,2.498,2.885
		c0,0.293-0.755,0.965-0.755,0.965c-2.313,2.419-4.342,5.852-6.013,10.022c-2.325,5.78-1.914,10.656,0.941,11.743
		c3.275,1.237,7.77,0.484,10.488-1.555l0.151-0.121l-0.101-0.164c-4.359-7.589,1.004-18.756,4.701-22.545
		c5.274-5.386,13.892-7.464,18.585-3.67c1.208,0.981,3.188,3.453,3.546,7.562c1.035-0.407,3.296-1.666,5.568-3.087
		c2.108-1.329,4.749-3.269,5.233-3.65c2.234-2.82,5.934-4.988,11.526-5.45c5.316-0.438,7.733,0.552,9.436,3.212
		c0.601,0.944,1.182,2.425,1.017,4.021c-0.217,2.093-1.826,3.375-3.577,3.521c-2.212,0.188-3.628-1.298-3.064-3.585
		c0.096-0.393-0.138-2.38-1.194-3.038c-1.274-0.788-1.784-0.945-3.81-0.775c-2.912,0.238-5.103,2.233-5.501,5.014
		c-0.405,2.651,0.806,4.195,4.399,6.37l5.23,3.161c3.88,2.346,5.659,6.226,5.228,9.619c-0.209,1.646-0.992,3.647-1.547,4.586
		c-0.506,1.757,0.693,4.213,6.65,5.378c-0.555-0.545-0.718-1.165-0.712-1.605c0.026-1.178,0.946-2.175,2.175-2.279
		c1.242-0.099,2.277,0.724,2.49,2.062c0.213,1.363-0.741,2.378-1.641,3.104c-3.836,3.105-12.406,7.365-18.922,9.643
		c-14.664,5.136-34.568,8.975-58.376,10.816c-24.766,1.914-40.794-0.188-63.702-0.862c-7.582-0.222-15.249-0.459-22.055-0.489
		c-6.824-0.022-12.779,0.16-16.922,0.811c-9.72,1.514-13.168,4.71-13.106,6.676l0.018,0.501c0,0,0.723-0.891,1.892-0.985
		c1.48-0.126,2.301,0.761,2.408,1.896c0.108,1.105-0.895,2.181-2.608,2.328c-2.344,0.208-5.342-1.092-5.031-4.346
		c0.331-3.518,6.618-7.149,16.875-8.885c8.647-1.465,21.775-1.243,35.353-1.568c15.34-0.363,32.32,0.567,47.005,0.309
		c31.701-0.573,59.673-4.611,76.418-9.322c6.851-1.931,11.285-3.88,16.021-6.204c-3.117,0.169-6.294-1.004-8.032-2.714
		c-2.878,2.026-6.489,3.55-9.764,3.819c-6.12,0.51-10.166-1.415-11.819-3.682c-0.948-1.252-1.62-2.822-1.728-4.802
		c-0.081-1.581,0.247-4.187,2.178-5.672c2.399-1.835,5.551-1.688,7.04,0.125c-1.096,1.136-1.969,2.706-1.731,4.754
		c0.532,4.53,3.606,5.703,7.343,5.387c3.48-0.29,6.003-3.107,6.296-5.82c0.343-3.13-1.659-5.68-3.636-6.912l-5.254-3.273
		c-3.367-2.1-5.987-5.829-5.477-9.35l0.074-0.515c-2,1.579-6.218,4.807-8.715,6.36l-0.089,0.053l-0.015,0.109
		c-0.547,4.354-2.41,10.649-7.591,14.686c-3.668,2.86-7.003,4.394-11.641,3.81c-3.26-0.408-5.125-1.866-5.125-1.866
		c-3.806,2.485-8.758,3.932-13.007,3.364c-2.883-0.381-5.173-1.282-6.508-3.214c-2.182-3.161-2.169-6.933-1.352-10.619
		c0.831-3.706,3.577-10.4,3.577-10.4s-1.817,0.861-4.179,0.861c-2.189,0-3.536-0.48-3.536-0.48l-8.513,24.661
		c-0.434,1.238-1.489,1.266-3.43,1.515c-1.448,0.183-3.186,0.274-3.52,0.248c-0.671-0.052-1.001-0.459-0.838-0.931l0.729-1.997
		c-3.004,1.238-7.767,2.831-11.759,3.407c-9.579,1.381-13.671-2.476-11.126-9.897c1.003-2.927,6.093-16.596,6.093-16.596
		c-2.307-0.155-5.326-0.039-7.507,0.26c-2.592,0.354-5.245,0.826-6.113,3.195c0,0,0.08,1.032-0.046,1.41
		c-0.486,1.482-1.306,2.048-3.081,2.2c-2.039,0.168-3.622-1.257-3.347-2.832c0.062-0.381-0.19-2.358-1.264-3.016
		c-1.287-0.784-2.417-1.093-4.274-0.931c-2.467,0.213-4.755,1.212-5.233,3.657c-0.278,1.42,0.478,2.656,1.591,3.379
		c1.588,1.032,5.301,2.914,8.385,4.645c3.951,2.221,6.425,5.022,5.951,9.196c-0.728,6.42-8.333,9.113-14.882,9.654
		c-5.225,0.433-7.849-0.771-10.64-2.688c-1.821,1.403-4.708,3.435-8.712,4.823c-8.562,2.96-12.951-2.209-12.494-7.989
		c0.229-2.883,2.935-11.404,5.627-18.774c0,0-1.023,0.764-5.809,1.252c-5.539,0.563-14.135-0.202-14.135-0.202l-4.594,11.07
		l0.026,0.075c4.053,12.412,1.908,25.955-5.352,34.533c-5.053,5.967-12.236,5.923-10.835-3.603c0.67-4.557,1.802-8.963,3.3-13.926
		c1.497-4.943,2.895-9.937,5.462-16.746c0.677-1.796-1.765-4.418-4.125-6.521c-1.165-1.045-4.726-3.672-4.895-4.513
		c-0.258-1.27,1.637-3.923,5.752-5.044C26.314,155.578,30.096,155.681,32.495,155.755z"/>
	<polyline fill="#B32317" points="126.69,105.954 99.683,125.822 103.448,114.088 126.69,97.026 140.845,107.438 135.437,90.592 
		149.595,80.183 132.098,80.183 126.69,63.332 121.283,80.183 91.529,80.183 82.964,73.814 116.375,73.814 126.69,41.67 
		137.005,73.814 170.393,73.814 143.383,93.683 153.7,125.822 126.69,105.954 	"/>
</g>
</svg>
