<?xml version="1.0" encoding="utf-8"?>
<!-- Generator: Adobe Illustrator 16.0.4, SVG Export Plug-In . SVG Version: 6.00 Build 0)  -->
<!DOCTYPE svg PUBLIC "-//W3C//DTD SVG 1.1//EN" "http://www.w3.org/Graphics/SVG/1.1/DTD/svg11.dtd">
<svg version="1.1" id="Layer_1" xmlns="http://www.w3.org/2000/svg" xmlns:xlink="http://www.w3.org/1999/xlink" x="0px" y="0px"
	 width="250px" height="250px" viewBox="0 0 250 250" enable-background="new 0 0 250 250" xml:space="preserve">
<g>
	<path fill="#FFFFFF" d="M124.75,240.824c64.201,0,116.25-52.044,116.25-116.25c0-64.199-52.049-116.25-116.25-116.25
		C60.551,8.324,8.5,60.375,8.5,124.574C8.5,188.78,60.551,240.824,124.75,240.824"/>
	<path fill="#00483A" d="M124.75,16.129c-59.797,0-108.451,48.653-108.451,108.445c0,59.802,48.654,108.448,108.451,108.448
		c59.798,0,108.445-48.646,108.445-108.448C233.195,64.783,184.546,16.129,124.75,16.129 M124.75,190.97
		c-36.611,0-66.396-29.778-66.396-66.396c0-36.606,29.783-66.39,66.396-66.39c36.604,0,66.396,29.785,66.396,66.39
		C191.146,161.191,161.354,190.97,124.75,190.97z"/>
	<path fill="#FDC157" d="M124.75,12.834c-61.613,0-111.747,50.127-111.747,111.74c0,61.618,50.133,111.749,111.747,111.749
		c61.614,0,111.741-50.131,111.741-111.749C236.489,62.961,186.362,12.834,124.75,12.834 M124.75,233.022
		c-59.797,0-108.451-48.646-108.451-108.448c0-59.792,48.654-108.445,108.451-108.445c59.798,0,108.445,48.653,108.445,108.445
		C233.195,184.378,184.546,233.022,124.75,233.022z"/>
	<path fill="#FFFFFF" d="M124.75,61.284c-34.901,0-63.292,28.395-63.292,63.292c0,34.9,28.389,63.298,63.292,63.298
		c34.901,0,63.291-28.397,63.291-63.298C188.041,89.677,159.651,61.284,124.75,61.284"/>
	<path fill="#FDC157" d="M124.75,58.184c-36.611,0-66.396,29.785-66.396,66.39c0,36.617,29.783,66.396,66.396,66.396
		c36.604,0,66.396-29.778,66.396-66.396C191.146,87.969,161.354,58.184,124.75,58.184 M124.75,187.872
		c-34.901,0-63.292-28.396-63.292-63.298c0-34.897,28.389-63.292,63.292-63.292c34.901,0,63.291,28.395,63.291,63.292
		C188.041,159.476,159.651,187.872,124.75,187.872z"/>
	<path fill="#00483A" d="M160.133,149.753c-1.749,1.261-3.795,2.108-5.729,1.746c-1.564-0.276-3.664-1.427-4.853-5.32
		c0,0-12.831-53.141-12.848-53.259c-0.976-6.458-4.4-10.01-7.11-11.848c-3.472-2.356-7.815-3.232-11.603-2.351
		c-5.919,1.377-8.111,4.451-8.927,6.859c2.483-1.239,5.096-0.684,6.747,0.385c1.058,0.646,3.526,2.175,1.896,6.545l-2.28,5.995
		l-1.229-0.347c-1.373-0.395-2.81-0.471-4.263-0.225c-2.5,0.427-4.258,1.41-5.214,2.917c-0.604,0.946-0.786,1.972-0.833,2.879
		c2.083-1.17,4.188-0.833,5.7,0.144c1.068,0.695,2.013,1.614,2.013,3.499c0,0.604-0.1,1.32-0.324,2.158l-13.628,45.625l-0.685,0.229
		c-6.965,2.334-8.835,6.181-9.305,8.646c2.116-1.22,5.545-2.78,10.349-3.255c1.987-0.196,4.385,0.418,6.709,1.005
		c1.88,0.47,3.819,0.967,5.23,0.929c1.785-0.04,3.135-0.556,4.022-1.528c0.924-1.002,1.176-2.307,1.203-3.414
		c-0.791-0.437-2.196-1.221-3.473-1.943c-0.304,0.449-0.688,0.823-1.143,1.085c-0.759,0.428-2.084,0.779-4.056,0.006l-1.184-0.46
		l5.377-18.742h19.83l1.079-0.024l3.564,13.937c2.383,9.708,9.439,12.031,14.751,11.076
		C154.976,161.789,158.604,156.875,160.133,149.753 M113.274,130.094l7.582-26.232l1.496-5.16l7.189,31.392H113.274z"/>
	<path fill="#FDC157" d="M120.855,103.862l-7.582,26.232h16.267l-7.189-31.392 M116.971,127.309
		c0.684-2.361,3.382-11.693,5.069-17.523c1.347,5.887,3.494,15.253,4.02,17.523C123.9,127.309,119.231,127.309,116.971,127.309z"/>
	<path fill="#FDC157" d="M160.602,145.538c-1.392,1.811-3.86,3.563-5.703,3.227c-1.156-0.208-2.059-1.326-2.662-3.317
		c0.015,0.067-12.806-53.061-12.806-53.061c-0.85-5.696-3.799-10.573-8.277-13.612c-4.101-2.784-9.256-3.82-13.792-2.764
		c-12.661,2.956-11.545,13.042-11.528,13.149l0.437,3.472l2.062-2.831c2.105-2.885,4.68-2.331,5.753-1.635
		c0.801,0.496,1.383,0.854,1.383,1.778c0,0.401-0.106,0.909-0.363,1.586c0,0-0.946,2.5-1.432,3.767
		c-1.384-0.235-2.779-0.353-4.209-0.107c-3.323,0.566-5.717,1.978-7.116,4.199c-2.121,3.382-1.021,7.33-0.978,7.495l0.743,2.561
		l1.677-2.068c1.833-2.25,3.472-1.698,4.29-1.17c0.658,0.428,1.025,0.667,0.519,2.561c0.011-0.033-11.637,38.978-13.218,44.272
		c-9.536,3.51-10.647,9.955-10.647,12.629c0,0.73,0.08,1.179,0.08,1.196l0.444,2.296l1.812-1.487
		c0.043-0.034,4.247-3.438,11.203-4.132c1.512-0.144,3.664,0.4,5.753,0.929c2.062,0.524,4.194,1.069,5.994,1.015
		c2.522-0.062,4.601-0.903,6-2.426c1.421-1.544,2.088-3.679,1.943-6.18l-0.046-0.765l-7.913-4.424l-0.342,1.931
		c-0.038,0.245-0.16,0.677-0.476,0.858c-0.112,0.064-0.272,0.087-0.449,0.098c0.646-2.228,3.584-12.476,4.049-14.083
		c1.752,0,14.865,0,16.662,0c0.445,1.726,3.019,11.796,3.019,11.796c2.656,10.837,10.925,14.403,17.94,13.143
		c7.313-1.314,12.396-8.831,13.251-19.617l0.117-1.495h-1.502C161.542,144.32,161.21,144.752,160.602,145.538 M135.168,151.622
		l-3.566-13.938l-1.077,0.025h-19.831l-5.378,18.742l1.184,0.46c1.972,0.775,3.298,0.422,4.056-0.006
		c0.455-0.265,0.839-0.636,1.143-1.084c1.277,0.722,2.683,1.506,3.473,1.942c-0.027,1.107-0.279,2.412-1.203,3.414
		c-0.887,0.973-2.238,1.488-4.022,1.528c-1.411,0.038-3.35-0.459-5.23-0.929c-2.324-0.587-4.722-1.201-6.709-1.005
		c-4.803,0.476-8.233,2.036-10.348,3.255c0.47-2.465,2.34-6.312,9.305-8.646l0.685-0.229l13.628-45.625
		c0.225-0.84,0.324-1.555,0.324-2.159c0-1.886-0.945-2.805-2.013-3.5c-1.513-0.978-3.617-1.313-5.7-0.144
		c0.048-0.909,0.229-1.934,0.833-2.88c0.957-1.507,2.714-2.49,5.214-2.917c1.453-0.246,2.891-0.17,4.263,0.225l1.229,0.347
		l2.28-5.995c1.629-4.37-0.839-5.898-1.896-6.545c-1.651-1.068-4.264-1.624-6.747-0.385c0.817-2.409,3.007-5.481,8.927-6.859
		c3.788-0.881,8.129-0.006,11.603,2.351c2.708,1.837,6.133,5.389,7.11,11.847c0.017,0.118,12.848,53.259,12.848,53.259
		c1.188,3.896,3.286,5.044,4.853,5.32c1.934,0.362,3.979-0.485,5.727-1.746c-1.527,7.12-5.155,12.035-10.214,12.943
		C144.607,163.653,137.55,161.33,135.168,151.622z"/>
	<path fill="#00483A" d="M165.688,109.964c0,0-1.635-0.492-1.661-0.498c-1.246-0.406-3.568-1.16-3.568-3.366
		c0-1.956,1.935-3.119,3.805-3.119c1.314,0,2.605,0.495,3.81,1.216c0.479-0.941,1.014-1.981,1.517-2.943
		c-1.915-0.893-4.218-1.518-6.24-1.518c-4.456,0-7.439,2.902-7.439,7.207c0,3.884,1.7,4.761,6.104,6.01
		c1.56,0.433,4.455,1.255,4.455,3.773c0,2.083-1.717,3.541-4.167,3.541c-1.773,0-3.525-0.796-5.3-2.088
		c-0.54,1.015-1.184,2.239-1.693,3.196c2.234,1.362,4.733,2.2,7.218,2.2c2.496,0,4.736-0.73,6.309-2.066
		c1.443-1.229,2.183-3.189,2.183-5.834C171.017,112.773,169.43,111.063,165.688,109.964"/>
	<path fill="#FDC157" d="M166.297,107.928l-1.634-0.493c-0.771-0.25-2.085-0.673-2.085-1.335c0-0.619,0.977-0.999,1.683-0.999
		c1.225,0,2.49,0.492,3.568,1.389l1.015,0.845l3.627-7.047l-0.886-0.503c-2.318-1.319-5.554-2.168-8.238-2.168
		c-5.636,0-9.562,3.841-9.562,9.327c0,5.872,3.955,7,7.443,7.988c1.223,0.347,3.114,0.888,3.114,1.795
		c0,1.383-1.833,1.421-2.041,1.421c-1.601,0-3.232-0.748-4.993-2.286l-1.005-0.888l-3.812,7.18l0.766,0.54
		c2.763,1.939,6.052,3.004,9.27,3.004c3.003,0,5.733-0.909,7.687-2.576c1.947-1.646,2.925-4.15,2.925-7.447
		C173.135,110.54,169.235,108.793,166.297,107.928 M168.834,121.508c-1.572,1.336-3.812,2.066-6.309,2.066
		c-2.484,0-4.985-0.838-7.218-2.2c0.51-0.957,1.153-2.181,1.693-3.196c1.774,1.292,3.526,2.088,5.3,2.088
		c2.45,0,4.167-1.458,4.167-3.541c0-2.518-2.894-3.34-4.455-3.773c-4.403-1.25-6.104-2.126-6.104-6.01
		c0-4.305,2.983-7.207,7.439-7.207c2.024,0,4.327,0.625,6.24,1.518c-0.503,0.962-1.037,2.002-1.517,2.943
		c-1.202-0.721-2.495-1.216-3.81-1.216c-1.87,0-3.805,1.164-3.805,3.119c0,2.206,2.322,2.96,3.568,3.366
		c0.026,0.006,1.661,0.498,1.661,0.498c3.742,1.1,5.329,2.809,5.329,5.71C171.017,118.319,170.277,120.279,168.834,121.508z"/>
	<path fill="#00483A" d="M147.418,100.875c0.639-0.037,1.603-0.095,2.158,0.679c0.224,0.311,0.305,0.664,0.305,1.016
		c0,0.513-0.172,1.026-0.34,1.433c-0.368,0.909-0.703,1.399-1.057,1.832c0.428-0.251,0.861-0.518,1.075-0.706
		c1.021-0.875,1.944-2.376,1.944-4.178c0-0.694-0.136-1.432-0.454-2.206c-0.438-1.021-1.411-1.314-1.946-1.4
		c-0.946-0.139-1.955,0.134-2.395,0.652c-0.677,0.801-0.699,1.757-0.415,2.313C146.487,100.715,146.827,100.908,147.418,100.875"/>
	<path fill="#FDC157" d="M147.413,103.002c0.034-0.005,0.143-0.011,0.229-0.011c-0.033,0.096-0.072,0.208-0.072,0.208
		c-0.595,1.496-0.847,1.608-1.519,1.918l-1.156,0.523l0.463,1.165l1.383,2.003l0.7-0.161c1.046-0.235,2.889-1.388,3.504-1.907
		c2.109-1.827,3.557-5.256,2.057-8.82c-0.603-1.442-1.913-2.415-3.574-2.67c-1.7-0.262-3.398,0.272-4.333,1.374
		c-1.132,1.335-1.421,3.194-0.704,4.63C144.971,102.42,146.103,103.076,147.413,103.002 M146.711,97.997
		c0.439-0.519,1.448-0.791,2.395-0.652c0.535,0.085,1.508,0.38,1.945,1.4c0.319,0.775,0.455,1.513,0.455,2.206
		c0,1.801-0.924,3.302-1.944,4.178c-0.216,0.188-0.647,0.455-1.075,0.706c0.354-0.433,0.688-0.923,1.057-1.832
		c0.168-0.407,0.339-0.919,0.339-1.433c0-0.352-0.08-0.705-0.304-1.016c-0.557-0.774-1.518-0.715-2.158-0.679
		c-0.591,0.033-0.931-0.16-1.123-0.565C146.011,99.754,146.032,98.797,146.711,97.997z"/>
	<path fill="#FFFFFF" d="M65.867,170.539l-15.647,19.019l-3.222-4.481l2.683-3.136l-3.062-4.253l-3.81,1.582l-3.001-4.173
		l22.875-8.985 M56.634,174.367l2.575-2.588l-0.038-0.054l-3.248,1.657l-5.802,2.801l2.132,2.965L56.634,174.367z"/>
	<polyline fill="#FFFFFF" points="81.375,185.734 78.505,189.094 75.386,186.435 62.794,201.185 58.856,197.824 71.45,183.072 
		68.354,180.439 71.224,177.072 	"/>
	<polyline fill="#FFFFFF" points="91.242,191.338 87.38,199.812 92.151,201.991 96.013,193.513 100.725,195.665 90.848,217.323 
		86.135,215.175 90.312,206.014 85.542,203.834 81.365,213.007 76.658,210.854 86.531,189.188 	"/>
	<path fill="#FFFFFF" d="M114.744,222.619c0.074-0.366,0.71-4.308,0.71-4.308s-0.011,0-0.017,0h-0.004
		c-0.155-0.043-5.337-0.887-5.337-0.887c0.011,0,3.115-19.12,3.115-19.12v-0.017l-5.119-0.832l-0.005,0.016l0,0l-0.021,0.162
		c-0.304,1.761-3.804,23.34-3.804,23.34c0.011,0.02,10.472,1.715,10.472,1.715l0.005-0.012 M115.437,218.323l-0.004,0.03
		L115.437,218.323z M110.106,217.445l-0.011-0.006L110.106,217.445z"/>
	<polyline fill="#FFFFFF" points="133.687,198.781 133.917,203.193 128.677,203.465 128.943,208.643 133.56,208.395 
		133.784,212.813 129.175,213.048 129.449,218.419 134.761,218.141 134.99,222.559 124.514,223.098 123.275,199.312 	"/>
	<polyline fill="#FFFFFF" points="152.398,193.993 153.679,198.224 149.758,199.416 155.409,217.97 150.456,219.476 
		144.811,200.928 140.92,202.108 139.633,197.883 	"/>
	<polyline fill="#FFFFFF" points="162.895,188.459 174.491,209.251 169.97,211.772 158.368,190.98 	"/>
	<path fill="#FFFFFF" d="M162.883,188.443l-4.52,2.521c0,0.032,11.598,20.813,11.598,20.813c0.017,0.007,4.537-2.511,4.537-2.511
		c0-0.037-11.594-20.818-11.594-20.818l-0.01-0.011"/>
	<path fill="#FFFFFF" d="M181.919,179.175c-0.605,0.313-1.133,0.657-1.627,1.096c-3.407,3.017-2.402,7.144,0.022,9.883
		c2.345,2.648,6.716,4.604,10.096,1.618c0.493-0.444,0.894-0.999,1.257-1.581l2.948,3.338c-0.378,0.716-0.896,1.341-1.521,1.896
		c-5.593,4.948-12.746,3.099-16.893-1.587c-3.91-4.424-4.703-11.822,0.577-16.487c0.672-0.603,1.431-1.062,2.271-1.427"/>
	<path fill="#FFFFFF" d="M192.896,165.815c-1.266,0.402-2.566,1.065-3.369,2.245c-0.897,1.319-0.744,2.648,0.463,3.468
		c3.231,2.203,7.86-4.174,13.181-0.547c3.494,2.385,4.62,6.391,1.874,10.411c-0.822,1.203-2.179,2.465-3.499,2.992l-3.701-2.525
		c1.312-0.576,2.399-1.267,3.26-2.532c0.94-1.373,0.854-3.038-0.456-3.927c-1.512-1.035-2.986-0.106-4.589,0.567
		c-3.201,1.436-5.694,1.96-8.568,0c-3.098-2.122-4.439-5.938-1.928-9.606c0.939-1.373,2.118-2.383,3.554-3.126"/>
	<path fill="#FFFFFF" d="M63.435,62.929c6.919,5.658,6.609,11.325,3.682,14.905c-2.923,3.574-8.42,5.005-15.339-0.653
		c-6.918-5.651-6.608-11.324-3.68-14.898C51.019,58.703,56.517,57.275,63.435,62.929 M63.745,75.072
		c2.18-2.661-2.339-6.668-3.804-7.864c-1.64-1.34-6.292-4.829-8.472-2.169c-2.175,2.661,2.173,6.528,3.809,7.87
		C56.747,74.105,61.571,77.738,63.745,75.072z"/>
	<path fill="#FFFFFF" d="M71.63,41.836l18.532,16.23l-4.583,3.089l-3.051-2.778l-4.348,2.928l1.463,3.852l-4.259,2.879L67.11,44.883
		 M75.167,51.18l-2.5-2.65l-0.063,0.039l1.56,3.291l2.628,5.893l3.023-2.041L75.167,51.18z"/>
	<polyline fill="#FFFFFF" points="94.169,31.253 97.269,41.436 97.333,41.41 98.358,29.976 103.412,28.443 101.987,40.362 
		110.929,51.047 105.72,52.629 97.631,42.415 97.573,42.43 101.094,54.04 96.146,55.545 89.218,32.754 	"/>
	<polyline fill="#FFFFFF" points="122.447,26.478 122.958,45.865 128.383,45.721 128.495,50.139 117.9,50.422 117.275,26.611 	"/>
	<path fill="#FFFFFF" d="M150.985,30.068l0.294,24.623l-5.351-1.347l0.03-4.125l-5.087-1.276l-1.89,3.659l-4.99-1.254l11.705-21.609
		 M146.396,38.941l0.295-3.639l-0.06-0.016l-1.422,3.354l-2.628,5.893l3.542,0.887L146.396,38.941z"/>
	<path fill="#FFFFFF" d="M174.011,39.78l-2.125,15.61l0.097-0.016c0.331-1.132,0.896-2.228,1.554-3.274l5.672-9.082l4.385,2.741
		l-12.611,20.194l-4.162-2.591l2.19-15.573l-0.091,0.017l-1.058,2.163l-0.498,0.848l-5.787,9.269l-4.396-2.74l12.618-20.195"/>
	<path fill="#FFFFFF" d="M176.924,71.274l18.236-15.301l2.522,3.003c0.58,0.695,8.469,8.227-1.721,16.771
		c-5.194,4.364-10.822,5.322-16.068-0.929 M192.666,71.761c2.32-1.946,5.321-5.834,2.581-9.104l-11.76,9.862
		C186.021,75.836,190.387,73.672,192.666,71.761z"/>
	<path fill="#00483A" d="M213.563,216.725h-2.273v6.187h-1.539v-6.187h-2.274v-1.347h6.087 M223.867,222.911h-1.546v-5.996h-0.03
		l-2.18,5.996h-1.485l-2.117-5.996h-0.038v5.996h-1.534v-7.531h2.662l1.758,4.919h0.033l1.827-4.919h2.648v7.531H223.867z"/>
</g>
</svg>
