<?xml version="1.0" encoding="utf-8"?>
<!-- Generator: Adobe Illustrator 16.0.4, SVG Export Plug-In . SVG Version: 6.00 Build 0)  -->
<!DOCTYPE svg PUBLIC "-//W3C//DTD SVG 1.1//EN" "http://www.w3.org/Graphics/SVG/1.1/DTD/svg11.dtd">
<svg version="1.1" id="Layer_1" xmlns="http://www.w3.org/2000/svg" xmlns:xlink="http://www.w3.org/1999/xlink" x="0px" y="0px"
	 width="250px" height="250px" viewBox="0 0 250 250" enable-background="new 0 0 250 250" xml:space="preserve">
<g>
	<path fill="#FFFFFF" d="M214.597,94.253c-0.33,0-84.831,0-84.831,0s-0.602,1.068-0.661,1.179c-3.241-1.312-6.73-1.425-7.884-1.417
		c-1.088,0.004-2.196,0.08-3.313,0.213l4.973-8.714c0,0-65.254,0.03-69.904,0.852C31.787,90.121,25.262,99.169,24.99,99.555
		l-1.33,1.907c0,0,0.199,0.252,0.302,0.378c-9.581,5.617-12.828,11.73-12.968,12.012l-2.086,4.075l4.004,0.184
		c0.146,0.006,12.424,0.65,21.145,5.316c-3.835,2.063-6.606,5.748-7.17,10.163c0,0.004-0.117,1.923-0.117,1.923
		c0,3.002,0.969,5.991,2.748,8.431c3.357,4.578,9.507,7.012,17.324,6.852c4.497-0.089,8.825-0.816,12.938-2.16l-7.325,5.003
		c0,0,74.616-2.409,78.582-2.555c0.117,0.615,0.235,1.223,0.412,1.786c0.669,2.078,1.845,4.196,3.07,5.54
		c6.593,7.203,17.193,6.541,18.378,6.442c5.846-0.477,17.839-4.539,26.501-16.078l52.849-1.922l0.021-14.147l-7.347-0.013
		c0.396-0.248,0.778-0.497,1.146-0.767c5.472-3.982,8.866-9.816,9.821-16.874c0.425-3.123,0.535-6.02,0.66-9.089
		c0.117-3.034,0.243-6.174,0.684-9.421l1.066-7.854C238.299,88.688,218.014,93.449,214.597,94.253"/>
	<path fill="#0065A3" d="M27.922,102.556c-0.132-0.146-1.116-1.414-1.116-1.414s5.98-8.562,26.522-12.211
		c7.15-1.263,21.661-0.878,24.467-0.819h40.649l-5.253,9.203h-1.866c-3.322,0-4.116,0-6.238,0.69
		c-2.879,0.967-7.245,3.201-11.866,11.367l-2.851,5.022l-2.822,4.978c-4.375,8.618-9.877,15.395-16.358,20.156
		c-7.244,5.305-15.451,8.089-24.384,8.265c-6.907,0.139-12.608-1.932-15.503-5.886c-1.389-1.912-2.175-4.24-2.175-6.591
		c0-0.498,0.03-1.001,0.096-1.504c0.661-5.18,5.422-9.203,10.947-9.537c-8.751-8.332-27.163-9.166-27.163-9.166
		S16.512,108.272,27.922,102.556"/>
	<path fill="#0065A3" d="M234.141,92.317l-21.197,4.974c0,0-10.315,11.683-11.498,13.027c-1.182,0.155-2.335,0.456-3.424,0.918
		c1.22-2.182,2.484-4.43,2.484-4.43c1.998-3.534,4.857-3.625,4.973-3.629c0.008,0,1.2-0.021,1.2-0.021l3.628-6.304H131.03
		c0,0-0.676,1.202-1.036,1.841c-2.482-1.54-6.054-2.098-8.749-2.077c-11.954,0.062-25.965,8.249-27.773,21.358
		c-0.528,3.887,0.243,7.439,2.241,10.263c2.637,3.749,7.252,5.894,12.667,5.869c5.318-0.025,9.867-2.37,12.477-4.056
		c1.027,1.436,3.629,4.088,8.83,4.084c5.078-0.004,10.448-1.635,14.364-4.357c0.492-0.338,1.616-1.174,2.395-1.756
		c1.889,3.758,6.047,6.143,11.007,6.151c2.614,0.003,4.769-0.512,6.333-1.069c-2.255,4.038-6.128,10.962-6.744,11.935
		c-0.618,1.021-1.368,1.966-2.006,2.533c-2.094,1.846-4.563,2.834-6.291,2.515c-0.623-0.126-1.078-0.404-1.344-0.842
		c-0.182-0.299-0.271-0.68-0.271-1.171c0.006-0.116,0.042-0.562,0.052-0.652c0.285-2.169,1.808-4.666,3.96-6.528
		c1.954-1.693,6.393-4.272,6.428-4.297l3.594-2.084l-55.244,0.036c-10.877-0.278-13.543-5.725-15.49-9.7l-1.11-2.268l-0.809,1.528
		l-1.167,2.212c-4.266,7.589-10.452,14.056-17.88,18.676c-0.021,0.019-8.619,5.593-8.619,5.593s70.293-2.509,72.227-2.583
		c0.022,1.072,0.183,2.406,0.588,3.681c0.529,1.661,1.491,3.405,2.453,4.457c5.975,6.531,16.187,5.753,16.62,5.717
		c6.392-0.525,20.602-5.601,28.609-21.037c-0.008,0.027,6.224-11.033,9.2-16.307c0.315,1.462,1.116,3.461,2.607,5.111
		c3.048,3.344,7.692,4.593,14.387,4.6c6.664,0.011,12.695-1.573,17.316-4.898c4.908-3.573,7.884-8.779,8.722-14.924
		c0.396-2.958,0.506-5.783,0.623-8.769c0.125-3.13,0.259-6.333,0.722-9.738l0.522-3.879 M120.392,116.556
		c-2.961,4.081-5.731,5.627-7.046,5.921c-0.191,0.045-0.397,0-0.559-0.159c-0.169-0.161-0.256-0.396-0.25-0.631l0,0
		c0.037-1.807,1.161-5.117,3.71-8.637c2.967-4.091,5.752-5.635,7.061-5.918c0.19-0.048,0.388,0.008,0.542,0.155
		c0.171,0.161,0.251,0.396,0.251,0.628C124.063,109.731,122.94,113.037,120.392,116.556z M148.201,114.389
		c-2.219,3.637-4.85,5.201-6.555,5.672l-0.08,0.025c-0.073,0.026-0.16,0.01-0.22-0.047c-0.096-0.096-0.118-0.25-0.06-0.375
		c0.089-0.161,0.178-0.341,0.294-0.551c-0.007,0.007,6.944-12.38,6.944-12.38c1.998-3.534,4.849-3.623,4.975-3.623
		c0,0,0.938-0.018,1.079-0.018C151.727,108.137,148.201,114.389,148.201,114.389z M177.111,109.309
		c-2.196,3.901-6.224,7.943-8.81,9.268l-0.08,0.027c-0.081,0.028-0.161,0.011-0.227-0.049c-0.09-0.092-0.111-0.235-0.061-0.353
		c1.352-2.409,4.813-8.298,6.577-11.432c1.998-3.537,4.937-3.625,4.966-3.625c0.015,0,0.991-0.02,1.109-0.02
		C178.853,106.211,177.111,109.309,177.111,109.309z M205.766,124.13v-0.003c-0.176,0.012-0.353-0.077-0.462-0.257
		c-0.147-0.227-0.14-0.525-0.009-0.75c0.676-1.102,2.586-2.972,4.592-3.384c0.134-0.018,0.273,0.041,0.361,0.18
		c0.095,0.144,0.102,0.327,0.044,0.482l0,0C209.101,122.94,207.213,124.032,205.766,124.13z"/>
	<path fill="#231F20" d="M78.28,90.25c0,0-16.913-0.419-24.723,0.822c-8.463,1.319-19.896,5.827-23.893,10.448l1.55,1.734
		c0,0-1.462,0.716-4.188,2.336c-8.375,4.997-10.065,7.755-10.065,7.755c7.185,0.929,20.072,1.968,28.874,14.218
		c-1.455-0.821-3.114-1.205-5.055-1.171c-4.93,0.096-9.06,3.408-9.619,7.74c-0.286,2.273,0.258,4.435,1.588,6.257
		c2.505,3.409,7.759,5.359,14.026,5.231c8.618-0.167,16.517-2.833,23.458-7.916c6.238-4.57,11.521-11.098,15.731-19.409l0.893-1.55
		l4.864-8.574c4.974-8.806,9.736-11.205,12.88-12.227c2.366-0.801,3.379-0.801,6.724-0.801h0.91l2.792-4.896 M62.072,118.819
		c-2.394,4.334-6.171,11.345-10.264,15.609c-1.741-3.592-5.856-11.449-10.051-14.571c1.925,0.648,4.408,1.386,7.531,2.059
		c0,0-1.925-1.55-3.27-2.734c6.862-0.496,12.968-3.158,18.235-11.018c0,0,0.669-0.4,3.585,0.486L62.072,118.819z M71.469,102.251
		l-2.835,5.015c-0.992-0.889-2.264-1.891-3.865-2.991c0,0-0.411-0.249-0.624-0.4c-1.315-0.841-2.844-1.73-4.577-2.569
		c-1.477-0.65-3.129-1.249-4.879-1.73l3.247-1.803c-6.098-0.209-10.852,0.518-13.629,1.094c-0.61,0.089-1.212,0.195-1.807,0.342
		c-5.201,1.256-8.75,3.125-8.75,3.125l-0.912-0.801c12.401-11.166,44.2-9.285,44.2-9.285s-4.542,3.24-7.891,5.98
		c-0.993,0.811-3.012,2.564-3.012,2.564C67.905,101.21,69.699,101.705,71.469,102.251z"/>
	<path fill="#FFFFFF" d="M44.924,117.177c-8.802,0.109-9.029-5.492-9.221-6.186c0,0,2.439,1.603,6.143-0.217
		c1.388-0.749,3.27-2.071,5.518-4.304c1.888-1.871,3.65-4.001,4.334-4.06c0,0-3.952-0.25-9.184,0.742
		c-3.828,0.591-5.988,1.604-5.988,1.604s2.799-2.439,7.553-3.575c0.949-0.275,2.645-0.742,3.813-0.959
		c1.719-0.333,4.93-0.723,4.93-0.723s-0.999,0.787-1.668,1.271c5.4,0.687,12.108,5.012,12.108,5.012S57.362,117.026,44.924,117.177"
		/>
	<path fill="#FFFFFF" d="M40.927,105.454c2.403-0.974,4.938-0.602,4.938-0.602s-1.558,1.682-3.064,2.803
		c-1.256,0.912-2.938,1.808-4.15,1.852c-0.301,0.015-0.587-0.037-0.816-0.14c0.478-0.106,0.999-0.389,1.528-0.805
		C40.552,107.611,41.221,106.127,40.927,105.454"/>
	<path fill="#FFFFFF" d="M37.864,107.394c-0.353,0.291-0.742,0.367-0.846,0.173c-0.11-0.188,0.096-0.581,0.463-0.899
		c0.353-0.291,0.734-0.371,0.845-0.177C38.436,106.685,38.224,107.104,37.864,107.394"/>
	<path fill="#FFFFFF" d="M79.206,92.31c-0.007,0.007-15.686,27.622-15.678,27.607c-3.894,7.102-10.647,19.434-17.311,20.235
		c-3.916,0.487-5.598-2.36-5.635-4.438c-0.051-2.667,2.586-5.316,5.143-5.981c-1.175-0.966-2.755-1.407-4.834-1.369
		c-3.997,0.08-7.597,2.806-8.016,6.068c-0.212,1.7,0.184,3.247,1.183,4.596c2.168,2.971,6.915,4.653,12.689,4.537
		c8.302-0.162,15.906-2.727,22.585-7.624c6.119-4.488,11.145-10.784,15.171-18.735l5.785-10.172
		c4.923-8.706,9.808-11.74,13.849-13.074c2.593-0.845,3.74-0.845,7.187-0.845l0.44-0.805"/>
	<path fill="#707471" d="M47.981,143.513c7.825-0.37,15.003-2.921,21.352-7.571c6.119-4.489,11.145-10.785,15.171-18.736
		l5.785-10.172c4.923-8.706,9.808-11.74,13.849-13.074l-19.099,6.34c-1.557,2.029-3.188,4.472-4.82,7.33
		c-0.954,1.708-4.76,8.372-5.385,9.489c-0.94,1.76-1.704,3.108-2.189,3.912c-2.526,4.232-5.591,8.387-9.132,11.874
		c-4.988,4.923-14.54,10.333-20.711,6.672c-1.498-0.924-2.197-2.531-2.219-3.861c-0.051-2.667,2.586-5.316,5.143-5.981
		c-0.904-0.401-2.439-0.242-3.335-0.063c-2.065,0.432-4.908,2.106-5.577,4.578C35.564,138.859,41.008,143.304,47.981,143.513"/>
	<path fill="#707471" d="M19.665,112.125c0,0.004,0,0.008,0,0.015c10.154,1.355,14.541,3.357,17.244,4.918
		c-2.263-2.332-2.528-4.133-2.777-5.132c-1.727-0.621-3.057-0.782-3.688-0.816C25.264,110.851,21.398,111.354,19.665,112.125"/>
	<path fill="#C4CDD3" d="M104.139,93.96c2.593-0.845,3.74-0.845,7.187-0.845l0.44-0.804h-32.56l5.834,7.989"/>
	<path fill="#C4CDD3" d="M34.52,108c-3.776,1.446-6.398,2.877-6.398,2.877c1.696-2.264,3.959-3.913,6.437-5.147l-0.016-0.105
		c0,0-7.883,0.455-14.877,6.501c1.733-0.771,5.599-1.274,10.778-1.014c0.632,0.033,1.961,0.195,3.688,0.816
		C33.764,109.849,34.425,108.209,34.52,108"/>
	<path fill="#0065A3" d="M186.656,135.232l-0.139,0.235l-0.061,0.104c-0.008,0.014-5.599,10.144-5.599,10.144l49.037-1.779
		l0.013-8.633"/>
	<polyline fill="#231F20" points="187.368,136.827 183.415,144.004 228.557,142.396 228.563,136.895 	"/>
	<polyline fill="#707471" points="188.278,138.9 226.889,138.957 226.889,140.263 186.721,141.79 	"/>
	<polyline fill="#C4CDD3" points="226.889,139.625 226.889,138.957 188.278,138.9 187.517,140.323 	"/>
	<polyline fill="#C4CDD3" points="226.889,139.625 226.889,138.957 188.278,138.9 187.517,140.323 	"/>
	<path fill="#231F20" d="M185.023,99.066l-6.42,11.437c-3.109,5.521-8.648,10.388-11.859,10.388
		c-0.543-0.003-2.33-0.407-0.271-3.651l6.547-11.664c2.535-4.488,6.407-4.572,6.443-4.572l0.264-0.005l1.09-1.939l-21.786-0.026
		c0,0-9.296,16.458-9.359,16.59c-3.535,5.811-7.979,6.678-9.625,6.513c-0.697-0.07-1.108-0.819-0.956-1.65
		c0.295-1.609,1.411-3.31,2.168-4.673l5.767-10.271c2.551-4.49,6.415-4.574,6.453-4.574l0.258-0.004l1.095-1.943l-22.844-0.025
		c0,0-1.285,2.299-1.505,2.692c-1.691-2.039-5.79-2.935-9.228-2.917c-5.79,0.025-11.881,2.006-16.722,5.403
		c-5.231,3.703-8.531,8.725-9.279,14.139c-0.448,3.266,0.19,6.209,1.837,8.537c2.3,3.273,6.407,5.101,11.285,5.082
		c6.245-0.03,11.653-3.723,13.055-4.785c1.322,3.097,4.313,4.828,8.252,4.813c4.819-0.02,9.853-1.519,13.467-4.037
		c1.014-0.732,3.086-2.268,4.152-3.087c0.712,4.232,4.827,7.153,10.16,7.16c5.225,0.007,8.192-1.882,11.425-4.162
		c-2.682,4.841-9.25,16.646-10.396,18.5c-0.757,1.217-1.624,2.308-2.389,2.98c-2.483,2.198-5.407,3.29-7.633,2.878
		c-1.109-0.206-1.983-0.781-2.529-1.7c-0.535-0.877-0.72-2.064-0.549-3.394c0.359-2.688,2.159-5.765,4.694-7.976
		c1.403-1.205,3.593-2.468,3.593-2.468l-47.757,0.029c-7.251-0.057-13.482-2.87-16.656-9.928l-0.411,0.729
		c-4.471,7.944-10.886,14.673-18.562,19.439l-1.917,1.177l66.723-2.38c-0.316,1.431-0.346,3.223,0.228,5.163
		c0.413,1.396,1.174,2.736,2.021,3.673c5.222,5.905,14.854,5.163,15.266,5.129c2.829-0.231,7.627-1.508,12.608-4.471
		c6.26-3.688,11.167-8.919,14.606-15.524l0.822-1.472l18.375-32.615c2.535-4.49,6.408-4.574,6.445-4.574h0.255l1.104-1.936
		 M121.751,117.962c-3.63,5.004-8.42,7.919-10.258,6.202c-0.426-0.396-0.675-1.029-0.741-1.885
		c-0.22-2.704,1.403-6.885,4.128-10.632c3.63-5.034,8.427-7.917,10.257-6.198c0.434,0.396,0.676,1.022,0.749,1.889
		C126.1,110.035,124.476,114.223,121.751,117.962z"/>
	<path fill="#231F20" d="M213.804,99.275c0,0-11.448,12.998-11.558,13.115c-5.113,0.397-9.426,4.1-10.037,8.614
		c-0.065,0.449-0.088,0.893-0.096,1.323c0,1.664,0.448,3.086,1.337,4.308c2.161,3.611,7.162,5.557,14.084,5.522
		c6.408-0.03,12.05-1.656,16.325-4.771c4.44-3.196,7.18-7.814,7.937-13.322c0.381-2.854,0.492-5.624,0.602-8.556
		c0.126-3.182,0.271-7.174,0.854-10.801 M203.385,123.206c0.396-2.947,4.527-5.584,7.516-5.595l0.832-0.004l-0.421-0.857
		c-0.579-1.227-1.505-2.234-2.645-2.998c0.368-0.39,4.718-5.018,5.334-5.672c-0.043,1.988-0.183,3.967-0.448,6.036
		c-1.074,8.339-3.549,11.917-8.265,11.914C204.664,126.03,203.018,125.918,203.385,123.206z"/>
	<path fill="#FFFFFF" d="M214.62,101.201c-0.501,0.554-11.646,13.209-11.646,13.209l-0.449,0.034
		c-4.351,0.267-8.127,3.288-8.619,6.884c-0.125,0.893-0.343,1.984,0.904,4.037c1.82,3.053,6.457,4.764,12.718,4.725
		c6.09-0.029,11.439-1.558,15.451-4.452c3.982-2.91,6.451-7.039,7.12-11.937c0.366-2.699,0.477-5.415,0.587-8.284
		c0.103-2.585,0.22-5.267,0.514-8.125C228.453,97.96,215.228,101.057,214.62,101.201 M205.339,114.558l10.412-11.105v3.299
		c0,1.643-0.051,4.218-0.499,7.678c-0.814,6.34-2.688,13.71-9.971,13.674c-3.526-0.022-3.821-3.491-3.594-5.229
		c0.463-3.439,3.712-5.926,6.715-6.906C207.632,114.708,205.339,114.558,205.339,114.558z"/>
	<polyline fill="#C4CDD3" points="214.62,101.201 223.332,104.055 231.202,97.291 	"/>
	<path fill="#707471" d="M223.332,104.055l-0.196,4.717c0,0,0.27,13.107-8.562,17.95c-2.821,1.559-6.928,1.999-9.493,1.672
		c-0.659-0.081-1.293-0.448-1.764-0.824c-0.278-0.172-0.514-0.376-0.712-0.604c-0.036-0.03-0.051-0.052-0.051-0.052V126.9
		c-0.949-1.148-1.008-2.924-0.867-4.026c0.462-3.439,3.71-5.926,6.714-6.906c-4.26-2.168-8.998,1.701-10.101,4.786
		c-0.295,0.864-0.521,1.903-0.339,2.913c0.493,2.653,3.247,6.408,9.551,6.415c6.099,0.008,11.453-1.55,15.467-4.444
		c3.982-2.91,6.451-7.039,7.12-11.937c0.366-2.699,0.477-5.415,0.587-8.284c0.103-2.585,0.22-5.267,0.514-8.125"/>
	<path fill="#707471" d="M214.62,101.201c-0.501,0.554-11.646,13.209-11.646,13.209s1.254-0.025,2.364,0.147l10.412-11.105
		C215.751,103.452,215.83,101.953,214.62,101.201"/>
	<path fill="#FFFFFF" d="M155.774,157.168c0.021,0,0.046-0.004,0.06-0.011c0.036-0.009,0.073-0.021,0.11-0.026
		c-0.074,0.017-0.148,0.03-0.219,0.048C155.738,157.175,155.753,157.171,155.774,157.168"/>
	<path fill="#FFFFFF" d="M151.683,157.617c-6.494-0.099-11.72-4.432-11.711-9.757c0.006-4.19,3.254-7.753,7.795-9.123
		c-0.021,0.025-0.046,0.057-0.073,0.086c0.027-0.029,0.052-0.061,0.08-0.091c-1.838,0-3.997,0.381-5.716,1.284
		c-0.448,0.228-0.859,0.474-1.241,0.719c-0.073,0.045-0.141,0.089-0.206,0.137c-1.152,0.785-2.021,1.655-2.667,2.577
		c-2.263,3.319-1.477,7.298,0.573,9.603c4.694,5.296,13.601,4.612,13.975,4.583c0.367-0.032,0.793-0.07,1.263-0.123
		c-0.344,0.034-0.689,0.063-1.058,0.087C152.359,157.617,152.021,157.627,151.683,157.617"/>
	<path fill="#FFFFFF" d="M174.149,119.028c0.016-0.021,0.038-0.04,0.06-0.056C174.188,118.988,174.165,119.007,174.149,119.028"/>
	<path fill="#FFFFFF" d="M124.917,103.069c-0.109-0.032-0.221-0.055-0.337-0.08C124.696,103.016,124.808,103.038,124.917,103.069"/>
	<path fill="#FFFFFF" d="M171.425,121.174c0.102-0.062,0.198-0.125,0.295-0.192C171.623,121.049,171.527,121.111,171.425,121.174"/>
	<path fill="#FFFFFF" d="M173.253,119.811c0.045-0.04,0.097-0.08,0.147-0.125C173.35,119.73,173.298,119.771,173.253,119.811"/>
	<path fill="#FFFFFF" d="M172.342,120.53c0.073-0.054,0.148-0.113,0.228-0.172C172.49,120.417,172.415,120.476,172.342,120.53"/>
	<path fill="#FFFFFF" d="M170.506,121.736c0.117-0.062,0.235-0.129,0.353-0.199C170.743,121.607,170.623,121.674,170.506,121.736"/>
	<path fill="#FFFFFF" d="M123.653,102.89c0.124,0,0.235,0.011,0.353,0.019C123.889,102.901,123.777,102.89,123.653,102.89"/>
	<path fill="#FFFFFF" d="M185.943,101.138c-0.654,1.15-5.915,10.54-5.915,10.54c-0.272,0.474-0.565,0.951-0.874,1.422
		c-5.164,8.349-11.183,12.724-16.531,12.715c-4.451-0.009-5.561-2.844-5.877-3.74c-0.316-0.903-0.089-3.017,1.146-5.239
		l6.114-10.903l10.263-4.808v0.003c0-0.003,0-0.003,0-0.003c-5.687-0.007-13.453-0.015-14.334-0.015
		c-3.195,5.649-8.86,15.73-8.86,15.73c-1.588,2.605-3.484,4.42-5.326,5.658c0.035-0.019,0.079-0.052,0.102-0.06
		c0,0-4.673,3.483-9.264,3.476c-4.577-0.008-5.71-2.883-6.04-3.799c-0.316-0.915,0.124-3.089,1.36-5.312l6.119-10.907l10.256-4.801
		c-5.693-0.011-14.494-0.022-15.379-0.026c-0.454,0.805-2.418,4.324-2.418,4.324s-0.409-1.168-1.004-1.961
		c-1.147-1.55-3.982-2.601-8.222-2.583c-10.566,0.044-22.85,7.215-24.312,17.836c-0.369,2.66,0.118,4.959,1.447,6.848
		c1.968,2.78,5.605,4.349,9.969,4.328c6.76-0.029,12.476-4.714,12.535-4.758l1.263-1.037l0.581,1.724
		c0.903,2.629,3.417,4.118,6.937,4.103c4.524-0.021,9.243-1.417,12.606-3.765c1.344-0.951,6.479-4.83,6.479-4.83l0.124,2.52
		c0.162,3.472,3.85,6.106,8.568,6.111c5.069,0.008,7.744-1.868,11.13-4.277l5.872-4.147l-2.983,5.369
		c-0.411,0.739-10.146,18.319-11.615,20.697c-0.853,1.393-1.853,2.616-2.741,3.422c-2.888,2.552-6.223,3.759-8.919,3.254
		c-1.232-0.228-2.278-0.826-3.063-1.719c4.356,5.673,11.845,1.755,12.821,1.193c9.339-5.359,15.137-16.921,15.869-18.272
		c0.757-1.382,16.18-29.48,16.18-29.48l10.256-4.805l0,0l0,0C194.576,101.152,186.816,101.142,185.943,101.138 M123.044,119.341
		c-2.006,2.762-4.328,4.988-6.54,6.274c-0.065,0.033-0.125,0.061-0.183,0.091c0.051-0.027,0.095-0.047,0.147-0.072
		c-0.544,0.367-3.247,2.105-6.437,2.102c-3.571-0.004-6.149-2.876-6.444-6.43c-0.411-5.047,1.933-9.228,4.519-12.03
		c3.013-3.282,6.473-5.177,10.036-6.161c0.868-0.243,1.719-0.43,2.557-0.511c1.96-0.198,3.549,0.059,4.665,0.632
		c0.007,0.007,0.021,0.019,0.043,0.03c-0.072-0.03-0.145-0.056-0.212-0.085c0.359,0.151,0.697,0.354,0.992,0.629
		c0.807,0.738,1.293,1.903,1.41,3.332C127.855,110.418,126.114,115.098,123.044,119.341z"/>
	<path fill="#FFFFFF" d="M120.979,103.574c-0.279,0.127-0.559,0.267-0.845,0.429C120.42,103.841,120.7,103.702,120.979,103.574"/>
	<path fill="#FFFFFF" d="M123.286,102.92c-0.117,0.01-0.235,0.018-0.36,0.04C123.051,102.938,123.169,102.93,123.286,102.92"/>
	<path fill="#FFFFFF" d="M122.551,103.03c-0.132,0.033-0.272,0.07-0.411,0.106C122.279,103.1,122.418,103.063,122.551,103.03"/>
	<path fill="#FFFFFF" d="M121.787,103.255c-0.169,0.051-0.331,0.121-0.5,0.187C121.457,103.376,121.619,103.305,121.787,103.255"/>
	<path fill="#FFFFFF" d="M89.202,130.435c-3.625,5.903-8.305,11.113-13.779,15.28l14.323-5.199"/>
	<path fill="#FFFFFF" d="M167.811,122.815c0.177-0.038,0.338-0.069,0.513-0.122C168.148,122.746,167.987,122.778,167.811,122.815"/>
	<path fill="#FFFFFF" d="M169.604,122.205c0.13-0.062,0.262-0.12,0.402-0.19C169.866,122.085,169.734,122.144,169.604,122.205"/>
	<path fill="#FFFFFF" d="M197.522,104.569c-1.255,2.256-18.803,33.805-18.905,34.01
		C178.617,138.579,196.259,106.835,197.522,104.569"/>
	<path fill="#FFFFFF" d="M153.909,157.491c0.094-0.011,0.199-0.025,0.293-0.04c0.045-0.004,0.081-0.015,0.118-0.023
		C154.181,157.451,154.05,157.476,153.909,157.491L153.909,157.491"/>
	<path fill="#FFFFFF" d="M168.707,122.566c0.146-0.051,0.3-0.099,0.448-0.161C169.007,122.467,168.854,122.515,168.707,122.566"/>
	<path fill="#FFFFFF" d="M166.744,122.94c0.249,0,0.508-0.021,0.773-0.062C167.252,122.918,166.993,122.94,166.744,122.94"/>
	<path fill="#707471" d="M131.904,116.802c-1.235,2.223-1.676,4.397-1.359,5.312c0.331,0.916,1.462,3.791,6.04,3.799
		c4.592,0.008,9.265-3.476,9.265-3.476c-0.022,0.008-0.068,0.041-0.103,0.06c-0.552,0.331-2.978,1.926-5.834,1.706
		c-1.758-0.159-2.865-2.142-2.508-4.151c0.249-1.327,0.802-2.44,1.36-3.465c0,0,6.841-12.219,6.841-12.223
		c0.816-1.429,1.749-2.497,2.673-3.269l-10.254,4.801"/>
	<path fill="#707471" d="M164.004,105.932l-6.113,10.903c-1.233,2.222-1.462,4.336-1.146,5.239c0.316,0.896,1.426,3.731,5.876,3.74
		c5.35,0.01,11.368-4.365,16.533-12.715c0.081-0.13,0.161-0.251,0.249-0.386c-1.402,2.225-3.24,4.455-5.194,6.258
		c-0.021,0.016-0.046,0.034-0.061,0.056c-0.249,0.225-0.497,0.445-0.748,0.658c-0.052,0.044-0.103,0.084-0.147,0.125
		c-0.227,0.191-0.455,0.375-0.684,0.548c-0.079,0.059-0.154,0.118-0.228,0.172c-0.213,0.158-0.419,0.31-0.622,0.452
		c-0.097,0.066-0.192,0.129-0.295,0.192c-0.191,0.125-0.376,0.25-0.566,0.363c-0.117,0.07-0.235,0.137-0.353,0.199
		c-0.169,0.1-0.33,0.195-0.499,0.279c-0.141,0.069-0.272,0.129-0.402,0.19c-0.149,0.067-0.303,0.141-0.449,0.2
		c-0.148,0.062-0.302,0.11-0.448,0.162c-0.127,0.043-0.251,0.091-0.384,0.127c-0.175,0.052-0.338,0.083-0.513,0.122
		c-0.096,0.018-0.199,0.048-0.295,0.062c-0.264,0.04-0.522,0.062-0.771,0.062c-3.146-0.003-3.917-3.118-1.993-6.319
		c0,0,6.842-12.222,6.842-12.226c0.822-1.425,1.749-2.498,2.675-3.269v-0.004"/>
	<path fill="#707471" d="M142.058,140.017c-0.455,0.228-0.859,0.474-1.241,0.719C141.196,140.49,141.609,140.244,142.058,140.017"/>
	<path fill="#707471" d="M140.61,140.871c-0.146,0.1-0.3,0.194-0.44,0.299l-50.425-0.654l-14.323,5.199
		c8.45-0.385,62.521-2.266,62.521-2.266C138.59,142.527,139.458,141.657,140.61,140.871"/>
	<path fill="#C4CDD3" d="M140.17,141.17c0.139-0.104,0.295-0.199,0.44-0.299c0.065-0.048,0.133-0.093,0.206-0.136
		c0.38-0.245,0.786-0.492,1.241-0.719c1.719-0.904,3.878-1.284,5.716-1.284c-2.535,0.003-5.598,0.003-8.89,0.007
		c-14.263,0.004-32.959,0.016-32.959,0.016c-6.032,0.034-11.314-2.078-14.834-5.855c-0.507-0.54-0.97-1.113-1.395-1.72
		c-0.155-0.209-0.316-0.469-0.493-0.745l0.543,10.081"/>
	<path fill="#707471" d="M110.443,125.806c-0.801-0.772-1.286-1.903-1.403-3.332c-0.265-3.277,1.477-7.961,4.548-12.2
		c2.013-2.767,4.334-4.989,6.546-6.271c0.286-0.162,0.566-0.301,0.845-0.429c0.103-0.048,0.199-0.084,0.31-0.134
		c0.168-0.065,0.33-0.136,0.499-0.187c0.118-0.045,0.235-0.081,0.353-0.118c0.139-0.038,0.279-0.074,0.411-0.106
		c0.133-0.026,0.25-0.051,0.375-0.07c0.125-0.022,0.243-0.03,0.36-0.04c0.125-0.011,0.249-0.03,0.367-0.03
		c0.124,0,0.235,0.011,0.353,0.019c0.205,0.015,0.39,0.043,0.574,0.08c0.118,0.026,0.229,0.048,0.338,0.08
		c0.096,0.034,0.184,0.071,0.279,0.111c0.066,0.029,0.141,0.055,0.213,0.084c-0.021-0.011-0.036-0.022-0.044-0.03
		c-1.116-0.574-2.705-0.831-4.665-0.632c-0.838,0.081-1.69,0.268-2.556,0.511c-3.563,0.984-7.025,2.88-10.037,6.161
		c-2.586,2.803-4.93,6.983-4.518,12.03c0.294,3.554,2.873,6.426,6.443,6.43c3.189,0.004,5.893-1.734,6.436-2.102
		c-0.051,0.026-0.095,0.045-0.146,0.073C113.89,127.02,111.817,127.071,110.443,125.806"/>
	<path fill="#707471" d="M190.007,105.964c0,0-15.423,28.099-16.18,29.481c-0.733,1.352-6.531,12.913-15.87,18.273
		c-0.976,0.561-8.464,4.479-12.821-1.194c-0.043-0.06-0.096-0.101-0.132-0.158c0,0,0-0.007,0-0.011
		c-0.162-0.198-0.316-0.401-0.457-0.629c-0.064-0.106-0.124-0.221-0.183-0.331c-0.051-0.111-0.102-0.221-0.152-0.332
		c-0.397-0.898-0.604-1.908-0.604-3.026c0-0.41,0.03-0.824,0.087-1.255c0.362-2.722,1.823-5.598,3.998-7.962
		c0.029-0.027,0.053-0.059,0.073-0.085c-4.541,1.372-7.788,4.934-7.795,9.123c-0.007,5.326,5.218,9.658,11.712,9.757
		c0.339,0.012,0.677,0,1.015-0.018c0.368-0.024,0.714-0.054,1.057-0.088c0.053-0.008,0.103-0.012,0.155-0.021
		c0.14-0.016,0.271-0.04,0.411-0.063c0.479-0.064,0.941-0.147,1.404-0.249c0.071-0.018,0.146-0.031,0.22-0.048
		c0.418-0.101,0.845-0.209,1.278-0.339c3.182-0.942,15.12-5.744,21.395-18.214c0.103-0.205,17.649-31.754,18.905-34.01
		c0.043-0.081,0.081-0.135,0.081-0.135c0.814-1.426,1.74-2.499,2.659-3.274l0,0"/>
	<polyline fill="#C4CDD3" points="132.902,101.068 148.281,101.094 138.025,105.895 	"/>
	<polyline fill="#C4CDD3" points="159.934,101.108 174.269,101.124 164.004,105.932 	"/>
	<polyline fill="#C4CDD3" points="185.943,101.138 200.263,101.16 190.007,105.964 	"/>
	<path fill="#0065A3" d="M232.831,129.102h-0.71v2.3h-0.478v-2.3h-0.708v-0.498h1.896 M236.051,131.401h-0.478v-2.227h-0.015
		l-0.684,2.227h-0.463l-0.661-2.227h-0.007v2.227h-0.478v-2.799h0.831l0.542,1.829h0.015l0.567-1.829h0.829V131.401L236.051,131.401
		z"/>
</g>
</svg>
