<?xml version="1.0" encoding="utf-8"?>
<!-- Generator: Adobe Illustrator 16.0.4, SVG Export Plug-In . SVG Version: 6.00 Build 0)  -->
<!DOCTYPE svg PUBLIC "-//W3C//DTD SVG 1.1//EN" "http://www.w3.org/Graphics/SVG/1.1/DTD/svg11.dtd">
<svg version="1.1" id="Layer_1" xmlns="http://www.w3.org/2000/svg" xmlns:xlink="http://www.w3.org/1999/xlink" x="0px" y="0px"
	 width="250px" height="250px" viewBox="0 0 250 250" enable-background="new 0 0 250 250" xml:space="preserve">
<g>
	<polygon fill="#FFFFFF" points="237.34,139.984 237.34,139.984 237.34,139.984 	"/>
	<path fill="#09152F" d="M63.06,125.656c0-16.663,6.541-32.238,18.222-43.92c11.683-11.836,27.413-18.222,43.922-18.222
		c16.665,0,32.239,6.386,44.076,18.222c11.681,11.682,18.224,27.257,18.224,43.92c0,34.263-27.879,62.145-62.298,62.145
		c-16.509,0-32.238-6.386-43.92-18.224C69.602,157.9,63.06,142.325,63.06,125.656L63.06,125.656z"/>
	<path fill="#FFFFFF" d="M64.618,125.656c0-16.197,6.229-31.459,17.756-42.829c11.524-11.525,26.631-17.754,42.83-17.754
		c16.199,0,31.462,6.229,42.987,17.754c11.367,11.37,17.757,26.634,17.757,42.829c0,33.487-27.259,60.586-60.744,60.586
		c-16.198,0-31.305-6.23-42.83-17.754C70.847,157.118,64.618,141.855,64.618,125.656L64.618,125.656z"/>
	<path fill="#9F1D20" d="M125.204,84.073c-22.895,0-41.584,18.689-41.584,41.585c0,11.06,4.361,21.65,12.148,29.437
		c7.943,7.789,18.378,12.15,29.437,12.15c11.213,0,21.648-4.361,29.435-12.15c7.945-7.786,12.148-18.377,12.148-29.437
		c0-11.059-4.203-21.494-12.148-29.437C146.852,88.434,136.417,84.073,125.204,84.073L125.204,84.073z"/>
	<path fill="#FFFFFF" d="M125.204,85.63c-22.116,0-40.027,17.911-40.027,40.026c0,22.117,17.912,40.026,40.027,40.026
		c22.115,0,40.181-17.909,40.181-40.026C165.385,103.542,147.318,85.63,125.204,85.63L125.204,85.63z"/>
	<polygon fill="#9F1D20" points="99.973,94.665 101.062,95.91 99.194,100.581 98.26,99.336 	"/>
	<path fill="#9F1D20" d="M94.442,100.043l4.595-0.862l-1.09-1.245l-1.968,0.369C95.451,98.868,94.938,99.448,94.442,100.043
		L94.442,100.043z"/>
	<polygon fill="#9F1D20" points="103.088,98.091 103.866,99.492 101.686,104.009 100.752,102.608 	"/>
	<polygon fill="#9F1D20" points="95.611,101.828 96.547,103.074 101.529,102.608 100.596,101.362 	"/>
	<polygon fill="#9F1D20" points="105.736,101.984 106.513,103.542 103.866,107.748 103.088,106.346 	"/>
	<polygon fill="#9F1D20" points="97.948,104.788 98.883,106.19 103.866,106.346 102.931,104.943 	"/>
	<polygon fill="#9F1D20" points="107.916,106.19 108.538,107.748 105.423,111.642 104.956,110.083 	"/>
	<polygon fill="#9F1D20" points="99.973,108.213 100.596,109.616 105.736,110.238 104.956,108.682 	"/>
	<polygon fill="#8F3326" points="109.784,110.55 110.251,112.107 106.825,115.69 106.357,114.132 	"/>
	<polygon fill="#9F1D20" points="101.686,111.642 102.154,113.199 107.137,114.289 106.513,112.73 	"/>
	<polygon fill="#8F3326" points="111.187,115.066 111.498,116.625 107.604,119.896 107.293,118.182 	"/>
	<polygon fill="#8F3326" points="102.931,115.378 103.244,116.937 108.07,118.494 107.76,116.937 	"/>
	<polygon fill="#8F3326" points="112.12,119.584 112.12,121.297 108.07,124.1 107.916,122.387 	"/>
	<polygon fill="#8F3326" points="103.866,119.116 104.022,120.674 108.538,122.699 108.383,121.141 	"/>
	<polygon fill="#8F3326" points="112.432,124.255 112.432,125.971 107.916,128.304 108.07,126.748 	"/>
	<polygon fill="#8F3326" points="104.333,122.853 104.333,124.566 108.695,127.059 108.695,125.502 	"/>
	<polygon fill="#8F3326" points="112.432,129.084 112.12,130.643 107.449,132.508 107.76,130.952 	"/>
	<polygon fill="#8F3326" points="104.489,126.748 104.333,128.461 108.383,131.421 108.538,129.707 	"/>
	<polygon fill="#8F3326" points="111.81,133.756 111.343,135.312 106.513,136.718 106.982,135.156 	"/>
	<polygon fill="#8F3326" points="104.177,130.643 103.866,132.197 107.604,135.623 107.916,134.069 	"/>
	<polygon fill="#8F3326" points="110.719,138.271 110.251,139.832 105.269,140.764 105.891,139.207 	"/>
	<polygon fill="#8F3326" points="103.4,134.533 102.931,136.092 106.357,139.832 106.825,138.271 	"/>
	<polygon fill="#9F1D20" points="109.317,142.788 108.538,144.191 103.556,144.66 104.177,143.1 	"/>
	<polygon fill="#9F1D20" points="102.464,138.115 101.686,139.676 104.645,143.722 105.269,142.325 	"/>
	<polygon fill="#9F1D20" points="107.293,146.993 106.357,148.395 101.375,148.239 102.309,146.837 	"/>
	<polygon fill="#9F1D20" points="100.907,141.699 100.128,143.255 102.619,147.619 103.4,146.06 	"/>
	<polygon fill="#9F1D20" points="104.801,151.045 103.866,152.29 98.883,151.666 99.816,150.424 	"/>
	<polygon fill="#9F1D20" points="99.038,145.124 98.103,146.526 100.128,151.045 101.062,149.798 	"/>
	<path fill="#9F1D20" d="M101.997,154.782l-1.089,1.246l-2.522-0.651c-0.508-0.459-1.004-0.93-1.489-1.413l0.272-0.274
		L101.997,154.782L101.997,154.782z"/>
	<path fill="#9F1D20" d="M96.858,148.395l-1.091,1.247l1.516,4.698c0.027,0.027,0.055,0.057,0.084,0.082l1.048-1.199L96.858,148.395
		L96.858,148.395z"/>
	<path fill="#9F1D20" d="M150.516,156.721l-1.016-1.159l1.713-4.83l1.09,1.245l-1.641,4.625
		C150.614,156.641,150.563,156.681,150.516,156.721L150.516,156.721z"/>
	<path fill="#9F1D20" d="M156.045,151.285l-4.522,0.85l1.09,1.245l1.882-0.353C155.03,152.461,155.547,151.88,156.045,151.285
		L156.045,151.285z"/>
	<polygon fill="#9F1D20" points="147.476,153.223 146.539,151.82 148.721,147.309 149.654,148.706 	"/>
	<polygon fill="#9F1D20" points="154.95,149.642 153.86,148.239 148.877,148.706 149.811,150.11 	"/>
	<polygon fill="#8F3326" points="144.826,149.329 144.047,147.929 146.695,143.568 147.476,145.124 	"/>
	<polygon fill="#8F3326" points="152.615,146.526 151.679,145.124 146.695,144.97 147.476,146.526 	"/>
	<polygon fill="#8F3326" points="142.491,145.124 141.868,143.722 144.983,139.676 145.605,141.23 	"/>
	<polygon fill="#8F3326" points="150.589,143.255 149.811,141.699 144.826,141.076 145.605,142.633 	"/>
	<polygon fill="#8F3326" points="140.778,140.92 140.312,139.207 143.737,135.623 144.203,137.182 	"/>
	<polygon fill="#8F3326" points="148.877,139.676 148.411,138.115 143.426,137.027 143.894,138.584 	"/>
	<polygon fill="#8F3326" points="139.376,136.402 139.065,134.689 142.96,131.421 143.113,133.134 	"/>
	<polygon fill="#8F3326" points="147.631,136.092 147.163,134.38 142.491,132.82 142.802,134.533 	"/>
	<polygon fill="#8F3326" points="138.439,131.733 138.286,130.016 142.491,127.215 142.647,128.928 	"/>
	<polygon fill="#8F3326" points="146.695,132.354 146.539,130.643 141.868,128.617 142.023,130.174 	"/>
	<polygon fill="#8F3326" points="137.976,127.059 138.133,125.346 142.491,123.009 142.491,124.723 	"/>
	<polygon fill="#8F3326" points="146.229,128.461 146.075,126.748 141.868,124.255 141.868,125.971 	"/>
	<polygon fill="#8F3326" points="138.133,122.387 138.439,120.674 142.96,118.805 142.802,120.362 	"/>
	<polygon fill="#8F3326" points="146.075,124.566 146.229,122.853 142.181,119.896 142.023,121.608 	"/>
	<polygon fill="#8F3326" points="138.752,117.714 139.065,116.001 143.894,114.6 143.58,116.312 	"/>
	<polygon fill="#8F3326" points="146.386,120.674 146.695,119.116 142.96,115.69 142.647,117.247 	"/>
	<polygon fill="#8F3326" points="139.687,113.042 140.312,111.485 145.294,110.55 144.672,112.107 	"/>
	<polygon fill="#8F3326" points="147.008,116.937 147.476,115.378 144.203,111.642 143.737,113.199 	"/>
	<polygon fill="#8F3326" points="141.245,108.682 142.023,107.124 147.008,106.812 146.229,108.213 	"/>
	<polygon fill="#8F3326" points="148.097,113.199 148.721,111.642 145.762,107.591 145.14,109.149 	"/>
	<polygon fill="#9F1D20" points="143.271,104.32 144.203,102.918 149.187,103.074 148.254,104.475 	"/>
	<polygon fill="#9F1D20" points="149.654,109.616 150.434,108.213 147.941,103.854 147.163,105.253 	"/>
	<polygon fill="#9F1D20" points="145.605,100.271 146.695,99.025 151.679,99.647 150.589,100.894 	"/>
	<polygon fill="#9F1D20" points="151.368,106.19 152.303,104.788 150.276,100.271 149.344,101.517 	"/>
	<path fill="#9F1D20" d="M148.411,96.532l1.243-1.247l2.397,0.619c0.538,0.481,1.065,0.974,1.574,1.485l-0.234,0.233L148.411,96.532
		L148.411,96.532z"/>
	<polygon fill="#9F1D20" points="153.551,102.918 154.639,101.672 153.082,97 151.992,98.247 	"/>
	<path fill="#09152F" d="M66.176,125.656c0-32.551,26.477-59.027,59.028-59.027c32.707,0,59.184,26.477,59.184,59.027
		c0,32.707-26.478,59.184-59.184,59.184C92.653,184.843,66.176,158.366,66.176,125.656L66.176,125.656z M125.204,82.516
		c-23.829,0-43.142,19.312-43.142,43.141c0,23.828,19.312,43.142,43.142,43.142c23.828,0,43.141-19.313,43.141-43.142
		C168.345,101.828,149.031,82.516,125.204,82.516L125.204,82.516z"/>
	<path fill="#AB823A" d="M87.357,152.915c-4.361-6.076-7.631-12.931-8.722-20.251c1.245,7.789,3.894,15.265,8.567,21.494
		L87.357,152.915L87.357,152.915z"/>
	<path fill="#AB823A" d="M81.906,158.366c-5.295-7.168-9.345-15.578-10.748-24.454c1.402,8.721,4.517,17.133,9.657,24.298
		L81.906,158.366L81.906,158.366z"/>
	<path fill="#AB823A" d="M80.972,150.731l0.779,0.467c-4.206-7.163-7.166-15.419-7.476-23.827
		c0.311,8.564,2.492,16.974,6.854,24.449L80.972,150.731L80.972,150.731z"/>
	<polygon fill="#AB823A" points="81.751,151.977 82.528,158.366 86.733,158.829 	"/>
	<polygon fill="#AB823A" points="86.733,158.829 87.202,154.626 81.751,151.977 	"/>
	<path fill="#AB823A" d="M96.234,172.536c1.558,1.09,3.271,1.87,4.828,2.804l4.985-2.023c-1.559-0.624-3.116-1.247-4.519-2.026
		L96.234,172.536L96.234,172.536z"/>
	<path fill="#AB823A" d="M107.137,173.784l-4.983,2.026c1.712,0.776,3.425,1.401,5.139,2.024l4.672-2.492
		c-0.311,0-0.467-0.156-0.622-0.156C109.94,174.719,108.538,174.406,107.137,173.784L107.137,173.784z"/>
	<path fill="#AB823A" d="M85.8,164.127c1.246,1.402,2.646,2.646,4.049,3.895l5.14-0.776c-1.246-0.937-2.491-2.026-3.737-3.116H85.8
		V164.127z"/>
	<path fill="#AB823A" d="M90.783,168.645c1.402,1.243,2.96,2.338,4.518,3.269l4.982-1.244c-1.401-0.778-2.804-1.712-4.205-2.647
		L90.783,168.645L90.783,168.645z"/>
	<path fill="#AB823A" d="M108.383,178.3c1.868,0.466,3.581,0.933,5.451,1.404l4.204-3.117c-1.713-0.154-3.27-0.467-4.828-0.934
		L108.383,178.3L108.383,178.3z"/>
	<path fill="#AB823A" d="M81.438,159.144c0.312,0.31,0.468,0.622,0.78,0.933c0.934,1.245,1.869,2.182,2.803,3.271h5.296
		c-1.246-1.247-2.493-2.336-3.583-3.582L81.438,159.144L81.438,159.144z"/>
	<path fill="#AB823A" d="M114.924,179.855c1.87,0.47,3.583,0.624,5.452,0.779l3.895-3.425c-1.714,0-3.27-0.156-4.984-0.467
		L114.924,179.855L114.924,179.855z"/>
	<path fill="#AB823A" d="M104.489,167.553c-1.401-0.779-2.647-1.403-3.894-2.18l1.401,5.138c1.404,0.779,2.959,1.559,4.518,2.182
		L104.489,167.553L104.489,167.553z"/>
	<path fill="#AB823A" d="M112.277,174.562l-2.647-4.827c-1.246-0.471-2.646-1.09-4.05-1.716l2.025,4.984
		c1.247,0.467,2.647,0.935,3.894,1.403C111.81,174.406,111.964,174.562,112.277,174.562L112.277,174.562z"/>
	<path fill="#AB823A" d="M94.987,161.166c-1.089-0.931-2.179-1.868-3.115-2.956v5.296c1.246,1.087,2.492,2.179,3.893,3.113
		L94.987,161.166L94.987,161.166z"/>
	<path fill="#AB823A" d="M99.506,164.593c-1.246-0.779-2.337-1.558-3.583-2.492l0.779,5.295c1.401,0.936,2.804,1.715,4.206,2.649
		L99.506,164.593L99.506,164.593z"/>
	<path fill="#AB823A" d="M115.081,171.293c-1.402-0.311-2.804-0.624-4.206-1.09l2.647,4.671c1.556,0.312,3.115,0.779,4.828,0.937
		L115.081,171.293L115.081,171.293z"/>
	<path fill="#AB823A" d="M90.938,157.274c-0.778-0.78-1.401-1.559-2.024-2.492c-0.312-0.312-0.623-0.624-0.779-0.937l-0.623,5.298
		c1.09,1.246,2.181,2.491,3.426,3.581V157.274L90.938,157.274z"/>
	<path fill="#AB823A" d="M120.688,172.227c-1.401-0.157-2.804-0.313-4.362-0.621l3.115,4.36c1.713,0.154,3.426,0.311,4.984,0.311
		L120.688,172.227L120.688,172.227z"/>
	<path fill="#AB823A" d="M163.205,152.915c4.361-6.076,7.477-12.931,8.566-20.251c-1.09,7.789-3.738,15.265-8.412,21.494
		L163.205,152.915L163.205,152.915z"/>
	<path fill="#AB823A" d="M168.5,158.366c5.45-7.168,9.502-15.578,10.747-24.454c-1.245,8.721-4.36,17.133-9.5,24.298L168.5,158.366
		L168.5,158.366z"/>
	<path fill="#AB823A" d="M169.593,150.731l-0.936,0.467c4.361-7.163,7.165-15.419,7.475-23.827
		c-0.31,8.564-2.335,16.974-6.695,24.449L169.593,150.731L169.593,150.731z"/>
	<polygon fill="#AB823A" points="168.657,151.977 168.033,158.366 163.829,158.829 	"/>
	<polygon fill="#AB823A" points="163.829,158.829 163.359,154.626 168.657,151.977 	"/>
	<path fill="#AB823A" d="M154.172,172.536c-1.557,1.09-3.112,1.87-4.828,2.804l-4.828-2.023c1.56-0.624,3.115-1.247,4.516-2.026
		L154.172,172.536L154.172,172.536z"/>
	<path fill="#AB823A" d="M143.271,173.784l5.141,2.026c-1.716,0.776-3.428,1.401-5.141,2.024l-4.674-2.492
		c0.155,0,0.469-0.156,0.623-0.156C140.622,174.719,142.023,174.406,143.271,173.784L143.271,173.784z"/>
	<path fill="#AB823A" d="M164.607,164.127c-1.245,1.402-2.647,2.646-3.894,3.895l-5.293-0.776c1.399-0.937,2.645-2.026,3.892-3.116
		h5.295V164.127z"/>
	<path fill="#AB823A" d="M159.778,168.645c-1.556,1.243-2.958,2.338-4.518,3.269l-5.138-1.244c1.556-0.778,2.959-1.712,4.205-2.647
		L159.778,168.645L159.778,168.645z"/>
	<path fill="#AB823A" d="M142.023,178.3c-1.711,0.466-3.427,0.933-5.295,1.404l-4.206-3.117c1.556-0.154,3.27-0.467,4.827-0.934
		L142.023,178.3L142.023,178.3z"/>
	<path fill="#AB823A" d="M169.123,159.144c-0.31,0.31-0.623,0.622-0.933,0.933c-0.779,1.245-1.716,2.182-2.648,3.271h-5.297
		c1.246-1.247,2.339-2.336,3.428-3.582L169.123,159.144L169.123,159.144z"/>
	<path fill="#AB823A" d="M135.639,179.855c-1.87,0.47-3.738,0.624-5.607,0.779l-3.737-3.425c1.556,0,3.271-0.156,4.827-0.467
		L135.639,179.855L135.639,179.855z"/>
	<path fill="#AB823A" d="M146.075,167.553c1.243-0.779,2.492-1.403,3.735-2.18l-1.243,5.138c-1.56,0.779-2.962,1.559-4.521,2.182
		L146.075,167.553L146.075,167.553z"/>
	<path fill="#AB823A" d="M138.133,174.562l2.646-4.827c1.402-0.471,2.802-1.09,4.051-1.716l-1.869,4.984
		c-1.404,0.467-2.647,0.935-3.895,1.403C138.752,174.406,138.439,174.562,138.133,174.562L138.133,174.562z"/>
	<path fill="#AB823A" d="M155.418,161.166c1.245-0.931,2.181-1.868,3.271-2.956v5.296c-1.246,1.087-2.648,2.179-3.895,3.113
		L155.418,161.166L155.418,161.166z"/>
	<path fill="#AB823A" d="M150.902,164.593c1.244-0.779,2.492-1.558,3.582-2.492l-0.624,5.295c-1.402,0.936-2.801,1.715-4.36,2.649
		L150.902,164.593L150.902,164.593z"/>
	<path fill="#AB823A" d="M135.327,171.293c1.403-0.311,2.806-0.624,4.204-1.09l-2.49,4.671c-1.557,0.312-3.271,0.779-4.828,0.937
		L135.327,171.293L135.327,171.293z"/>
	<path fill="#AB823A" d="M159.621,157.274c0.624-0.78,1.405-1.559,2.028-2.492c0.311-0.312,0.464-0.624,0.777-0.937l0.623,5.298
		c-1.09,1.246-2.336,2.491-3.582,3.581L159.621,157.274L159.621,157.274z"/>
	<path fill="#AB823A" d="M129.721,172.227c1.559-0.157,2.958-0.313,4.36-0.621l-3.114,4.36c-1.558,0.154-3.271,0.311-4.982,0.311
		L129.721,172.227L129.721,172.227z"/>
	<path fill="#09152F" d="M112.9,140.609c-2.647,1.246-5.296,2.646-7.789,4.36l-1.088,0.622l1.558,3.737l2.958,3.115l0.935-0.154
		c4.673-1.245,9.656-1.716,14.483-1.716c7.477,0,14.176,1.246,17.758,2.339l1.714,0.467l1.243-1.09
		c13.394-11.526,40.339-6.698,66.66-0.624c10.279,2.337,22.271,4.05,24.608-4.36c0.467-1.868,0.155-4.051-0.934-5.919
		c-0.469-0.777-1.092-1.557-1.869-2.18l-2.338-2.338c-1.246-1.4-2.959-2.492-4.983-3.426c-0.312-0.156-0.624-0.156-0.778-0.31
		c0,0-0.155,0-0.312-0.157c-0.623-1.715-1.87-3.893-2.649-5.449c0.937-0.156,1.869-0.625,2.649-1.402
		c1.246-1.09,1.868-2.492,1.868-3.894c0.157-2.024-0.622-3.737-2.024-5.139c-0.312-0.311-1.246-1.246-1.869-1.87
		c-1.402-1.558-3.737-2.804-6.541-3.27c-0.622,0-1.246-0.157-2.024-0.157c-2.18,0-4.518,0.622-6.388,2.025
		c-0.153-0.156-0.153-0.156-0.153-0.312c-0.155-0.156-2.025-1.869-2.338-2.18c-0.154-0.155-0.154-0.155-0.154-0.155
		c-0.155-0.156-0.312-0.312-0.466-0.312c-2.649-2.179-7.165-2.179-9.658-1.868c-0.312-0.468-0.467-0.78-0.778-0.936
		c-0.934-1.245-2.492-1.869-4.05-1.869c-0.155,0-0.468,0-0.622,0c-0.156,0-0.313,0-0.313,0c-0.154,0-0.31,0-0.464,0
		c-0.469,0.156-0.779,0.156-1.093,0.312c-0.153,0-0.309,0-0.309,0.155c-0.312,0-0.467,0-0.467,0.156
		c-1.247,0.468-2.338,1.245-3.115,2.336l0,0c-0.156,0.155-0.31,0.155-0.31,0.311c-1.406-1.403-3.738-2.959-7.79-3.425
		c-3.425-0.313-7.321,0.778-11.214,3.27c-0.156,0-0.466,0.312-0.466,0.312c-0.937,0.467-1.87,1.245-2.648,1.869
		c-0.467-0.779-0.934-1.557-1.402-2.181c-0.467-0.468-2.025-2.024-2.335-2.336c-0.158,0-0.158-0.156-0.313-0.156
		c-0.776-0.779-1.713-1.246-2.648-1.404c-0.154,0-0.31,0-0.464,0l-2.492-0.156c-10.438,0.313-18.689,1.247-30.06,2.337l-0.935,0.156
		l-0.623,1.713c-0.156,0.155-0.156,0.468-0.311,0.623c-1.247-0.779-2.805-1.245-4.362-1.401c-6.386-0.156-12.148,3.894-16.042,7.631
		l-1.558-1.713c-0.156-0.155-0.311-0.155-0.311-0.311c-0.156,0-0.312-0.156-0.312-0.156c-2.336-1.557-5.763-1.091-8.254,0
		c-0.935,0.312-2.181,0.934-3.426,1.559c-0.934-0.78-2.024-1.091-3.271-1.091c-0.624,0-1.402,0.156-2.025,0.468
		c-0.622-2.18-2.024-4.205-3.894-6.073l-2.18-2.181c-2.492-2.492-5.763-4.518-9.657-5.763c-0.468-0.156-0.778-0.312-0.778-0.312
		c-2.336-0.624-4.985-1.245-7.788-1.401c-0.312,0-0.778,0-0.935,0c-0.155,0-0.468,0-0.623,0
		c-21.495-0.932-29.75,8.723-30.372,17.134c0,0.779,0,1.558,0,2.335c0.311,2.493,1.245,4.673,2.646,6.386
		c0.156,0.311,0.468,0.467,0.623,0.779l2.18,2.182c0.468,0.467,0.935,0.776,1.558,1.246c-0.467,0-0.779,0.154-0.779,0.154
		c-0.312,0.156-0.623,0.156-0.779,0.156c-3.426,1.089-6.386,2.646-8.878,4.826l0,0C16.335,138.115,14,142.788,14,147.619
		c0,5.296,2.024,10.281,5.918,14.016l2.181,2.336c3.426,3.271,9.657,7.322,20.713,7.322c23.518,0,36.29-12.307,36.756-24.454
		c0-0.934,0-1.715,0-2.491c0.468,0.312,0.779,0.776,0.934,0.934c1.246,1.09,2.804,1.714,4.672,1.714
		c4.05,0.157,7.632-2.492,10.125-5.14c2.024,1.402,4.361,1.559,5.451,1.559C101.997,143.411,106.982,143.411,112.9,140.609
		L112.9,140.609z M39.076,148.553c-1.869,1.714-2.96,4.206-2.96,6.854c0,1.087,0.312,2.335,0.779,3.422
		c-0.623-0.155-1.09-0.31-1.558-0.31l0,0c-1.402-0.466-2.647-1.09-3.582-1.869c-1.246-1.559-1.87-3.735-1.87-5.919
		c0-5.607,4.518-10.122,10.124-10.122c2.025,0,3.894,0.467,5.452,1.402c0.468,0.934,0.624,1.712,0.624,2.648c0,0.31,0,0.621,0,0.932
		C43.437,145.592,40.944,146.684,39.076,148.553L39.076,148.553z M63.527,114.911c0,2.025-2.181,3.738-5.296,4.673l2.491-5.762
		l-2.335-2.18h0.156c1.713,0.312,3.271,0.777,4.673,1.712c0,0,0,0.157,0.156,0.157C63.527,113.976,63.527,114.444,63.527,114.911
		L63.527,114.911z M61.971,144.191c0,0.622,0,1.246-0.156,1.868c-0.934-3.114-2.647-6.075-4.983-8.567l-2.024-2.023
		c-0.157-0.156-0.312-0.312-0.467-0.467c2.024,0.621,3.737,1.56,5.295,2.803C61.191,139.676,61.971,142.012,61.971,144.191
		L61.971,144.191z"/>
	<path fill="#AB823A" d="M86.578,99.492h-0.157c0.157-0.467,0-0.623,0-0.623l-5.294-3.114l0,0l3.894,5.764l-7.009-0.779h-0.156
		l5.452,3.27c0,0,0.157,0,0.468-0.311l0.155,0.157l-1.557,2.491l-0.157-0.156c0.157-0.312,0.157-0.468,0-0.468l-6.697-4.049
		c-0.156-0.156-0.156-0.156-0.468,0.155h-0.155l2.336-3.737l0.156,0.156c-0.156,0.156-0.156,0.312,0,0.467
		c0.156,0,3.426,0.312,3.894,0.467c-1.09-1.557-2.025-3.114-2.181-3.27c-0.156-0.155-0.312,0-0.468,0.157l-0.156-0.157l2.336-3.737
		h0.157c-0.156,0.468-0.156,0.468,0,0.623l6.698,4.05c0,0,0.155,0,0.467-0.312l0.157,0.157L86.578,99.492L86.578,99.492z"/>
	<path fill="#AB823A" d="M90.627,94.354l-0.157-0.157c0.312-0.312,0.157-0.468,0.157-0.468l-5.607-5.451
		c-0.156-0.156-0.156-0.156-0.468,0.157l-0.156-0.157l2.335-2.492l0.157,0.156c-0.312,0.312-0.157,0.468-0.157,0.468l5.607,5.452
		c0.156,0.157,0.156,0.157,0.468-0.156l0.157,0.156L90.627,94.354L90.627,94.354z"/>
	<path fill="#AB823A" d="M96.858,86.098l4.671-3.271c0.156,0,0.156-0.156,0-0.468l0.156-0.155l1.714,2.492h-0.157
		c-0.312-0.156-0.312-0.312-0.468-0.156l-7.319,4.984v-0.156c0.312-0.311,0.312-0.468,0.156-0.624l-4.361-6.385
		c-0.157-0.156-0.157-0.156-0.623,0v-0.156l2.803-1.869l0.157,0.156c-0.312,0.156-0.312,0.311-0.312,0.467L96.858,86.098
		L96.858,86.098z"/>
	<path fill="#AB823A" d="M105.579,83.138v-0.311c0.157,0,0.157-0.156,0.157-0.312c0-0.155-4.828-6.387-4.984-6.697
		c-0.157-0.155-0.157-0.155-0.312-0.155v-0.157l2.96-0.933v0.156c-0.157,0.157-0.312,0.157-0.312,0.311
		c0.157,0.156,2.492,3.271,3.27,4.361l0,0c0-1.246-0.156-5.139-0.156-5.295s-0.311-0.156-0.466-0.156v-0.156l3.738-1.245v0.156
		c0,0-0.157,0.156-0.157,0.311c0,0,2.492,3.426,2.959,4.362h0.155c-0.155-0.779-0.155-5.139-0.155-5.295
		c0-0.156-0.313-0.156-0.467-0.156V71.77l2.647-0.936v0.157c-0.156,0-0.156,0.156-0.156,0.311c0,0.312,0,8.099,0,8.255
		c0.156,0.312,0.312,0.157,0.468,0.157v0.156l-3.271,1.246v-0.312c0.156,0,0.313-0.157,0.156-0.312
		c-0.156-0.467-2.024-3.114-3.27-4.983h-0.155c0.155,2.024,0.155,5.763,0.311,6.074c0,0.156,0.156,0.156,0.313,0.156l0.155,0.157
		L105.579,83.138L105.579,83.138z"/>
	<path fill="#AB823A" d="M121.309,77.22c-0.466,1.245-0.466,1.402-0.466,1.558c0,0.156,0,0.156,0.311,0.156v0.157l-2.959,0.156
		v-0.156c0.156-0.157,0.31-0.157,0.466-0.467c0-0.312,2.648-7.788,2.648-7.943c0-0.155-0.155-0.156-0.312-0.156v-0.156l4.361-0.157
		v0.157c-0.312,0-0.312,0.156-0.312,0.312c0,0.154,2.181,4.984,3.27,7.476c0.157,0.468,0.313,0.468,0.468,0.468v0.156l-3.271,0.156
		V78.78c0.312,0,0.312-0.156,0.312-0.156c0-0.156-0.467-1.402-0.622-1.559L121.309,77.22L121.309,77.22z M121.622,75.818h3.115
		l-1.714-3.894L121.622,75.818L121.622,75.818z"/>
	<path fill="#AB823A" d="M139.531,72.547c0-0.156,0-0.311-0.466-0.311l0.154-0.311l3.271,0.779v0.156
		c-0.468,0-0.468,0.156-0.468,0.312l-1.092,4.361c-0.619,2.803-2.799,3.271-5.293,2.803c-2.492-0.623-4.361-2.025-3.582-4.828
		l0.933-4.362c0-0.156,0-0.311-0.464-0.467l0.153-0.157l3.272,0.779v0.155c-0.467,0-0.467,0-0.467,0.156l-1.092,4.361
		c-0.312,1.246,0.312,1.869,1.715,2.181c1.245,0.312,2.179,0,2.335-1.245L139.531,72.547L139.531,72.547z"/>
	<path fill="#AB823A" d="M149.187,85.63l0.157-0.156c0.156,0,0.311,0.156,0.311-0.156c0.156-0.156-0.311-3.738-0.311-4.205
		l-2.025,0.623l-1.09,1.713c0,0.156,0,0.156,0.311,0.468v0.156l-3.113-1.713l0.154-0.156c0.313,0.156,0.467,0.156,0.467,0
		l3.74-6.854c0.154-0.156,0.154-0.156-0.156-0.468v-0.153l3.116,1.713l-0.158,0.156c-0.466-0.156-0.466-0.156-0.621,0l-1.402,2.647
		h0.155c1.713-0.468,4.204-0.935,4.361-1.09c0-0.156,0-0.312-0.157-0.312v-0.157l3.738,2.025v0.157
		c-0.467-0.157-0.623-0.157-1.089,0l-3.737,0.778l0.466,6.074c0.155,0.312,0.155,0.468,0.312,0.468v0.157L149.187,85.63
		L149.187,85.63z"/>
	<path fill="#AB823A" d="M161.337,91.082l-0.155-0.156c0-0.156,0.155-0.311-0.158-0.623l-2.335-2.181l-0.936,1.245l3.895,3.583
		c0.155,0.155,0.155,0.155,0.466-0.156l0.157,0.156l-2.025,2.181v-0.156c0.156-0.312,0.156-0.312,0-0.467l-6.073-5.763l0.154-0.155
		c0.312,0.311,0.468,0.311,0.468,0.155l5.295-5.607c0.156-0.156,0.156-0.311-0.157-0.622l0.157-0.157l6.074,5.763
		c0.155,0.156,0.312,0,0.621-0.156l0.157,0.156l-2.025,2.024l-0.156-0.156c0.156-0.312,0.313-0.312,0.156-0.468l-3.893-3.737
		l-0.935,1.09l2.182,2.181c0.311,0.156,0.467,0.156,0.623,0l0.153,0.156L161.337,91.082L161.337,91.082z"/>
	<path fill="#AB823A" d="M168.657,100.894l-0.157-0.155c0.157-0.157,0.313-0.312,0.157-0.625l-1.714-2.647l-1.404,0.935l2.961,4.517
		c0.154,0.157,0.154,0.157,0.623,0v0.157l-2.339,1.558l-0.153-0.156c0.153-0.311,0.311-0.311,0.153-0.467l-4.517-7.009l0.157-0.156
		c0.31,0.311,0.467,0.311,0.467,0.311l6.543-4.205c0.153-0.156,0.31-0.312,0-0.624l0.31-0.156l4.36,7.009
		c0.157,0.156,0.313,0.156,0.624,0l0.155,0.156l-2.491,1.557l-0.156-0.155c0.312-0.157,0.312-0.312,0.312-0.468l-2.96-4.517
		l-1.09,0.779l1.559,2.647c0.31,0.312,0.466,0.312,0.623,0.156l0.154,0.156L168.657,100.894L168.657,100.894z"/>
	<path fill="#B68F64" d="M153.238,106.812L153.238,106.812L153.238,106.812z"/>
	<path fill="#AB823A" d="M233.604,142.168c-0.312-0.623-0.778-1.246-1.558-1.871c-0.312-0.465-1.869-2.025-2.335-2.336
		c-1.247-1.402-3.116-2.648-6.076-3.734c-0.778-2.336-2.492-4.986-3.426-6.855c-0.311-0.469-0.624-0.936-0.934-1.559
		c0.467,0.158,0.934,0.312,1.402,0.312c1.089,0,2.182-0.312,3.115-1.09c0.777-0.779,1.245-1.87,1.245-2.96
		c0.154-1.559-0.468-2.803-1.558-3.894c-0.312-0.468-1.869-1.869-2.182-2.18c-1.402-1.557-4.049-2.492-7.163-2.648
		c-2.492-0.156-4.985,0.937-6.699,2.804c-0.31-0.622-0.623-1.09-1.091-1.558c0-0.156-1.869-1.87-2.179-2.181
		c-0.156-0.156-0.312-0.311-0.469-0.467c-2.646-2.025-7.32-1.246-9.345-0.935c-0.156-0.156-0.777-0.312-0.934-0.468
		c-0.156-0.467,0-1.089-0.31-1.401c-0.78-0.935-1.87-1.402-2.962-1.402c-2.336-0.156-4.361,0.935-5.761,2.958
		c-0.313,0.468-0.469,1.87-0.622,2.336c-0.311-0.156-0.937-0.624-1.09-0.779c-1.09-1.401-2.648-4.206-7.166-4.672
		c-4.518-0.468-10.125,2.024-14.952,6.541c0,0.156-0.156,0.312-0.312,0.312c0-0.156,0-0.156,0-0.312
		c-0.153-1.713-0.624-2.959-1.399-3.738c-0.47-0.467-2.027-2.025-2.338-2.337c-0.934-0.778-1.869-1.246-2.959-1.246
		c0,0-0.157,0-0.311,0c-0.623,0-1.092,0.157-1.56,0.468l0.154-0.468c-10.277,0.468-19.776,1.246-30.058,2.336l-0.31,0.934
		c-1.091,2.492,0.467,3.428,1.245,3.894l-0.311,0.623c-0.311-0.468-2.024-2.025-2.492-2.491c-1.09-1.09-2.647-1.713-4.671-1.87
		c-5.764-0.156-11.527,3.583-15.887,8.255c-0.155-0.157-0.155-0.311-0.312-0.467c-0.155-0.157-1.869-1.87-2.335-2.335
		c-0.156-0.157-0.311-0.312-0.467-0.312c-1.714-1.245-4.673-0.779-6.697,0.157c-1.091,0.467-2.804,1.246-4.206,2.024
		c-0.779-0.934-1.869-1.402-3.114-1.402c-0.934,0-2.024,0.468-3.115,1.246c-0.312-2.493-1.559-5.139-3.894-7.32
		c-0.312-0.467-1.713-1.868-2.18-2.181c-3.738-3.893-10.28-6.853-18.845-7.163c-20.249-0.624-28.191,8.099-28.659,15.885
		c-0.312,3.271,0.779,6.23,2.803,8.256c0.312,0.311,1.87,1.712,2.181,2.18c1.246,1.091,2.647,1.868,4.361,2.025c0,0,0.156,0,0.311,0
		l-0.468,1.093c-4.983,0.622-9.656,2.49-13.238,5.449c-3.894,3.271-5.917,7.477-5.917,11.996c0,4.983,1.869,9.501,5.451,12.926
		c0.312,0.469,1.713,1.868,2.181,2.339c3.115,3.115,9.189,6.854,19.624,6.854c22.584,0,34.888-11.527,35.199-23.052
		c0.157-2.338-0.156-4.518-0.623-6.543c0.157-0.311,0.468-0.623,0.623-0.934c0.157,0.623,0.312,1.09,0.468,1.557
		c0.156,0.47,0.468,0.779,0.779,1.09c0.468,0.312,1.87,2.026,2.335,2.339c0.78,0.621,1.87,1.245,3.583,1.245
		c4.05,0.154,7.789-3.114,10.124-5.764c1.713,2.025,4.205,2.18,5.606,2.18c1.557,0.156,9.501,0,18.222-7.32
		c0.313,0.313,1.871,1.869,2.025,2.026c0.623,0.622,1.557,1.09,2.646,1.401c-1.869,0.623-3.583,1.246-5.294,1.873
		c-4.673,1.711-8.877,4.048-12.616,6.381l0.934,2.338l2.181,2.179c4.985-1.086,10.125-1.712,14.952-1.712
		c7.789,0,14.642,1.245,18.224,2.336l0.779,0.312l0.62-0.622c14.019-11.994,41.431-7.01,68.22-0.778
		c14.173,3.271,21.183,2.181,22.738-3.427C234.848,145.438,234.538,143.722,233.604,142.168L233.604,142.168z M157.442,133.443
		c0.156,0.156,1.56,0.934,1.716,1.246c-2.182-0.156-6.076-0.466-8.256-0.466c0.62-0.468,1.244-0.937,1.868-1.56
		c0.624-0.625,1.09-1.246,1.714-2.021C155.106,131.891,156.196,132.664,157.442,133.443L157.442,133.443z M151.679,115.066
		c0,0.624-0.156,1.559-0.619,2.647c-0.937,3.271-2.648,6.075-4.208,7.943l4.671-10.748
		C151.522,115.066,151.679,115.066,151.679,115.066L151.679,115.066z M185.634,133.443c0.156,0.78,0.624,1.559,1.245,2.336
		c0.468,0.312,1.869,1.713,2.336,2.182c0,0.154,0.154,0.154,0.312,0.311c-4.05-0.779-8.409-1.557-12.927-2.18
		c2.804-1.09,5.764-2.805,8.722-5.14C185.321,131.733,185.321,132.664,185.634,133.443L185.634,133.443z M203.855,137.648
		c-0.157,1.404,0.312,2.648,1.245,3.738c0.153,0.156,0.466,0.312,0.623,0.623c-2.492-0.623-5.452-1.4-8.723-2.18
		c4.362-0.936,8.41-4.984,11.525-9.346c0.156,0.158,0.156,0.312,0.312,0.468c0.468,0.466,0.934,1.087,1.244,1.556
		C206.346,133.134,204.167,135.002,203.855,137.648L203.855,137.648z M55.74,138.584c-0.468-0.312-1.868-1.869-2.181-2.182
		c-0.934-0.934-2.024-1.869-3.114-2.646l0.312-0.936c4.05,0.313,7.476,1.869,9.967,3.895c1.869,2.18,2.804,4.828,2.804,7.477
		c0,2.021-0.779,4.672-2.647,7.319c0-0.156,0-0.466,0-0.779C60.88,146.213,59.011,141.855,55.74,138.584L55.74,138.584z
		 M65.085,114.911c0,3.426-4.361,6.541-9.346,6.541l3.115-7.32l-2.18-2.18l-17.131,1.712c3.581-3.115,10.902-4.05,16.664-3.894
		c3.271,0.156,6.075,1.09,8.099,2.491C64.774,113.042,65.24,113.976,65.085,114.911L65.085,114.911z M28.328,150.731
		c0-6.384,5.295-11.679,11.681-11.679c2.493,0,4.829,0.779,6.541,1.869c0.624,1.09,1.091,2.336,1.091,3.738
		c0,0.777-0.156,1.713-0.623,2.648c-0.312-0.156-0.779-0.156-1.09-0.156c-2.18,0-4.361,0.93-5.763,2.491
		c-1.559,1.403-2.493,3.579-2.493,5.764c0,2.022,0.78,3.893,2.025,5.295c-3.738,0-6.854-1.091-9.189-2.96
		C29.108,155.872,28.328,153.38,28.328,150.731L28.328,150.731z M75.521,127.059c-1.091,1.869-2.336,3.894-3.272,5.139
		c-0.311-0.307-0.778-0.776-1.09-1.087c-0.156-0.312-0.467-0.623-0.623-1.092c2.025-0.933,3.583-2.022,4.985-3.269
		C75.521,126.748,75.521,126.902,75.521,127.059L75.521,127.059z"/>
	<path fill="#FFFFFF" d="M153.238,106.812L153.238,106.812L153.238,106.812z"/>
	<path fill="#FFFFFF" d="M121.778,109.149l-0.313,0.934c-1.089,2.492,0.469,3.427,1.246,3.894l-1.089,2.492c0-0.311,0-0.623,0-0.933
		c-0.313-2.959-2.805-5.14-6.385-5.296c-6.854-0.156-13.708,5.296-18.222,10.902c0.467-1.09,0.623-1.87,0.623-2.96
		c0.157-1.246-0.468-2.18-1.402-2.804c-1.713-1.245-4.672-0.779-6.697,0.157c-1.09,0.467-2.804,1.245-4.206,2.023
		c-0.779-0.934-1.869-1.401-3.115-1.401c-1.245,0-2.803,0.779-4.05,2.024c-1.87,1.87-2.96,4.362-2.96,6.698
		c0,0.778,0.157,1.558,0.312,2.179c-1.091,1.869-2.336,3.584-3.427,4.832c-1.09-1.562-2.491-2.807-3.894-3.895
		c5.296-2.493,8.411-6.698,8.722-11.838c0.157-7.008-8.41-14.795-22.738-15.418c-20.249-0.625-28.191,8.098-28.659,15.885
		c-0.467,5.295,2.647,9.811,7.009,10.278c1.558,0.156,3.115-0.311,4.205-1.244l-2.025,4.516c-4.983,0.622-9.656,2.49-13.238,5.449
		c-3.894,3.271-5.917,7.477-5.917,11.996c0,4.983,1.869,9.501,5.451,12.926c3.114,3.269,9.189,7.011,19.624,7.011
		c22.583,0,34.731-11.524,35.199-23.053c0.156-2.335-0.157-4.519-0.623-6.54c2.023-2.805,4.205-6.072,5.606-8.877
		c0.467,0,1.09-0.156,1.713-0.467c-0.935,1.399-2.336,3.58-2.336,3.58c-1.712,2.493-2.959,6.074-1.712,8.566
		c0.623,1.09,1.869,2.492,4.517,2.492c4.05,0.156,7.787-3.271,9.969-5.918c1.712,2.18,4.361,2.336,5.605,2.336
		c1.713,0,9.812,0,18.845-7.785c0.312,0.776,0.624,1.399,1.09,2.021c1.246,1.403,3.115,2.183,5.764,2.339
		c3.425,0,6.54-1.093,9.188-3.584c1.246,1.245,2.801,2.025,4.674,2.491c-6.854,0.78-13.55,2.336-19.626,4.678
		c-4.672,1.711-8.876,4.048-12.614,6.381l0.933,2.338c4.985-1.243,10.125-1.716,14.953-1.716c7.789,0,14.643,1.246,18.224,2.338
		l0.778,0.311l0.622-0.622c14.019-11.994,41.273-7.01,68.062-0.78c14.173,3.115,21.182,2.184,22.74-3.423
		c0.468-1.404,0.154-3.115-0.779-4.676c-1.246-2.023-3.737-4.671-9.501-6.381c-0.623-2.648-2.648-6.073-3.895-8.413
		c-0.31-0.467-0.62-1.091-0.934-1.557c0.471,0.156,0.934,0.311,1.402,0.311c1.09,0,2.182-0.311,2.959-1.091
		c0.937-0.778,1.404-1.869,1.404-2.959c0.154-3.738-3.427-6.385-8.721-6.542c-3.895-0.155-7.633,2.493-8.879,6.075
		c-4.051,5.139-6.383,7.32-7.785,8.253c0.31-0.623,0.932-1.401,1.711-2.647c0.467-0.467,1.09-1.09,1.87-1.869
		c2.024-2.181,4.674-4.828,4.518-7.787c-0.157-1.402-0.777-2.492-1.869-3.426c-2.803-2.181-7.943-1.558-9.658-1.402
		c-0.153-0.468-0.467-1.088-0.933-1.557c-0.78-0.779-1.87-1.246-2.96-1.246c-2.335-0.157-4.36,0.934-5.763,2.958
		c-0.313,0.468-0.623,1.091-0.933,1.713c-0.623-1.558-2.491-4.205-7.942-4.828c-4.518-0.467-10.125,2.025-14.955,6.542
		c-1.087,1.246-2.18,2.492-3.115,3.737c0.47-2.181,0.779-4.205,0.623-5.917c-0.31-3.738-2.645-4.984-4.515-5.14c0,0-0.156,0-0.312,0
		c-0.623,0-1.089,0.156-1.557,0.468l0.155-0.468C141.556,107.28,132.057,108.057,121.778,109.149L121.778,109.149z M40.166,149.642
		c-1.558,1.403-2.492,3.581-2.492,5.763c0,2.023,0.779,3.894,2.025,5.295c-4.205-0.156-7.631-1.401-9.968-3.581
		c-2.336-2.182-3.583-5.142-3.583-8.565c0-6.385,5.139-11.682,11.681-11.682c5.452,0,9.812,3.426,9.812,7.789
		c0,0.932-0.156,1.713-0.623,2.648c-0.312-0.156-0.779-0.156-1.09-0.156C43.749,147.149,41.567,148.082,40.166,149.642
		L40.166,149.642z M57.142,155.562c0.933-2.182,1.557-4.517,1.557-7.009c0-6.854-4.205-12.93-10.902-16.199l0.779-1.711
		c9.345,0.775,14.951,7.318,14.951,13.549C63.527,147.149,61.659,151.82,57.142,155.562L57.142,155.562z M53.715,121.452H52.47
		l4.205-9.5l-18.534,1.869l-0.311,0.778c-0.468,1.091-0.468,1.869-0.312,2.647c-0.778-0.78-1.558-1.247-2.335-1.558
		c0-1.402,0.623-2.647,1.558-3.737c3.426-3.583,11.214-4.517,17.288-4.362c6.229,0.156,11.214,3.582,11.059,7.319
		C64.93,118.805,59.79,121.763,53.715,121.452L53.715,121.452z M112.743,116.156c0,0.623-0.466,1.713-1.401,3.115
		c-0.624,1.245-2.337,3.426-5.141,4.827c1.09-1.712,2.181-3.426,3.271-4.827C111.031,117.403,112.12,116.468,112.743,116.156
		L112.743,116.156z M103.244,132.977c-0.156,0-0.156,0-0.156,0c0-0.156-0.157-0.779,0.156-2.334
		c4.205-0.469,9.967-2.805,13.861-6.231C109.628,132.041,105.269,133.134,103.244,132.977L103.244,132.977z M189.215,122.543
		c-2.491,3.27-4.673,7.473-3.581,10.9c0.313,1.559,1.557,3.426,5.141,4.205c6.071,1.404,11.834-4.049,15.884-9.811
		c0.624,1.089,1.403,2.024,2.183,3.114c0.468,0.466,0.934,1.089,1.243,1.556c-3.735,0.626-5.917,2.494-6.227,5.141
		c-0.156,1.404,0.31,2.648,1.243,3.738c0.156,0.156,0.466,0.312,0.623,0.623c-8.252-2.025-21.492-5.295-35.977-6.854
		C175.51,134.069,183.142,130.484,189.215,122.543L189.215,122.543z M181.893,120.674c0.626-0.779,1.249-1.713,1.561-2.647
		c0,0,0,0.156,0.155,0.156c0.157,0.468,0.311,0.779,0.623,1.246c-4.204,4.827-12.303,10.124-17.288,9.813
		c-1.246,0-1.559-0.156-1.715-0.156c-0.155-0.156-0.155-0.467-0.155-0.623c0-0.311,0.155-0.934,0.466-2.181
		C173.484,127.371,179.092,124.1,181.893,120.674L181.893,120.674z M175.2,113.199c0.153,0,0.153,0,0.153,0
		c0.156,0.155,0.156,1.245-0.621,2.646c-1.246,2.18-3.584,4.361-6.699,4.827C170.682,116.001,173.64,113.042,175.2,113.199
		L175.2,113.199z M143.894,125.346l5.45-12.771c0.467,1.089,1.245,2.024,2.335,2.491c0,0.624-0.156,1.559-0.619,2.647
		c-1.873,6.075-5.607,10.279-7.322,10.125c-0.157,0-0.312,0-0.312,0C143.271,127.681,143.271,126.436,143.894,125.346
		L143.894,125.346z M128.005,129.396c0-0.312,0.157-1.402,1.092-3.584l7.32-16.819c-0.778,2.18,0.779,3.269,1.403,3.582
		l-4.052,9.188C130.653,128.15,128.941,129.396,128.005,129.396L128.005,129.396z M144.672,134.533
		c2.023-0.774,4.049-2.18,5.762-4.049c1.245-1.244,2.335-2.646,3.271-4.204c0,0.468,0,0.935,0,1.4
		c0.155,3.115,1.869,5.296,4.671,6.699C153.551,134.227,149.031,134.227,144.672,134.533L144.672,134.533z M223.79,142.012
		c0,0.621-0.155,1.088-0.776,1.559c-0.779,0.467-2.648,1.245-7.01,0.624c1.713-0.312,3.115-1.247,4.205-2.339
		c0.623-0.623,1.246-1.559,1.402-2.489C222.856,139.984,223.946,140.92,223.79,142.012L223.79,142.012z"/>
	<path fill="#09152F" d="M124.271,134.689c2.645,0,6.073-0.62,9.5-4.205c0.935,1.869,3.426,3.271,6.385,3.271
		c9.345,0.468,16.976-13.706,16.354-21.804c-0.157-2.336-1.403-3.583-2.959-3.583c0,0-0.156,0-0.312,0
		c-1.401,0.157-2.491,1.246-2.649,2.647c0,1.558,1.09,2.805,2.649,2.959c0.156,0.934,0,2.336-0.623,4.205
		c-1.868,5.763-6.074,11.37-9.031,11.216c-2.493,0-1.869-3.116-1.09-4.83l7.009-16.042l-11.524,0.624
		c-1.09,2.647,2.336,1.712,1.244,3.892l-4.05,9.346c-2.492,5.141-4.829,8.566-7.321,8.566c-1.867-0.156-1.712-2.179-0.156-5.763
		l6.856-15.73l-11.683,1.089c-1.091,2.804,2.335,1.714,1.401,3.74l-4.205,9.188c-2.804,3.113-10.591,11.212-16.977,11.056
		c-1.87-0.156-2.025-2.336-0.934-5.294c6.075-0.156,18.534-6.074,17.911-13.549c-0.156-2.025-1.869-3.737-4.828-3.894
		c-9.189-0.312-18.846,10.902-21.493,17.6c-0.934,1.245-3.894,4.83-5.452,4.83c-0.935-0.157-0.623-1.405,0.468-3.116l5.452-8.101
		c1.712-2.646,1.869-3.582,1.869-4.828c0.156-2.646-3.737-2.336-5.918-1.245c-1.559,0.622-4.361,2.024-5.452,2.646
		c-0.312-1.09-1.245-1.869-2.492-1.869c-1.87,0-5.453,3.271-5.453,7.166c0,0.933,0.156,1.71,0.623,2.178
		c-2.023,3.427-4.516,6.386-5.295,7.319c-1.869-2.957-4.516-5.138-7.164-6.851c5.139-1.559,10.123-5.14,10.435-11.371
		c0.156-6.075-8.099-13.394-21.181-13.862c-32.397-1.086-30.527,22.12-21.495,23.054c2.335,0.311,4.517-1.402,4.672-3.894
		c0.312-2.336-1.401-4.362-3.738-4.673c-0.778-8.566,11.215-11.059,20.56-10.746c6.852,0.311,12.615,4.048,12.458,8.876
		c-0.156,4.673-5.763,8.411-12.926,8.099c-1.089,0-2.647-0.156-3.426-0.156l3.894-9.033l-14.953,1.402
		c-1.401,3.427,2.804,2.025,1.559,4.828l-4.984,11.682c-10.591,0.775-18.846,7.633-18.846,15.886
		c0.156,9.658,8.099,18.379,23.674,18.379c22.115,0,33.33-11.059,33.641-21.493c0.156-2.648-0.156-4.984-0.779-6.855
		c2.492-3.271,4.984-7.164,6.229-9.969c1.713-0.153,4.205-1.09,7.477-3.269c-1.713,2.337-4.828,7.165-5.764,8.565
		c-2.023,3.115-3.582,8.566,1.559,8.722c4.516,0.153,8.878-5.296,10.279-7.009c0.935,3.115,3.426,3.425,5.453,3.425
		c2.18,0.156,10.901-0.31,20.092-9.655C118.35,132.041,119.751,134.533,124.271,134.689L124.271,134.689z M113.365,114.289
		c2.96,0.155-1.246,11.057-10.123,12.303C105.891,120.831,110.875,114.289,113.365,114.289L113.365,114.289z M47.797,149.019
		c-0.623-0.155-1.245-0.312-1.87-0.312c-3.737,0-6.697,2.96-6.697,6.698c0,3.425,2.647,6.23,5.918,6.541
		c-1.401,0.155-2.959,0.312-4.517,0.312c-10.591,0-16.042-6.229-16.042-13.705c0-7.322,5.918-13.24,13.238-13.24
		c6.229,0,11.369,4.205,11.369,9.345C49.199,146.213,48.731,147.619,47.797,149.019L47.797,149.019z M50.6,160.702
		c3.895-2.183,6.542-6.856,6.542-12.149c0-6.854-4.672-12.773-11.371-15.419l1.869-4.05c11.057,0.312,17.443,8.254,17.443,15.107
		C65.085,149.329,60.724,157.428,50.6,160.702L50.6,160.702z"/>
	<path fill="#09152F" d="M220.519,137.182c2.806,0.934,4.986,2.803,4.83,4.986c-0.156,1.402-0.932,5.914-15.108,2.492
		c-16.04-3.895-69.152-19.002-102.169,2.025c13.707-3.115,27.413-0.469,32.396,1.09c14.482-12.619,42.674-7.479,69.46-1.246
		c17.757,4.048,20.095,0.31,20.872-2.335c0.622-2.183-1.246-7.013-10.281-9.349c-0.463-3.112-2.179-6.072-3.425-8.254
		c-1.246-2.024-2.336-3.737-2.492-5.761c0-0.468,0.47-1.403,1.402-1.713c0,0.154,0,0.312,0,0.466c0,1.558,1.09,2.803,2.491,2.803
		c1.561,0,2.806-1.089,2.806-2.492c0.154-3.271-3.425-4.828-7.165-4.984c-3.271-0.155-6.541,2.181-7.478,5.295
		c-7.631,9.967-10.276,9.656-10.9,9.5c-1.092-0.311-0.155-2.336,2.18-5.452c1.712-2.336,6.229-5.452,6.073-8.878
		c-0.31-4.05-7.01-3.737-10.122-3.27c-0.467,0.155-0.778,0.155-1.092,0.155c0-0.155,0-0.155,0-0.155
		c0-1.558-1.246-2.804-2.646-2.959c-4.203-0.157-6.697,4.982-5.14,8.41c0.312,0.779,0.779,1.245,1.402,1.558
		c-3.892,5.45-13.239,11.991-19.624,11.68c-2.958-0.153-3.113-0.934-3.271-2.179c0-0.779,0.312-2.337,1.089-3.894
		c16.822,2.804,24.765-14.018,10.748-15.574c-8.879-0.935-20.715,10.903-20.092,18.531c0.311,5.919,7.163,6.386,9.031,6.543
		c4.519,0.153,16.508-2.026,24.92-14.484c1.56,0,3.425-0.312,5.295-0.935c-5.762,5.607-11.991,15.422-3.426,17.446
		c6.074,1.243,12.15-5.92,15.731-11.371c1.243,3.426,4.361,5.919,5.918,9.032c-4.361,0-7.167,1.403-7.32,3.893
		c-0.312,3.271,4.205,5.141,7.63,5.141C216.158,143.1,220.209,141.699,220.519,137.182L220.519,137.182z M175.2,111.642
		c4.67,0.312-0.779,11.68-9.658,10.746C168.033,117.247,172.24,111.485,175.2,111.642L175.2,111.642z M213.355,138.738
		c-0.466,2.338-4.826,1.402-4.518-0.623c0.157-1.244,2.182-1.867,4.518-2.023C213.512,136.871,213.512,137.805,213.355,138.738
		L213.355,138.738z"/>
	<path fill="#09152F" d="M188.593,152.603h-1.09v3.116h-0.934v-3.116h-1.09v-0.779h3.115v0.779H188.593z M194.043,155.719h-0.776
		v-3.116l0,0l-1.246,3.116h-0.778l-1.092-3.116l0,0v3.116h-0.778v-3.896h1.404l0.935,2.648l0,0l0.932-2.648h1.403v3.896H194.043z"/>
</g>
</svg>
