<?xml version="1.0" encoding="utf-8"?>
<!-- Generator: Adobe Illustrator 16.0.4, SVG Export Plug-In . SVG Version: 6.00 Build 0)  -->
<!DOCTYPE svg PUBLIC "-//W3C//DTD SVG 1.1//EN" "http://www.w3.org/Graphics/SVG/1.1/DTD/svg11.dtd">
<svg version="1.1" id="Layer_1" xmlns="http://www.w3.org/2000/svg" xmlns:xlink="http://www.w3.org/1999/xlink" x="0px" y="0px"
	 width="250px" height="250px" viewBox="0 0 250 250" enable-background="new 0 0 250 250" xml:space="preserve">
<g>
	<path fill="#FFFFFF" d="M232.697,199.796c-1.641-0.821-3.394-1.284-5.232-1.395c-0.167-2.36-0.938-4.661-1.595-6.59
		c-0.284-0.834-0.553-1.624-0.726-2.281c-0.826-3.115-1.05-4.388-0.309-6.41c1.574-4.312-3.914-6.791-6.086-7.771
		c0,0-0.673-0.305-0.669-0.305c-0.641-0.29-1.007-0.147-1.979,0.228c-0.791,0.308-1.7,0.916-2.895,2.018
		c0.993-1.636,1.637-3.692,1.799-5.872c0.646-0.467,1.245-1.203,1.729-2.174c1.636-3.264,1.709-8.693-2.988-14.146
		c-1.904-2.211-15.281-13.799-27.051-23.88l-0.045-0.039c4.14-1.334,10.471-3.376,10.415-3.36c0.888-0.236,2.318-0.898,3.632,0.289
		c1.159,1.126,3.433,1.538,5.398,0.152c3.409-2.396,1.52-7.672,0.82-9.637c-1.227-3.454-2.956-4.755-4.195-5.239
		c-1.202-0.469-2.473-0.496-3.569,0.089c-1.704,0.908-2.119,2.368-2.316,3.561c-0.218,1.297-2.285,1.6-5.963,2.524
		c0,0-12.604,3.439-13.502,3.695l-0.065-0.055l-3.053-2.598c-0.595-0.98-1.765-2.738-3.146-3.86
		c-0.238-3.942-3.299-8.634-5.811-10.553c-0.128-2.744-2.332-6.718-4.678-8.164c-10.527-18.58-19.933-30.505-28.738-36.436
		l-0.287-0.192c-1.578-1.058-1.709-1.208-1.771-2.031c-0.541-7.322-2.502-14.34-4.989-18.105c0.983-1.58,2.467-4.392,3.497-8.292
		c0,0,1.11-4.21,1.11-4.208l-1.273,0.842c0.323-1.061,0.646-2.328,0.959-3.864l0.029-0.203c0.094-1.263-0.761-1.737-1.024-1.852
		c-0.111-0.049-0.215-0.073-0.321-0.098c0.096-1.396-0.046-3.077-0.769-4.932l-0.979-2.515l-1.8,2.004
		c-3.686,4.104-9.292,6.244-14.241,8.131c-1.133,0.432-2.205,0.844-3.221,1.263c-8.071,3.335-13.062,6.907-17.768,17.002
		c-0.11,0.093-0.232,0.196-0.368,0.31c-2.138,1.798-6.59,5.542-9.112,12.955l-0.418,1.231l1.093,0.7
		c2.6,1.661,5.405,2.83,8.954,4.072c-13.311,29.754,12.027,47.407,33.23,58.22c-1.229,2.26-2.213,4.372-2.473,6.863l-9.501,10.012
		c-0.915,0.24-2.64,0.805-3.642,1.877c-0.343,0.361-0.662,0.854-0.956,1.458c-0.264,0.057-0.495,0.106-0.696,0.146
		c-5.939,1.192-15.429,3.362-40.61,10.356c-3.641-3.341-9.703-5.481-15.667-5.481c-9.448,0-15.547,5.075-21.803,12.696
		c-9.028,11.001-19.228,41.114-5.712,57.053c2.31,2.729,11,11.521,25.892,10.384c3.987-0.305,6.97-0.965,9.603-1.545
		c5.199-1.145,7.572-1.67,12.75,1.811l2.071,1.394l1.958-1.548c2.949-2.331,7.959-1.546,11.992-0.608l7.814,1.823l-4.097-6.901
		c-5.469-9.203-13.216-10.522-21.031-9.842c4.399-1.228,7.319-5.134,9.45-9.765c-0.283,3.049,0.241,6.292,3.123,8.34
		c4.645,3.299,10.464,1.854,14.77-0.813c2.04,1.737,4.772,2.753,7.291,2.645c2.185-0.042,4.063-0.473,5.82-1.329
		c1.166,0.823,2.472,1.312,3.896,1.454c2.361,0.231,4.887-0.537,7.526-2.261c1.375,1.377,3.172,2.127,5.221,2.137
		c0.953,0.005,1.949-0.123,2.959-0.379l-0.102,0.379h14.215l1.912-6.992c0.17,1.381,0.582,2.703,1.385,3.863
		c0.887,1.276,2.605,2.854,5.769,3.116c3.387,0.279,7.448-0.995,10.726-3.294c3.561,3.505,8.052,4.076,13.39,1.685
		c1.057,0.909,2.878,1.977,5.611,1.603c1.877-0.126,3.765-0.925,5.73-2.407c1.618,1.601,3.705,2.461,6.038,2.427
		c3.846-0.06,7.078-2.354,9.614-4.719c2.794,2.858,7.033,5.771,13.54,4.67c1.122-0.188,2.045-0.434,2.859-0.652
		c2.151-0.577,2.428-0.65,4.144,0.803l5.079,4.3l0.531-6.499c0.098-0.323,0.804-2.299,4.253-4.568l4.95-3.267L232.697,199.796z
		 M59.859,213.221c-7.196,1.296-14.635,2.632-20.997-0.518c-4.542-2.243-8.188-8.419-8.303-14.059
		c-0.106-5.106,0.575-10.415,2.419-16.011c0.523,0.561,1.162,0.874,1.799,1.104c1.42,0.516,3.469,0.494,5.178-0.083
		c2.647-0.889,5.22-1.761,7.737-2.619c-0.143,0.15-0.287,0.286-0.428,0.443c-5.365,6.028-7.599,13.155-6.245,19.74
		c-0.772,0.466-1.847,1.062-2.996,1.605c0,0-2.96,1.41-3.104,1.483l-0.803,0.482v0.938c-0.003,0.938-0.003,0.938,3.579,3.095
		c0.013,0.01,1.491,0.976,2.303,2.667l0.956,2.001l2.215-0.057c2.022-0.049,3.63-1.146,4.625-2.022
		c3.423,1.495,7.042,1.145,10.217-0.994c2.684,1.6,5.47,1.913,6.911,1.956C63.213,212.62,61.517,212.925,59.859,213.221z
		 M186.034,175.994h-9.062l-0.074,0.289c-1.188-0.189-2.482-0.164-3.829,0.089c-5.023,0.944-8.865,3.982-11.518,9.041
		c0.295-2.638-0.009-4.688-1.256-6.282c-1.444-1.845-3.482-2.877-5.893-2.979c-0.878-0.038-1.796,0.057-2.731,0.271l0.065-0.288
		h-13.485l0.008-0.025h-1.799c2.44-1.194,4.13-3.696,4.13-6.591c0-4.049-3.293-7.345-7.343-7.345c-3.089,0-5.733,1.919-6.814,4.627
		l2.033-7.967l-15.799,6.226l-2.582,11.314c-5.486-0.792-9.189,2.086-11.522,4.968c0.414-0.76,1.068-1.959,1.014-1.872l1.602-2.57
		l-15.573-0.008l0.438-1.656H73.499c0,0-2.348,9.431-3.423,12.778c0.549-2.423,2.762-11.895,2.762-11.895H62.036
		c23.052-7.983,39.318-14.04,48.481-18.063c4.284-1.882,25.812-9.708,33.015-12.304c5.439-1.957,11.998-4.227,19.485-6.746
		c4.957,7.545,17.649,26.744,25.258,37.017C187.805,175.996,187.112,175.994,186.034,175.994z M134.912,127.558l0.959,0.416
		l-7.084,6.823c-2.834,0-3.8,2.826-3.8,2.826l-5.072,1.414c-0.229-0.23-1.459-0.335-1.459-0.335l6.35-5.515
		C130.011,131.582,134.912,127.558,134.912,127.558z M141.039,129.896l6.126,2.066l-8.5,2.144c0,0-0.689-0.458-1.609-0.535
		L141.039,129.896z"/>
	<path fill="#003263" d="M231.956,201.277c-2.231-1.116-4.411-1.323-6.135-1.221c0.206-2.616-0.724-5.365-1.522-7.706
		c-0.293-0.864-0.571-1.68-0.76-2.395c-0.819-3.095-1.203-4.83-0.261-7.406c1.047-2.862-3.267-4.808-5.107-5.645l-0.779-0.352
		c-0.006-0.002-0.695,0.263-0.695,0.263c-2.399,0.932-7.304,6.765-16.094,17.925c-1.03,1.31-2.079,2.642-2.918,3.685
		c0.545-2.475,2.308-10.482,3.153-14.324c3.386,0.311,6-1.835,6.636-5.067c2.813,0.695,5.929-3.439,5.929-8.701
		c1.481,0.101,5.71-6.462-0.912-14.153c-2.017-2.344-18.111-16.212-29.129-25.635l-0.04-0.034l13.316-4.294
		c0.825-0.221,2.337-0.574,3.08-0.51c0.479,0.039,1.508,0.739,2.01,1.293c0.485,0.473,1.823,1.064,3.394-0.08
		c2.124-1.543,1.148-5.158,0.234-7.742c-1.018-2.862-2.28-4.097-3.196-4.456c-0.748-0.29-1.613-0.378-2.441,0.054
		c-1.909,0.987-1.026,3.056-2.072,3.847c0,0-0.302,0.922-6.236,2.367l-13.64,3.878l-0.797,0.226l-0.065-0.057
		c-2.429-2.066-3.937-3.344-3.937-3.344c-0.957-1.637-2.31-3.424-3.516-4.092c0.273-4.008-3.797-9.584-5.877-10.547
		c0.57-1.764-1.814-6.758-4.166-7.797c-7.497-13.283-17.665-29.021-28.457-36.29c-1.725-1.159-2.652-1.68-2.787-3.478
		c-0.604-8.202-2.927-15.276-5.349-18.182c0.89-1.254,2.722-4.263,3.907-8.759c0,0-1.377,0.917-2.433,1.25
		c0.567-0.651,1.959-2.238,3.206-8.383c0.058-0.747-0.574,0.648-2.069,1.508c0.243-1.076,1.515-3.94,0.065-7.668
		c-4.83,5.374-12.564,7.541-18.063,9.815c-8.349,3.448-12.72,7.049-17.055,16.496c-1.535,1.382-6.581,4.908-9.258,12.771
		c2.67,1.707,5.572,2.875,9.689,4.281c0,0,0.034,1.321,0.059,1.468c-12.518,27.35,8.117,44.391,33.826,57.239
		c-1.657,2.978-3.016,5.345-3.164,8.296l-10.226,10.777c0,0-2.332,0.481-3.301,1.516c-0.428,0.454-0.771,1.208-0.985,1.764
		c-0.599,0.133-1.125,0.247-1.546,0.334c-6.228,1.248-16.252,3.585-41.42,10.582c-0.084-0.093-0.168-0.188-0.254-0.277
		c-3.285-3.279-9.144-5.401-14.931-5.401c-8.797,0-14.564,4.835-20.519,12.09c-8.733,10.64-18.667,39.673-5.729,54.931
		c2.179,2.575,10.393,10.882,24.498,9.8c3.87-0.294,6.793-0.94,9.372-1.507c5.33-1.18,8.267-1.822,14.034,2.051l1.066,0.714
		l1.009-0.796c3.504-2.766,8.999-1.945,13.396-0.924l4.026,0.94l-2.112-3.554c-6.867-11.561-17.487-9.651-27.754-7.806
		c-7.46,1.34-15.173,2.726-22.025-0.665c-5.13-2.535-9.097-9.206-9.227-15.512c-0.128-6.214,1.278-13.111,3.434-19.049
		c1.695,2.186,3.848,3.36,5.796,2.844c0.262-0.067,0.503-0.161,0.736-0.266c0.191-0.027,0.379-0.063,0.56-0.129
		c34.917-11.762,58.612-20.358,70.422-25.545c4.328-1.898,25.905-9.746,33.123-12.346c6.396-2.303,13.646-4.792,20.731-7.173
		c4.265,6.512,21.067,32.031,28.371,41.258c-1.439,8.479-3.945,18.58-8.188,21.194c-0.181,0.112-0.399,0.255-0.588,0.37
		c0.922-4.949,3.97-18.036,4.448-20.006l0.529-2.178l-10.015-0.004l-0.171,0.658c-1.297-0.521-2.908-0.648-4.713-0.31
		c-7.756,1.459-12.459,8.602-13.982,21.233c-0.028,0.227-0.057,0.462-0.081,0.644c-1.513,1.738-2.702,2.073-3.06,1.939
		c-0.125-0.049-0.15-0.33-0.146-0.491c0.054-1.498,0.869-4.309,1.657-7.03c2.007-6.922,3.176-11.649,1.229-14.144
		c-1.14-1.453-2.75-2.264-4.66-2.347c-1.677-0.07-3.401,0.426-4.966,1.206l0.282-1.219h-10.392l-0.288,1.405
		c-1.183,5.726-4.628,17.854-6.991,20.623c-0.467,0.545-1.387,0.885-2.026,0.972c0.652-3.134,3.598-13.989,5.498-20.792l0.625-2.235
		l-10.537-0.003l-0.309,1.379c-0.035,0.153-3.469,15.398-6.15,20.075c-0.77,1.342-1.49,1.712-1.763,1.626
		c-0.178-0.055-0.355-0.339-0.325-0.708c0.262-3.57,6.019-26.646,8.213-35.234l0.852-3.339l-11.967,4.715l-2.755,12.07
		c-0.356-0.117-0.753-0.221-1.204-0.299c-7.699-1.294-11.449,5.728-12.859,8.371c-1.807,3.385-3.631,8.951-3.799,13.372
		c-1.117,1.315-2.479,2.319-2.937,2.261c-0.386-0.051-0.485-0.191-0.573-0.365c-1.458-2.863,3.107-13.73,6.816-20.534l1.42-2.608
		l-14.746,0.005l0.436-1.656h-9.076l-0.317,1.363c-1.852,7.947-5.169,18.372-8.083,22.467c-0.348,0.491-0.654,0.749-0.86,0.877
		c0.181-1.886,2.503-12.389,4.682-21.657l0.509-2.167H60.375l-0.441,1.683c-3.363-1.241-7.768-0.997-11.432,3.122
		c-5.348,6.009-7.354,13.019-5.605,19.383c-0.777,0.581-2.49,1.562-4.164,2.358l-2.96,1.407l2.808,1.692
		c0.011,0.007,1.871,1.173,2.913,3.353l0.493,1.028l1.141-0.025c1.9-0.047,3.385-1.356,4.351-2.368
		c3.48,1.968,7.296,1.6,10.479-1.011c2.877,2.134,6.26,2.32,7.345,2.32c8.898,0,12.302-11.782,14.786-20.388
		c0.331-1.146,0.648-2.24,0.955-3.227h3.409c-0.21,0.511-0.43,1.039-0.656,1.583c-0.99,2.381-2.111,5.08-2.979,7.712
		c-0.964,2.928-3.22,9.785,1.02,12.797c4.179,2.968,9.855,1.392,14.003-1.571c1.972,2.24,4.858,3.192,7.064,3.096
		c2.314-0.045,4.24-0.569,6.034-1.649c1.117,1.039,2.415,1.638,3.876,1.78c2.734,0.267,5.472-1.169,7.671-2.85
		c1.108,1.735,2.807,2.707,4.922,2.719c1.748,0.008,3.597-0.49,5.398-1.395l-0.381,1.395h10.787l3.491-12.779
		c2.021-8.139,4.045-9.083,4.43-9.191c0.173-0.046,0.312-0.003,0.408,0.05c-0.008,0.535-0.452,1.891-0.851,3.113
		c-0.363,1.104-0.812,2.477-1.272,4.124l-0.133,0.465c-0.902,3.193-2.417,8.533-0.151,11.803c0.685,0.985,2.026,2.202,4.543,2.41
		c3.454,0.287,7.753-1.316,10.785-3.873c4.325,5.298,9.516,3.977,13.532,1.92c1.109,1.23,2.604,2.292,5.165,1.942
		c2.248-0.147,4.308-1.505,6.047-3.061c1.381,2.015,3.407,3.112,5.806,3.077c3.892-0.058,7.148-2.846,9.708-5.441
		c3.127,3.636,7.02,6.462,13.195,5.418c1.047-0.18,1.929-0.412,2.706-0.622c2.31-0.62,3.264-0.875,5.646,1.14l2.615,2.216
		l0.279-3.416c-0.001,0.02,0.419-2.681,4.982-5.687l2.55-1.683L231.956,201.277z M129.892,135.894
		c-1.222,0.24-1.815,0.413-2.643,1.181c-0.582,0.538-0.98,1.291-1.191,1.852c-2.304,0.6-4.678,1.208-6.981,1.793
		c-0.525-0.311-1.535-0.718-3.095-0.605c-0.143-0.014-0.557-0.087-0.522-0.521c0.027-0.374,8.607-8.142,8.607-8.142
		c2.396-0.49,11.181-5.596,11.181-5.596l2.689,1.099l-0.199,0.441l-0.383,0.679l-6.955,7.388
		C130.248,135.629,130.104,135.853,129.892,135.894z M137.942,135.805c-0.607-0.448-1.246-0.71-1.84-0.696
		c-2.229,0.033-1.472-0.776-0.964-1.354l5.963-5.569c0,0,4.702,1.956,10.349,3.936C143.271,134.364,138.833,135.565,137.942,135.805
		z M46.305,208.656l-0.113-0.079C46.229,208.606,46.267,208.627,46.305,208.656L46.305,208.656z M53.257,201.149
		c-0.021,0-0.054,0-0.135-0.101c-0.116-0.148-1.087-1.584,0.177-6.623c0.934-3.718,2.303-6.203,3.853-7.012
		c0.299-0.154,0.716-0.314,1.313-0.292C57.668,194.038,55.47,201.149,53.257,201.149z M108.208,194.424
		c-0.446,1.776-0.905,3.615-1.316,5.51c-0.058,0.272-0.771,0.838-1.76,0.931c-0.356,0.039-0.996,0.01-1.137-0.319
		c-0.891-2.055,0.335-8.678,3.215-12.101c0.85-1.008,1.688-1.523,2.498-1.552C109.741,188.295,108.866,191.79,108.208,194.424z
		 M170.622,201.207c-0.023,0-0.057,0-0.137-0.105c-0.115-0.145-1.087-1.584,0.177-6.619c0.955-3.793,2.222-6.122,3.77-6.92
		c0.522-0.271,1.117-0.342,1.775-0.263C175.298,194.272,172.969,201.207,170.622,201.207z M216.061,201.546
		c-0.409,0.396-1.19,0.666-2.028,0.68c-1.037,0.023-1.996-0.31-2.626-0.919c-3.206-3.007-3.206-3.007-1.661-5.012
		c0.998-1.296,1.872-2.5,2.72-3.67c0.75-1.037,1.457-1.997,2.16-2.907c0.246,1.796,0.761,3.465,1.244,5.023
		C216.867,197.966,217.367,199.885,216.061,201.546z"/>
	<path fill="#003263" d="M138.933,169.519c0-3.136-2.551-5.688-5.685-5.688c-3.133,0-5.684,2.553-5.684,5.688
		c0,3.133,2.551,5.683,5.684,5.683C136.382,175.201,138.933,172.651,138.933,169.519z"/>
	<path fill="#FFF100" d="M120.421,151.065c6.131-2.285,13.084-4.82,16.894-6.201l0.77-0.279c0.876-1.604,0.831-4.788-0.79-6.106
		c-0.36-0.295-0.875-0.506-1.369-0.659c-0.541,0.132-1,0.221-1.266,0.216c-0.86,0.223-11.78,3.059-14.206,3.689
		C122.986,143.942,123.41,148.476,120.421,151.065z"/>
	<path fill="#FFF100" d="M139.324,144.135c1.308-0.471,3.024-1.094,3.024-1.094c5.729-2.062,12.64-4.455,20.541-7.107
		c0,0,0.033-0.014,0.083-0.026c-0.17-0.265-0.27-0.416-0.27-0.416c-2.782-0.618-5.978-1.589-9.047-2.617l-14.271,3.902
		c-0.103,0.034-0.216,0.071-0.34,0.109C140.651,138.862,141.478,142.032,139.324,144.135z"/>
	<path fill="#FFF200" d="M91.765,60.876c0,0,3.978,1.565,5.13-3.476c0.624-2.736-1.441-6.696-4.095-5.586
		c-0.026,0.009,0.476-2.886-1.753-3.872c-5.499,3.375-7.971,9.628-7.971,9.628c4.839-1.031,5.595-2.422,9.278-2.103
		c1.314,0.113,1.938,0.717,2.985,1.486c-1.602-0.36-2.837-0.445-4.184-0.473c-1.874-0.045-5.578,1.27-7.458,1.457
		C83.698,57.938,89.869,60.593,91.765,60.876L91.765,60.876z"/>
	<path fill="#CD1141" d="M135.09,96.618c-1.666,0.271-3.74,0.333-6.913-0.853c-0.122,0.897-2.468,2.218-3.527,2.41
		c7.656,6.504,34.617,16.546,42.321,18.351c1.239,0.288-0.562-5.256-3.95-7.527C160.54,107.327,144.96,103.727,135.09,96.618
		L135.09,96.618z"/>
	<path fill="#CD1141" d="M137.18,96.103c10.648,6.326,22.013,9.776,24.504,10.498c0.515-0.366-0.787-5.231-4.352-6.494
		c-5.322-1.892-9.756-3.767-12.902-5.743c-1.108,0.611-2.757,0.968-5.742-0.231C138.57,94.868,138.347,95.576,137.18,96.103
		L137.18,96.103z"/>
	<path fill="#FFFFFF" d="M104.334,52.542c-0.544,0.884-1.557,1.442-2.665,1.366c-1.587-0.11-2.782-1.485-2.673-3.076
		c0.112-1.587,1.489-2.783,3.076-2.672c1.052,0.073,1.933,0.702,2.375,1.582c-1.985-0.214-2.419,1.705-2.419,1.705
		c-1.285-1.577,0.375-2.483,0.375-2.483c-1.103-0.146-2.154,0.694-2.243,1.962c-0.088,1.268,0.868,2.369,2.134,2.456
		C103.15,53.44,103.889,53.16,104.334,52.542L104.334,52.542z"/>
	<path fill="#003263" d="M232.23,192.754h-1.269v3.439h-0.854v-3.439h-1.263v-0.752h3.384L232.23,192.754L232.23,192.754z
		 M237.958,196.19h-0.854v-3.334h-0.021l-1.212,3.334h-0.826l-1.176-3.334h-0.019v3.337h-0.854v-4.191h1.481l0.975,2.741h0.019
		l1.016-2.741h1.471L237.958,196.19L237.958,196.19z"/>
	<path fill="#CD1141" d="M89.864,74.068c1.221-2.427,7.895-11.437,14.544-11.437c-0.529-1.258,0.124-8.705,5.78-14.375
		c-1.285,0.305-3.02-0.137-4.259-0.664c-0.466-0.314-1.022-0.904-2.046-1.498c-1.405-0.812-3.164-0.423-4.46,0.348
		c-0.764,0.453-5.844,0.325-6.657-1.066c2.168-5.256,6.512-10.699,14.888-14.228c5.71-2.402,12.394-3.843,16.608-8.263
		c0.189,6.843-9.97,11.471-9.966,11.48c6.113-1.38,10.289-5.542,10.289-5.483c-2.63,6.826-9.176,10.65-9.176,10.65
		c2.088-0.361,6.111-2.147,7.782-3.438c0,0-0.738,3.569-6.479,8.661c-0.012-0.018,2.864-0.644,4.452-1.887
		c2.865,3.759,5.014,10.296,5.167,18.137c0.028,1.519,0.734,4.879,1.54,5.262c1.161,0.56,0.189-1.748,0.5-2.761
		c11.669,7.113,20.622,21.391,28.72,34.968c-2.641-0.82-8.32-3.079-11.658-4.834c0.343-0.373,0.401-0.676,0.435-1.125
		c0.188-2.562-2.07-4.186-3.222-4.736c-0.297-0.144-0.521-0.073-0.612,0.052c-0.096,0.127-0.052,0.327,0.034,0.38
		c0.585,0.398,2.804,1.739,2.648,3.937c-0.043,0.579-0.85,1.404-2.005,1.479c-2.858,0.305-7.583-2.146-13.468-8.185
		c-0.184-0.17-0.487-0.578-0.884-0.339c-0.386,0.236-0.301,0.54-0.196,0.7c3.023,4.999,9.188,7.838,9.188,7.838
		c-0.427,1.724-2.549,1.793-4.478,1.734c-7.285-0.221-12.207-8.332-13.545-10.404c-0.258-0.401-0.538-0.502-0.777-0.376
		c-0.258,0.138-0.41,0.248-0.277,0.659c0.208,0.626,3.123,6.687,8.304,9.696c0.693,0.4-1.943,2.067-3.614,2.028
		c-3.021-0.073-10.167-2.868-12.61-13.357c-0.03-0.16-0.178-0.423-0.539-0.345c-0.39,0.089-0.407,0.359-0.351,0.673
		c1.388,11.556,9.917,14.151,13.111,14.53c5.322,5.259,24.558,14.014,44.538,19.884c3.76,1.063,7.6,11.411,4.629,10.533
		c-1.069-0.306-2.452-0.826-3.953-1.329c-9.848-3.303-24.802-9.332-40.951-17.157c-11.154-5.409-30.069-17.587-20.927-34.58
		c1.195-2.535,2.476-3.767,2.655-3.949c0.12-0.065,0.207-0.379,0.18-0.497c-0.406-1.111-1.486-1.017-4.328,3.741
		c-9.725,18.68,9.783,30.879,21.566,36.729c7.604,3.775,21.002,9.521,30.53,13.327l5.243,8.49
		c-4.837-0.959-20.463-7.105-25.036-9.169c0,0,1.663-1.477,1.083-2.857c-0.407-0.958-0.639-1.557-1.928-2.646
		c-1.357-0.831-1.698-0.248-1.107,0.415c0.55,0.613,1.71,2.501,0.588,3.798c-1.845,2.141-7.082,4.539-10.049,6.214
		c-1.296,0.261-1.925,0.231-2.065-0.883c-0.175-1.392,1.809-4.393,4.154-8.142C123.366,118.531,82.749,100.87,89.864,74.068
		L89.864,74.068z"/>
	<path fill="#CD1141" d="M206.944,176.562c3.054,1.352,5.239-4.677,4.062-6.406c-0.394-0.584-2.636-3.025-5.779-6.372l-1.889,8.77
		C205.3,174.914,206.631,176.42,206.944,176.562z"/>
	<path fill="#CD1141" d="M193.521,167.871l0.185-1.552l1.792-0.698l-23.341-29.938h2.079c0,0,13.293,17.195,22.949,29.281
		l6.69-2.615c-9.785-10.355-26.082-27.175-26.082-27.175l2.128,0.057c-0.012-0.172,31.555,32.604,31.555,32.604
		c1.729,1.946,4.675-4.641-0.066-9.913c-2.617-4.188-37.305-33.047-37.305-33.047c0.316,0.688,0.482,1.583,0.633,2.413
		c1.352,6.426-3.499,2.862-15.897-1.311c9.938,15.695,25.075,38.876,33.647,49.724C192.977,172.493,193.31,169.689,193.521,167.871z
		"/>
	<path fill="#CD1141" d="M201.266,182.157c2.543-0.089,5.116-2.302,3.849-4.199L202.812,175L201.266,182.157z"/>
	<path fill="#CD1141" d="M223.401,202.265c1.918-3.508-0.653-8.41-1.565-11.858c-0.819-3.093-1.364-5.311-0.213-8.461
		c0.509-1.391-3.603-3.17-4.289-3.483c-3.508,1.356-18.561,21.905-20.127,23.224c-0.731,0.613-2.438,1.603-1.402-2.915
		c0,0,7.562-34.271,7.508-34.304l-7.981,3.109c-0.896,7.58-3.267,28.929-10.523,33.395c-0.657,0.402-2.862,2.036-3.519,0.757
		c-0.363-0.702,4.688-22.087,4.745-22.315h-6.409l-0.503,1.959c-1.055-1.959-3.721-1.959-5.423-1.637
		c-12.153,2.28-12.35,20.324-12.755,20.952c-3.521,4.338-6.692,3.239-6.598,0.576c0.16-4.61,5.705-16.891,3.255-20.021
		c-2.695-3.446-8.252-0.983-11.032,2.007l0.858-3.695h-6.733c-0.97,4.682-4.476,18.016-7.375,21.416
		c-1.528,1.786-5.416,2.312-5.249,0.402c0.194-2.19,5.681-21.843,5.681-21.843h-6.804c0,0-3.495,15.604-6.34,20.564
		c-2.433,4.247-5.56,2.383-5.376-0.085c0.335-4.508,8.266-35.541,8.266-35.541l-7.897,3.115l-3.185,13.952
		c0,0-0.026-1.313-2.579-1.745c-5.611-0.945-8.724,3.18-11.012,7.463c-1.709,3.198-3.606,8.96-3.606,13.191
		c0,0-2.766,3.635-4.911,3.354c-7.363-0.958,4.923-23.487,4.923-23.487l-14.063,0.002l0.437-1.656h-5.391
		c-1.49,6.412-4.902,18.229-8.362,23.095c-1.876,2.64-4.008,1.9-4.068,0.078c-0.063-1.86,4.738-22.284,4.738-22.284h-6.786
		l-0.643,2.447c-1.903-1.218-6.867-3.194-11.275,1.765c-5.759,6.472-6.719,13.349-4.991,18.53c0.24,0.977-5.338,3.631-5.338,3.631
		s2.292,1.381,3.593,4.1c2.138-0.052,3.941-2.994,4.17-2.847c3.295,2.484,7.325,2.451,10.67-1.141
		c2.039,2.152,5.088,2.934,7.38,2.934c9.143,0,11.897-16.097,14.458-23.616l7.276-0.005c-1.063,2.919-3.159,7.394-4.546,11.612
		c-1.456,4.426-2.345,8.878,0.367,10.805c4.166,2.957,10.049,0.254,13.362-2.68c1.388,2.686,4.286,3.981,6.61,3.881
		c2.563-0.046,4.494-0.712,6.394-2.218c3.545,4.897,8.954,1.164,11.934-1.608c0.518,2.049,1.806,3.815,4.258,3.826
		c2.905,0.016,5.977-1.603,8.371-3.892l-1.056,3.892h7.134l3.136-11.48c3.456-13.905,7.728-10.211,8.066-9.655
		c0.79,1.22-0.519,3.556-1.952,8.689c-0.995,3.559-3.651,11.919,2.706,12.446c3.644,0.303,8.418-1.941,10.876-4.812
		c3.623,5.841,7.987,5.675,13.733,2.371c1.247,1.617,2.18,2.766,4.502,2.44c2.674-0.113,5.313-2.738,6.76-4.256
		c0.812,2.325,2.506,4.298,5.291,4.256c3.883-0.058,7.322-3.678,9.845-6.335c3.419,4.416,6.871,7.335,12.788,6.335
		c4.15-0.7,5.767-2.488,9.781,0.914c0,0,0.278-3.397,5.771-7.018C228.146,201.347,225.102,201.739,223.401,202.265z M53.257,202.913
		c-1.774,0-3.307-2.384-1.665-8.916c1.182-4.711,3.701-10.185,8.781-8.234C60.373,185.763,58.914,202.913,53.257,202.913z
		 M108.612,200.303c-0.495,2.305-5.167,3.404-6.234,0.944c-1.785-4.116,2.302-17.479,8.296-16.02
		C112.756,185.734,110.212,192.911,108.612,200.303z M170.622,202.971c-1.773,0-3.309-2.385-1.667-8.914
		c1.184-4.713,3.564-10.272,9.182-8.073C178.137,185.983,176.428,202.971,170.622,202.971z M217.379,202.728
		c-1.522,1.596-5.146,1.819-7.195-0.151c-4.157-3.903-4.076-4.452-1.832-7.357c3.227-4.188,5.328-7.697,8.216-10.292
		C214.765,192.208,221.206,198.05,217.379,202.728z"/>
	<path fill="#CD1141" d="M129.325,169.519c0-2.168,1.758-3.924,3.923-3.924c2.168,0,3.924,1.756,3.924,3.924
		c0,2.165-1.756,3.919-3.924,3.919C131.083,173.438,129.325,171.683,129.325,169.519L129.325,169.519z"/>
	<path fill="#FFF100" d="M178.11,126.06l4.152,3.485l13.993-4.512c0,0,5.184-1.293,5.184-3.729c0-3.756,1.948,3.39,1.154,4.803
		c0,0,0.657,0.635,1.797-0.189c1.141-0.832,0.933-3.111-0.207-6.323c-1.14-3.212-2.358-3.912-3.389-3.72
		c-1.285,0.237-1.324,1.698-1.324,1.698s0.207,1.295-1.244,2.387c-0.738,0.554-2.939,1.522-6.478,2.225L178.11,126.06z"/>
	<path fill="#CD1141" d="M37.346,215.774c-5.946-2.942-10.069-10.319-10.208-17.058c-0.141-6.813,1.497-14.394,4-20.878
		c-0.544-1.011-0.999-2.137-1.32-3.355c-1.319-5,0.341-10.019,3.282-11.146c0.158-0.079,0.329-0.144,0.516-0.196
		c2.969-0.854,5.807-1.586,8.53-2.363c0.959-0.849,1.925-1.576,2.889-2.142c3.428-2.009,9.99-2.095,13.822,0.698
		c-1.778,2.093-3.311,4.941-0.793,7.286c1.969,1.898,5.209,1.12,6.541-1.145c2.053-3.491,0.377-7.413-2.053-9.909
		c-2.92-2.921-8.316-4.889-13.684-4.889c-7.553,0-12.894,3.817-19.157,11.448c-9.003,10.969-17.681,38.597-5.748,52.673
		c3.999,4.717,12.073,10.021,23.02,9.181c11.965-0.912,15.216-5.411,24.522,0.841c4.378-3.462,11.056-2.15,14.887-1.256
		C75.444,205.139,54.507,224.259,37.346,215.774z"/>
	<path fill="#FFF100" d="M118.165,143.639c-0.521-0.369-1.304-0.616-1.957-0.769c-0.087,0-0.187,0-0.292,0
		c-1.096,0.279-1.984,0.502-1.984,0.502c-4.049,1.008-6.873,1.67-8.393,1.975c-8.256,1.657-20.79,4.856-40.583,10.354
		c2.104,2.841,3.388,6.884,1.164,10.665c-0.962,1.637-2.668,2.766-4.562,3.026c-1.755,0.241-3.477-0.307-4.698-1.485
		c-1.398-1.298-3.131-3.967-0.599-8.02c-1.012-0.435-2.143-0.692-3.297-0.819l-19.177,5.467c-0.096,0.029-0.194,0.055-0.289,0.078
		c-2.46,0.895-3.571,5.281-2.468,9.451c1.134,4.299,4.027,7.586,6.651,6.896c2.623-0.689,3.642-5.004,2.509-9.302
		c-0.435-1.646-0.793-2.761-1.634-3.965c0,0,1.795,1.503,2.643,5.161c0.725,3.137,0.615,5.656-0.265,7.358
		c33.729-11.39,56.68-19.732,68.211-24.791c1.356-0.598,4.428-1.793,9.128-3.555c0,0,0.47-0.174,0.831-0.312
		C120.179,149.691,120.391,145.211,118.165,143.639z"/>
</g>
</svg>
