<?xml version="1.0" encoding="utf-8"?>
<!-- Generator: Adobe Illustrator 16.0.4, SVG Export Plug-In . SVG Version: 6.00 Build 0)  -->
<!DOCTYPE svg PUBLIC "-//W3C//DTD SVG 1.1//EN" "http://www.w3.org/Graphics/SVG/1.1/DTD/svg11.dtd">
<svg version="1.1" id="Layer_1" xmlns="http://www.w3.org/2000/svg" xmlns:xlink="http://www.w3.org/1999/xlink" x="0px" y="0px"
	 width="250px" height="250px" viewBox="0 0 250 250" enable-background="new 0 0 250 250" xml:space="preserve">
<g>
	<g>
		<path fill="#FFFFFF" d="M8.295,126.002c0-64.456,52.251-116.708,116.708-116.708c64.452,0,116.708,52.252,116.708,116.708
			c0,64.456-52.256,116.711-116.708,116.711C60.547,242.713,8.295,190.458,8.295,126.002z"/>
		<path fill="#FFFFFF" d="M8,126C8,61.386,60.384,9,124.999,9l0,0C189.619,9,242,61.386,242,126l0,0
			c0,64.619-52.381,117-117.001,117l0,0C60.384,243,8,190.619,8,126L8,126z M8.583,126c0,32.148,13.03,61.252,34.102,82.318l0,0
			c21.071,21.069,50.17,34.101,82.315,34.101l0,0c32.152,0,61.253-13.031,82.327-34.101l0,0
			c21.06-21.066,34.095-50.171,34.095-82.318l0,0c0-32.147-13.032-61.253-34.095-82.316l0,0
			c-21.074-21.072-50.175-34.098-82.327-34.098l0,0c-32.146,0-61.244,13.024-82.315,34.098l0,0
			C21.613,64.747,8.583,93.853,8.583,126L8.583,126L8.583,126z"/>
	</g>
	<path fill="#E03A3E" d="M129.805,144.78V107.4h20.025c7.534,0,10.764,1.79,10.764,10.523c0,4.586-0.871,6.989-3.493,8.298
		c3.493,1.964,3.493,5.677,3.493,8.952c0,8.297-3.669,9.606-10.764,9.606C140.66,144.78,129.805,144.78,129.805,144.78z"/>
	<path fill="#005A9B" d="M16.064,126.002c0-60.163,48.772-108.938,108.939-108.938c60.161,0,108.937,48.773,108.937,108.938
		s-48.774,108.937-108.937,108.937C64.838,234.938,16.064,186.166,16.064,126.002z M125.004,206.467
		c44.438,0,80.465-36.026,80.465-80.465c0-44.439-36.029-80.464-80.465-80.464c-44.441,0-80.467,36.025-80.467,80.464
		C44.537,170.44,80.562,206.467,125.004,206.467z"/>
	<g>
		<g>
			<path fill="#E03A3E" d="M160.426,148.744c-7.485,11.637-20.558,19.35-35.422,19.35c-23.244,0-42.088-18.848-42.088-42.092
				c0-23.245,18.845-42.089,42.088-42.089c15.323,0,28.738,8.191,36.099,20.432l20.718-20.191
				c-12.854-17.412-33.514-28.713-56.816-28.713c-38.971,0-70.562,31.591-70.562,70.561s31.591,70.562,70.562,70.562
				c23.05,0,43.521-11.056,56.402-28.153L160.426,148.744z"/>
		</g>
	</g>
	<path fill="#E03A3E" d="M112.558,132.991V107.4h12.663v25.894c0,9.304-2.185,11.487-9.562,11.487c-5.502,0-8.383,0-13.188,0
		c-6.071,0-8.036-3.929-8.036-12.142V107.4h12.664v25.592C107.098,136.485,112.558,136.485,112.558,132.991"/>
	<path fill="#FFFFFF" d="M148.524,117.601c-0.05-1.533-1.486-1.424-5.397-1.424v5.241c2.183,0,5.397,0.217,5.397-1.745V117.601z"/>
	<path fill="#FFFFFF" d="M148.43,132.809c-0.67-1.783-1.045-1.564-5.303-1.564v5.241c2.729,0,5.303,0.215,5.303-1.747
		C148.43,134.245,148.56,133.174,148.43,132.809z"/>
	<g>
		<g>
			<path fill="#E03A3E" d="M185.892,144.78c6.817,0,10.343-1.856,10.343-7.884c0-0.743-0.048-7.619-0.037-8.381
				c0.037-4.368-3.109-7.206-7.515-7.206s-7.656,0-9.125,0c-2.476,0-1.926-3.603-1.926-4.695c0-1.746,5.157-2.292,5.157,0.547
				c0,0.764,0,1.309,0,1.748h13.445c0-8.735-1.573-11.507-10.343-11.507c-2.034,0.043-9.504,0.043-11.812,0.043
				c-5.625,0-8.688,2.184-8.901,8.734c-0.205,6.55,0,3.712,0,6.115c0,2.401-0.376,7.75,6.978,7.75c3.944,0,8.44,0,9.283,0
				c2.623,0,2.098,3.057,2.098,3.057v1.966c0,2.184-4.434,2.294-5.429,0.48c-0.66-1.199-0.315-3.1-0.315-3.1h-12.615
				c0,2.619-1.419,12.336,6.207,12.336C178.308,144.78,185.892,144.78,185.892,144.78z"/>
		</g>
	</g>
	<g>
		<g>
			<path fill="#005A9B" d="M180.14,151.729h-2.169v5.905h-1.464v-5.905h-2.168v-1.28h5.801V151.729L180.14,151.729z
				 M189.975,157.635h-1.468v-5.716h-0.037l-2.08,5.716h-1.417l-2.015-5.716h-0.032v5.716h-1.467v-7.186h2.543l1.673,4.695h0.034
				l1.739-4.695h2.526V157.635L189.975,157.635z"/>
		</g>
	</g>
</g>
</svg>
