<?xml version="1.0" encoding="utf-8"?>
<!-- Generator: Adobe Illustrator 16.0.4, SVG Export Plug-In . SVG Version: 6.00 Build 0)  -->
<!DOCTYPE svg PUBLIC "-//W3C//DTD SVG 1.1//EN" "http://www.w3.org/Graphics/SVG/1.1/DTD/svg11.dtd">
<svg version="1.1" id="Layer_1" xmlns="http://www.w3.org/2000/svg" xmlns:xlink="http://www.w3.org/1999/xlink" x="0px" y="0px"
	 width="300px" height="333px" viewBox="0 0 300 333" enable-background="new 0 0 300 333" xml:space="preserve">
<text transform="matrix(1 0 0 1 -13616.8574 -13294.916)" fill="#0C2D82" font-family="'Helvetica'" font-size="9"> </text>
<path fill="#195FA8" d="M149.095,43.247c-69.036,0-125,55.964-125,125c0,69.035,55.964,125,125,125c69.035,0,125-55.965,125-125
	C274.095,99.211,218.13,43.247,149.095,43.247z M214.651,212.58c-9.502,0-18.896,0-29.173,0c0-8.404,0.003-16.859-0.001-25.313
	c-0.004-7.282,0.13-14.572-0.063-21.851c-0.228-8.583-4.278-13.188-11.031-13c-6.647,0.186-10.648,4.995-10.721,13.439
	c-0.122,14.361-0.029,28.724-0.04,43.083c-0.001,1.031-0.126,2.063-0.231,3.705c-9.45,0-18.859,0-29.118,0
	c0-4.09,0.002-8.172,0-12.257c-0.012-12.072,0.172-24.147-0.112-36.213c-0.171-7.267-3.772-11.208-9.648-11.735
	c-6.095-0.547-9.705,2.275-11.187,9.035c-0.526,2.405-0.782,4.915-0.798,7.378c-0.076,12.277-0.029,24.559-0.027,36.838
	c0,2.231,0,4.463,0,7.329c-10.083,0-18.999,0-28.538,0c-0.248-1.872-0.696-3.63-0.678-5.381c0.15-15.181-0.016-30.379,0.675-45.54
	c1.428-31.361,32.744-48.335,59.849-32.548c3.159,1.838,5.333,1.816,8.454,0.086c29.165-16.169,60.616,0.961,62.253,34.24
	C215.302,179.856,214.651,195.909,214.651,212.58z"/>
</svg>
