<?xml version="1.0" encoding="utf-8"?>
<!-- Generator: Adobe Illustrator 16.0.4, SVG Export Plug-In . SVG Version: 6.00 Build 0)  -->
<!DOCTYPE svg PUBLIC "-//W3C//DTD SVG 1.1//EN" "http://www.w3.org/Graphics/SVG/1.1/DTD/svg11.dtd">
<svg version="1.1" id="Layer_1" xmlns="http://www.w3.org/2000/svg" xmlns:xlink="http://www.w3.org/1999/xlink" x="0px" y="0px"
	 width="250px" height="250px" viewBox="0 0 250 250" enable-background="new 0 0 250 250" xml:space="preserve">
<path fill="#EED8B5" d="M191.43,127.979L191.43,127.979c0,0.693-0.274,1.359-0.767,1.849c-0.488,0.49-1.153,0.765-1.85,0.765
	h-46.828c-0.696,0-1.359-0.275-1.849-0.765s-0.765-1.155-0.765-1.849c0-0.553,0.173-1.091,0.5-1.542l7.312-10.04L131.444,97
	l-22.439,18.255l15.604-26.208l-1.494-5.859l-17.702,29.465l6.771,14.2c0.167,0.354,0.254,0.737,0.254,1.126
	c0,0.693-0.274,1.359-0.764,1.849c-0.493,0.49-1.155,0.765-1.849,0.765H59.696c-0.694,0-1.36-0.275-1.849-0.765
	c-0.49-0.489-0.767-1.155-0.767-1.849c0-0.495,0.141-0.98,0.408-1.398l71.111-112.363c0.479-0.757,1.313-1.218,2.209-1.218h32.872
	c1.223,0,2.282,0.849,2.551,2.045l25.137,112.362C191.407,127.598,191.43,127.787,191.43,127.979z M143.003,81.211l-4.182-18.294
	h-3.525l-10.993,18.294H143.003z M150.121,112.364l-6.494-28.423l-4.187,6.164l8.018,25.917L150.121,112.364z"/>
<polygon points="188.813,127.979 141.985,127.979 152.935,112.939 140.905,60.303 133.816,60.303 102.448,112.511 109.824,127.979 
	63.736,127.979 101.114,104.501 94.071,87.149 117.018,72.826 109.513,59.178 131.333,48.525 124.48,36.025 141.397,28.603 
	133.091,15.615 163.68,15.615 "/>
<polygon fill="#C3312D" points="125.984,83.833 140.532,83.833 136.565,89.675 141.306,104.996 131.827,93.313 118.82,103.893 
	127.416,89.454 "/>
<polygon points="138.22,27.642 121.457,34.995 128.354,47.579 106.529,58.232 114.143,72.077 91.387,86.278 98.435,103.635 
	59.703,127.963 130.669,15.835 "/>
<path d="M201.073,237.848c0-1.512,0-3.021,0-4.536c-0.645,0-1.286,0-1.929,0c0-0.316,0-0.632,0-0.95c1.686,0,3.376,0,5.065,0
	c0,0.318,0,0.634,0,0.95c-0.626,0-1.249,0-1.874,0c0,1.514,0,3.022,0,4.536C201.916,237.848,201.073,237.848,201.073,237.848z
	 M204.963,237.848c0-1.829,0-3.657,0-5.486c0.66,0,1.317,0,1.976,0c0.379,1.258,0.757,2.519,1.136,3.778
	c0.381-1.26,0.759-2.521,1.142-3.778c0.657,0,1.314,0,1.975,0c0,1.829,0,3.657,0,5.486c-0.404,0-0.803,0-1.205,0
	c0-1.459,0-2.916,0-4.374c-0.449,1.457-0.896,2.915-1.349,4.374c-0.38,0-0.76,0-1.142,0c-0.45-1.459-0.895-2.916-1.341-4.374
	c0,1.457,0,2.915,0,4.374C205.757,237.848,204.963,237.848,204.963,237.848z"/>
<path fill="#EED8B5" d="M228.242,174.229L228.242,174.229c0,1.178-0.051,2.355-0.152,3.532c-0.131,1.46-0.336,2.918-0.612,4.358
	c-0.289,1.438-0.646,2.86-1.066,4.263c-0.356,1.159-0.757,2.303-1.205,3.428c-0.459,1.131-0.985,2.24-1.564,3.316
	c-0.438,0.793-0.912,1.566-1.425,2.313c-0.95,1.373-2.02,2.659-3.195,3.843c-0.574,0.576-1.483,0.649-2.141,0.171l-6.304-4.565
	l-5.668,4.047c-0.501,0.36-1.164,0.409-1.714,0.124c-0.551-0.283-0.897-0.851-0.897-1.467v-8.004l0.022-0.271v-52.754l-2.612-4.495
	c-0.45-0.309-0.718-0.817-0.718-1.364c0-0.436,0.175-0.856,0.486-1.166c0.307-0.311,0.729-0.483,1.166-0.483h20.052h5.873
	c0.914,0,1.652,0.738,1.652,1.649v8.654v33.456C228.234,173.287,228.242,173.758,228.242,174.229z M218.184,136.719l-5.725,1.08
	v4.297V189.2h3.32v-0.004l0.011-0.021c0.418-1.062,0.779-2.149,1.075-3.251c0.203-0.902,0.359-1.819,0.458-2.742l0.138-1.16
	c0.41-3.448,0.651-6.913,0.723-10.382v-31.756V136.719z"/>
<path fill="#EED8B5" d="M197.426,149.44L197.426,149.44c0,0.324-0.013,0.646-0.031,0.973l-0.012,29.199
	c0,0.914-0.738,1.652-1.65,1.652h-6.662c-0.438,0-0.857-0.175-1.166-0.482c-0.312-0.312-0.484-0.73-0.484-1.17v-30.08
	c-0.01-0.543-0.073-1.082-0.193-1.612c-0.25-1.017-0.631-1.995-1.133-2.915c-0.157-0.276-0.327-0.549-0.505-0.811h-3.63v35.418
	c0,0.439-0.175,0.858-0.484,1.17c-0.309,0.308-0.73,0.482-1.17,0.482h-0.2l-10.338,0.004c-0.439,0-0.857-0.173-1.168-0.484
	c-0.312-0.31-0.484-0.728-0.484-1.167c0-0.457,0.19-0.891,0.521-1.205l3.358-3.146v-37.194c0-0.439,0.177-0.86,0.486-1.17
	s0.729-0.484,1.168-0.484h1.836h5.514l1.401-0.232l5.928-0.988c0.41-0.067,0.828,0.019,1.176,0.245
	c0.299,0.196,0.592,0.402,0.88,0.612l0.013,0.012c1.375,1.041,2.605,2.256,3.658,3.623l0.016,0.017
	c0.306,0.406,0.595,0.826,0.865,1.255c0.602,0.963,1.112,1.981,1.518,3.044l0.01,0.026c0.391,1.076,0.669,2.189,0.826,3.32
	C197.377,148.044,197.426,148.74,197.426,149.44z"/>
<path fill="#EED8B5" d="M198.742,213.401v1.479c-0.017,2.239-0.188,4.476-0.52,6.691c-0.061,0.409-0.126,0.818-0.195,1.227
	c-0.154,0.954-0.34,1.904-0.555,2.847c-0.225,0.967-0.495,1.919-0.814,2.854l-0.006,0.021c-0.334,0.943-0.729,1.867-1.182,2.76
	c-0.457,0.884-0.963,1.739-1.514,2.565c-0.535,0.792-1.107,1.557-1.709,2.295c-0.282,0.346-0.572,0.684-0.867,1.019
	c-0.316,0.352-0.763,0.55-1.233,0.55h-8.964h-6.312c-0.439,0-0.859-0.172-1.168-0.482c-0.31-0.311-0.484-0.729-0.484-1.168v-0.004
	l0.031-16.603c0.002-0.779,0.546-1.453,1.31-1.613s1.535,0.234,1.849,0.943l5.416,12.188h4.524c0.045-0.108,0.09-0.222,0.133-0.33
	c0.303-0.824,0.545-1.672,0.724-2.53c0.263-1.376,0.453-2.768,0.572-4.167c0.126-1.413,0.197-2.83,0.213-4.245
	c0-0.104,0-0.209,0-0.314v-2.876l-10.733-5.817l-3.174-1.719c-0.533-0.288-0.865-0.845-0.865-1.453v-4.312v-10.907l-2.999-4.659
	c-0.171-0.267-0.262-0.577-0.262-0.895c0-0.438,0.175-0.856,0.481-1.166c0.312-0.312,0.73-0.486,1.17-0.486h23.762
	c0.435,0,0.856,0.175,1.167,0.486c0.31,0.31,0.482,0.729,0.482,1.166v14.099c0,0.73-0.476,1.373-1.174,1.583
	c-0.7,0.212-1.45-0.063-1.854-0.669l-6.476-9.776l-4.68,1.448l0.01,10.156l6.168,3.435l8.876,4.938
	C198.416,212.25,198.742,212.803,198.742,213.401z"/>
<path fill="#EED8B5" d="M168.46,186.771v10.534c0,0.122-0.012,0.242-0.038,0.361c-0.158,0.706-0.342,1.408-0.551,2.1
	c-0.263,0.858-0.592,1.696-0.986,2.507c-0.412,0.823-0.896,1.611-1.454,2.35l-0.026,0.032c-0.565,0.708-1.192,1.368-1.869,1.975
	c-0.58,0.509-1.179,1.001-1.789,1.478l5.848,3.144c0.535,0.288,0.868,0.848,0.868,1.454v23.352c0,0.558-0.282,1.077-0.749,1.382
	c-0.467,0.306-1.057,0.354-1.569,0.128l-6.661-2.932c-0.6-0.267-0.984-0.857-0.984-1.514v-16.943l-5.812-3.48v20.424
	c0,0.655-0.387,1.247-0.983,1.514l-6.662,2.931c-0.511,0.226-1.102,0.177-1.569-0.128c-0.467-0.306-0.749-0.824-0.749-1.382v-43.534
	l-3.325-4.83c-0.19-0.275-0.291-0.602-0.291-0.935c0-0.44,0.175-0.86,0.487-1.17c0.308-0.312,0.728-0.485,1.167-0.485l10.278,0.02
	c0.911,0,1.647,0.738,1.647,1.65v18.636c0.278-0.175,0.549-0.358,0.818-0.547c0.569-0.407,1.107-0.854,1.613-1.337
	c0.466-0.456,0.884-0.958,1.244-1.497c0.331-0.535,0.604-1.109,0.812-1.705c0.218-0.659,0.389-1.337,0.507-2.022
	c0.122-0.74,0.218-1.485,0.282-2.232c0.173-1.886,0.331-3.77,0.48-5.655c0.006-0.107,0.023-0.212,0.055-0.313v-3.326
	c0-0.436,0.173-0.856,0.482-1.166c0.312-0.312,0.73-0.484,1.17-0.484h6.659c0.439,0,0.858,0.173,1.168,0.484
	C168.287,185.916,168.46,186.336,168.46,186.771z"/>
<path fill="#EED8B5" d="M167.314,138.069L167.314,138.069l-0.018,0.246l-0.11,0.727v24.184v0.024
	c-0.024,1.553-0.187,3.097-0.484,4.618c-0.284,1.51-0.679,2.995-1.18,4.448l-0.006,0.024c-0.043,0.115-0.086,0.231-0.128,0.346
	l-0.017,0.038c-0.651,1.604-1.504,3.117-2.538,4.505c-0.27,0.354-0.55,0.695-0.842,1.031l-0.023,0.023
	c-0.686,0.754-1.488,1.394-2.372,1.9l-0.021,0.012c-0.903,0.503-1.872,0.88-2.877,1.123l-0.019,0.005
	c-1.02,0.234-2.073,0.307-3.113,0.217l-0.051-0.004c-1.021-0.117-2.018-0.391-2.954-0.811l-0.026-0.013
	c-0.726-0.339-1.415-0.755-2.057-1.236l-0.017-0.015c-0.635-0.49-1.225-1.039-1.76-1.638c-0.289-0.323-0.562-0.659-0.822-1.007
	l-0.01-0.017c-0.753-1.027-1.388-2.134-1.892-3.302l-0.009-0.021c-0.329-0.798-0.61-1.618-0.836-2.448l-0.028-0.115
	c-0.282-1.121-0.517-2.252-0.704-3.395c-0.226-1.176-0.36-2.365-0.396-3.562v-0.051V163.8c0-0.541,0.002-1.081,0.012-1.622v-24.112
	c0-0.439,0.173-0.861,0.484-1.17c0.31-0.31,0.73-0.484,1.168-0.484h6.661l0.27,0.024l8.382-0.013l6.549-0.012h0.131
	c0.438,0,0.857,0.175,1.17,0.484C167.14,137.21,167.314,137.632,167.314,138.069z M157.342,169.659l-0.008-26.068l-5.352-0.907
	v26.627c0.114,0.859,0.271,1.711,0.477,2.55c0.111,0.476,0.234,0.95,0.368,1.422c0.118,0.411,0.265,0.813,0.439,1.204
	c0.069,0.146,0.145,0.286,0.226,0.426l0.014,0.021l0.106,0.158c0.102,0.126,0.236,0.224,0.389,0.274
	c0.121,0.035,0.243,0.054,0.366,0.06c0.146,0.006,0.293-0.006,0.434-0.043l0.014-0.004c0.143-0.085,0.271-0.191,0.381-0.313
	c0.214-0.246,0.411-0.504,0.588-0.775l0.133-0.199c0.285-0.451,0.526-0.932,0.717-1.434c0.185-0.52,0.332-1.051,0.45-1.589
	C157.177,170.598,157.263,170.128,157.342,169.659z"/>
<path fill="#EED8B5" d="M137.961,155.355v24.257c0,0.439-0.175,0.858-0.482,1.169c-0.311,0.309-0.73,0.483-1.17,0.483h-6.661
	c-0.438,0-0.858-0.175-1.167-0.483c-0.311-0.311-0.485-0.729-0.485-1.169v-31.891c-0.327-0.905-0.704-1.795-1.136-2.655
	l-3.974,1.458v33.088c0,0.439-0.173,0.858-0.482,1.169c-0.312,0.309-0.73,0.483-1.17,0.483h-6.485c-0.439,0-0.859-0.175-1.17-0.483
	c-0.307-0.311-0.482-0.729-0.482-1.169v-33.09l-3.968-1.456c-0.396,0.794-0.749,1.609-1.056,2.439v32.106
	c0,0.439-0.173,0.858-0.484,1.169c-0.309,0.309-0.73,0.483-1.168,0.483h-6.659c-0.439,0-0.856-0.175-1.168-0.483
	c-0.309-0.311-0.484-0.729-0.484-1.169v-27.321c-0.002-0.121-0.004-0.247-0.004-0.371c0-3.063,0.6-6.099,1.764-8.936l0.024-0.055
	c0.179-0.395,0.372-0.785,0.574-1.166c0.563-1.048,1.214-2.043,1.946-2.977l0.009-0.014c0.769-0.959,1.671-1.805,2.677-2.511
	l0.039-0.026c0.263-0.173,0.538-0.336,0.816-0.484c0.441-0.232,0.905-0.419,1.385-0.56c0.362-0.104,0.751-0.081,1.099,0.066
	l9.559,4.022l9.558-4.022c0.348-0.147,0.734-0.169,1.1-0.066c0.478,0.141,0.94,0.327,1.382,0.56c0.282,0.148,0.554,0.312,0.82,0.484
	l0.037,0.026c1.007,0.706,1.906,1.552,2.674,2.511l0.012,0.014c0.73,0.934,1.382,1.929,1.945,2.977
	c0.546,1.021,1.004,2.092,1.369,3.191l0.009,0.026c0.35,1.116,0.596,2.263,0.738,3.421c0.094,0.489,0.169,0.979,0.224,1.471
	l0.014,0.165l0.083,5.29L137.961,155.355L137.961,155.355z"/>
<path fill="#EED8B5" d="M137.025,186.771v14.056c0,0.732-0.482,1.378-1.183,1.585c-0.701,0.208-1.456-0.071-1.855-0.684l-6.38-9.818
	l-4.545,1.309v32.116l0.144,0.944c0.112,0.759,0.247,1.516,0.406,2.269c0.129,0.648,0.336,1.283,0.614,1.882
	c0.091,0.173,0.192,0.338,0.311,0.495h3.99l5.257-11.791c0.317-0.715,1.091-1.108,1.853-0.943c0.763,0.159,1.307,0.836,1.307,1.615
	v16.243c0,0.439-0.173,0.86-0.482,1.17c-0.312,0.312-0.729,0.484-1.17,0.484h-13.59c-0.348,0-0.688-0.11-0.969-0.313
	c-0.244-0.177-0.482-0.362-0.714-0.554l-0.015-0.012c-0.622-0.525-1.187-1.109-1.69-1.746l-0.018-0.019
	c-0.58-0.749-1.099-1.541-1.555-2.369c-0.434-0.799-0.837-1.609-1.208-2.436c-0.741-1.654-1.339-3.369-1.784-5.127l-0.007-0.018
	c-0.286-1.191-0.5-2.398-0.634-3.618l-0.01-0.182v-28.572l-3.302-5.065c-0.173-0.267-0.267-0.58-0.267-0.901
	c0-0.438,0.173-0.855,0.485-1.167c0.309-0.311,0.728-0.483,1.167-0.483h24.193c0.438,0,0.856,0.173,1.168,0.483
	C136.851,185.916,137.025,186.334,137.025,186.771z"/>
<path fill="#EED8B5" d="M107.782,186.712v49.257c0,0.57-0.293,1.1-0.775,1.4c-0.478,0.304-1.082,0.337-1.594,0.09l-6.543-3.155
	c-0.572-0.275-0.934-0.854-0.934-1.487V215.36h-5.638v17.456c0,0.645-0.374,1.229-0.96,1.498l-6.836,3.155
	c-0.511,0.236-1.108,0.196-1.582-0.109c-0.477-0.304-0.763-0.826-0.763-1.392v-36.096l-0.053-0.81l-0.002-0.107v-0.075
	c0.045-0.959,0.155-1.911,0.336-2.851c0.22-1.17,0.549-2.317,0.98-3.424l0.015-0.037c0.382-0.917,0.86-1.79,1.428-2.606l0.012-0.018
	c0.562-0.785,1.187-1.526,1.868-2.21c0.924-0.924,1.953-1.737,3.065-2.421c0.261-0.161,0.56-0.244,0.867-0.244h8.91l6.545-0.008
	c0.438,0,0.858,0.173,1.169,0.481C107.607,185.854,107.782,186.275,107.782,186.712z M97.934,192.802l-4.858-1.044
	c-0.305,0.701-0.567,1.42-0.779,2.154v14.062h5.638V192.802z"/>
<path fill="#EED8B5" d="M93.583,138.069v41.543c0,0.439-0.172,0.858-0.482,1.169c-0.311,0.309-0.73,0.483-1.17,0.483h-6.542
	c-0.439,0-0.858-0.175-1.167-0.483c-0.312-0.311-0.484-0.729-0.484-1.169v-16.579H78.1v16.579c0,0.439-0.173,0.858-0.484,1.169
	c-0.312,0.309-0.73,0.483-1.168,0.483h-6.837c-0.436,0-0.856-0.175-1.166-0.483c-0.311-0.311-0.484-0.729-0.484-1.169v-28.383
	l-0.054-0.812l-0.002-0.109v-0.072c0.043-0.958,0.154-1.91,0.336-2.853c0.22-1.17,0.547-2.314,0.978-3.423l0.017-0.036
	c0.382-0.916,0.86-1.79,1.428-2.604l0.013-0.021c0.562-0.785,1.187-1.523,1.868-2.207c0.924-0.924,1.953-1.737,3.065-2.422
	c0.261-0.159,0.562-0.244,0.867-0.244h8.91l6.544-0.009c0.438,0,0.859,0.175,1.17,0.484C93.41,137.21,93.583,137.632,93.583,138.069
	z M83.736,144.157l-4.856-1.041c-0.307,0.699-0.567,1.419-0.779,2.155v10.553h5.636V144.157z"/>
<path fill="#EED8B5" d="M63.376,138.069v41.543c0,0.439-0.175,0.858-0.487,1.169c-0.307,0.309-0.728,0.483-1.166,0.483h-6.836
	c-0.438,0-0.859-0.175-1.167-0.483c-0.312-0.311-0.487-0.729-0.487-1.169v-36.39l-2.943-4.207c-0.194-0.279-0.298-0.608-0.298-0.946
	c0-0.439,0.174-0.859,0.483-1.17c0.311-0.31,0.73-0.484,1.17-0.484h10.08c0.438,0,0.858,0.175,1.165,0.484
	C63.202,137.21,63.376,137.632,63.376,138.069z"/>
<path fill="#EED8B5" d="M78.905,186.771v2.052v8.403l-0.014,0.225c-0.104,0.774-0.244,1.55-0.415,2.315l-0.055,0.194
	c-0.32,0.896-0.679,1.78-1.079,2.645c-0.42,0.896-0.905,1.761-1.454,2.587l-0.012,0.018c-0.444,0.646-0.933,1.257-1.473,1.827
	l-0.017,0.016c-0.346,0.356-0.712,0.696-1.099,1.01l4.818,2.903c0.499,0.299,0.8,0.836,0.8,1.414v7.096v3.613l-0.006,0.167
	c-0.154,1.52-0.363,3.033-0.625,4.539c-0.104,0.637-0.218,1.277-0.335,1.917c-0.132,0.686-0.301,1.367-0.508,2.038l-0.01,0.03
	c-0.287,0.873-0.673,1.709-1.148,2.495l-0.015,0.024c-0.486,0.776-1.058,1.503-1.701,2.16c-0.439,0.441-0.909,0.849-1.412,1.217
	c-0.454,0.336-1.045,0.415-1.573,0.211l-6.895-2.652l-3.249-1.249l-5.979,3.452c-0.51,0.295-1.142,0.297-1.652,0
	c-0.51-0.295-0.826-0.84-0.826-1.431v-43.619l-0.685-0.948l-2.686-3.699c-0.206-0.28-0.316-0.62-0.316-0.97
	c0-0.436,0.175-0.856,0.485-1.166c0.309-0.312,0.729-0.484,1.167-0.484h6.098h0.94h19.281
	C78.167,185.121,78.905,185.859,78.905,186.771z M68.942,216.036l-6.006-3.48v16.734h4.088c0.966-2.229,1.609-4.588,1.918-7V216.036
	z M68.942,193.229l-6.006-1.63v13.814l0.234-0.126c0.403-0.216,0.805-0.432,1.208-0.651l0.023-0.012
	c0.706-0.372,1.369-0.82,1.979-1.337c0.538-0.515,0.997-1.104,1.364-1.756c0.117-0.209,0.228-0.423,0.333-0.639
	c0.391-0.815,0.682-1.674,0.865-2.562L68.942,193.229L68.942,193.229z"/>
<path fill="#EED8B5" d="M47.868,174.229L47.868,174.229c0,1.178-0.05,2.355-0.152,3.532c-0.13,1.46-0.335,2.918-0.612,4.358
	c-0.289,1.438-0.645,2.86-1.067,4.263c-0.354,1.159-0.756,2.303-1.207,3.428c-0.459,1.131-0.982,2.24-1.563,3.316
	c-0.438,0.793-0.913,1.566-1.423,2.313c-0.95,1.373-2.019,2.659-3.197,3.843c-0.573,0.576-1.481,0.649-2.14,0.171l-6.305-4.565
	l-5.666,4.047c-0.504,0.36-1.166,0.409-1.715,0.124c-0.55-0.283-0.896-0.851-0.896-1.467v-8.004l0.022-0.271v-52.754l-2.613-4.495
	c-0.45-0.309-0.719-0.817-0.719-1.364c0-0.436,0.173-0.856,0.484-1.166c0.31-0.311,0.729-0.483,1.168-0.483h20.051h5.875
	c0.911,0,1.651,0.738,1.651,1.649v8.654v33.456C47.861,173.287,47.868,173.758,47.868,174.229z M37.81,137.308l-1.547-0.31
	l-3.645-0.727l-0.532-0.105v5.928v47.104h3.32l0.001-0.004l0.008-0.021c0.421-1.062,0.781-2.148,1.077-3.251
	c0.204-0.903,0.357-1.819,0.458-2.742l0.137-1.16c0.411-3.448,0.652-6.913,0.723-10.382v-31.757V137.308z"/>
<path d="M226.588,174.229L226.588,174.229c0,1.129-0.045,2.261-0.143,3.386c-0.126,1.403-0.324,2.8-0.59,4.187
	c-0.276,1.382-0.618,2.752-1.025,4.103c-0.342,1.111-0.727,2.21-1.157,3.288c-0.438,1.073-0.932,2.122-1.483,3.146
	c-0.411,0.744-0.856,1.465-1.335,2.166c-0.892,1.292-1.896,2.503-3.007,3.613l-7.265-5.265l-6.633,4.74v-8.004l0.021-0.004v-53.271
	h0.113l-3.189-5.49l0.126,0.021l-0.381-0.141h20.053h5.873v8.654v33.484C226.582,173.307,226.588,173.768,226.588,174.229z
	 M219.836,134.725l-9.027,1.706v5.665v48.757h6.094c0.145-0.354,0.286-0.71,0.421-1.066c0.449-1.133,0.83-2.289,1.146-3.465
	c0.223-0.973,0.387-1.959,0.497-2.95l0.135-1.154c0.419-3.505,0.666-7.029,0.736-10.56v-31.773L219.836,134.725L219.836,134.725z"/>
<path d="M195.773,149.44L195.773,149.44c0,0.305-0.01,0.612-0.03,0.92l-0.011,29.252h-6.662v-30.091
	c-0.009-0.666-0.088-1.331-0.236-1.978c-0.285-1.166-0.723-2.287-1.296-3.339c-0.188-0.331-0.389-0.655-0.604-0.969
	c-0.165-0.238-0.342-0.47-0.521-0.693h-6.108v37.07h-0.201l-10.339,0.005l3.883-3.636v-37.911h1.835h5.652l1.534-0.257l5.931-0.988
	c0.271,0.177,0.537,0.362,0.798,0.556c1.259,0.952,2.385,2.066,3.349,3.315c0.281,0.371,0.541,0.751,0.789,1.142
	c0.546,0.873,1.006,1.796,1.372,2.754c0.352,0.969,0.6,1.968,0.744,2.983C195.732,148.194,195.773,148.814,195.773,149.44z"/>
<path d="M197.09,213.401v1.472c-0.015,2.16-0.184,4.316-0.5,6.453c-0.062,0.4-0.125,0.803-0.189,1.201
	c-0.152,0.923-0.332,1.839-0.537,2.748c-0.21,0.909-0.466,1.808-0.77,2.691c-0.307,0.877-0.673,1.731-1.092,2.56
	c-0.428,0.824-0.899,1.625-1.416,2.396c-0.507,0.749-1.046,1.471-1.618,2.173c-0.267,0.326-0.539,0.647-0.819,0.962h-8.965h-6.311
	l0.03-16.604l5.852,13.17h6.673c0.22-0.462,0.42-0.934,0.604-1.414c0.335-0.902,0.602-1.831,0.798-2.777
	c0.271-1.437,0.472-2.886,0.594-4.346c0.132-1.453,0.204-2.917,0.222-4.376c0-0.109,0.002-0.22,0.002-0.325v-3.86l-11.601-6.284
	l-3.175-1.72v-4.312v-11.392l-3.262-5.069h23.763v14.099l-7.158-10.807l-7.026,2.177l0.008,12.343l7.017,3.904L197.09,213.401z"/>
<path d="M166.809,186.771v10.534c-0.146,0.666-0.322,1.324-0.52,1.978c-0.235,0.775-0.535,1.53-0.887,2.259
	c-0.364,0.732-0.798,1.43-1.29,2.083c-0.507,0.635-1.067,1.225-1.671,1.766c-0.613,0.537-1.243,1.057-1.891,1.553l-0.196,0.151
	l-1.623,1.264l8.079,4.346v23.352l-6.66-2.935v-17.879l-9.114-5.461v23.34l-6.662,2.935v-44.048l-3.616-5.251l10.278,0.015v21.409
	c0.513-0.234,1.02-0.488,1.509-0.764c0.659-0.371,1.3-0.776,1.919-1.214c0.638-0.456,1.242-0.957,1.81-1.499
	c0.552-0.542,1.047-1.138,1.478-1.782c0.405-0.65,0.734-1.345,0.984-2.069c0.25-0.746,0.439-1.508,0.573-2.283
	c0.129-0.781,0.231-1.564,0.3-2.354c0.171-1.889,0.333-3.78,0.479-5.674l0.062,0.416v-4.185L166.809,186.771L166.809,186.771z"/>
<path d="M165.663,138.069l-0.128,0.849v24.308c-0.021,1.457-0.174,2.907-0.456,4.336c-0.271,1.43-0.644,2.84-1.117,4.218
	c-0.038,0.109-0.079,0.215-0.12,0.326c-0.596,1.468-1.379,2.857-2.327,4.132c-0.241,0.322-0.497,0.632-0.76,0.933
	c-0.575,0.628-1.238,1.16-1.975,1.585c-0.775,0.428-1.605,0.751-2.466,0.961c-0.854,0.195-1.731,0.256-2.603,0.181
	c-0.854-0.098-1.687-0.326-2.474-0.678c-0.621-0.29-1.213-0.646-1.762-1.06c-0.556-0.43-1.068-0.905-1.534-1.431
	c-0.257-0.285-0.503-0.589-0.736-0.901c-0.678-0.923-1.249-1.924-1.705-2.979c-0.304-0.73-0.56-1.477-0.763-2.239l-0.029-0.098
	c-0.271-1.083-0.496-2.173-0.677-3.277c-0.214-1.094-0.337-2.204-0.371-3.323v-0.106c0-0.537,0.004-1.071,0.015-1.605v-24.129h6.661
	v0.021l8.652-0.013l6.55-0.009H165.663L165.663,138.069z M158.992,169.795l-0.007-27.6l-8.652-1.47v28.687l0.008,0.067
	c0.12,0.932,0.291,1.854,0.513,2.764c0.12,0.5,0.248,0.996,0.387,1.491c0.143,0.492,0.317,0.976,0.527,1.44
	c0.091,0.197,0.195,0.389,0.305,0.578l0.024,0.038c0.06,0.099,0.124,0.194,0.191,0.287c0.312,0.409,0.742,0.713,1.232,0.868
	c0.255,0.071,0.518,0.116,0.781,0.128c0.306,0.011,0.612-0.02,0.91-0.093c0.124-0.033,0.246-0.08,0.362-0.137
	c0.324-0.181,0.617-0.417,0.86-0.695c0.263-0.3,0.504-0.617,0.724-0.948l0.148-0.224c0.353-0.554,0.646-1.142,0.875-1.756
	c0.214-0.597,0.387-1.209,0.518-1.829C158.807,170.862,158.904,170.329,158.992,169.795z"/>
<path d="M136.309,155.355v24.257h-6.661v-32.174c-0.529-1.532-1.202-3.01-2.011-4.414l-6.403,2.348v34.24h-6.485V145.37
	l-6.395-2.346c-0.769,1.335-1.416,2.738-1.933,4.189v32.398h-6.66v-27.333c-0.002-0.12-0.002-0.239-0.002-0.361
	c0-2.848,0.555-5.669,1.638-8.307c0.162-0.362,0.339-0.718,0.529-1.068c0.515-0.964,1.112-1.88,1.789-2.738
	c0.672-0.838,1.454-1.577,2.333-2.191c0.22-0.146,0.445-0.28,0.679-0.404c0.34-0.178,0.7-0.324,1.07-0.43l10.198,4.295l10.199-4.295
	c0.37,0.105,0.729,0.252,1.07,0.43c0.231,0.124,0.458,0.258,0.678,0.404c0.879,0.614,1.666,1.354,2.335,2.191
	c0.674,0.858,1.271,1.774,1.788,2.738c0.503,0.938,0.924,1.92,1.26,2.932c0.325,1.038,0.554,2.104,0.682,3.185
	c0.092,0.466,0.165,0.934,0.218,1.406L136.309,155.355z"/>
<path d="M135.373,186.771v14.056l-7.048-10.841l-6.915,1.989v33.484l0.162,1.063c0.116,0.79,0.256,1.575,0.416,2.356
	c0.158,0.788,0.412,1.552,0.752,2.28c0.146,0.278,0.309,0.541,0.497,0.789c0.169,0.218,0.344,0.428,0.529,0.63h5.833l5.69-12.774
	v16.243h-13.589c-0.214-0.153-0.425-0.318-0.629-0.484c-0.538-0.456-1.029-0.963-1.469-1.514c-0.525-0.682-0.997-1.402-1.412-2.153
	c-0.412-0.76-0.798-1.533-1.152-2.32c-0.704-1.566-1.269-3.191-1.692-4.856c-0.271-1.123-0.47-2.261-0.598-3.406v-29.065
	l-3.569-5.475h24.192V186.771z"/>
<path d="M106.13,186.712v49.257l-6.545-3.152V213.71h-8.939v19.106l-6.836,3.152V199.82l-0.057-0.864
	c0.041-0.882,0.145-1.759,0.31-2.622c0.201-1.066,0.5-2.117,0.895-3.129c0.338-0.807,0.76-1.582,1.261-2.301
	c0.509-0.713,1.074-1.382,1.693-2.004c0.832-0.831,1.759-1.562,2.762-2.18h8.912L106.13,186.712z M99.583,191.468l-7.428-1.597
	c-0.643,1.214-1.15,2.493-1.512,3.816v15.941h8.939V191.468z"/>
<path d="M91.93,138.069v41.543h-6.542v-18.231h-8.939v18.231h-6.837v-28.437l-0.056-0.867c0.041-0.879,0.145-1.754,0.31-2.62
	c0.201-1.068,0.5-2.116,0.895-3.129c0.337-0.808,0.76-1.581,1.259-2.302c0.51-0.71,1.076-1.381,1.695-2.002
	c0.832-0.832,1.759-1.564,2.762-2.181h8.912L91.93,138.069z M85.388,142.825l-7.428-1.597c-0.643,1.213-1.15,2.494-1.512,3.813
	v12.438h8.939V142.825z"/>
<polygon points="61.724,138.069 61.724,179.612 54.887,179.612 54.887,142.704 51.645,138.069 "/>
<path d="M77.255,186.771v2.052v8.403c-0.098,0.73-0.23,1.459-0.391,2.18c-0.303,0.848-0.642,1.684-1.02,2.502
	c-0.385,0.821-0.83,1.611-1.334,2.366c-0.393,0.575-0.833,1.118-1.309,1.625c-0.49,0.507-1.025,0.965-1.599,1.371
	c-0.457,0.313-0.933,0.595-1.432,0.841l7.084,4.267v7.097v3.614c-0.151,1.485-0.354,2.965-0.61,4.436
	c-0.104,0.627-0.213,1.255-0.329,1.878c-0.12,0.629-0.275,1.249-0.463,1.857c-0.25,0.759-0.584,1.483-0.995,2.165
	c-0.421,0.676-0.916,1.306-1.475,1.878c-0.378,0.38-0.783,0.728-1.215,1.045l-6.897-2.65l-3.985-1.534l-6.662,3.846v-44.154
	l-1.001-1.384l-2.686-3.699h6.098h0.94H77.255z M70.592,215.084l-9.308-5.396v21.256h6.801c1.293-2.697,2.14-5.584,2.506-8.551
	L70.592,215.084L70.592,215.084z M70.592,191.965l-9.308-2.525v18.613c0.907-0.4,1.799-0.841,2.67-1.312
	c0.406-0.218,0.81-0.436,1.215-0.658c0.826-0.436,1.605-0.961,2.318-1.569c0.67-0.636,1.241-1.368,1.697-2.175
	c0.134-0.241,0.262-0.486,0.38-0.732c0.476-0.987,0.822-2.036,1.027-3.111L70.592,191.965L70.592,191.965z"/>
<path d="M46.215,174.229L46.215,174.229c0,1.129-0.047,2.261-0.143,3.386c-0.127,1.403-0.324,2.8-0.591,4.187
	c-0.276,1.382-0.62,2.752-1.026,4.103c-0.34,1.111-0.725,2.21-1.158,3.288c-0.435,1.073-0.93,2.122-1.483,3.146
	c-0.41,0.744-0.854,1.465-1.332,2.166c-0.893,1.292-1.898,2.503-3.008,3.613l-7.266-5.265l-6.634,4.74v-8.004l0.021-0.004v-53.271
	h0.115l-3.191-5.49l0.126,0.021l-0.38-0.141h20.051h5.875v8.654v33.484C46.209,173.307,46.215,173.768,46.215,174.229z
	 M39.463,135.952l-2.877-0.574l-3.646-0.726l-2.506-0.5v7.943v48.757h6.095c0.146-0.354,0.286-0.71,0.422-1.066
	c0.448-1.133,0.83-2.289,1.146-3.465c0.222-0.973,0.387-1.959,0.497-2.95l0.134-1.154c0.418-3.505,0.663-7.029,0.736-10.56v-31.773
	L39.463,135.952L39.463,135.952z"/>
<polygon fill="#C3312D" points="185.737,125.516 146.829,125.516 155.59,113.485 142.87,57.837 132.421,57.837 99.653,112.376 
	105.918,125.516 67.661,125.516 101.114,104.501 94.071,87.149 117.018,72.826 109.513,59.178 131.333,48.525 124.48,36.025 
	141.397,28.603 134.667,18.081 161.701,18.081 "/>
</svg>
