<?xml version="1.0" encoding="utf-8"?>
<!-- Generator: Adobe Illustrator 16.0.4, SVG Export Plug-In . SVG Version: 6.00 Build 0)  -->
<!DOCTYPE svg PUBLIC "-//W3C//DTD SVG 1.1//EN" "http://www.w3.org/Graphics/SVG/1.1/DTD/svg11.dtd">
<svg version="1.1" id="Layer_1" xmlns="http://www.w3.org/2000/svg" xmlns:xlink="http://www.w3.org/1999/xlink" x="0px" y="0px"
	 width="250px" height="250px" viewBox="0 0 250 250" enable-background="new 0 0 250 250" xml:space="preserve">
<rect id="rect2157" x="14" y="13.5" fill="#083884" width="223" height="223"/>
<path id="path2161" sodipodi:nodetypes="ccccccccccccccccccccccccccccccccccccccc" fill="#FFFFFF" d="M61.977,216.065l17.272-0.304
	l7.455-34.601l-41.609,0.256v-19.103h16.437V32.601H46.019l-0.256-18.658l52.196,0.001v18.657H81.078v128.826h10.148l22.176-92.177
	l30.188-0.15l22.136,92.104h11.081l0.233-31.762h21.297l0.236,51.975h-27.764l7.83,34.426l16.603,0.243v19.97h-54.64v-19.99h16.984
	l-7.938-34.427l-42.232-0.23l-7.978,34.65l16.732,0.007v19.99H61.977V216.065z M144.708,161.172l-16.113-69.488l-16.421,69.5
	C112.173,161.509,144.384,161.496,144.708,161.172z"/>
</svg>
