<?xml version="1.0" encoding="utf-8"?>
<!-- Generator: Adobe Illustrator 16.0.4, SVG Export Plug-In . SVG Version: 6.00 Build 0)  -->
<!DOCTYPE svg PUBLIC "-//W3C//DTD SVG 1.1//EN" "http://www.w3.org/Graphics/SVG/1.1/DTD/svg11.dtd">
<svg version="1.1" id="Layer_1" xmlns="http://www.w3.org/2000/svg" xmlns:xlink="http://www.w3.org/1999/xlink" x="0px" y="0px"
	 width="250px" height="250px" viewBox="0 0 250 250" enable-background="new 0 0 250 250" xml:space="preserve">
<g>
	<path fill="#FFFFFF" d="M124.233,239.998c63.508,0.422,115.327-50.719,115.765-114.243
		c0.422-63.513-50.734-115.334-114.256-115.753C62.248,9.581,10.388,60.72,10.003,124.233
		C9.554,187.745,60.739,239.595,124.233,239.998z"/>
	<path fill="#00539B" d="M15.35,124.385c-0.053,3.778,0.118,7.464,0.476,11.162l43.551,0.284c-0.581-3.612-0.887-7.383-0.86-11.161
		L15.35,124.385z"/>
	<path fill="#00539B" d="M231.147,152.148c-12.136,47.713-55.518,82.866-106.939,82.529c-51.426-0.345-94.354-36.074-105.854-83.925
		l45.43,0.298c10.006,23.7,33.415,40.382,60.768,40.573c27.395,0.178,51.027-16.177,61.377-39.76L231.147,152.148z"/>
	<path fill="#00539B" d="M234.534,125.834c-0.029,3.778-0.254,7.465-0.636,11.155l-43.431-0.291
		c0.619-3.612,0.991-7.37,0.991-11.149L234.534,125.834z"/>
	<polyline fill="#EF3E42" points="174.256,163.787 175.83,163.331 178.093,165.673 175.83,168.479 172.998,169.033 169.995,172.528 
		168.142,172.825 171.264,169.213 166.977,169.756 163.589,173.368 162.027,173.532 165.045,169.968 160.28,170.999 
		157.554,173.963 155.781,174.116 158.693,170.947 153.756,171.23 151.467,174.375 149.695,174.466 151.679,171.673 146.94,171.906 
		144.903,174.617 142.919,174.672 145.339,171.866 140.165,171.991 137.44,174.763 135.931,174.737 138.484,172.046 
		132.225,172.019 130.028,174.737 128.415,174.737 130.678,171.853 125.014,171.892 123.016,174.737 121.348,174.751 
		123.308,171.866 118.648,171.879 116.716,174.942 115.129,174.997 117.061,171.934 112.548,172.203 110.524,175.334 
		109.213,175.446 110.935,172.257 106.103,172.812 104.411,176.001 103.298,176.134 104.568,173.155 99.355,173.872 97.766,177.1 
		96.417,177.326 97.898,174.103 93.373,175.188 92.368,178.409 91.044,178.733 91.837,175.512 88.331,176.868 87.868,179.714 
		87.75,180.244 86.649,179.429 86.995,177.22 84.944,178.211 83.448,177.074 85.751,175.928 82.337,174.063 83.555,173.574 
		87.021,175.36 91.256,173.845 87.471,171.866 89.06,171.39 92.976,173.368 96.946,172.501 93.743,169.98 95.384,169.67 
		98.468,172.176 104.304,171.424 100.718,168.479 102.452,168.233 106.052,171.244 110.708,170.702 107.997,167.639 109.796,167.56 
		112.19,170.687 116.928,170.365 114.904,167.223 116.504,167.162 118.49,170.325 123.228,170.08 121.453,167.017 123.308,167.029 
		124.948,170.198 130.532,170.198 127.898,167.122 129.738,167.175 132.306,170.198 138.153,170.026 136.037,167.313 
		137.757,167.287 139.956,170.04 145.233,169.98 142.628,167.223 144.162,167.162 146.89,169.928 152.234,169.756 149.243,166.95 
		150.938,166.823 154.035,169.769 158.508,169.2 156.112,166.407 157.687,166.243 160.256,169.021 165.467,168.272 162.86,165.619 
		164.277,165.428 167.256,168.193 171.688,167.532 168.696,164.739 170.39,164.429 173.58,167.274 176.941,166.58 174.256,163.787 	
		"/>
	<path fill="#EF3E42" d="M18.354,150.753c-0.86-3.66-1.575-7.358-2.078-11.149l43.868,0.271c0.887,3.857,2.104,7.616,3.639,11.177
		L18.354,150.753z"/>
	<path fill="#EF3E42" d="M231.147,152.148c0.938-3.646,1.692-7.331,2.233-11.122l-43.748-0.285
		c-0.911,3.831-2.169,7.577-3.705,11.123L231.147,152.148z"/>
	<path fill="none" d="M61.203,110.411l-0.688,4.042l3.956-2.183l0.675-3.998l1.191-0.707l-0.432,3.989
		c1.526-0.876,3.05-1.783,4.578-2.726l0.353-3.916l1.363-0.814l-0.079,3.705c0.099-0.062,0.198-0.123,0.296-0.186l3.422-2.229
		l0.688-4.096l1.469-0.932l-0.688,4.049l4.315-3.011l0.529-3.97l1.271-0.894l-0.342,3.855c0.229-0.165,0.46-0.332,0.689-0.499
		l3.517-2.648l0.027-3.593l1.375-1.033v3.527l4.711-3.487l0.238-3.983l1.402-1.138l-0.21,4.02c0.345-0.269,0.683-0.53,1.03-0.803
		c1.144-0.896,2.276-1.767,3.404-2.624l-0.624-3.463l1.454-1.139l0.478,3.514l1.974-1.363c0.639-0.469,1.277-0.936,1.909-1.39
		l-0.351-3.632l1.337-0.933l0.299,3.654c1.329-0.937,2.645-1.844,3.948-2.709V76.88l1.469-1.019l-0.273,4.025
		c1.367-0.89,2.721-1.745,4.06-2.549l0.992-4.388l1.522-0.853l-1.006,4.347c1.212-0.705,2.413-1.375,3.601-2.001l0.967-0.576
		l1.468-4.42l1.92-0.919l-1.489,4.47c0.949-0.458,1.887-0.885,2.818-1.287l2.164-1l1.919-4.203l1.773-0.424l-1.693,3.958
		l0.493-0.122c1.027-0.342,2.045-0.656,3.049-0.919l0.005-0.01c0.069-0.018,0.149-0.035,0.22-0.053
		c0.104-0.027,0.206-0.049,0.311-0.076c0.264-0.064,0.527-0.128,0.808-0.19l2.447-3.698l2.145-0.211l-2.197,3.44l-0.004,0.006
		c1.716-0.293,3.633-0.546,5.678-0.762l2.397-3.353l1.681-0.053l-2.187,3.221c2.198-0.2,4.51-0.36,6.866-0.477l1.291-1.981
		c-8.356-3.867-17.648-6.068-27.462-6.13c-32.009-0.214-58.906,22.228-65.416,52.326L61.203,110.411z"/>
	<path fill="none" d="M153.537,66.699c0.989-0.04,1.979-0.073,2.967-0.099c-0.747-0.403-1.497-0.801-2.261-1.176L153.537,66.699z"/>
	<path fill="#EF3E42" d="M125.648,15.476C65.12,15.072,15.721,63.85,15.35,124.385l43.167,0.285
		c0.011-1.746,0.111-3.469,0.254-5.181l0.659,0.258l1.443-0.688l-1.987-0.961c0.043-0.415,0.103-0.825,0.154-1.239l1.249-0.605
		l4.632,1.124l1.614-0.866l-4.631-0.986l2.322-1.276c0.533-0.28,1.062-0.555,1.601-0.848l4.678,0.769l1.323-0.815l-4.241-0.916
		c0.624-0.348,1.258-0.725,1.887-1.088l2.064-1.099l4.128,0.714l1.482-0.946l-4.161-0.75c1.43-0.874,2.863-1.768,4.308-2.706
		l3.454,1.014l1.456-0.973l-3.335-1.059l3.971-2.653l3.243,0.919l1.653-1.164l-3.588-0.761c1.397-0.994,2.787-2.003,4.174-3.041
		l3.781,0.56l1.217-0.945l-3.679-0.583l1.453-1.133c0.399-0.31,0.796-0.619,1.193-0.932l2.29-1.786l3.388,0.828l1.31-0.96
		l-3.498-0.897c0.272-0.225,0.553-0.438,0.823-0.664c0.254-0.211,0.51-0.411,0.764-0.62l2.862-2.152l3.322,1.039l1.336-0.985
		l-3.42-1.146c0.146-0.112,0.292-0.228,0.439-0.338l3.379-2.446l3.4,1.257l1.31-0.907l-3.388-1.29l3.718-2.514l3.506,1.27l1.111-0.7
		l-3.27-1.48c0.321-0.205,0.643-0.413,0.965-0.614l3.205-1.91l3.281,1.495l0.927-0.555l-2.898-1.682l4.592-2.508l3.363,1.774
		l1.402-0.647l-3.202-1.886l4.869-2.125l3.732,1.919l1.932-0.675l-4.128-1.873l5.001-1.462l3.149,1.992l2.34-0.245l-3.58-2.082
		c2.164-0.349,4.425-0.643,6.779-0.89l2.611,2.403l1.654-0.158l-2.553-2.413c2.192-0.206,4.457-0.376,6.789-0.52l2.541,2.567
		l1.469-0.231l-2.222-2.446c1.879-0.103,3.808-0.188,5.763-0.264c19.318,11.727,32.161,33.013,32.005,57.263l43.075,0.285
		C234.942,65.306,186.191,15.865,125.648,15.476z M153.537,66.699l0.706-1.275c0.764,0.375,1.514,0.774,2.261,1.176
		C155.516,66.626,154.526,66.659,153.537,66.699z M125.438,58.675c9.812,0.062,19.104,2.263,27.462,6.13l-1.292,1.981
		c-2.356,0.117-4.668,0.276-6.865,0.477l2.188-3.221l-1.681,0.053l-2.397,3.353c-2.045,0.216-3.963,0.469-5.678,0.762l0.004-0.006
		l2.196-3.44l-2.144,0.211l-2.447,3.698c-0.281,0.062-0.545,0.126-0.808,0.19c-0.105,0.027-0.207,0.048-0.31,0.076
		c-0.071,0.019-0.152,0.035-0.221,0.053L133.44,69c-1.003,0.264-2.02,0.577-3.048,0.919l-0.492,0.122l1.692-3.958l-1.773,0.424
		l-1.918,4.203l-2.167,1c-0.932,0.4-1.869,0.828-2.817,1.287l1.488-4.47l-1.917,0.919l-1.469,4.42l-0.967,0.576
		c-1.19,0.626-2.39,1.296-3.602,2.001l1.007-4.35l-1.522,0.854l-0.992,4.387c-1.338,0.805-2.691,1.66-4.06,2.55l0.273-4.025
		l-1.469,1.019v3.789c-1.304,0.865-2.619,1.773-3.948,2.709l-0.299-3.654l-1.337,0.933l0.351,3.632
		c-0.632,0.454-1.27,0.921-1.909,1.389l-1.974,1.363l-0.478-3.514l-1.454,1.139l0.624,3.462c-1.129,0.857-2.261,1.728-3.403,2.625
		c-0.348,0.274-0.687,0.534-1.031,0.803l0.211-4.02l-1.403,1.138l-0.238,3.983l-4.711,3.487v-3.523l-1.375,1.033l-0.027,3.593
		l-3.517,2.648c-0.23,0.166-0.461,0.334-0.689,0.498l0.342-3.855l-1.27,0.894l-0.529,3.97l-4.315,3.011l0.688-4.049l-1.469,0.932
		l-0.688,4.096l-3.422,2.229c-0.1,0.063-0.197,0.123-0.296,0.186l0.079-3.705l-1.363,0.814l-0.352,3.916
		c-1.529,0.944-3.054,1.85-4.579,2.726l0.431-3.989l-1.191,0.707l-0.675,3.997l-3.956,2.184l0.688-4.042l-1.18,0.59
		C66.533,80.903,93.429,58.462,125.438,58.675z"/>
	<path fill="#00539B" d="M102.557,120.032c-4.5-4.566-17.746-9.548-28.769,2.024c-10.455,10.945-7.425,26.771-1.086,33.48
		c5.903,6.233,25.091,12.332,40.997-4.401c0.317,5.876,3.811,10.024,9.118,9.698c5.492-0.336,10.587-5.635,13.221-9.104
		c2.171,6.882,12.017,11.203,21.08,10.503c9.635-0.762,15.417-5.817,19.996-10.357c5.108-5.081,12.824-20.854,2.13-31.355
		c-6.709-6.557-18.46-4.188-23.132,0.325l9.94-26.844c2.923-7.072-1.114-11.42-6.128-12.571c-5.863-1.356-13.645-2.019-18.886,8.847
		c-0.729-7.252-8.017-9.051-10.161-9.567c-4.897-1.151-13.816,1.058-16.198,7.457L102.557,120.032"/>
	<path fill="#EF3E42" d="M102.557,120.032c-4.5-4.566-17.746-9.548-28.769,2.024c-10.455,10.945-7.425,26.771-1.086,33.48
		c5.903,6.233,25.091,12.332,40.997-4.401c6.219-6.814,13.498-23.623,14.872-28.352c-3.942,8.739-8.387,16.888-12.862,21.615
		c-4.857,5.174-11.406,8.371-18.434,8.755c-7.027,0.351-13.446-3.632-13.14-10.652c6.668,4.188,14.794,1.331,19.03-3.31
		c3.995-4.386,4.021-11.61,0.898-17.545C103.642,120.859,103.006,120.481,102.557,120.032"/>
	<path fill="#FFFFFF" d="M127.938,82.012c-5.505,0.173-10.164,2.343-12.068,7.332l-11.936,32.145
		c3.308,5.822,3.228,13.317-0.767,17.703c-4.236,4.641-12.362,7.498-19.031,3.31c-0.306,7.021,6.113,11.003,13.14,10.652
		c7.028-0.383,13.577-3.58,18.434-8.755c8.919-9.475,17.799-32.533,22.735-46.938C142.998,84.07,132.373,81.874,127.938,82.012"/>
	<path fill="#FFFFFF" d="M92.222,132.815c-1.813-1.602-5.717,0.219-7.053,5.133c2.145,1.516,4.949,1.462,6.51-0.138
		C93.319,136.149,93.902,134.29,92.222,132.815"/>
	<polyline fill="#FFFFFF" points="54.414,85.817 46.977,77.4 59.469,83.812 58.649,85.387 62.567,87.392 66.589,79.571 
		62.671,77.566 61.839,79.153 47.057,71.552 47.85,69.977 43.934,67.959 39.169,77.241 45.547,84.448 35.995,83.475 31.216,92.77 
		35.159,94.776 35.968,93.188 50.789,100.776 49.954,102.366 53.873,104.37 57.869,96.536 53.964,94.531 53.169,96.119 
		40.678,89.721 51.846,90.859 54.414,85.817 	"/>
	<polyline fill="#FFFFFF" points="84.243,62.956 82.521,58.934 84.137,58.232 77.572,42.915 75.931,43.623 74.199,39.579 
		83.831,35.451 97.159,49.233 91.812,36.807 90.171,37.509 88.45,33.472 96.522,29.986 98.269,34.029 96.642,34.743 104.911,54.083 
		97.276,57.359 83.104,42.834 88.834,56.195 90.475,55.494 92.222,59.542 84.243,62.956 	"/>
	<polyline fill="#FFFFFF" points="125.424,25.936 126.352,35.789 121.217,36.266 120.739,31.143 118.597,31.329 120.158,47.592 
		121.903,47.413 122.328,51.794 113.064,52.675 112.627,48.294 114.414,48.122 112.879,31.872 110.761,32.076 111.239,37.212 
		106.103,37.701 105.177,27.861 125.424,25.936 	"/>
	<polyline fill="#FFFFFF" points="171.396,36.874 181.108,40.327 183.148,36.979 172.773,34.611 171.396,36.874 	"/>
	<polyline fill="#FFFFFF" points="168.749,56.307 165.733,54.474 166.805,52.688 165.085,51.616 162.185,56.426 168.221,60.098 
		169.968,57.252 174.362,59.939 170.192,66.821 153.255,56.551 155.557,52.78 157.078,53.719 165.693,39.474 164.171,38.554 
		166.446,34.79 183.387,45.045 179.218,51.913 174.812,49.246 176.531,46.415 170.472,42.743 167.532,47.605 169.279,48.651 
		170.39,46.792 173.407,48.605 168.749,56.307 	"/>
	<polyline fill="#FFFFFF" points="196.938,94.142 199.015,98.825 202.045,97.488 204.163,102.187 196.831,105.481 189.552,89.191 
		193.549,87.378 194.292,89.006 209.482,82.216 208.742,80.59 212.764,78.797 216.574,87.338 212.288,89.257 211.545,87.61 
		196.938,94.142 	"/>
	<path fill="#FFFFFF" d="M167.666,194.688c-2.065-2.661-1.974-6.453,2.169-9.66c3.718-2.905,4.792-1.629,4.792-1.629l-0.068-1.798
		l2.436-1.899l5.146,6.596l-3.44,2.7c-1.706-2.196-3.307-2.646-5.001-1.304c-1.693,1.291-2.091,1.926-0.874,3.566
		c1.906,2.627,11.355-3.812,15.191,1.138l1.59,2.059c3.121,4.022,1.086,7.482-1.933,9.812c-3.757,2.938-5.598,1.529-5.598,1.529
		l0.278,2.006l-2.965,2.289l-5.266-6.805l3.732-2.884c1.945,2.469,3.665,2.507,5.531,1.059c1.586-1.219,1.972-2.171,0.794-3.686
		c-2.754-3.539-10.453,4.729-15.179-1.33L167.666,194.688"/>
	<polyline fill="#FFFFFF" points="71.618,200.715 68.812,198.604 70.082,196.923 68.468,195.673 65.067,200.159 70.718,204.438 
		72.729,201.8 76.832,204.915 72.174,211.461 56.399,199.524 58.862,195.864 60.29,196.95 70.308,183.656 68.892,182.585 
		71.564,179.092 87.338,191.027 82.495,197.438 78.367,194.336 80.365,191.676 74.741,187.408 71.313,191.934 72.941,193.171 
		74.237,191.433 77.03,193.55 71.618,200.715 	"/>
	<polyline fill="#FFFFFF" points="98.454,211.175 100.215,217.705 98.984,217.342 97.608,221.775 106.382,224.469 107.718,220.095 
		106.434,219.698 103.02,209.494 110.577,203.904 111.965,204.348 113.302,199.974 104.171,197.181 102.849,201.582 104.33,202.031 
		100.281,205.239 98.745,200.311 100.215,200.769 101.577,196.38 92.473,193.589 91.124,197.936 92.525,198.385 95.635,207.219 
		87.073,213.735 85.777,213.347 84.427,217.754 93.214,220.445 94.578,215.985 93.319,215.608 98.454,211.175 	"/>
	<path fill="#FFFFFF" d="M61.256,49.26l-6.326,5.834l-0.647,5.982l11.91,12.869l6.008-0.158l6.325-5.83l0.649-5.989L67.263,49.095
		L61.256,49.26z M70.201,69.096L59.443,57.445l3.812-3.513l10.771,11.671L70.201,69.096z"/>
	<path fill="#FFFFFF" d="M202.403,63.406l-3.944-4.625l-21.438,8.284l-0.86-1.02l-3.336,2.858l5.508,6.438l3.333-2.846l-0.954-1.098
		l2.676-1.111l5.24,6.167l-1.522,2.455l-0.913-1.111l-3.36,2.858l5.479,6.452l3.35-2.845l-0.859-1.019L202.403,63.406z
		 M188.123,68.567l7.398-3.275l-4.448,6.775L188.123,68.567z"/>
	<path fill="#FFFFFF" d="M141.45,53.542l8.086,1.541l0.819-4.307l-1.429-0.271l-0.29-5.843l-2.381-2.448l3.664-1.859l1.522-7.762
		l-3.15-3.632l-12.2-2.375l-1.666-0.311l-0.822,4.313l1.747,0.351l-3.149,16.344l-1.746-0.338l-0.86,4.308l8.971,1.733l0.835-4.321
		l-1.535-0.298l1.031-5.466l2.647,0.502l1.574,1.37l0.278,4.659l-1.111-0.212L141.45,53.542z M142.655,38.865l-2.833-0.556
		l1.164-6.114l3.137,0.608l1.165,1.357l-0.701,3.711L142.655,38.865z"/>
	<path fill="#FFFFFF" d="M133.352,200.271l-12.453,0.352l-1.68,0.039l0.106,4.379l1.771-0.046l0.452,16.653l-1.762,0.048
		l0.107,4.399l9.317-0.256l-0.133-4.39l-1.773,0.055l-0.105-5.095l6.749-0.18l3.493-2.924l-0.264-10.138L133.352,200.271z
		 M129.977,211.963l-2.885,0.052l-0.212-6.973l3.203-0.1l1.456,1.071l0.118,4.553L129.977,211.963z"/>
	<path fill="#FFFFFF" d="M155.306,194.184l-8.101,2.885l-2.95,5.262l5.918,16.5l5.583,2.212l8.112-2.899l2.938-5.26l-5.888-16.503
		L155.306,194.184z M155.781,215.959l-5.347-14.96l4.871-1.732l5.332,14.944L155.781,215.959z"/>
</g>
</svg>
