<?xml version="1.0" encoding="utf-8"?>
<!-- Generator: Adobe Illustrator 16.0.4, SVG Export Plug-In . SVG Version: 6.00 Build 0)  -->
<!DOCTYPE svg PUBLIC "-//W3C//DTD SVG 1.1//EN" "http://www.w3.org/Graphics/SVG/1.1/DTD/svg11.dtd">
<svg version="1.1" id="Layer_1" xmlns="http://www.w3.org/2000/svg" xmlns:xlink="http://www.w3.org/1999/xlink" x="0px" y="0px"
	 width="250px" height="250px" viewBox="0 0 250 250" enable-background="new 0 0 250 250" xml:space="preserve">
<g>
	<g>
		<g>
			<g>
				<g>
					<path fill="#FFFFFF" stroke="#FFFFFF" stroke-width="0.262" d="M165.498,25.167c0.296-0.296,4.306-4.292,8.842-7.331
						c5.305-3.56,23.05-12.149,23.05-12.149l19.934,26.292c0,0,2.55,3.207,1.717,6.994c-1.2,5.4-9.52,39.95-9.52,39.95
						s-2.032,12.588-6.504,20.22c-8.418,14.354-16.076,27.003-16.076,27.003l0.244,3.182c0,0,2.838-2.559,4.92-4.341
						c2.077-1.782,4.902,1.057,10.541,4.918c5.643,3.858,9.506,13.954,9.804,15.734c0.299,1.786-0.299,8.912-1.786,13.365
						c-1.483,4.454-6.596,13.434-6.596,13.434s5.054,6.233,2.082,15.442c-2.969,9.205-10.7,15.732-11.295,16.327
						c-0.59,0.595-9.983,5.301-14.481,4.894c-1.877-0.17-8.691,7.36-11.579,10.371c-3.658,3.8-12.867,10.802-15.842,13.451
						c-5.611,5.006-21.012,10.77-33.804,10.363c-9.541-0.306-18.427-1.776-21.993-2.669c-3.565-0.888-12.476-4.453-16.631-8.907
						c-4.157-4.452-15.142-18.109-17.814-22.867c-2.676-4.751-10.166-11.021-10.711-11.607c-3.488-3.794-9.196-9.488-9.196-9.488
						c-6.33-7.337-6.986-14.478-6.986-21.389c0-3.579,1.477-5.616,8.718-12.856c3.19-3.19,7.577-5.117,10.229-7.483
						c3.67-3.269,5.245-6.733,6.705-9.749c3.398-7.012,5.937-12.78,10.392-28.817c0,0,6.012-15.996,9.571-20.747
						c3.565-4.751,17.511-13.953,35.62-15.735c18.115-1.78,24.654-2.376,28.211-1.485c3.566,0.893,3.8,0.975,3.8,0.975l0.745,0.288
						l3.795,1.92L165.498,25.167z"/>
				</g>
			</g>
			<g>
				<path fill="#091336" d="M169.513,31.859c0.264-0.27,2.402-5.961,6.745-8.359c4.389-2.422,19.987-10.801,19.987-10.801
					l15.378,22.131c0,0,1.842,2.107,1.08,5.549c-1.093,4.91-11.722,46.959-11.722,46.959s-2.649,10.723-7.106,17.388
					c-8.396,12.532-15.188,21.349-15.188,21.349l0.541,19.339c0,0,6.48-10.156,8.366-11.781c1.896-1.62,4.592-4.585,9.722-1.08
					c5.13,3.512,8.642,12.691,8.905,14.312c0.276,1.615-0.264,8.097-1.615,12.142c-1.354,4.058-6.48,14.312-6.48,14.312
					s4.586,5.667,1.892,14.039c-2.7,8.371-11.337,13.501-11.878,14.037c-0.545,0.54-5.368,2.274-9.46,1.909
					c-1.703-0.155-11.604,9.877-14.235,12.608c-3.327,3.458-11.692,9.822-14.399,12.234c-5.103,4.549-19.104,9.791-30.734,9.421
					c-8.673-0.279-16.753-1.616-19.992-2.427c-3.243-0.811-11.337-4.051-15.12-8.097c-3.781-4.051-13.769-16.468-16.196-20.788
					c-2.432-4.321-9.243-10.024-9.731-10.555c-3.178-3.45-8.368-8.624-8.368-8.624c-5.75-6.673-9.747-13.071-8.348-19.429
					c0.701-3.172,0.801-7.549,9.44-11.869c8.641-4.319,13.082-10.878,15.401-15.662c3.088-6.37,5.399-11.62,9.446-26.196
					c0,0,6.753-18.895,9.989-23.217c3.243-4.319,15.915-12.685,32.385-14.305c16.468-1.62,22.405-2.16,25.65-1.348
					c3.236,0.811,11.062,5.4,11.062,5.4l0.64,0.422l2.161,1.264L169.513,31.859z"/>
			</g>
			<g>
				<path fill="#ED1D33" d="M180.308,145.514c0,0,8.099-10.527,11.344-12.148c0,0,1.211-0.812,2.562,0.675
					c1.345,1.485,6.21,7.828,7.285,11.067c1.081,3.241,2.839,4.592,0.812,10.803c-2.024,6.206-5.387,12.835-5.941,13.498
					c-1.158,1.376-1.689,2.179-3.785,0.394c0,0,4.463,5.812,4.463,12.834c0,7.016-3.914,10.527-5.396,11.877
					c-1.487,1.351-5.612,4.037-8.779,4.724c-2.412,0.525-5.666,0.54-5.666,0.54s-17.956,17.549-22.14,20.65
					c-4.183,3.108-11.337,9.32-18.893,11.481c-7.561,2.159-16.201,3.234-27.001,1.884c-5.884-0.735-17.098-3.313-21.689-7.656
					c-2.965-2.811-10.03-10.161-15.023-17.856c-4.994-7.693-7.698-9.578-10.935-13.359c-3.243-3.784-9.989-9.044-12.015-12.015
					c-2.022-2.97-6.076-9.584-5.805-13.635c0.54-8.084,6.208-10.526,7.558-11.338c1.35-0.81,7.296-3.78,9.456-6.21
					c2.159-2.43,6.746-7.562,7.687-10.394c0.948-2.833,2.972-6.207,4.994-12.824c1.853-6.037,6.968-23.481,13.232-34.013
					c0,0,2.426-3.779,6.747-3.779c4.319,0,15.93-0.809,15.93-0.809s6.071-8.912,9.918-11.271c0,0,2.162-1.62,3.105-1.215
					c0.946,0.403-1.486,2.632-1.486,2.632s-5.941,6.14-7.019,8.706c0,0-0.537,1.216,1.078,1.216c1.623,0,16.405-0.336,20.187-0.202
					c3.775,0.135,5.936,1.756,7.286,3.104c0,0,17.767,22.766,24.161,29.428c6.482,6.75,12.725,19.263,12.725,19.263
					C179.197,142.372,179.361,146.638,180.308,145.514z"/>
			</g>
			<g>
				<g>
					<path fill="#FFFFFF" d="M178.688,147.947c0,0,1.698-3.899,0.576-6.385c-1.706-3.753-5.409-9.965-9.716-15.718
						c-1.034-1.384-13.786-16.224-13.786-16.224l-12.65-15.822c0,0-2.152-3.855-8.02-4.029c-3.606-0.108-18.822,0.157-18.822,0.157
						s-3.441,0.417-2.198-1.536c1.401-2.204,2.87-4.004,4.823-6.158c1.243-1.371,6.192-5.927,2.185-4.708
						c-2.623,0.799-6.967,5.386-11.77,12.379l-14.265,0.69c0,0-5.497-0.841-8.613,4.205c-4.104,6.659-7.871,17.442-7.871,17.442
						l9.875-15.539l2.401,9.812l37.251,0.201l5.009-9.112c0,0,4.204-0.303,8.915,13.016c1.493,4.234,1.706,2.912,11.108,11.517
						C162.535,130.752,178.688,147.947,178.688,147.947z"/>
					<path fill="#091336" d="M76.693,115.903l11.203-20.922c0,0,1.299-2.243,1.975,0.186c0.672,2.43,5.128,22.272,5.266,23.622
						c0,0,0.537,4.455-1.221,0.405c-1.75-4.048-5.125-13.092-5.668-16.602c0,0-0.675-3.917-1.751-0.271
						c0,0-7.558,15.659-9.179,17.953c-1.62,2.295-2.971,4.589-2.433,2.026C75.425,119.733,76.693,115.903,76.693,115.903z"/>
				</g>
				<g>
					<path fill="#091336" d="M121.996,116.225c2.305-3.896,4.184-10.394,10.393-20.923c0.97-1.643,1.55-2.117,3.107-0.134
						c5.937,7.56,13.291,28.009,13.088,29.831c0,0,0.276,3.645-1.213,1.753c-2.728-3.467-9.313-23.89-11.876-26.861
						c0,0-1.487-0.943-3.373,2.971c0,0-7.563,15.118-9.181,17.413c-1.62,2.295-2.97,4.589-2.431,2.026
						C121.048,119.733,121.578,116.929,121.996,116.225z"/>
				</g>
				<g>
					<polygon fill="#091336" points="91.49,107.988 91.218,106.101 128.747,105.291 127.393,107.449 					"/>
				</g>
			</g>
			<g>
				<path fill="#091336" d="M81.769,147.133c2.703-0.266,0.811,1.624,0.811,1.624c-3.239,2.426-4.336,9.718-4.586,13.224
					c-0.263,3.646-0.427,8.498-0.427,8.498s-6.273-1.684-12.014-4.443c-1.39-0.67-5.255-0.935-7.355,0.983
					c-1.436,1.318-2.88,5.492-2.069,11.704c0.805,6.206,3.242,1.341,3.242,1.341c4.321,6.752,14.572,22.953,21.051,32.135
					c5.794,8.207,12.49,9.565,14.853,10.796c4.828,2.518,18.356,4.052,26.998,2.972c6.965-0.876,11.875-2.972,14.03-5.132
					c2.162-2.16,19.715-11.882,24.57-19.438c4.861-7.557,2.701-14.577,1.08-20.514c-1.615-5.941-7.831-5.67-7.831-5.67
					c-8.908,0.265-31.312-2.972-31.312-2.972c-0.272-1.08-1.888-4.861-5.941-7.556c-4.048-2.704-1.615,2.426-1.615,2.426
					c-0.271,0,3.508,6.21,3.508,6.21s-4.59,3.241-5.669,3.507c-1.083,0.274-4.053-0.535-9.184,2.16
					c-5.124,2.7-9.176,2.159-12.953,2.7c-3.783,0.544-7.048,0.257-8.661-2.7c-1.097-2.027-3.405-3.537-2.411-14.847
					c0.805-9.204,1.221-9.979,2.165-11.874c0.987-1.994,3.76-4.315,9.171-7.831c6.6-4.289,9.99-10.262,9.99-10.262
					c-0.811,1.084-5.936,5.13-5.936,5.13l-3.513-11.607l-5.398-16.199c-2.161,1.08-4.858,4.858-6.207,9.45
					c-1.35,4.586-4.656,14.731-7.018,21.057c-1.818,5.229-2.705,6.3-2.97,6.609C71.76,148.034,78.535,147.302,81.769,147.133z"/>
			</g>
			<g>
				<path fill="#091336" d="M116.864,149.293c0,0,8.639-14.034,9.723-17.545c1.078-3.512,4.586-15.391,7.828-18.358
					c0,0,2.16-1.621,3.509-0.27c1.347,1.348,7.827,10.798,10.798,21.054c2.97,10.262,4.875,22.702,8.921,29.719
					c0,0-16.509-8.99-21.612-10.688C127.447,150.346,116.864,149.293,116.864,149.293z"/>
			</g>
			<g>
				<path fill="#FFFFFF" d="M90.68,130.129c-0.805-2.906-5.13-15.662-5.13-15.662c-2.426,2.701-11.873,30.23-12.415,31.845
					l10.481-1.198c-0.034-1.698,0.59-8.01,2.412-9.452l3.843,0.256l-1.094-4.045C89.18,131.058,90.071,130.349,90.68,130.129z"/>
			</g>
			<path fill="#FFFFFF" d="M145.88,133.611c-2.013-9.18-9.58-18.602-9.58-18.602c-4.315,3.238-8.097,18.625-8.634,20.25
				c-0.538,1.616-7.029,12.679-7.029,12.679s4.192,0.411,7.566,1.075c3.182,0.628,9.992,2.971,9.992,2.971
				c-0.935-2.083-0.22-9.991,1.972-12.196l4.893,0.446l-2.682-3.825C142.686,135.859,143.197,134.479,145.88,133.611z"/>
			<g>
				<path fill="#FFFFFF" d="M147.912,180.074c0,0,7.826-0.275,8.642-0.546c0,0,3.78-0.805,4.045,2.431
					c0.271,3.241,1.094,11.872-0.521,15.113c0,0,1.872,2.165-12.976,13.235c-14.848,11.067-16.194,13.229-26.993,13.769
					c-10.801,0.535-22.41-1.89-24.57-2.97c0,0-8.751-4.344-14.309-11.342c-7.289-9.177-10.799-16.734-21.327-32.662
					c-1.23-1.857-0.172-6.317,0.81-7.021c1.184-0.852,3.625,0.087,5.67,1.08c1.717,0.833,11.61,4.052,11.61,4.315
					c0,0.276,1.615,5.132,4.317,7.021c2.701,1.89,10.258,5.941,22.405,1.621c0,0,4.857-3.777,11.34-4.592
					c0.865-0.379,3.523-1.588,5.129-3.602C122.463,178.7,138.598,180.164,147.912,180.074z"/>
			</g>
			<g>
				<path fill="#091336" d="M70.702,191.812c0,3.637-2.562-14.307-1.485-17.548c0,0,1.082,4.051,1.35,8.643
					C70.84,187.496,70.702,191.003,70.702,191.812z"/>
			</g>
			<g>
				<g>
					<path fill="#091336" d="M83.389,207.878c0,3.634-4.318-15.525-2.698-22.139c0,0,1.078,4.05,1.351,8.64
						C82.311,198.967,83.389,207.069,83.389,207.878z"/>
				</g>
			</g>
			<g>
				<g>
					<g>
						<path fill="#091336" d="M97.195,213.491c0.278,4.04-3.636-14.584-1.918-25.591c0,0,0.938,7.459,1.044,12.055
							C96.428,204.552,97.139,212.685,97.195,213.491z"/>
					</g>
				</g>
			</g>
			<g>
				<g>
					<g>
						<path fill="#091336" d="M114.978,217.458c0,3.635-4.185-18.894-2.564-25.508c0,0,1.078,4.05,1.351,8.637
							C114.029,205.179,114.978,216.652,114.978,217.458z"/>
					</g>
				</g>
			</g>
			<g>
				<path fill="#091336" d="M147.773,192.083c0,3.635-2.288-5.803-1.212-9.044c0,0,0.809-4.454,1.08,0.138
					C147.912,187.762,147.773,191.271,147.773,192.083z"/>
			</g>
			<path fill="#091336" d="M103.368,183.849c0,0,17.681,2.7,22.812,2.432c0,0,1.082-0.54,1.351,2.16
				c0.269,2.696,2.293,17.415,2.834,19.3c0.543,1.893-1.059-18.247-1.487-19.57c-0.587-1.826,1.222-2.027,1.222-2.161
				c0,0,15.652-2.43,18.354-3.643c2.7-1.218,6.883-3.379,7.562-3.643l-5.534,0.805c0,0-15.928,4.808-22.543,4.922
				c-7.84,0.138-17.546-1.059-22.606-2.43L103.368,183.849z"/>
			<path d="M146.291,117.979"/>
			<path fill="#091336" d="M144.942,117.169c0,0,17.008,13.77,24.029,24.028c0,0,5.935,17.008,8.097,19.974c0,0,1.62,4.055,1.896,0
				c0.265-4.046-0.275-13.223-0.275-13.223s-35.097-38.607-37.256-39.147L144.942,117.169z"/>
			<g>
				<path fill="#091336" d="M183.008,155.505c0.645-5.277,7.291-10.526,9.987-11.879c0,0,3.786-1.89,1.892,2.16
					c-1.892,4.047-2.16,3.241-2.16,3.241s4.32,10.258,4.055,12.687c-0.274,2.427-2.161,7.017-7.026,1.615
					c0,0,2.432,1.62,4.056-0.264c1.616-1.896-2.436-9.319-2.436-11.612c0-0.271-3.505,2.969-4.32,7.831
					C187.054,159.285,181.659,166.576,183.008,155.505z"/>
			</g>
			<g>
				<path fill="#ED1D33" d="M172.746,32.94c0,0,1.4-5.661,5.681-7.903c4.211-2.207,4.243-2.289,4.243-2.289l4.384,6.681
					l-2.494-7.625l2.632-1.352l2.701,3.578l-1.013-4.385l6.952-3.714l9.041,13.362l-5.924,4.341c0,0,5.521-2.315,7.145-2.451
					l1.419,1.956l-6.814,4.672c0,0,6.678-2.185,8.298-2.445l1.193,1.79l-2.076,8.069l-9.036,6.088l8.356-3.053l-2.013,8.772
					l-9.055,7.087c0,0,8.505-4.586,8.505-4.32c0,0.267-8.637,7.692-8.637,7.692l7.766-4.59l-1.207,4.996l-4.399,4.456l3.589-1.287
					l-2.967,12.486c0,0-13.849,9.59-13.849,9.856c0,0.268,3.511-1.348,4.454-1.889c0,0-1.348,2.021-1.348,1.753
					c0-0.265,5.397-1.753,5.397-1.753s-8.367,6.205-8.367,5.938c0-0.268,11.2-5.536,11.2-5.536s-1.585,4.881-2.799,7.31
					c-1.193,2.38-5.345,8.381-5.345,8.381l-8.462,3.478l6.142-0.271l-1.012,1.484l-4.992,1.622l4.117-0.54l-6.421,8.632
					c0,0-5.254-8.768-4.852-10.794c0,0,1.759-7.289,1.214-9.989c0,0-1.214,5.131-2.834,6.343l-11.739-22.001L172.746,32.94z"/>
			</g>
			<line fill="none" x1="191.513" y1="33.344" x2="190.703" y2="32.94"/>
			<g>
				<g>
					<path fill="#091336" d="M167.487,77.078c0,0,0,5.131,3.099,7.694C170.586,84.772,169.241,78.022,167.487,77.078z"/>
				</g>
				<g>
					<path fill="#091336" d="M168.972,70.195c0,0,1.08,6.613,4.184,9.179C173.155,79.373,170.724,71.139,168.972,70.195z"/>
				</g>
			</g>
			<g>
				<g>
					<path fill="#091336" d="M173.965,46.033c0,0,3.24,12.419,6.343,14.982C180.308,61.015,175.718,46.978,173.965,46.033z"/>
				</g>
			</g>
			<g>
				<g>
					<path fill="#091336" d="M183.955,28.081c0,0-0.407,3.104,1.887,5.263C185.842,33.344,185.169,29.159,183.955,28.081z"/>
				</g>
			</g>
			<g>
				<path fill="#091336" d="M190.703,32.532c-0.275,0.543-12.417,48.596-13.773,57.505c0,0,13.369-48.729,14.583-56.694
					L190.703,32.532z"/>
			</g>
			<path fill="#091336" d="M175.044,97.597c0,0,0.139-2.835,1.08-4.05C176.124,93.546,176.124,95.841,175.044,97.597z"/>
			<g>
				<path fill="#091336" d="M181.796,85.988c-3.634,0.826,13.763-8.91,16.734-8.774C198.53,77.213,184.761,85.312,181.796,85.988z"
					/>
			</g>
			<g>
				<path fill="#091336" d="M189.971,47.77c-3.635,0.826,13.767-8.909,16.737-8.774C206.708,38.996,192.94,47.095,189.971,47.77z"/>
			</g>
			<g>
				<path fill="#091336" d="M192.26,61.973c-1.814,0.412,6.888-4.453,8.366-4.387C200.626,57.586,193.741,61.638,192.26,61.973z"/>
			</g>
			<g>
				<path fill="#091336" d="M147.875,197.475c0.271,0,1.604,3.199,1.604,3.999c0,0.802-1.068,2.936-1.068,2.936l-0.801-2.668
					L147.875,197.475z"/>
			</g>
			<path fill="#ED1D33" d="M107.269,182.422c0,0,4.476-2.398,7.959-2.835c2.86-0.355,6.021-3.752,6.021-3.752
				s-0.171,1.821,9.943,3.126c10.114,1.3,17.447,1.08,17.447,1.08s-12.377,4.069-21.398,4.494
				C118.732,184.938,108.473,182.819,107.269,182.422z"/>
		</g>
	</g>
</g>
</svg>
