<?xml version="1.0" encoding="utf-8"?>
<!-- Generator: Adobe Illustrator 16.0.4, SVG Export Plug-In . SVG Version: 6.00 Build 0)  -->
<!DOCTYPE svg PUBLIC "-//W3C//DTD SVG 1.1//EN" "http://www.w3.org/Graphics/SVG/1.1/DTD/svg11.dtd">
<svg version="1.1" id="Layer_1" xmlns="http://www.w3.org/2000/svg" xmlns:xlink="http://www.w3.org/1999/xlink" x="0px" y="0px"
	 width="250px" height="250px" viewBox="0 0 250 250" enable-background="new 0 0 250 250" xml:space="preserve">
<g id="layer1" transform="translate(-273.76782,-429.12625)">
	<g id="g664" transform="matrix(1.25,0,0,1.25,276.85313,432.21156)">
		<path id="path666" fill="#FFFFFF" d="M98.022,188.972c48.549,0,88.213-40.467,88.213-90.224c0-49.756-39.664-90.016-88.213-90.016
			c-48.757,0-88.421,40.261-88.421,90.016C9.601,148.505,49.265,188.972,98.022,188.972z M98.022,180.507
			c44.004,0,79.95-36.545,79.95-81.759S142.026,16.99,98.022,16.99c-44.211,0-80.158,36.544-80.158,81.758
			S53.811,180.507,98.022,180.507z"/>
	</g>
	<g id="g8" transform="matrix(1.25,0,0,1.25,286.0365,441.38881)">
		<path id="path10" fill="#004565" d="M90.675,173.165c44.004,0,79.95-36.543,79.95-81.759c0-45.214-35.946-81.758-79.95-81.758
			c-44.211,0-80.158,36.544-80.158,81.758C10.517,136.622,46.464,173.165,90.675,173.165z"/>
	</g>
	<g id="g12" transform="matrix(1.25,0,0,1.25,403.1255,583.64206)">
		<path id="path14" fill="#FFFFFF" d="M27.786,23.851l1.239,2.065l-2.892,1.858l2.273,3.923l2.893-1.65l1.238,2.063l-3.098,1.652
			l3.306,5.574l2.892-1.652l1.241,2.065l-5.578,3.302l-9.091-15.897L27.786,23.851z"/>
	</g>
	<g id="g16" transform="matrix(1.25,0,0,1.25,315.193,574.69331)">
		<path id="path18" fill="#FFFFFF" d="M31.195,26.676L20.04,41.334l-2.066-2.273l2.273-3.096l-1.859-1.858l-2.892,2.478
			l-2.066-2.271l14.049-11.357L31.195,26.676z M20.246,32.457l1.652,1.651l5.165-6.607l-0.413-0.205L20.246,32.457z"/>
	</g>
	<g id="g20" transform="matrix(1.25,0,0,1.25,429.7555,550.60206)">
		<path id="path22" fill="#FFFFFF" d="M33.132,22.412l-1.033,2.89l-2.479-1.034c-0.414-0.205-0.62-0.205-0.826,0
			c0,0-0.62,1.652-0.62,1.859c0,0.205,0.205,0.413,0.62,0.619l2.478,1.031c0.62,0.208,0.827,0.208,1.446-0.203l2.066-2.478
			c1.032-0.828,2.065-1.239,3.099-0.828l3.512,1.446c2.684,1.239,3.098,1.652,2.066,4.541c0,0-0.62,1.652-0.62,1.86
			c-1.241,2.889-1.859,3.096-4.545,1.857l-2.687-1.033l1.239-2.89l2.894,1.239c0.412,0.205,0.825,0.205,0.825-0.207
			c0.208,0,0.62-1.652,0.62-1.858c0-0.208-0.205-0.208-0.62-0.413l-3.512-1.445c-0.413-0.207-1.24,1.239-1.859,1.858l-1.653,1.446
			c-1.033,0.824-2.066,0.619-3.099,0.206l-2.479-1.034c-2.684-1.237-3.098-1.858-1.859-4.747c0,0,0.62-1.652,0.62-1.86
			c1.033-2.684,1.858-2.684,4.545-1.652L33.132,22.412z"/>
	</g>
	<g id="g24" transform="matrix(1.25,0,0,1.25,363.86488,593.73706)">
		<path id="path26" fill="#FFFFFF" d="M23.453,25.273l-2.065,18.17l-3.099-0.413l2.066-18.17L23.453,25.273z"/>
	</g>
	<g id="g28" transform="matrix(1.25,0,0,1.25,299.35188,552.43831)">
		<path id="path30" fill="#FFFFFF" d="M29.614,24.04l-6.818,5.78v0.205l8.47-2.065l1.653,3.717l-16.114,7.64l-1.239-2.478
			l9.709-4.543l-0.207-0.411l-10.33,2.684l-0.826-1.447l8.676-6.606v-0.208l-9.502,4.544l-1.241-2.478l16.114-7.638L29.614,24.04z"
			/>
	</g>
	<g id="g32" transform="matrix(1.25,0,0,1.25,337.234,586.85331)">
		<path id="path34" fill="#FFFFFF" d="M28.024,26.444c2.686,1.241,2.686,2.273,1.653,4.955l-1.034,2.065
			c-0.62,1.445-1.239,2.273-2.478,2.273c0.826,0.824,0.62,1.858,0,3.097l-2.48,5.78l-2.892-1.447l2.892-5.986
			c0.207-0.413,0.207-0.62,0-0.826c0-0.205-1.859-1.032-2.066-1.239l-3.098,7.02l-2.892-1.445l7.644-16.52L28.024,26.444z
			 M22.652,32.638c0.207,0.205,1.86,1.034,2.066,1.034c0.413,0,0.62-0.208,0.826-0.619l1.447-3.306c0.207-0.619,0.413-0.824,0-1.03
			c-0.207-0.208-1.86-1.032-2.067-1.032L22.652,32.638z"/>
	</g>
	<g id="g36" transform="matrix(1.25,0,0,1.25,382.46175,592.13081)">
		<path id="path38" fill="#FFFFFF" d="M22.83,25.732l4.546,8.464l-1.653-9.085l2.48-0.413l3.512,17.963l-2.687,0.413l-4.545-8.464
			l1.859,9.084l-2.687,0.619l-3.511-17.962L22.83,25.732z"/>
	</g>
	<g id="g40" transform="matrix(1.25,0,0,1.25,417.588,569.64706)">
		<path id="path42" fill="#FFFFFF" d="M26.957,24.931c1.861-2.273,3.1-2.477,5.166-0.413l1.653,1.447
			c1.24,1.03,1.859,1.858,1.445,3.097c1.241-0.62,1.859-0.208,3.098,0.824l4.546,4.13l-2.067,2.273l-4.957-4.337
			c-0.206-0.413-0.414-0.413-0.62-0.413c-0.205,0.208-1.445,1.445-1.652,1.652l5.578,4.955l-1.859,2.478L23.652,28.648
			L26.957,24.931z M31.504,31.537c0.205-0.205,1.447-1.652,1.447-1.652c0.205-0.413,0-0.619-0.416-1.032l-2.478-2.27
			c-0.62-0.413-0.827-0.619-1.239-0.413c0,0.205-1.241,1.445-1.447,1.652L31.504,31.537z"/>
	</g>
	<g id="g44" transform="matrix(1.25,0,0,1.25,371.21225,450.33768)">
		<path id="path46" fill="#FFFFFF" d="M26.873,10.541v2.477h-2.479v15.898h-3.099l0.207-15.898h-2.48v-2.477H26.873z"/>
	</g>
	<g id="g48" transform="matrix(1.25,0,0,1.25,300.04163,494.16093)">
		<path id="path50" fill="#FFFFFF" d="M20.592,16.982l-1.24,2.891l-2.479-1.033c-0.413-0.206-0.62-0.206-0.826-0.206
			c0,0.206-0.62,1.651-0.62,1.651c-0.207,0.413,0,0.62,0.413,0.826l2.686,1.239c0.413,0.207,0.826-0.206,1.446-0.62l2.066-2.477
			c1.241-0.826,2.067-0.619,3.1-0.207l3.512,1.651c2.686,1.239,3.098,1.859,1.859,4.542c0,0-0.62,1.652-0.826,1.652
			c-1.24,2.891-1.859,3.096-4.544,1.859l-3.1-1.239l1.447-2.89l3.305,1.445c0.413,0.207,0.62,0.207,0.826-0.207l0.62-1.651
			c0-0.206-0.205-0.413-0.62-0.413l-3.305-1.652c-0.62-0.207-1.239,0.826-1.86,1.239l-1.859,1.239
			c-1.034,0.826-2.066,1.032-3.306,0.618l-2.271-1.032c-2.686-1.239-3.099-2.065-1.86-4.955c0.207,0,0.826-1.652,0.826-1.652
			c1.24-2.684,1.859-2.684,4.545-1.445L20.592,16.982z"/>
	</g>
	<g id="g52" transform="matrix(1.25,0,0,1.25,317.48913,470.06918)">
		<path id="path54" fill="#FFFFFF" d="M18.409,12.512l1.652,1.652l-2.478,2.477l3.1,3.303l2.479-2.27l1.652,1.652l-2.479,2.477
			l4.338,4.543l2.479-2.477l1.654,1.859l-4.752,4.541L13.658,17.054L18.409,12.512z"/>
	</g>
	<g id="g56" transform="matrix(1.25,0,0,1.25,343.66225,454.69693)">
		<path id="path58" fill="#FFFFFF" d="M21.023,10.977l8.676,16.104l-2.686,1.238l-1.859-3.51l-2.479,1.032l1.033,3.716l-2.892,1.239
			l-4.546-17.961L21.023,10.977z M22.056,23.57l1.859-0.826l-3.72-7.432l-0.413,0.207L22.056,23.57z"/>
	</g>
	<g id="g60" transform="matrix(1.25,0,0,1.25,395.778,454.46743)">
		<path id="path62" fill="#FFFFFF" d="M33.043,13.844l-0.826,2.271l-2.066-0.826l-5.785,14.659l-2.891-1.033l5.783-14.864
			l-2.272-0.827l0.827-2.27L33.043,13.844z"/>
	</g>
	<g id="g64" transform="matrix(1.25,0,0,1.25,414.37425,470.06918)">
		<path id="path66" fill="#FFFFFF" d="M37.587,14.577L27.049,26.551l2.479,2.271l-1.445,1.857l-4.752-4.542l11.983-13.627
			L37.587,14.577z"/>
	</g>
	<g id="g68" transform="matrix(1.25,0,0,1.25,428.148,493.47256)">
		<path id="path70" fill="#FFFFFF" d="M43.714,20.628l-2.065,1.032l-1.654-3.096l-4.131,2.064l1.652,3.098l-2.066,1.239
			l-1.652-3.098l-5.578,2.891l1.652,3.097L27.6,28.888L24.708,22.9l16.113-8.052L43.714,20.628z"/>
	</g>
	<g id="g72" transform="matrix(1.25,0,0,1.25,322.08138,478.10018)">
		<path id="path74" fill="#FFFFFF" d="M61.839,110.763c26.238,0,47.517-21.679,47.517-48.726c0-26.839-21.28-48.723-47.517-48.723
			c-26.444,0-47.723,21.884-47.723,48.723C14.116,89.084,35.395,110.763,61.839,110.763z"/>
	</g>
	<g id="g76" transform="matrix(1.25,0,0,1.25,322.08138,478.10018)">
		<path id="path78" fill="none" stroke="#006F61" stroke-width="2.8199" d="M61.839,110.763c26.238,0,47.517-21.679,47.517-48.726
			c0-26.839-21.28-48.723-47.517-48.723c-26.444,0-47.723,21.884-47.723,48.723C14.116,89.084,35.395,110.763,61.839,110.763z"/>
	</g>
	<g id="g80" transform="matrix(1.25,0,0,1.25,340.90713,492.55456)">
		<path id="path82" fill="#BCCCD3" d="M24.053,34.99c-1.86-4.335-8.057-20.027-7.851-20.233c0,0,15.701,8.464,18.8,10.53
			C31.283,26.318,24.879,32.719,24.053,34.99z"/>
	</g>
	<g id="g84" transform="matrix(1.25,0,0,1.25,340.90713,492.55456)">
		<path id="path86" fill="#006F61" d="M28.598,29.416c-2.066,2.27-4.132,4.542-4.545,5.574c-1.86-4.335-8.057-20.027-7.851-20.233
			L28.598,29.416z"/>
	</g>
	<g id="g88" transform="matrix(1.25,0,0,1.25,387.97175,492.78406)">
		<path id="path90" fill="#BCCCD3" d="M31.645,35.013c1.859-4.542,8.056-20.234,7.851-20.234c0,0-15.7,8.465-18.8,10.53
			C24.414,26.135,30.819,32.535,31.645,35.013z"/>
	</g>
	<g id="g92" transform="matrix(1.25,0,0,1.25,388.20175,492.55456)">
		<path id="path94" fill="#006F61" d="M26.708,29.209c-2.272-1.859-4.751-3.51-5.99-3.716c3.925-2.478,18.593-10.736,18.593-10.736
			L26.708,29.209z"/>
	</g>
	<g id="g96" transform="matrix(1.25,0,0,1.25,340.90713,549.22581)">
		<path id="path98" fill="#BCCCD3" d="M24.053,20.415c-1.86,4.336-8.057,20.233-7.851,20.44c0,0,15.701-8.671,18.8-10.737
			C31.283,29.087,24.879,22.686,24.053,20.415z"/>
	</g>
	<g id="g100" transform="matrix(1.25,0,0,1.25,340.90713,555.65081)">
		<path id="path102" fill="#006F61" d="M28.805,21.058c2.478,2.063,4.957,3.715,6.198,3.92c-4.133,2.478-18.8,10.737-19.007,10.53
			L28.805,21.058z"/>
	</g>
	<g id="g104" transform="matrix(1.25,0,0,1.25,388.4305,549.22581)">
		<path id="path106" fill="#BCCCD3" d="M31.484,20.415c1.859,4.336,7.645,20.44,7.438,20.646c0,0-15.08-8.877-18.18-10.943
			C24.253,29.087,30.657,22.686,31.484,20.415z"/>
	</g>
	<g id="g108" transform="matrix(1.25,0,0,1.25,395.31925,549.22581)">
		<path id="path110" fill="#006F61" d="M21.429,25.99c2.272-2.063,4.131-4.336,4.544-5.575c1.859,4.336,7.645,20.44,7.438,20.646
			L21.429,25.99z"/>
	</g>
	<g id="g112" transform="matrix(1.25,0,0,1.25,352.38663,510.68081)">
		<path id="path114" fill="#E63047" d="M19.621,16.772l-0.414-0.205l-2.065,0.618l0.413,0.413L19.621,16.772z"/>
	</g>
	<g id="g116" transform="matrix(1.25,0,0,1.25,352.38663,510.68081)">
		<path id="path118" fill="none" stroke="#E63047" stroke-width="0.2826" d="M19.621,16.772l-0.414-0.205l-2.065,0.618l0.413,0.413
			L19.621,16.772z"/>
	</g>
	<g id="g120" transform="matrix(1.25,0,0,1.25,355.14175,509.07431)">
		<path id="path122" fill="#E63047" d="M18.037,16.406l0.413,0.207l-0.62,1.857l-0.413-0.413L18.037,16.406z"/>
	</g>
	<g id="g124" transform="matrix(1.25,0,0,1.25,355.14175,509.07431)">
		<path id="path126" fill="none" stroke="#E63047" stroke-width="0.2826" d="M18.037,16.406l0.413,0.207l-0.62,1.857l-0.413-0.413
			L18.037,16.406z"/>
	</g>
	<g id="g128" transform="matrix(1.25,0,0,1.25,354.2225,512.05644)">
		<path id="path130" fill="#E63047" d="M20.011,17.117l-0.62-0.413l-2.066,0.62l0.413,0.413L20.011,17.117z"/>
	</g>
	<g id="g132" transform="matrix(1.25,0,0,1.25,354.2225,512.05644)">
		<path id="path134" fill="none" stroke="#E63047" stroke-width="0.2826" d="M20.011,17.117l-0.62-0.413l-2.066,0.62l0.413,0.413
			L20.011,17.117z"/>
	</g>
	<g id="g136" transform="matrix(1.25,0,0,1.25,357.20713,510.45006)">
		<path id="path138" fill="#E63047" d="M18.037,16.544l0.62,0.208l-0.62,1.857l-0.414-0.207L18.037,16.544z"/>
	</g>
	<g id="g140" transform="matrix(1.25,0,0,1.25,357.20713,510.45006)">
		<path id="path142" fill="none" stroke="#E63047" stroke-width="0.2826" d="M18.037,16.544l0.62,0.208l-0.62,1.857l-0.414-0.207
			L18.037,16.544z"/>
	</g>
	<g id="g144" transform="matrix(1.25,0,0,1.25,356.51863,513.43343)">
		<path id="path146" fill="#E63047" d="M20.24,17.255l-0.62-0.413l-2.066,0.826l0.62,0.207L20.24,17.255z"/>
	</g>
	<g id="g148" transform="matrix(1.25,0,0,1.25,356.51863,513.43343)">
		<path id="path150" fill="none" stroke="#E63047" stroke-width="0.2826" d="M20.24,17.255l-0.62-0.413l-2.066,0.826l0.62,0.207
			L20.24,17.255z"/>
	</g>
	<g id="g152" transform="matrix(1.25,0,0,1.25,359.50325,511.82706)">
		<path id="path154" fill="#E63047" d="M18.265,16.681l0.62,0.207l-0.413,1.859l-0.62-0.207L18.265,16.681z"/>
	</g>
	<g id="g156" transform="matrix(1.25,0,0,1.25,359.50325,511.82706)">
		<path id="path158" fill="none" stroke="#E63047" stroke-width="0.2826" d="M18.265,16.681l0.62,0.207l-0.413,1.859l-0.62-0.207
			L18.265,16.681z"/>
	</g>
	<g id="g160" transform="matrix(1.25,0,0,1.25,359.27375,514.81043)">
		<path id="path162" fill="#E63047" d="M20.516,17.185l-0.62-0.206l-2.067,0.826l0.62,0.412L20.516,17.185z"/>
	</g>
	<g id="g164" transform="matrix(1.25,0,0,1.25,359.27375,514.81043)">
		<path id="path166" fill="none" stroke="#E63047" stroke-width="0.2826" d="M20.516,17.185l-0.62-0.206l-2.067,0.826l0.62,0.412
			L20.516,17.185z"/>
	</g>
	<g id="g168" transform="matrix(1.25,0,0,1.25,362.25837,512.97443)">
		<path id="path170" fill="#E63047" d="M18.335,16.796l0.62,0.207l-0.207,2.065l-0.62-0.413L18.335,16.796z"/>
	</g>
	<g id="g172" transform="matrix(1.25,0,0,1.25,362.25837,512.97443)">
		<path id="path174" fill="none" stroke="#E63047" stroke-width="0.2826" d="M18.335,16.796l0.62,0.207l-0.207,2.065l-0.62-0.413
			L18.335,16.796z"/>
	</g>
	<g id="g176" transform="matrix(1.25,0,0,1.25,362.02887,515.95669)">
		<path id="path178" fill="#E63047" d="M20.791,17.3l-0.826-0.206l-1.859,1.032l0.826,0.207L20.791,17.3z"/>
	</g>
	<g id="g180" transform="matrix(1.25,0,0,1.25,362.02887,515.95669)">
		<path id="path182" fill="none" stroke="#E63047" stroke-width="0.2826" d="M20.791,17.3l-0.826-0.206l-1.859,1.032l0.826,0.207
			L20.791,17.3z"/>
	</g>
	<g id="g184" transform="matrix(1.25,0,0,1.25,364.784,513.89244)">
		<path id="path186" fill="#E63047" d="M18.38,16.887l0.62,0.207l0.207,2.064l-0.62-0.207L18.38,16.887z"/>
	</g>
	<g id="g188" transform="matrix(1.25,0,0,1.25,364.784,513.89244)">
		<path id="path190" fill="none" stroke="#E63047" stroke-width="0.2826" d="M18.38,16.887l0.62,0.207l0.207,2.064l-0.62-0.207
			L18.38,16.887z"/>
	</g>
	<g id="g192" transform="matrix(1.25,0,0,1.25,365.4725,516.87456)">
		<path id="path194" fill="#E63047" d="M20.928,17.185h-0.62l-1.86,1.033l0.826,0.206L20.928,17.185z"/>
	</g>
	<g id="g196" transform="matrix(1.25,0,0,1.25,365.4725,516.87456)">
		<path id="path198" fill="none" stroke="#E63047" stroke-width="0.2826" d="M20.928,17.185h-0.62l-1.86,1.033l0.826,0.206
			L20.928,17.185z"/>
	</g>
	<g id="g200" transform="matrix(1.25,0,0,1.25,367.76863,514.81043)">
		<path id="path202" fill="#E63047" d="M18.678,16.979l0.826,0.206l0.413,1.858l-0.62-0.207L18.678,16.979z"/>
	</g>
	<g id="g204" transform="matrix(1.25,0,0,1.25,367.76863,514.81043)">
		<path id="path206" fill="none" stroke="#E63047" stroke-width="0.2826" d="M18.678,16.979l0.826,0.206l0.413,1.858l-0.62-0.207
			L18.678,16.979z"/>
	</g>
	<g id="g208" transform="matrix(1.25,0,0,1.25,368.91612,517.33356)">
		<path id="path210" fill="#E63047" d="M21.065,17.231h-0.826l-1.447,1.445h0.827L21.065,17.231z"/>
	</g>
	<g id="g212" transform="matrix(1.25,0,0,1.25,368.91612,517.33356)">
		<path id="path214" fill="none" stroke="#E63047" stroke-width="0.2826" d="M21.065,17.231h-0.826l-1.447,1.445h0.827
			L21.065,17.231z"/>
	</g>
	<g id="g216" transform="matrix(1.25,0,0,1.25,370.29313,515.26943)">
		<path id="path218" fill="#E63047" d="M18.93,17.025l0.827,0.207l0.826,1.651h-0.62L18.93,17.025z"/>
	</g>
	<g id="g220" transform="matrix(1.25,0,0,1.25,370.29313,515.26943)">
		<path id="path222" fill="none" stroke="#E63047" stroke-width="0.2826" d="M18.93,17.025l0.827,0.207l0.826,1.651h-0.62
			L18.93,17.025z"/>
	</g>
	<g id="g224" transform="matrix(1.25,0,0,1.25,372.13025,517.56306)">
		<path id="path226" fill="#E63047" d="M21.18,17.254h-0.826L19.113,18.7h0.828L21.18,17.254z"/>
	</g>
	<g id="g228" transform="matrix(1.25,0,0,1.25,372.13025,517.56306)">
		<path id="path230" fill="none" stroke="#E63047" stroke-width="0.2826" d="M21.18,17.254h-0.826L19.113,18.7h0.828L21.18,17.254z"
			/>
	</g>
	<g id="g232" transform="matrix(1.25,0,0,1.25,373.27775,515.72831)">
		<path id="path234" fill="#E63047" d="M19.227,17.071h0.828l1.032,1.651h-0.826L19.227,17.071z"/>
	</g>
	<g id="g236" transform="matrix(1.25,0,0,1.25,373.27775,515.72831)">
		<path id="path238" fill="none" stroke="#E63047" stroke-width="0.2826" d="M19.227,17.071h0.828l1.032,1.651h-0.826L19.227,17.071
			z"/>
	</g>
	<g id="g240" transform="matrix(1.25,0,0,1.25,375.80338,517.56306)">
		<path id="path242" fill="#E63047" d="M21.133,17.254h-0.826l-0.827,1.652l0.827-0.207L21.133,17.254z"/>
	</g>
	<g id="g244" transform="matrix(1.25,0,0,1.25,375.80325,517.56306)">
		<path id="path246" fill="none" stroke="#E63047" stroke-width="0.2826" d="M21.133,17.254h-0.826l-0.827,1.652l0.827-0.206
			L21.133,17.254z"/>
	</g>
	<g id="g248" transform="matrix(1.25,0,0,1.25,376.2635,515.72831)">
		<path id="path250" fill="#E63047" d="M19.526,17.071h0.62l1.446,1.651h-0.827L19.526,17.071z"/>
	</g>
	<g id="g252" transform="matrix(1.25,0,0,1.25,376.2635,515.72831)">
		<path id="path254" fill="none" stroke="#E63047" stroke-width="0.2826" d="M19.526,17.071h0.62l1.446,1.651h-0.827L19.526,17.071z
			"/>
	</g>
	<g id="g256" transform="matrix(1.25,0,0,1.25,379.70675,517.10406)">
		<path id="path258" fill="#E63047" d="M21.316,17.208h-0.827l-0.619,1.652h0.619L21.316,17.208z"/>
	</g>
	<g id="g260" transform="matrix(1.25,0,0,1.25,379.70675,517.10418)">
		<path id="path262" fill="none" stroke="#E63047" stroke-width="0.2826" d="M21.316,17.208h-0.827l-0.619,1.652h0.619
			L21.316,17.208z"/>
	</g>
	<g id="g264" transform="matrix(1.25,0,0,1.25,379.70675,515.26943)">
		<path id="path266" fill="#E63047" d="M19.871,17.025h0.619l1.446,1.444l-0.62,0.207L19.871,17.025z"/>
	</g>
	<g id="g268" transform="matrix(1.25,0,0,1.25,379.70675,515.26943)">
		<path id="path270" fill="none" stroke="#E63047" stroke-width="0.2826" d="M19.871,17.025h0.619l1.446,1.444l-0.62,0.207
			L19.871,17.025z"/>
	</g>
	<g id="g272" transform="matrix(1.25,0,0,1.25,383.1505,516.41569)">
		<path id="path274" fill="#E63047" d="M21.246,17.139l-0.825,0.207l-0.207,1.652l0.827-0.207L21.246,17.139z"/>
	</g>
	<g id="g276" transform="matrix(1.25,0,0,1.25,383.1505,516.41569)">
		<path id="path278" fill="none" stroke="#E63047" stroke-width="0.2826" d="M21.246,17.139l-0.825,0.207l-0.207,1.652l0.827-0.207
			L21.246,17.139z"/>
	</g>
	<g id="g280" transform="matrix(1.25,0,0,1.25,382.46175,514.58094)">
		<path id="path282" fill="#E63047" d="M20.145,17.163l0.62-0.207l1.86,1.445l-0.828,0.207L20.145,17.163z"/>
	</g>
	<g id="g284" transform="matrix(1.25,0,0,1.25,382.46175,514.58094)">
		<path id="path286" fill="none" stroke="#E63047" stroke-width="0.2826" d="M20.145,17.163l0.62-0.207l1.86,1.445l-0.828,0.207
			L20.145,17.163z"/>
	</g>
	<g id="g288" transform="matrix(1.25,0,0,1.25,386.36425,515.26943)">
		<path id="path290" fill="#E63047" d="M21.567,17.025l-0.619,0.207l-0.414,1.651l0.827-0.207L21.567,17.025z"/>
	</g>
	<g id="g292" transform="matrix(1.25,0,0,1.25,386.36425,515.26943)">
		<path id="path294" fill="none" stroke="#E63047" stroke-width="0.2826" d="M21.567,17.025l-0.619,0.207l-0.414,1.651l0.827-0.207
			L21.567,17.025z"/>
	</g>
	<g id="g296" transform="matrix(1.25,0,0,1.25,385.4455,513.66293)">
		<path id="path298" fill="#E63047" d="M20.443,17.071l0.621-0.207l1.859,1.239l-0.621,0.207L20.443,17.071z"/>
	</g>
	<g id="g300" transform="matrix(1.25,0,0,1.25,385.4455,513.66293)">
		<path id="path302" fill="none" stroke="#E63047" stroke-width="0.2826" d="M20.443,17.071l0.621-0.207l1.859,1.239l-0.621,0.207
			L20.443,17.071z"/>
	</g>
	<g id="g304" transform="matrix(1.25,0,0,1.25,389.1205,514.12194)">
		<path id="path306" fill="#E63047" d="M21.428,16.91l-0.618,0.413v1.651l0.618-0.413V16.91z"/>
	</g>
	<g id="g308" transform="matrix(1.25,0,0,1.25,389.1205,514.12194)">
		<path id="path310" fill="none" stroke="#E63047" stroke-width="0.2826" d="M21.428,16.91l-0.618,0.413v1.651l0.618-0.413V16.91z"
			/>
	</g>
	<g id="g312" transform="matrix(1.25,0,0,1.25,387.74175,512.51544)">
		<path id="path314" fill="#E63047" d="M20.672,17.163l0.414-0.413l2.066,1.239l-0.621,0.207L20.672,17.163z"/>
	</g>
	<g id="g316" transform="matrix(1.25,0,0,1.25,387.74175,512.51544)">
		<path id="path318" fill="none" stroke="#E63047" stroke-width="0.2826" d="M20.672,17.163l0.414-0.413l2.066,1.239l-0.621,0.207
			L20.672,17.163z"/>
	</g>
	<g id="g320" transform="matrix(1.25,0,0,1.25,391.41675,512.97443)">
		<path id="path322" fill="#E63047" d="M21.658,16.796l-0.619,0.413l0.205,1.652l0.414-0.413V16.796z"/>
	</g>
	<g id="g324" transform="matrix(1.25,0,0,1.25,391.41675,512.97443)">
		<path id="path326" fill="none" stroke="#E63047" stroke-width="0.2826" d="M21.658,16.796l-0.619,0.413l0.205,1.652l0.414-0.413
			V16.796z"/>
	</g>
	<g id="g328" transform="matrix(1.25,0,0,1.25,389.808,511.59756)">
		<path id="path330" fill="#E63047" d="M20.878,16.865l0.621-0.207l1.859,1.033l-0.413,0.206L20.878,16.865z"/>
	</g>
	<g id="g332" transform="matrix(1.25,0,0,1.25,389.808,511.59756)">
		<path id="path334" fill="none" stroke="#E63047" stroke-width="0.2826" d="M20.878,16.865l0.621-0.207l1.859,1.033l-0.413,0.206
			L20.878,16.865z"/>
	</g>
	<g id="g336" transform="matrix(1.25,0,0,1.25,393.48175,511.59756)">
		<path id="path338" fill="#E63047" d="M21.658,16.658l-0.413,0.413l0.62,1.445l0.414-0.413L21.658,16.658z"/>
	</g>
	<g id="g340" transform="matrix(1.25,0,0,1.25,393.48175,511.59756)">
		<path id="path342" fill="none" stroke="#E63047" stroke-width="0.2826" d="M21.658,16.658l-0.413,0.413l0.62,1.445l0.414-0.413
			L21.658,16.658z"/>
	</g>
	<g id="g344" transform="matrix(1.25,0,0,1.25,391.8755,510.22181)">
		<path id="path346" fill="#E63047" d="M21.085,16.934l0.412-0.413l2.067,0.825l-0.414,0.413L21.085,16.934z"/>
	</g>
	<g id="g348" transform="matrix(1.25,0,0,1.25,391.8755,510.22181)">
		<path id="path350" fill="none" stroke="#E63047" stroke-width="0.2826" d="M21.085,16.934l0.412-0.413l2.067,0.825l-0.414,0.413
			L21.085,16.934z"/>
	</g>
	<g id="g352" transform="matrix(1.25,0,0,1.25,395.31925,509.99231)">
		<path id="path354" fill="#E63047" d="M22.048,16.498l-0.619,0.412l0.619,1.446l0.414-0.413L22.048,16.498z"/>
	</g>
	<g id="g356" transform="matrix(1.25,0,0,1.25,395.31925,509.99231)">
		<path id="path358" fill="none" stroke="#E63047" stroke-width="0.2826" d="M22.048,16.498l-0.619,0.412l0.619,1.446l0.414-0.413
			L22.048,16.498z"/>
	</g>
	<g id="g360" transform="matrix(1.25,0,0,1.25,393.7105,508.61531)">
		<path id="path362" fill="#E63047" d="M21.268,16.774l0.414-0.413l0.826,0.413l0.621,0.62l0.205,0.207L21.268,16.774z"/>
	</g>
	<g id="g364" transform="matrix(1.25,0,0,1.25,393.7105,508.61531)">
		<path id="path366" fill="none" stroke="#E63047" stroke-width="0.2826" d="M21.268,16.774l0.414-0.413l0.826,0.413l0.621,0.62
			l0.205,0.207L21.268,16.774z"/>
	</g>
	<g id="g368" transform="matrix(1.25,0,0,1.25,395.08925,552.89706)">
		<path id="path370" fill="#E63047" d="M21.405,21.401l0.413,0.413l2.067-0.619l-0.415-0.413L21.405,21.401z"/>
	</g>
	<g id="g372" transform="matrix(1.25,0,0,1.25,395.08925,552.89706)">
		<path id="path374" fill="none" stroke="#E63047" stroke-width="0.2826" d="M21.405,21.401l0.413,0.413l2.067-0.619l-0.415-0.413
			L21.405,21.401z"/>
	</g>
	<g id="g376" transform="matrix(1.25,0,0,1.25,393.9405,553.12706)">
		<path id="path378" fill="#E63047" d="M21.705,23.077l-0.413-0.415l0.621-1.856l0.412,0.411L21.705,23.077z"/>
	</g>
	<g id="g380" transform="matrix(1.25,0,0,1.25,393.9405,553.12706)">
		<path id="path382" fill="none" stroke="#E63047" stroke-width="0.2826" d="M21.705,23.077l-0.413-0.415l0.621-1.856l0.412,0.411
			L21.705,23.077z"/>
	</g>
	<g id="g384" transform="matrix(1.25,0,0,1.25,393.023,551.52081)">
		<path id="path386" fill="#E63047" d="M21.2,21.265l0.619,0.205l2.066-0.62l-0.413-0.205L21.2,21.265z"/>
	</g>
	<g id="g388" transform="matrix(1.25,0,0,1.25,393.023,551.52081)">
		<path id="path390" fill="none" stroke="#E63047" stroke-width="0.2826" d="M21.2,21.265l0.619,0.205l2.066-0.62l-0.413-0.205
			L21.2,21.265z"/>
	</g>
	<g id="g392" transform="matrix(1.25,0,0,1.25,391.8755,551.74956)">
		<path id="path394" fill="#E63047" d="M21.703,22.94l-0.618-0.413l0.618-1.859l0.415,0.415L21.703,22.94z"/>
	</g>
	<g id="g396" transform="matrix(1.25,0,0,1.25,391.8755,551.74956)">
		<path id="path398" fill="none" stroke="#E63047" stroke-width="0.2826" d="M21.703,22.94l-0.618-0.413l0.618-1.859l0.415,0.415
			L21.703,22.94z"/>
	</g>
	<g id="g400" transform="matrix(1.25,0,0,1.25,390.72675,549.91456)">
		<path id="path402" fill="#E63047" d="M20.97,21.311l0.621,0.205l2.064-0.826l-0.619-0.206L20.97,21.311z"/>
	</g>
	<g id="g404" transform="matrix(1.25,0,0,1.25,390.72675,549.91456)">
		<path id="path406" fill="none" stroke="#E63047" stroke-width="0.2826" d="M20.97,21.311l0.621,0.205l2.064-0.826l-0.619-0.206
			L20.97,21.311z"/>
	</g>
	<g id="g408" transform="matrix(1.25,0,0,1.25,389.57925,550.37331)">
		<path id="path410" fill="#E63047" d="M21.475,22.802l-0.62-0.206l0.413-2.065l0.62,0.413L21.475,22.802z"/>
	</g>
	<g id="g412" transform="matrix(1.25,0,0,1.25,389.57925,550.37331)">
		<path id="path414" fill="none" stroke="#E63047" stroke-width="0.2826" d="M21.475,22.802l-0.62-0.206l0.413-2.065l0.62,0.413
			L21.475,22.802z"/>
	</g>
	<g id="g416" transform="matrix(1.25,0,0,1.25,387.97175,548.53706)">
		<path id="path418" fill="#E63047" d="M20.695,21.171l0.62,0.208l2.065-0.826l-0.619-0.208L20.695,21.171z"/>
	</g>
	<g id="g420" transform="matrix(1.25,0,0,1.25,387.97175,548.53706)">
		<path id="path422" fill="none" stroke="#E63047" stroke-width="0.2826" d="M20.695,21.171l0.62,0.208l2.065-0.826l-0.619-0.208
			L20.695,21.171z"/>
	</g>
	<g id="g424" transform="matrix(1.25,0,0,1.25,387.053,549.22581)">
		<path id="path426" fill="#E63047" d="M21.223,22.48l-0.62-0.208l0.208-1.858l0.62,0.205L21.223,22.48z"/>
	</g>
	<g id="g428" transform="matrix(1.25,0,0,1.25,387.053,549.22581)">
		<path id="path430" fill="none" stroke="#E63047" stroke-width="0.2826" d="M21.223,22.48l-0.62-0.208l0.208-1.858l0.62,0.205
			L21.223,22.48z"/>
	</g>
	<g id="g432" transform="matrix(1.25,0,0,1.25,385.218,547.16206)">
		<path id="path434" fill="#E63047" d="M20.42,21.446l0.826,0.208l1.859-1.238l-0.827-0.208L20.42,21.446z"/>
	</g>
	<g id="g436" transform="matrix(1.25,0,0,1.25,385.218,547.16206)">
		<path id="path438" fill="none" stroke="#E63047" stroke-width="0.2826" d="M20.42,21.446l0.826,0.208l1.859-1.238l-0.827-0.208
			L20.42,21.446z"/>
	</g>
	<g id="g440" transform="matrix(1.25,0,0,1.25,384.528,548.30956)">
		<path id="path442" fill="#E63047" d="M21.177,22.387l-0.62-0.205l-0.205-1.858l0.62,0.204L21.177,22.387z"/>
	</g>
	<g id="g444" transform="matrix(1.25,0,0,1.25,384.528,548.30956)">
		<path id="path446" fill="none" stroke="#E63047" stroke-width="0.2826" d="M21.177,22.387l-0.62-0.205l-0.205-1.858l0.62,0.204
			L21.177,22.387z"/>
	</g>
	<g id="g448" transform="matrix(1.25,0,0,1.25,382.00175,546.24331)">
		<path id="path450" fill="#E63047" d="M20.099,21.356l0.62,0.205l1.859-1.237l-0.826-0.208L20.099,21.356z"/>
	</g>
	<g id="g452" transform="matrix(1.25,0,0,1.25,382.00175,546.24331)">
		<path id="path454" fill="none" stroke="#E63047" stroke-width="0.2826" d="M20.099,21.356l0.62,0.205l1.859-1.237l-0.826-0.208
			L20.099,21.356z"/>
	</g>
	<g id="g456" transform="matrix(1.25,0,0,1.25,381.08425,547.39081)">
		<path id="path458" fill="#E63047" d="M21.247,22.296H20.42l-0.413-2.063l0.621,0.205L21.247,22.296z"/>
	</g>
	<g id="g460" transform="matrix(1.25,0,0,1.25,381.08425,547.39081)">
		<path id="path462" fill="none" stroke="#E63047" stroke-width="0.2826" d="M21.247,22.296H20.42l-0.413-2.063l0.621,0.205
			L21.247,22.296z"/>
	</g>
	<g id="g464" transform="matrix(1.25,0,0,1.25,378.788,545.55456)">
		<path id="path466" fill="#E63047" d="M19.778,21.494h0.827l1.238-1.446h-0.62L19.778,21.494z"/>
	</g>
	<g id="g468" transform="matrix(1.25,0,0,1.25,378.788,545.55456)">
		<path id="path470" fill="none" stroke="#E63047" stroke-width="0.2826" d="M19.778,21.494h0.827l1.238-1.446h-0.62L19.778,21.494z
			"/>
	</g>
	<g id="g472" transform="matrix(1.25,0,0,1.25,378.0995,547.16206)">
		<path id="path474" fill="#E63047" d="M21.363,22.066h-0.827l-0.826-1.858h0.62L21.363,22.066z"/>
	</g>
	<g id="g476" transform="matrix(1.25,0,0,1.25,378.0995,547.16206)">
		<path id="path478" fill="none" stroke="#E63047" stroke-width="0.2826" d="M21.363,22.066h-0.827l-0.826-1.858h0.62L21.363,22.066
			z"/>
	</g>
	<g id="g480" transform="matrix(1.25,0,0,1.25,375.80338,545.32581)">
		<path id="path482" fill="#E63047" d="M19.481,21.472h0.827l1.239-1.446h-0.826L19.481,21.472z"/>
	</g>
	<g id="g484" transform="matrix(1.25,0,0,1.25,375.80325,545.32581)">
		<path id="path486" fill="none" stroke="#E63047" stroke-width="0.2826" d="M19.481,21.472h0.827l1.239-1.446h-0.826L19.481,21.472
			z"/>
	</g>
	<g id="g488" transform="matrix(1.25,0,0,1.25,374.88538,546.93206)">
		<path id="path490" fill="#E63047" d="M21.248,22.043h-0.826l-1.033-1.856h0.826L21.248,22.043z"/>
	</g>
	<g id="g492" transform="matrix(1.25,0,0,1.25,374.88538,546.93206)">
		<path id="path494" fill="none" stroke="#E63047" stroke-width="0.2826" d="M21.248,22.043h-0.826l-1.033-1.856h0.826
			L21.248,22.043z"/>
	</g>
	<g id="g496" transform="matrix(1.25,0,0,1.25,372.58925,545.32581)">
		<path id="path498" fill="#E63047" d="M19.159,21.677l0.828-0.205l0.826-1.446h-0.826L19.159,21.677z"/>
	</g>
	<g id="g500" transform="matrix(1.25,0,0,1.25,372.58925,545.32581)">
		<path id="path502" fill="none" stroke="#E63047" stroke-width="0.2826" d="M19.159,21.677l0.828-0.205l0.826-1.446h-0.826
			L19.159,21.677z"/>
	</g>
	<g id="g504" transform="matrix(1.25,0,0,1.25,371.67125,546.93206)">
		<path id="path506" fill="#E63047" d="M21.134,21.837l-0.621,0.205l-1.445-1.651l0.826-0.205L21.134,21.837z"/>
	</g>
	<g id="g508" transform="matrix(1.25,0,0,1.25,371.67125,546.93206)">
		<path id="path510" fill="none" stroke="#E63047" stroke-width="0.2826" d="M21.134,21.837l-0.621,0.205l-1.445-1.651l0.826-0.205
			L21.134,21.837z"/>
	</g>
	<g id="g512" transform="matrix(1.25,0,0,1.25,368.91612,545.55456)">
		<path id="path514" fill="#E63047" d="M18.793,21.907l0.827-0.205l0.62-1.654l-0.62,0.207L18.793,21.907z"/>
	</g>
	<g id="g516" transform="matrix(1.25,0,0,1.25,368.91612,545.55456)">
		<path id="path518" fill="none" stroke="#E63047" stroke-width="0.2826" d="M18.793,21.907l0.827-0.205l0.62-1.654l-0.62,0.207
			L18.793,21.907z"/>
	</g>
	<g id="g520" transform="matrix(1.25,0,0,1.25,368.22763,547.62081)">
		<path id="path522" fill="#E63047" d="M20.79,21.699l-0.62,0.205l-1.446-1.65h0.62L20.79,21.699z"/>
	</g>
	<g id="g524" transform="matrix(1.25,0,0,1.25,368.22763,547.62081)">
		<path id="path526" fill="none" stroke="#E63047" stroke-width="0.2826" d="M20.79,21.699l-0.62,0.205l-1.446-1.65h0.62
			L20.79,21.699z"/>
	</g>
	<g id="g528" transform="matrix(1.25,0,0,1.25,365.9315,546.24331)">
		<path id="path530" fill="#E63047" d="M18.495,21.977l0.826-0.207l0.207-1.652l-0.826,0.208L18.495,21.977z"/>
	</g>
	<g id="g532" transform="matrix(1.25,0,0,1.25,365.9315,546.24331)">
		<path id="path534" fill="none" stroke="#E63047" stroke-width="0.2826" d="M18.495,21.977l0.826-0.207l0.207-1.652l-0.826,0.208
			L18.495,21.977z"/>
	</g>
	<g id="g536" transform="matrix(1.25,0,0,1.25,365.0135,548.30956)">
		<path id="path538" fill="#E63047" d="M20.882,21.561l-0.62,0.207l-1.859-1.241l0.826-0.204L20.882,21.561z"/>
	</g>
	<g id="g540" transform="matrix(1.25,0,0,1.25,365.0135,548.30956)">
		<path id="path542" fill="none" stroke="#E63047" stroke-width="0.2826" d="M20.882,21.561l-0.62,0.207l-1.859-1.241l0.826-0.204
			L20.882,21.561z"/>
	</g>
	<g id="g544" transform="matrix(1.25,0,0,1.25,362.71738,547.16206)">
		<path id="path546" fill="#E63047" d="M18.174,22.066l0.62-0.207l0.413-1.651l-0.826,0.208L18.174,22.066z"/>
	</g>
	<g id="g548" transform="matrix(1.25,0,0,1.25,362.71738,547.16206)">
		<path id="path550" fill="none" stroke="#E63047" stroke-width="0.2826" d="M18.174,22.066l0.62-0.207l0.413-1.651l-0.826,0.208
			L18.174,22.066z"/>
	</g>
	<g id="g552" transform="matrix(1.25,0,0,1.25,362.02887,549.22581)">
		<path id="path554" fill="#E63047" d="M20.584,21.654l-0.62,0.413l-1.859-1.239l0.62-0.413L20.584,21.654z"/>
	</g>
	<g id="g556" transform="matrix(1.25,0,0,1.25,362.02887,549.22581)">
		<path id="path558" fill="none" stroke="#E63047" stroke-width="0.2826" d="M20.584,21.654l-0.62,0.413l-1.859-1.239l0.62-0.413
			L20.584,21.654z"/>
	</g>
	<g id="g560" transform="matrix(1.25,0,0,1.25,360.42125,548.30956)">
		<path id="path562" fill="#E63047" d="M17.944,22.181l0.621-0.413v-1.445l-0.621,0.204V22.181z"/>
	</g>
	<g id="g564" transform="matrix(1.25,0,0,1.25,360.42125,548.30956)">
		<path id="path566" fill="none" stroke="#E63047" stroke-width="0.2826" d="M17.944,22.181l0.621-0.413v-1.445l-0.621,0.204V22.181
			z"/>
	</g>
	<g id="g568" transform="matrix(1.25,0,0,1.25,359.73275,550.37331)">
		<path id="path570" fill="#E63047" d="M20.355,21.768l-0.413,0.207l-2.067-1.239l0.62-0.205L20.355,21.768z"/>
	</g>
	<g id="g572" transform="matrix(1.25,0,0,1.25,359.73275,550.37331)">
		<path id="path574" fill="none" stroke="#E63047" stroke-width="0.2826" d="M20.355,21.768l-0.413,0.207l-2.067-1.239l0.62-0.205
			L20.355,21.768z"/>
	</g>
	<g id="g576" transform="matrix(1.25,0,0,1.25,358.12637,549.45456)">
		<path id="path578" fill="#E63047" d="M17.715,22.297l0.62-0.208l-0.206-1.652l-0.413,0.208V22.297z"/>
	</g>
	<g id="g580" transform="matrix(1.25,0,0,1.25,358.12637,549.45456)">
		<path id="path582" fill="none" stroke="#E63047" stroke-width="0.2826" d="M17.715,22.297l0.62-0.208l-0.206-1.652l-0.413,0.208
			V22.297z"/>
	</g>
	<g id="g584" transform="matrix(1.25,0,0,1.25,357.66738,551.52081)">
		<path id="path586" fill="#E63047" d="M20.147,21.677l-0.62,0.413l-1.859-1.034l0.413-0.413L20.147,21.677z"/>
	</g>
	<g id="g588" transform="matrix(1.25,0,0,1.25,357.66738,551.52081)">
		<path id="path590" fill="none" stroke="#E63047" stroke-width="0.2826" d="M20.147,21.677l-0.62,0.413l-1.859-1.034l0.413-0.413
			L20.147,21.677z"/>
	</g>
	<g id="g592" transform="matrix(1.25,0,0,1.25,355.60075,550.83206)">
		<path id="path594" fill="#E63047" d="M18.082,22.435l0.413-0.206l-0.62-1.652l-0.413,0.411L18.082,22.435z"/>
	</g>
	<g id="g596" transform="matrix(1.25,0,0,1.25,355.60075,550.83206)">
		<path id="path598" fill="none" stroke="#E63047" stroke-width="0.2826" d="M18.082,22.435l0.413-0.206l-0.62-1.652l-0.413,0.411
			L18.082,22.435z"/>
	</g>
	<g id="g600" transform="matrix(1.25,0,0,1.25,355.60075,553.12706)">
		<path id="path602" fill="#E63047" d="M19.942,21.424l-0.414,0.413l-2.065-0.827l0.413-0.205L19.942,21.424z"/>
	</g>
	<g id="g604" transform="matrix(1.25,0,0,1.25,355.60075,553.12706)">
		<path id="path606" fill="none" stroke="#E63047" stroke-width="0.2826" d="M19.942,21.424l-0.414,0.413l-2.065-0.827l0.413-0.205
			L19.942,21.424z"/>
	</g>
	<g id="g608" transform="matrix(1.25,0,0,1.25,353.7635,552.43831)">
		<path id="path610" fill="#E63047" d="M17.693,22.594l0.62-0.413l-0.62-1.445L17.28,21.15L17.693,22.594z"/>
	</g>
	<g id="g612" transform="matrix(1.25,0,0,1.25,353.7635,552.43831)">
		<path id="path614" fill="none" stroke="#E63047" stroke-width="0.2826" d="M17.693,22.594l0.62-0.413l-0.62-1.445L17.28,21.15
			L17.693,22.594z"/>
	</g>
	<g id="g616" transform="matrix(1.25,0,0,1.25,354.2225,554.50331)">
		<path id="path618" fill="#E63047" d="M19.392,21.768l-0.413,0.413l-0.826-0.413l-0.621-0.413l-0.206-0.413L19.392,21.768z"/>
	</g>
	<g id="g620" transform="matrix(1.25,0,0,1.25,354.2225,554.50331)">
		<path id="path622" fill="none" stroke="#E63047" stroke-width="0.2826" d="M19.392,21.768l-0.413,0.413l-0.826-0.413l-0.621-0.413
			l-0.206-0.413L19.392,21.768z"/>
	</g>
	<g id="g624" transform="matrix(1.25,0,0,1.25,344.80975,501.27281)">
		<path id="path626" fill="none" stroke="#006F61" stroke-width="1.0988" d="M43.656,15.627c-15.082,0-27.271,12.595-27.271,27.872
			c0,15.484,12.189,27.873,27.271,27.873c15.082,0,27.27-12.389,27.27-27.873C70.926,28.222,58.738,15.627,43.656,15.627z"/>
	</g>
	<g id="g628" transform="matrix(1.25,0,0,1.25,364.784,471.44618)">
		<path id="path630" fill="#BCCCD3" d="M27.677,67.36c-1.033-0.62-7.024-6.812-9.297-9.084c0.413-4.749,8.884-45.627,9.297-45.627
			c0.206,0,8.676,40.879,9.091,45.627C34.701,60.548,28.503,66.741,27.677,67.36z"/>
	</g>
	<g id="g632" transform="matrix(1.25,0,0,1.25,364.784,471.44618)">
		<path id="path634" fill="#006F61" d="M27.677,67.36c-1.033-0.62-7.024-6.812-9.297-9.084c0.413-4.749,8.884-45.627,9.297-45.627
			V67.36z"/>
	</g>
	<g id="g636" transform="matrix(1.25,0,0,1.25,364.784,532.24694)">
		<path id="path638" fill="#BCCCD3" d="M27.677,18.72c-1.033,0.827-7.024,6.815-9.297,9.085c0.413,4.748,8.884,45.627,9.297,45.627
			c0.206,0.208,8.676-40.878,9.091-45.627C34.701,25.535,28.503,19.546,27.677,18.72z"/>
	</g>
	<g id="g640" transform="matrix(1.25,0,0,1.25,375.11488,532.24694)">
		<path id="path642" fill="#006F61" d="M19.412,18.72c0.827,0.827,7.024,6.815,9.091,9.085c-0.415,4.748-8.884,45.627-9.091,45.627
			V18.72z"/>
	</g>
	<g id="g644" transform="matrix(1.25,0,0,1.25,287.184,521.92219)">
		<path id="path646" fill="#BCCCD3" d="M89.757,26.98c-0.826,0.827-6.818,7.227-9.09,9.293c-4.546-0.413-69.829-9.085-69.829-9.293
			c-0.206-0.412,65.283-8.877,69.829-9.291C82.939,19.754,88.931,26.155,89.757,26.98z"/>
	</g>
	<g id="g648" transform="matrix(1.25,0,0,1.25,287.4135,532.24694)">
		<path id="path650" fill="#006F61" d="M89.573,18.72c-0.826,0.827-6.818,7.227-9.09,9.293c-4.546-0.413-69.829-9.085-69.829-9.293
			H89.573z"/>
	</g>
	<g id="g652" transform="matrix(1.25,0,0,1.25,375.11488,521.92219)">
		<path id="path654" fill="#BCCCD3" d="M19.412,26.98c0.62,0.827,6.611,7.227,8.882,9.293c4.546-0.413,70.242-9.085,70.242-9.293
			c0.206-0.412-65.696-8.877-70.242-9.291C26.023,19.754,20.032,26.155,19.412,26.98z"/>
	</g>
	<g id="g656" transform="matrix(1.25,0,0,1.25,375.11488,521.92219)">
		<path id="path658" fill="#006F61" d="M19.412,26.98c0.62-0.825,6.611-7.225,8.882-9.291c4.546,0.413,70.242,8.879,70.242,9.086
			L19.412,26.98z"/>
	</g>
	<g id="g660" transform="matrix(1.25,0,0,1.25,445.82675,616.91081)">
		<path id="path662" fill="#004565" d="M31.223,28.411h-1.859v4.956h-1.238v-4.956h-1.653v-1.238h4.751V28.411z M39.281,33.368
			h-1.032v-4.956h-0.207l-1.653,4.956H35.15l-1.654-4.956v4.956h-1.241v-6.194h2.066l1.447,4.128l1.446-4.128h2.066V33.368z"/>
	</g>
	<g id="g668" transform="matrix(1.25,0,0,1.25,276.85313,432.21156)">
		<path id="path670" fill="none" stroke="#BCCCD3" stroke-width="4.9365" d="M98.021,188.972c48.549,0,88.213-40.467,88.213-90.224
			c0-49.756-39.664-90.016-88.213-90.016C49.265,8.732,9.6,48.992,9.6,98.748C9.6,148.505,49.265,188.972,98.021,188.972z
			 M98.021,180.507c44.004,0,79.95-36.545,79.95-81.759S142.025,16.99,98.021,16.99c-44.211,0-80.158,36.544-80.158,81.758
			S53.811,180.507,98.021,180.507z"/>
	</g>
</g>
</svg>
