<?xml version="1.0" encoding="utf-8"?>
<!-- Generator: Adobe Illustrator 16.0.4, SVG Export Plug-In . SVG Version: 6.00 Build 0)  -->
<!DOCTYPE svg PUBLIC "-//W3C//DTD SVG 1.1//EN" "http://www.w3.org/Graphics/SVG/1.1/DTD/svg11.dtd">
<svg version="1.1" id="Layer_1" xmlns="http://www.w3.org/2000/svg" xmlns:xlink="http://www.w3.org/1999/xlink" x="0px" y="0px"
	 width="250px" height="250px" viewBox="0 0 250 250" enable-background="new 0 0 250 250" xml:space="preserve">
<g>
	<path fill="#8A8D8F" d="M159.453,140.688l20.803,53.3h40.722L164.353,52.429l-36.208,66.495l-30.304-56.19l-3.91-7.254l-1.887-3.51
		l-2.529,6.332l-3.935,9.833c-4.521,3.408-8.364,6.691-11.782,9.965c-15.552,14.915-16.957,26-12.808,33.793
		c0.631,1.064,1.375,2.084,2.208,3.062c3.068,3.593,7.327,6.54,11.368,8.467c0.103,0.046,0.197,0.093,0.301,0.134
		c0.214,0.105,0.436,0.205,0.653,0.301c0.275,0.12,0.799,0.346,1.161,0.502c0.17,0.073,0.315,0.13,0.365,0.152
		c0.006,0,0.017,0,0.035,0.008c-0.404-0.173-0.956-0.445-1.35-0.648l-0.003,0.001v0.001c-0.299-0.151-0.585-0.317-0.886-0.478
		c-0.145-0.084-0.299-0.168-0.449-0.255c-0.027-0.018-0.057-0.035-0.092-0.05c-0.26-0.158-0.523-0.319-0.781-0.478
		c-0.189-0.122-0.378-0.244-0.565-0.369c-0.09-0.056-0.182-0.118-0.275-0.184c-0.12-0.083-0.251-0.163-0.366-0.243
		c-1.122-0.779-1.988-1.541-2.515-2.019c-0.153-0.136-0.344-0.325-0.515-0.489l19.808-50.577l1.712-4.369l1.232-3.144l0.009,0.004
		l0.903,1.673l1.226,2.271l34.024,62.961l36.155-66.906l50.253,128.369h-31.307l-23.17-59.302L128.2,189.396l-31.939-59.106
		l-0.03,0.064l-0.274,0.713v-0.01l-22.899,58.536H41.765l25.684-65.607c0.079,0.02,0.166,0.03,0.249,0.043
		c-1.223-0.219-2.37-0.465-3.366-0.701c-0.009,0-0.018,0-0.029,0c0.012,0,0.021,0.007,0.024,0.012
		c-0.037-0.012-0.312-0.043-0.761-0.112c0,0,0,0-0.01,0l-28.264,70.76h40.693l20.862-53.3l31.287,57.345L159.453,140.688z
		 M66.354,116.251c-1.289-1.586-2.23-3.065-2.882-4.227c-0.823-1.478-1.181-2.444-1.181-2.444c-0.292-0.972-0.544-2.094-0.723-3.384
		c-1.5-10.933,8.709-22.798,22.158-33.411L66.354,116.251z"/>
	<path fill="#8A8D8F" d="M122.76,35.444C152.405,21.393,172.543,11.001,172.547,11l-7.414,2.835
		c-0.731,0.339-16.381,7.477-19.129,8.683c-16.224,7.124-37.994,16.763-47.032,21.376c-1.805,0.918-4.729,2.515-7.968,4.407
		c-30.833,19.37-53.44,41.064-41.952,66C35.888,99.027,47.429,76.599,61.344,61.1c9.294-10.371,13.691-14.657,18.431-22.357
		c3.718-6.029,6.106-12.361,5.896-18.732c0.242,0.112-4.961-2.515-4.961-2.515c0.63,2.045-0.72,14.471-8.729,25.417
		c-8.765,11.956-39.004,38.381-29.834,63.27c5.083,13.779,18.133,16.527,21.417,17.046c0.252,0.018,0.498,0.085,0.736,0.101
		C35.843,108.662,43.293,72.308,122.76,35.444z"/>
	<path fill="#8A8D8F" d="M97.842,62.733c14.238-9.262,28.862-16.639,36.107-20.125l-2.858-1.349
		c-12.614,6.321-22.708,11.897-31.014,17.037c-1.185,0.734-2.335,1.46-3.451,2.179L97.842,62.733z"/>
	<path fill="#2177BD" d="M100.078,58.297c8.306-5.139,18.399-10.716,31.009-17.037l-4.334-2.033l-2.05-0.968
		c-8.438,4.219-20.306,10.697-30.771,17.221l2.695,4.997C97.743,59.756,98.893,59.031,100.078,58.297z"/>
	<path fill="#2177BD" d="M76.681,124.359c-0.362-0.154-0.886-0.382-1.161-0.502c-0.216-0.096-0.438-0.196-0.653-0.301
		c-0.105-0.041-0.199-0.088-0.3-0.134c-4.042-1.929-8.298-4.875-11.368-8.467c-0.831-0.977-1.576-1.998-2.208-3.062
		c-4.148-7.793-2.744-18.878,12.808-33.793c3.418-3.275,7.261-6.557,11.782-9.965l3.935-9.833c-1.399,0.91-2.763,1.821-4.06,2.714
		c-39.543,27.203-36.531,45.537-25.34,54.928c1.959,1.675,4.206,3.229,6.467,4.322c3.111,1.504,6.063,2.905,9.211,3.886
		c0.362,0.108,0.72,0.197,1.078,0.32c0.032,0.002,0.123,0.032,0.186,0.055l0.005-0.002C77.021,124.503,76.87,124.437,76.681,124.359
		z"/>
	<path fill="#F26822" d="M61.344,61.1c-13.915,15.5-25.456,37.927-12.292,53.203c-11.486-24.936,11.119-46.63,41.952-66
		c3.239-1.892,6.165-3.489,7.968-4.407c9.038-4.614,30.809-14.252,47.032-21.376c2.748-1.206,18.397-8.344,19.129-8.683
		c0.017-0.007,0.032-0.015,0.032-0.015s-32.999,12.538-39.564,15.106c-0.089,0.031,0,0-0.029,0.009
		c-3.119,0.765-7.527,1.55-10.675,1.428c-2.5-0.073-6.742-0.598-11.555-2.619c-1.443-0.609-9.864-4.083-16.956-7.401
		c-0.237-0.111-0.474-0.221-0.715-0.333c0.209,6.371-2.178,12.703-5.896,18.732C75.034,46.441,70.638,50.729,61.344,61.1z"/>
	<polygon fill="#FFD107" points="92.36,66.418 93.112,78.87 93.243,80.951 93.243,80.945 126.935,142.778 128.25,145.24 
		129.584,142.778 163.063,81.064 163.065,81.08 164.353,61.226 128.197,128.132 94.172,65.17 92.946,62.899 92.044,61.226 
		92.175,63.42 	"/>
	<polygon fill="#2177BD" points="54.202,180.718 54.199,180.721 66.659,180.718 	"/>
	<polygon fill="#2177BD" points="129.588,166.798 128.191,169.378 126.802,166.804 128.191,169.382 	"/>
	<polygon fill="#2177BD" points="203.017,182.885 203.084,183.049 187.748,183.049 161.08,114.853 128.197,175.691 95.314,114.853 
		68.612,183.111 53.27,183.111 53.584,182.301 53.267,183.111 41.765,189.595 73.058,189.595 95.957,131.059 96.231,130.357 
		96.26,130.293 128.2,189.398 160.129,130.293 183.298,189.595 214.604,189.595 203.084,183.049 	"/>
	<polygon fill="#2177BD" points="180.096,124.523 201.549,179.252 202.049,180.538 203.017,182.885 	"/>
	<polygon fill="#8A8D8F" points="68.612,183.111 95.314,114.853 128.197,175.691 161.08,114.853 187.748,183.049 203.084,183.049 
		203.017,182.885 202.049,180.538 202.049,180.538 189.744,180.538 161.438,107.904 129.588,166.798 128.191,169.382 
		126.802,166.804 95.047,108.07 66.659,180.718 54.199,180.721 53.584,182.301 53.27,183.111 	"/>
	<path fill="#F26822" d="M93.112,78.87L92.35,66.422l-0.181-2.999l-0.133-2.203l-1.233,3.144l-1.711,4.369l-19.808,50.577
		c0.17,0.164,0.361,0.353,0.514,0.489c0.528,0.478,1.395,1.239,2.516,2.018c0.108,0.079,0.234,0.158,0.353,0.234
		c0.02,0.016,0.047,0.033,0.072,0.045c0.066,0.049,0.14,0.098,0.215,0.146c0.187,0.125,0.376,0.247,0.566,0.369
		c0.257,0.158,0.521,0.32,0.781,0.478c0.034,0.015,0.063,0.033,0.091,0.05c0.123,0.071,0.246,0.138,0.368,0.207
		c0.082,0.048,0.166,0.088,0.247,0.134c0.239,0.133,0.475,0.265,0.721,0.391L93.241,80.95L93.112,78.87z"/>
	<path fill="#F26822" d="M41.765,189.595l11.502-6.483l0.317-0.811l0.615-1.58l0.003-0.002h-0.003l0.016-0.023l21.196-56.04
		c0.006,0,0.01-0.006,0.01-0.006c-0.192,0.009-0.386,0.018-0.578,0.02c-0.153,0.005-0.299,0.005-0.452,0.005
		c-2.324-0.012-4.626-0.319-6.693-0.645c-0.083-0.013-0.169-0.023-0.249-0.043L41.765,189.595z"/>
	<polygon fill="#F26822" points="180.096,124.523 203.017,182.885 203.084,183.049 214.604,189.595 164.353,61.226 163.065,81.08 	
		"/>
	<path fill="#010101" d="M54.214,180.693l-0.016,0.024h0.003h12.459l28.388-72.649l31.754,58.735l1.39,2.573l1.397-2.579
		l31.849-58.895l28.306,72.633h12.306l0,0l-0.501-1.284l-21.452-54.729L163.067,81.08l-0.004-0.016l-33.478,61.714l-1.335,2.462
		l-1.315-2.462L93.243,80.945v0.006l-17.514,42.921l0.003-0.001c0.395,0.203,0.946,0.474,1.35,0.647
		c-0.019-0.006-0.029-0.008-0.035-0.006c-0.05-0.022-0.194-0.082-0.365-0.153c0.189,0.079,0.34,0.146,0.382,0.165l-0.004,0.002
		h-0.001c-0.108,0-1.074,0.1-1.637,0.123c0,0-0.004,0.006-0.01,0.006L54.214,180.693z"/>
	<rect x="83.709" y="207.738" fill="#010101" width="5.697" height="28.537"/>
	<polygon fill="#010101" points="179.247,222.419 178.551,223.705 177.846,222.419 169.689,207.319 158.248,236.5 164.322,236.5 
		169.889,222.292 170.507,220.705 171.322,222.203 178.551,235.577 185.776,222.203 186.592,220.705 187.215,222.292 192.763,236.5 
		198.825,236.5 187.402,207.319 	"/>
	<path fill="#010101" d="M123.919,207.738l-11.472,28.537h6.085l2.706-6.654h11.263l2.719,6.654h6.076l-11.465-28.537H123.919z
		 M123.539,223.914l3.48-7.976l3.188,7.976H123.539z"/>
	<rect x="220.613" y="207.123" fill="#010101" width="5.702" height="29.165"/>
	<polygon fill="#010101" points="41.777,222.419 41.09,223.705 40.387,222.419 32.225,207.319 20.793,236.5 26.858,236.5 
		32.414,222.292 33.043,220.705 33.853,222.203 41.09,235.577 48.309,222.203 49.121,220.705 49.74,222.292 55.292,236.5 
		61.356,236.5 49.939,207.319 	"/>
</g>
</svg>
