<?xml version="1.0" encoding="utf-8"?>
<!-- Generator: Adobe Illustrator 16.0.4, SVG Export Plug-In . SVG Version: 6.00 Build 0)  -->
<!DOCTYPE svg PUBLIC "-//W3C//DTD SVG 1.1//EN" "http://www.w3.org/Graphics/SVG/1.1/DTD/svg11.dtd">
<svg version="1.1" id="Layer_1" xmlns="http://www.w3.org/2000/svg" xmlns:xlink="http://www.w3.org/1999/xlink" x="0px" y="0px"
	 width="250px" height="250px" viewBox="0 0 250 250" enable-background="new 0 0 250 250" xml:space="preserve">
<g>
	<path fill="#FFFFFF" d="M211.845,65.653v-8.559c0-4.104-2.029-7.936-5.58-10.508c-7.987-5.798-25.728-5.662-44.151,0.341
		c-9.497,3.088-22.195,6.634-36.368,6.605c-14.165,0.029-26.862-3.516-36.352-6.605c-18.423-6.003-36.172-6.139-44.16-0.341
		c-3.549,2.572-5.581,6.404-5.581,10.508v8.559H11v87.239l10.231,10.235h40.115c7.663,28.381,33.628,49.326,64.408,49.326
		c30.77,0,56.745-20.945,64.408-49.326h40.099l10.239-10.235V65.653"/>
	<path fill="#B99E66" d="M208.979,68.517V57.09c0-3.17-1.605-6.156-4.403-8.187c-7.159-5.201-24.259-4.889-41.581,0.747
		c-9.694,3.161-22.691,6.775-37.231,6.745c-14.564,0.03-27.562-3.584-37.255-6.745c-17.323-5.641-34.424-5.948-41.591-0.747
		c-2.791,2.031-4.396,5.017-4.396,8.191v11.422H13.868v83.189l8.55,8.555h36.044c0,0,0-5.273,0-6.98
		c1.237-0.521,2.475-1.028,3.729-1.515c3.047,32.388,30.378,57.825,63.564,57.825c33.177,0,60.519-25.438,63.555-57.825
		c1.254,0.486,2.491,0.994,3.722,1.511c0,1.711,0,6.984,0,6.984h36.043l8.567-8.555V68.517"/>
	<path fill="#FFFFFF" d="M144.339,142.15l-0.605,0.276l-0.103,1.698l-3.387-2.309c-4.754-0.341-9.582-0.524-14.499-0.524
		c-4.54,0-9.011,0.161-13.423,0.452l0.085,0.541l-1.152-0.469c-1.229,0.085-2.44,0.183-3.652,0.295l-3.405,2.496l-0.154-1.689
		l0.708-0.521c-2.85,0.303-5.674,0.653-8.447,1.074c0.461,5.898,2.305,11.41,5.18,16.228l0.341-1.016l4.301-0.952l0.443-1.635
		l3.609,3.751l-0.444,1.644l-3.071-3.196l-0.29,0.884l-4.59,1.007c0.393,0.64,0.811,1.263,1.246,1.877l1.613-0.184l0.614-1.581
		l3.201,4.107l-0.615,1.583l-2.723-3.493l-0.383,0.835l-0.708,0.085c6.853,8.833,17.553,14.528,29.593,14.528
		c6.919,0,13.388-1.877,18.951-5.149l-4.625,0.61l-1.05-1.331l4.395-0.577l-0.538-0.756l2.108-4.758l0.98,1.392l-1.784,4.026
		l0.914,1.149c0.47-0.278,0.93-0.573,1.382-0.871l0.769-2.372l0.981,1.127c2.645-1.987,5.018-4.317,7.047-6.93
		c2.63-5.332,4.114-11.361,4.114-17.744c0-0.691-0.017-1.377-0.053-2.057c0.036,0.671,0.053,1.335,0.053,2.011
		C159.947,144.091,152.274,142.892,144.339,142.15 M111.154,156.817l-3.388-2.858l-0.205,0.908l-4.933,1.644l0.367-1.659
		l4.182-1.392l0.273-1.673l3.977,3.354L111.154,156.817z M112.076,152.032l-3.662-2.492l-0.102,0.913l-4.744,2.15l0.188-1.687
		l4.019-1.816l0.094-1.698l4.301,2.931L112.076,152.032z M108.594,145.072l-0.009,0.925l-4.497,2.629l0.024-1.698l3.797-2.227
		l-0.076-1.693l4.582,2.461l0.076,1.698L108.594,145.072z M139.007,144.354l3.897,2.099l0.011-0.922l4.496-2.632l-0.025,1.698
		l-3.798,2.228l0.077,1.692l-4.582-2.464L139.007,144.354z M139.092,149.236l4.095,1.681l-0.084-0.921l4.197-3.081l0.154,1.693
		l-3.55,2.604l0.256,1.678l-4.812-1.975L139.092,149.236z M139.679,154.083l4.251,1.241l-0.18-0.903l3.855-3.504l0.325,1.664
		l-3.259,2.966l0.435,1.643l-5-1.463L139.679,154.083z M140.772,158.842l4.36,0.792l-0.28-0.888l3.472-3.873l0.504,1.621
		l-2.936,3.285l0.598,1.586l-5.12-0.938L140.772,158.842z M142.352,163.453l4.419,0.34l-0.366-0.848l3.047-4.222l0.674,1.562
		l-2.577,3.567l0.752,1.524l-5.189-0.406L142.352,163.453z M149.613,167.739l0.896,1.431l-5.197,0.144l-0.913-1.434l4.429-0.119
		l-0.452-0.811l2.594-4.51l0.827,1.485L149.613,167.739z"/>
	<path fill="#AB9F95" d="M97.389,174.498l-1.962-0.396c1.272,1.365,2.636,2.646,4.087,3.826l-1.502-4.121"/>
	<path fill="#AB9F95" d="M149.817,175.983l4.311-1.033l-0.606-0.699l0.836-2.573c-0.452,0.3-0.912,0.595-1.383,0.871l0.137,0.176
		l-0.537,0.068c-5.562,3.272-12.032,5.149-18.952,5.149c-12.041,0-22.741-5.695-29.592-14.528l-4.463,0.509l0.708-1.545l2.757-0.315
		c-0.436-0.614-0.854-1.237-1.247-1.877l-0.495,0.111l0.197-0.598c-2.875-4.817-4.719-10.33-5.18-16.227
		c2.773-0.422,5.598-0.772,8.447-1.076l2.842-2.086l-0.256-1.678l4.813,1.977l0.171,1.135c4.412-0.291,8.883-0.452,13.423-0.452
		c4.915,0,9.745,0.182,14.499,0.524l-0.913-0.622l0.094-1.698l3.67,2.495l0.102-0.921l4.736-2.146l-0.188,1.686l-3.405,1.54
		c7.937,0.741,15.608,1.94,22.93,3.562c0-0.675-0.017-1.339-0.052-2.011c-0.025-0.559-0.076-1.113-0.128-1.664
		c0-0.067-0.009-0.137-0.009-0.2c-0.009-0.067-0.009-0.14-0.019-0.205c-7.27-1.595-14.873-2.785-22.74-3.515l-0.265,1.624
		l-2.175-1.838c-5.273-0.423-10.658-0.646-16.137-0.646c-6.528,0-12.936,0.315-19.182,0.913l-2.671,2.432l-0.324-1.663l0.554-0.512
		c-6.783,0.742-13.363,1.816-19.686,3.204c-0.128,1.357-0.196,2.74-0.196,4.126c0,10.091,3.602,19.345,9.583,26.534l3.926,0.79
		l1.066-1.319l1.784,4.885l-1.058,1.305c7.16,5.82,16.272,9.314,26.214,9.314c10.692,0,20.429-4.042,27.783-10.68l-2.526,0.606
		 M102.715,174.272l-1.946-3.982l-0.555,0.744l-5.171-0.487l1.007-1.375l4.386,0.419l0.922-1.42l2.286,4.677L102.715,174.272z
		 M105.497,170.258l-2.346-3.75l-0.47,0.792l-5.205,0.053l0.862-1.468l4.402-0.038l0.768-1.512l2.756,4.413L105.497,170.258z"/>
	<path fill="#AB9F95" d="M108.398,141.526l-0.794,0.585c1.212-0.112,2.423-0.211,3.652-0.296l-2.944-1.208"/>
	<path fill="#AB9F95" d="M163.505,163.06c-0.119,0.149-0.23,0.3-0.35,0.443c-2.03,2.612-4.403,4.942-7.048,6.93l0.136,0.153
		l-1.365,4.189l0.281,0.283C158.599,171.602,161.44,167.553,163.505,163.06"/>
	<path fill="#CD1141" d="M98.815,171.764l-1.066,1.319l-3.926-0.79c0.291,0.342,0.581,0.683,0.879,1.012
		c0.239,0.269,0.478,0.532,0.725,0.793v0.005l1.962,0.396l0.623-0.69l1.502,4.121c0.009,0.01,0.018,0.014,0.026,0.021v0.004
		l1.058-1.306"/>
	<polyline fill="#CD1141" points="100.436,169.592 96.05,169.174 95.044,170.548 100.214,171.034 100.769,170.29 102.715,174.272 
		103.644,172.848 101.358,168.173 	"/>
	<polyline fill="#CD1141" points="102.741,165.847 98.337,165.885 97.476,167.353 102.681,167.3 103.15,166.508 105.497,170.258 
		106.265,168.748 103.509,164.335 	"/>
	<polyline fill="#CD1141" points="105.121,162.493 107.843,165.985 108.458,164.403 105.257,160.296 104.644,161.878 
		103.031,162.062 100.273,162.377 99.566,163.922 104.029,163.414 104.737,163.328 	"/>
	<polyline fill="#CD1141" points="106.665,158.294 109.737,161.49 110.181,159.847 106.571,156.098 106.128,157.732 
		101.827,158.683 101.486,159.698 101.289,160.296 101.785,160.185 106.375,159.178 	"/>
	<polyline fill="#CD1141" points="107.178,153.46 102.996,154.852 102.629,156.511 107.561,154.867 107.766,153.959 
		111.154,156.817 111.427,155.142 107.45,151.787 	"/>
	<polyline fill="#CD1141" points="107.775,149.1 103.756,150.917 103.568,152.603 108.313,150.452 108.415,149.539 112.076,152.032 
		112.169,150.332 107.869,147.401 	"/>
	<polyline fill="#CD1141" points="107.835,143.007 107.911,144.701 104.114,146.928 104.089,148.626 108.585,145.997 
		108.594,145.072 112.494,147.167 112.417,145.469 	"/>
	<polyline fill="#CD1141" points="104.199,144.607 107.604,142.111 108.398,141.526 108.313,140.609 111.256,141.816 
		112.408,142.285 112.323,141.744 112.152,140.609 107.34,138.633 107.596,140.311 104.753,142.396 104.046,142.918 	"/>
	<path fill="#CD1141" d="M103.892,140.604l2.671-2.432c-0.018,0.006-0.026,0.006-0.043,0.01c-0.803,0.076-1.595,0.152-2.398,0.242
		v0.005l-0.554,0.512"/>
	<path fill="#CD1141" d="M144.322,138.118c-0.811-0.078-1.63-0.149-2.44-0.214l2.175,1.838"/>
	<polyline fill="#CD1141" points="143.733,142.427 144.339,142.15 147.745,140.609 147.933,138.925 143.196,141.07 143.095,141.991 
		139.424,139.495 139.331,141.194 140.244,141.816 143.631,144.125 	"/>
	<polyline fill="#CD1141" points="143.588,146.826 147.386,144.599 147.411,142.9 142.915,145.532 142.904,146.455 139.007,144.354 
		139.083,146.054 143.665,148.519 	"/>
	<polyline fill="#CD1141" points="143.904,151.211 147.454,148.608 147.3,146.915 143.103,149.996 143.187,150.917 139.092,149.236 
		139.349,150.913 144.16,152.889 	"/>
	<polyline fill="#CD1141" points="144.672,155.545 147.933,152.581 147.607,150.917 143.751,154.421 143.93,155.324 
		139.679,154.083 140.106,155.726 145.107,157.188 	"/>
	<polyline fill="#CD1141" points="145.893,159.779 148.828,156.494 148.324,154.873 144.853,158.746 145.133,159.634 
		140.772,158.842 141.37,160.427 146.488,161.365 	"/>
	<polyline fill="#CD1141" points="147.548,163.854 150.125,160.285 149.451,158.726 146.404,162.945 146.771,163.793 
		142.352,163.453 143.11,164.972 148.3,165.377 	"/>
	<polyline fill="#CD1141" points="148.376,166.951 148.828,167.762 144.399,167.881 145.312,169.314 150.51,169.17 149.613,167.739 
		151.797,163.926 150.97,162.44 	"/>
	<polyline fill="#CD1141" points="153.846,167.373 152.863,165.981 150.756,170.739 151.294,171.495 146.899,172.072 
		147.949,173.402 152.574,172.793 153.111,172.724 152.975,172.549 152.062,171.399 	"/>
	<path fill="#CD1141" d="M156.243,170.586l-0.136-0.153l-0.98-1.127l-0.77,2.372l-0.836,2.572l0.606,0.7l-4.311,1.031l1.194,1.213
		l2.527-0.606h0.008c0.035-0.029,0.068-0.068,0.103-0.093c0.521-0.471,1.016-0.943,1.51-1.435v-0.005l-0.281-0.282"/>
	<path fill="#00285D" d="M205.642,71.861V57.09c0-1.228-0.4-3.57-3.029-5.478c-6.255-4.544-22.476-4.028-38.578,1.22
		c-9.94,3.234-23.262,6.942-38.28,6.908c-15.019,0.035-28.355-3.673-38.289-6.908c-16.102-5.248-32.333-5.764-38.587-1.22
		c-2.62,1.908-3.021,4.25-3.021,5.482V71.86H17.203v78.463l6.605,6.596h31.317v-5.858c3.251-1.435,6.639-2.773,10.146-4.006
		c0.691,32.811,27.503,59.194,60.483,59.194c32.972,0,59.793-26.385,60.476-59.194c3.507,1.232,6.895,2.571,10.145,4.006v5.858
		h31.317l6.604-6.596V71.861 M155.159,175.062c-0.52,0.521-1.058,1.028-1.612,1.527c-7.355,6.638-17.101,10.68-27.793,10.68
		c-9.941,0-19.054-3.494-26.214-9.314c-0.008-0.013-0.017-0.017-0.026-0.024c-1.451-1.182-2.816-2.461-4.087-3.828
		c-0.546-0.589-1.083-1.19-1.604-1.81c-5.981-7.189-9.583-16.442-9.583-26.533c0-1.386,0.068-2.77,0.196-4.125
		c6.323-1.388,12.903-2.468,19.686-3.209c0.819-0.09,1.63-0.17,2.441-0.252c6.246-0.598,12.654-0.913,19.182-0.913
		c5.479,0,10.863,0.222,16.137,0.646c0.811,0.064,1.63,0.137,2.44,0.214c7.868,0.729,15.472,1.92,22.74,3.515
		c0.146,1.357,0.206,2.74,0.206,4.126C167.269,157.198,162.644,167.553,155.159,175.062z"/>
	<path fill="#AB9F95" d="M191.212,70.163v4.339c0-0.866-2.568-1.532-5.742-1.494c-3.175,0.035-5.751,0.768-5.751,1.63
		c0,2.376,4.846,4.241,10.811,4.168s10.804-2.056,10.804-4.425C201.333,72.189,197.519,70.509,191.212,70.163"/>
	<path fill="#AB9F95" d="M66.03,73.009c-3.167-0.038-5.743,0.627-5.743,1.494v-4.343c-6.305,0.35-10.128,2.031-10.128,4.224
		c0,2.369,4.847,4.352,10.82,4.429c5.957,0.068,10.794-1.796,10.794-4.172C71.773,73.778,69.205,73.043,66.03,73.009"/>
	<path fill="#CD1141" d="M185.47,73.009v3.128c3.174-0.042,5.742-0.773,5.742-1.634C191.212,73.636,188.644,72.971,185.47,73.009"/>
	<path fill="#CD1141" d="M60.287,74.502c0,0.861,2.577,1.592,5.743,1.634v-3.128C62.865,72.971,60.287,73.636,60.287,74.502"/>
	<path fill="#CD1141" d="M86.134,74.199c10.692,3.482,24.346,7.155,39.611,7.121c15.274,0.035,28.918-3.639,39.619-7.121
		c20.301-6.613,35.968-4.262,35.968,0.184V57.09c0-4.433-15.667-6.783-35.968-0.171c-10.701,3.478-24.345,7.151-39.619,7.121
		c-15.265,0.03-28.919-3.643-39.611-7.121c-20.3-6.613-35.976-4.262-35.976,0.175v17.288C50.159,69.938,65.834,67.586,86.134,74.199
		"/>
	<path fill="#FFFFFF" d="M69.529,56.147l-2.04-0.039c-0.061,0-0.12,0.026-0.162,0.073c-0.043,0.042-0.068,0.093-0.068,0.153
		c0,0.004,0.035,0.517,0.035,0.517c0,0.513-0.23,1.409-0.35,1.839c0,0-0.776,2.913-1.152,4.3c-0.393-1.165-2.253-6.745-2.253-6.745
		c-0.025-0.09-0.11-0.149-0.213-0.149l-0.095-0.004c-0.094,0-0.188,0.064-0.213,0.149c0,0-1.903,5.567-2.305,6.729
		c-0.273-1.045-1.058-4.087-1.058-4.087c-0.281-1.036-0.418-1.728-0.418-2.052l0.051-0.534c0-0.008,0-0.018,0-0.026
		c0-0.05-0.017-0.115-0.06-0.158c-0.042-0.047-0.102-0.081-0.162-0.077l-2.107,0.021c-0.077,0-0.146,0.035-0.188,0.099
		c-0.042,0.068-0.052,0.149-0.017,0.218c0.452,0.96,0.819,2.338,0.896,2.658l2.073,7.85c0.017,0.102,0.11,0.175,0.204,0.175
		l1.263,0.003c0.094,0,0.179-0.064,0.213-0.154c0,0,1.51-4.467,1.852-5.487c0.341,1.024,1.835,5.503,1.835,5.503
		c0.034,0.09,0.12,0.154,0.222,0.154l1.237,0.005c0.103,0,0.196-0.069,0.222-0.167l2.39-8.797c0.188-0.742,0.265-0.947,0.572-1.651
		c0.026-0.073,0.017-0.149-0.018-0.213C69.673,56.19,69.606,56.147,69.529,56.147"/>
	<path fill="#FFFFFF" d="M82.679,66.592l-3.465-8.44c-0.025-0.064-0.085-0.115-0.154-0.132l-0.085-0.017
		c-0.094-0.025-0.205,0.017-0.248,0.107l-3.934,7.122c-0.854,1.536-1.135,1.809-1.442,2.099c-0.061,0.059-0.085,0.144-0.061,0.226
		c0.026,0.08,0.085,0.141,0.163,0.162l2.491,0.567c0.077,0.013,0.145-0.004,0.196-0.051c0.052-0.043,0.078-0.102,0.078-0.171
		c0-0.003,0-0.008,0-0.012c0-0.052,0-0.094,0-0.149c0-0.75,0.376-1.489,0.496-1.74c0,0,0.298-0.572,0.443-0.854
		c0.299,0.067,3.081,0.7,3.286,0.75c0.078,0.192,0.563,1.435,0.563,1.435c0.359,0.909,0.401,1.43,0.401,1.86
		c0,0.102,0.078,0.195,0.18,0.218l2.423,0.525c0.093,0.017,0.18-0.017,0.23-0.085c0.051-0.077,0.061-0.175,0.009-0.251
		C83.874,69.152,83.413,68.397,82.679,66.592 M77.942,63.797c0.162-0.336,0.658-1.279,0.93-1.813
		c0.213,0.577,0.657,1.724,0.853,2.218C79.231,64.088,78.301,63.875,77.942,63.797z"/>
	<path fill="#FFFFFF" d="M92.894,66.989c-1.17-1.059-2.023-1.827-2.023-2.728c0-0.286,0.094-0.511,0.281-0.648
		c0.23-0.167,0.58-0.201,0.981-0.078c0.836,0.251,1.365,0.849,1.792,1.327c0.06,0.068,0.162,0.094,0.248,0.061
		c0.094-0.034,0.144-0.116,0.144-0.209v-1.617c0-0.073-0.035-0.141-0.093-0.184l-0.042-0.039c-0.486-0.35-1.135-0.832-2.048-1.109
		c-0.879-0.265-1.707-0.149-2.321,0.303c-0.615,0.453-0.939,1.173-0.939,2.043c0,1.689,0.896,2.548,3.064,4.612
		c0.281,0.277,0.768,0.845,0.768,1.476c0,0.286-0.12,0.542-0.324,0.696c-0.231,0.17-0.539,0.205-0.879,0.102
		c-0.827-0.251-1.382-1.07-1.817-1.736c-0.06-0.085-0.18-0.137-0.273-0.106c-0.094,0.025-0.171,0.094-0.171,0.196v2.218
		c0,0.081,0.043,0.149,0.111,0.192c0.469,0.286,0.956,0.575,1.774,0.823c1.177,0.354,2.151,0.277,2.833-0.226
		c0.555-0.419,0.853-1.092,0.853-1.954C94.812,69.208,94.258,68.222,92.894,66.989"/>
	<path fill="#FFFFFF" d="M108.756,66.149c0.018-0.061,0.018-0.128-0.017-0.184c-0.026-0.06-0.085-0.102-0.146-0.111l-2.347-0.486
		c-0.076-0.017-0.154,0.021-0.204,0.077c-0.035,0.047-0.052,0.103-0.052,0.158c0,0.026,0,0.051,0.009,0.073
		c0.18,0.598,0.375,1.276,0.375,2.663c0,0,0,1.182,0,1.579c-0.452-0.094-3.627-0.751-3.934-0.811c0-0.307,0-1.946,0-1.946
		c0-1.229,0.205-1.758,0.376-2.181l0.017-0.046c0.008-0.026,0.017-0.056,0.017-0.085c0-0.034-0.009-0.073-0.026-0.106
		c-0.034-0.061-0.085-0.099-0.154-0.111l-2.355-0.491c-0.078-0.014-0.162,0.013-0.213,0.077c-0.052,0.056-0.068,0.141-0.052,0.213
		c0.154,0.447,0.393,1.199,0.393,2.709v5.111c0,1.558-0.222,2.121-0.384,2.53c-0.017,0.06-0.017,0.128,0.017,0.187
		c0.026,0.056,0.085,0.099,0.146,0.111l2.33,0.482c0.077,0.014,0.153-0.004,0.204-0.064c0.042-0.042,0.068-0.099,0.068-0.154
		c0-0.025-0.008-0.042-0.008-0.064l-0.026-0.067c-0.171-0.64-0.35-1.302-0.35-2.868c0,0,0-1.062,0-1.454
		c0.453,0.098,3.627,0.751,3.934,0.815c0,0.298,0,1.664,0,1.664c0,1.6-0.162,2.044-0.367,2.612
		c-0.008,0.026-0.018,0.055-0.018,0.094c0,0.038,0.009,0.077,0.026,0.106c0.026,0.06,0.077,0.116,0.146,0.128l2.338,0.482
		c0.078,0.017,0.154-0.009,0.213-0.068c0.051-0.055,0.068-0.14,0.042-0.227c-0.205-0.619-0.383-1.156-0.383-2.867v-4.842
		C108.372,67.203,108.535,66.759,108.756,66.149"/>
	<path fill="#FFFFFF" d="M117.144,74.703v-4.817c0-1.498,0.18-2.04,0.359-2.611c0.025-0.064,0.025-0.158-0.018-0.213
		c-0.034-0.06-0.085-0.116-0.154-0.123l-2.355-0.231c-0.067-0.008-0.154,0.026-0.196,0.085c-0.051,0.064-0.06,0.149-0.034,0.218
		c0.248,0.61,0.383,1.229,0.383,2.445v4.983c0,1.698-0.18,2.27-0.383,2.88c-0.017,0.064-0.009,0.141,0.026,0.196
		c0.034,0.061,0.094,0.103,0.162,0.111l2.355,0.231c0.068,0.008,0.146-0.018,0.188-0.081c0.051-0.056,0.068-0.133,0.042-0.201
		C117.221,76.449,117.144,75.859,117.144,74.703"/>
	<path fill="#FFFFFF" d="M133.084,75.219v-5.623c0-1.062,0.104-1.6,0.256-2.189c0.019-0.068,0-0.141-0.043-0.192
		c-0.05-0.061-0.119-0.09-0.179-0.09l-2.021,0.056c-0.062,0.004-0.137,0.038-0.171,0.093c-0.024,0.042-0.043,0.09-0.043,0.132
		c0,0.021,0,0.042,0.009,0.06c0.153,0.567,0.281,1.016,0.281,2.948c0,0,0,3.166,0,4.125c-0.666-0.837-4.326-5.38-4.326-5.38
		c-0.794-0.986-0.896-1.229-1.074-1.669c-0.035-0.085-0.129-0.162-0.223-0.162l-2.5,0.073c-0.093,0-0.179,0.064-0.205,0.154
		c-0.008,0.021-0.018,0.051-0.018,0.073c0,0.064,0.036,0.137,0.094,0.18c0.589,0.448,0.862,0.7,1.314,1.272c0,0.162,0,6.216,0,6.216
		c0,0.162-0.008,1.626-0.333,2.709c0,0.017-0.018,0.038-0.018,0.06c0,0.052,0.026,0.102,0.051,0.141
		c0.043,0.06,0.112,0.09,0.188,0.085l2.219-0.06c0.068-0.004,0.138-0.034,0.181-0.098c0.025-0.035,0.041-0.085,0.041-0.124
		c0-0.024-0.009-0.056-0.017-0.08c-0.376-0.986-0.409-2.53-0.409-2.978c0,0,0-2.573,0-3.495c0.674,0.837,4.053,5.078,4.053,5.078
		c0.35,0.427,0.691,0.892,0.854,1.408c0.034,0.098,0.128,0.161,0.229,0.158l1.937-0.051c0.068-0.004,0.137-0.039,0.181-0.098
		c0.043-0.06,0.043-0.132,0.025-0.205C133.272,77.327,133.084,76.811,133.084,75.219"/>
	<path fill="#FFFFFF" d="M148.572,69.972l-2.51,0.452c-0.076,0.014-0.145,0.069-0.179,0.146c-0.01,0.021-0.01,0.052-0.01,0.078
		c0,0.047,0.019,0.099,0.053,0.141c0.366,0.444,0.63,0.764,0.63,2.303c0,0,0,0.82,0,1.029c-0.425,0.248-0.801,0.447-1.62,0.598
		c-1.178,0.205-2.168,0.008-2.867-0.572c-0.674-0.572-1.05-1.49-1.05-2.589c0-2.568,1.774-4.237,3.524-4.548
		c1.416-0.256,2.509,0.124,3.158,0.354c0.076,0.021,0.145,0.013,0.204-0.03c0.053-0.043,0.096-0.111,0.096-0.184v-1.745
		c0-0.12-0.104-0.222-0.223-0.226c-0.648-0.042-1.451-0.09-2.723,0.137c-2.27,0.41-3.602,1.187-4.735,2.773
		c-0.836,1.177-1.331,2.663-1.331,4.075c0,0.688,0.145,2.402,1.441,3.494c1.05,0.875,2.569,1.135,4.505,0.785
		c1.938-0.345,2.997-0.956,3.696-1.36c0.084-0.047,0.137-0.158,0.102-0.256c-0.188-0.644-0.188-0.832-0.188-1.523v-1.241
		c0-0.938,0.161-1.43,0.265-1.749c0.024-0.078,0.017-0.184-0.035-0.239C148.725,70.01,148.647,69.958,148.572,69.972"/>
	<path fill="#FFFFFF" d="M162.132,61.097l-7.476,2.172c-0.077,0.021-0.137,0.081-0.153,0.154l-0.546,1.92
		c-0.017,0.09,0.009,0.188,0.086,0.244c0.076,0.055,0.188,0.055,0.264,0.003c1.655-1.101,2.296-1.37,2.851-1.532
		c0,0.537,0,6.442,0,6.442c0,1.221-0.138,2.023-0.273,2.701c0,0.017-0.009,0.035-0.009,0.047c0,0.064,0.025,0.123,0.076,0.161
		c0.053,0.061,0.137,0.073,0.215,0.056l2.048-0.598c0.102-0.029,0.162-0.119,0.162-0.213c0-0.029,0-0.042-0.01-0.064
		c-0.18-0.64-0.271-1.412-0.271-2.355c0,0,0-6.413,0-6.737c1.007-0.281,1.373-0.281,2.371-0.158
		c0.103,0.017,0.205-0.043,0.248-0.141l0.691-1.813c0.034-0.073,0.008-0.167-0.042-0.227
		C162.303,61.097,162.217,61.071,162.132,61.097"/>
	<path fill="#FFFFFF" d="M175.588,58.721c-0.955-0.756-2.271-0.96-3.78-0.598c-3.755,0.913-5.751,4.527-5.751,6.789
		c0,1.494,0.605,2.825,1.654,3.648c0.727,0.58,2.006,1.161,3.952,0.691c3.173-0.773,5.478-3.657,5.478-6.861
		C177.141,60.836,176.577,59.497,175.588,58.721 M171.971,67.579c-0.938,0.23-1.878,0.042-2.569-0.504
		c-0.546-0.422-1.178-1.258-1.178-2.82c0-1.778,1.109-3.946,3.184-4.454c0.912-0.218,1.749-0.051,2.422,0.481
		c0.812,0.631,1.29,1.711,1.29,2.884C175.119,64.677,174.146,67.053,171.971,67.579z"/>
	<path fill="#FFFFFF" d="M192.628,66.596c-0.153-0.423-0.34-0.943-0.34-2.526v-5.633c0-1.062,0.101-1.595,0.256-2.18
		c0.018-0.068,0-0.141-0.043-0.196c-0.043-0.056-0.11-0.085-0.18-0.085l-2.014,0.038c-0.066,0-0.136,0.035-0.171,0.09
		c-0.034,0.038-0.051,0.085-0.051,0.132c0,0.021,0.008,0.039,0.008,0.06c0.163,0.563,0.291,1.019,0.291,2.953c0,0,0,3.153,0,4.117
		c-0.675-0.84-4.335-5.419-4.335-5.419c-0.794-0.995-0.887-1.237-1.074-1.677c-0.035-0.088-0.129-0.162-0.222-0.162l-2.492,0.043
		c-0.102,0.004-0.187,0.068-0.214,0.158c-0.008,0.021-0.008,0.042-0.008,0.067c0,0.064,0.026,0.137,0.076,0.175
		c0.598,0.46,0.87,0.712,1.332,1.293c0,0.158,0,6.213,0,6.213c0,0.166-0.009,1.629-0.342,2.705
		c-0.008,0.021-0.008,0.047-0.008,0.064c0,0.047,0.018,0.099,0.043,0.137c0.043,0.061,0.11,0.094,0.187,0.094l2.219-0.043
		c0.067,0,0.145-0.039,0.18-0.099c0.025-0.042,0.043-0.081,0.043-0.128c0-0.021-0.009-0.052-0.018-0.077
		c-0.376-0.986-0.4-2.534-0.4-2.987c0,0,0-2.565,0-3.486c0.665,0.841,4.043,5.112,4.043,5.112c0.351,0.431,0.692,0.904,0.854,1.424
		c0.042,0.094,0.12,0.158,0.222,0.154l1.937-0.035c0.077,0,0.144-0.034,0.187-0.093C192.637,66.742,192.646,66.665,192.628,66.596"
		/>
	<polyline fill="#FFFFFF" points="127.085,195.49 125.754,191.381 124.415,195.49 120.097,195.49 123.596,198.029 122.265,202.134 
		125.754,199.595 129.244,202.134 127.913,198.029 131.403,195.49 	"/>
	<polyline fill="#FFFFFF" points="108.662,188.075 105.889,191.381 101.887,189.769 104.174,193.426 101.401,196.733 
		105.59,195.687 107.878,199.352 108.176,195.043 112.365,193.997 108.363,192.384 	"/>
	<polyline fill="#FFFFFF" points="94.044,178.599 90.23,180.625 87.124,177.626 87.876,181.879 84.061,183.902 88.337,184.503 
		89.087,188.753 90.982,184.869 95.266,185.477 92.15,182.477 	"/>
	<polyline fill="#FFFFFF" points="79.769,164.771 78.011,160.829 77.115,165.048 72.815,165.502 76.552,167.659 75.656,171.884 
		78.864,168.995 82.611,171.153 80.852,167.213 84.061,164.318 	"/>
	<polyline fill="#FFFFFF" points="74.777,150.58 78.268,153.123 76.937,149.014 80.434,146.476 76.117,146.476 74.777,142.371 
		73.446,146.476 69.128,146.476 72.619,149.014 71.278,153.123 	"/>
	<polyline fill="#FFFFFF" points="149.622,189.769 145.618,191.381 142.847,188.075 143.144,192.384 139.144,193.997 
		143.324,195.043 143.631,199.352 145.918,195.687 150.108,196.733 147.335,193.426 	"/>
	<polyline fill="#FFFFFF" points="164.375,177.626 161.27,180.625 157.463,178.599 159.35,182.477 156.243,185.477 160.527,184.869 
		162.412,188.753 163.164,184.503 167.44,183.902 163.633,181.879 	"/>
	<polyline fill="#FFFFFF" points="174.394,165.048 173.497,160.829 171.739,164.771 167.447,164.318 170.655,167.213 
		168.898,171.153 172.634,168.995 175.844,171.884 174.948,167.659 178.686,165.502 	"/>
	<polyline fill="#FFFFFF" points="182.382,146.476 178.062,146.476 176.723,142.371 175.392,146.476 171.073,146.476 
		174.573,149.014 173.231,153.123 176.723,150.58 180.222,153.123 178.882,149.014 	"/>
	<path fill="#FFFFFF" d="M224.894,92.964v-11.72h-13.858c-2.952,0-5.341,2.39-5.341,5.342v18.969c0,2.944,2.389,5.333,5.341,5.333
		h7.383v30.143h-6.255v-15.91h-6.469v22.388h13.856c2.952,0,5.343-2.395,5.343-5.338v-32.413c0-2.948-2.391-5.342-5.343-5.342
		h-7.389V87.721h6.255v5.243"/>
	<path fill="#FFFFFF" d="M98.295,129.641c2.133-0.287,4.283-0.547,6.451-0.769V88.71h-6.451"/>
	<path fill="#FFFFFF" d="M75.162,95.158h6.229v37.555c2.117-0.487,4.276-0.938,6.451-1.358V95.158h6.22V88.71h-18.9"/>
	<path fill="#FFFFFF" d="M65.612,88.71h-8.491c-2.936,0-5.307,2.381-5.307,5.32v48.405c2.099-0.935,4.25-1.821,6.442-2.671v-11.068
		c2.04-0.746,4.122-1.45,6.229-2.125v10.927c2.108-0.718,4.258-1.403,6.442-2.044V94.03C70.928,91.092,68.548,88.71,65.612,88.71
		 M64.486,120.326c-2.107,0.653-4.182,1.344-6.229,2.065V95.158h6.229V120.326z"/>
	<path fill="#FFFFFF" d="M175.094,88.71h-8.49c-2.936,0-5.317,2.381-5.317,5.32v36.881c2.176,0.387,4.318,0.811,6.441,1.267v-10.641
		c2.1,0.431,4.182,0.892,6.23,1.387v10.717c2.185,0.551,4.326,1.139,6.451,1.758V94.031C180.409,91.092,178.02,88.71,175.094,88.71
		 M173.958,116.78c-2.056-0.487-4.129-0.938-6.23-1.357V95.158h6.23V116.78z"/>
	<path fill="#FFFFFF" d="M124.645,88.71h-8.482c-2.944,0-5.324,2.381-5.324,5.32v28.817c0,2.936,2.38,5.253,5.324,5.176l8.482-0.219
		c2.936-0.076,5.317-2.518,5.317-5.457V94.031C129.962,91.092,127.58,88.71,124.645,88.71 M123.519,121.375
		c-2.091,0.021-4.164,0.073-6.229,0.153V95.158h6.229V121.375z"/>
	<path fill="#FFFFFF" d="M148.734,105.298l-6.229-16.588h-6.442v39.346c2.167,0.11,4.318,0.251,6.442,0.426v-21.895l6.229,16.588
		v5.906c2.175,0.251,4.317,0.528,6.451,0.841V88.71h-6.451"/>
	<polyline fill="#FFFFFF" points="39.271,97.832 33.042,81.244 26.59,81.244 26.59,147.509 33.042,147.509 33.042,99.125 
		39.271,115.714 39.271,147.509 45.712,147.509 45.712,81.244 39.271,81.244 	"/>
	<path fill="#FFFFFF" d="M192.953,88.71h-6.451v48.614c5.129,1.724,10.043,3.664,14.703,5.793v-6.918
		c-2.681-1.171-5.436-2.279-8.252-3.328"/>
	<path fill="#B99E66" d="M28.57,145.532c0-3.601,0-58.716,0-62.312l-1.979-1.976v66.265h6.452l-1.979-1.977
		C30.003,145.532,29.628,145.532,28.57,145.532"/>
	<path fill="#B99E66" d="M41.241,145.532c0-3.445,0-30.177,0-30.177l-10.18-27.123l1.979,10.893l6.229,16.589v31.796h6.442
		l-1.979-1.976C42.676,145.532,42.3,145.532,41.241,145.532"/>
	<path fill="#B99E66" d="M41.241,83.22l-1.971-1.976v16.588l1.971,10.897C41.241,108.729,41.241,86.291,41.241,83.22"/>
	<path fill="#B99E66" d="M53.786,139.436c0-5.273,0-45.405,0-45.405c0-0.823,0.299-1.579,0.802-2.163l-1.408-1.404
		c-0.854,0.939-1.365,2.193-1.365,3.567v48.405c2.099-0.935,4.25-1.821,6.442-2.671l-1.979-1.344
		C55.441,138.753,54.612,139.089,53.786,139.436"/>
	<polyline fill="#B99E66" points="64.486,95.158 64.486,120.326 66.465,121.78 66.465,93.182 56.277,93.182 58.257,95.158 	"/>
	<path fill="#B99E66" d="M66.465,134.769c0-3.269,0-10.905,0-10.905l-10.188,3.447l1.979,1.387c2.04-0.746,4.122-1.451,6.229-2.125
		V137.5c2.108-0.718,4.258-1.405,6.442-2.044l-1.979-1.464C68.121,134.243,67.293,134.504,66.465,134.769"/>
	<path fill="#B99E66" d="M83.361,130.25c0-4.293,0-37.069,0-37.069s-4.385,0-6.229,0c0-1.063,0-1.434,0-2.496l-1.971-1.976v6.447
		h6.229v37.554c2.117-0.485,4.276-0.938,6.451-1.356l-1.988-1.621C85.025,129.903,84.197,130.075,83.361,130.25"/>
	<path fill="#B99E66" d="M85.853,93.182l1.988,1.976h6.22l-1.972-1.976C90.238,93.182,85.853,93.182,85.853,93.182"/>
	<path fill="#B99E66" d="M100.273,127.396c0-3.81,0-33.335,0-36.709l-1.979-1.976v40.93c2.132-0.287,4.283-0.547,6.451-0.769
		l-1.979-1.775C101.93,127.194,101.11,127.293,100.273,127.396"/>
	<polyline fill="#B99E66" points="123.519,95.158 123.519,121.375 125.49,123.33 125.49,93.182 115.31,93.182 117.289,95.158 	"/>
	<path fill="#B99E66" d="M124.594,125.825l-8.49,0.222c-0.879,0.021-1.707-0.294-2.331-0.899c-0.614-0.602-0.955-1.417-0.955-2.3
		V94.031c0-0.925,0.375-1.757,0.981-2.363l-1.399-1.399c-0.964,0.96-1.562,2.292-1.562,3.764v28.816c0,2.936,2.38,5.253,5.324,5.176
		l8.482-0.219c1.451-0.034,2.757-0.653,3.713-1.612l-1.401-1.396C126.352,125.412,125.515,125.805,124.594,125.825"/>
	<path fill="#B99E66" d="M138.041,126.196c0-3.208,0-32.123,0-35.51l-1.979-1.976v39.346c2.167,0.11,4.318,0.251,6.442,0.426
		l-1.973-2.129C139.707,126.299,138.87,126.243,138.041,126.196"/>
	<path fill="#B99E66" d="M150.713,127.331c0-1.732,0-4.509,0-4.509l-10.18-27.127l1.972,10.893l6.23,16.588v5.906
		c2.176,0.251,4.317,0.528,6.451,0.841l-1.979-2.271C152.377,127.541,151.55,127.434,150.713,127.331"/>
	<path fill="#B99E66" d="M150.713,90.687l-1.979-1.976v16.588l1.979,10.893C150.713,116.191,150.713,93.754,150.713,90.687"/>
	<polyline fill="#B99E66" points="173.958,95.158 173.958,116.78 175.938,119.272 175.938,93.182 165.758,93.182 167.728,95.158 	
		"/>
	<path fill="#B99E66" d="M175.938,132.119c0-2.318,0-10.758,0-10.758l-10.181-2.253l1.972,2.428c2.1,0.431,4.182,0.892,6.229,1.387
		v10.717c2.185,0.55,4.327,1.14,6.451,1.758l-1.979-2.611C177.603,132.558,176.773,132.336,175.938,132.119"/>
	<path fill="#B99E66" d="M163.266,129.272c0-2.999,0-35.242,0-35.242c0-0.925,0.376-1.757,0.974-2.363l-1.392-1.399
		c-0.964,0.96-1.562,2.292-1.562,3.764v36.88c2.176,0.388,4.318,0.812,6.441,1.268l-1.971-2.42
		C164.93,129.588,164.096,129.427,163.266,129.272"/>
	<path fill="#B99E66" d="M188.481,135.929c0-2.538,0-41.71,0-45.242l-1.979-1.976v48.614c5.128,1.724,10.043,3.664,14.703,5.793
		l-1.973-3.023C195.752,138.587,192.151,137.196,188.481,135.929"/>
	<path fill="#B99E66" d="M219.551,145.532h-11.878c0-6.126,0-16.896,0-18.439l-1.979-1.972v22.388h13.856
		c1.477,0,2.809-0.598,3.78-1.567l-1.408-1.398C221.325,145.147,220.48,145.532,219.551,145.532"/>
	<path fill="#B99E66" d="M218.417,87.721v5.243h6.475l-1.979-1.976c-1.065,0-1.45,0-2.518,0c0-1.851,0-5.248,0-5.248h-10.205
		l1.973,1.979"/>
	<path fill="#B99E66" d="M211.035,110.888h7.383v30.143l1.979,1.975v-34.094h-9.361c-1.859,0-3.362-1.511-3.362-3.357V86.586
		c0-0.931,0.376-1.767,0.981-2.377l-1.4-1.399c-0.964,0.963-1.562,2.3-1.562,3.776v18.969
		C205.694,108.499,208.083,110.888,211.035,110.888"/>
	<path fill="#CD1141" d="M226.514,94.59V79.622h-15.48c-3.84,0-6.962,3.124-6.962,6.964v18.969c0,3.835,3.123,6.958,6.962,6.958
		c0,0,3.78,0,5.761,0c0,2.735,0,24.167,0,26.893c-1.151,0-1.854,0-3.004,0c0-2.432,0-15.911,0-15.911h-9.719v25.634h15.479
		c3.841,0,6.963-3.124,6.963-6.958v-32.414c0-3.841-3.122-6.963-6.963-6.963c0,0-3.788,0-5.76,0c0-2.291,0-11.166,0-13.457
		c1.152,0,1.854,0,3.005,0c0,1.792,0,5.253,0,5.253 M212.162,87.721v16.695h7.389c2.952,0,5.343,2.394,5.343,5.342v32.413
		c0,2.943-2.391,5.338-5.343,5.338h-13.856v-22.388h6.469v15.91h6.255v-30.143h-7.383c-2.952,0-5.341-2.39-5.341-5.333V86.586
		c0-2.952,2.389-5.342,5.341-5.342h13.858v11.72h-6.476v-5.243H212.162z"/>
	<path fill="#CD1141" d="M96.673,87.085v44.423c3.184-0.459,6.417-0.853,9.694-1.164V87.085 M104.746,128.872
		c-2.168,0.221-4.318,0.481-6.451,0.769V88.71h6.451V128.872z"/>
	<path fill="#CD1141" d="M73.531,87.085v9.693c0,0,4.454,0,6.237,0c0,1.404,0,19.396,0,37.99c3.167-0.768,6.4-1.46,9.693-2.069
		c0-17.707,0-34.551,0-35.921c1.775,0,6.23,0,6.23,0v-9.693 M94.062,95.158h-6.22v36.197c-2.175,0.42-4.334,0.871-6.451,1.358
		V95.158h-6.229V88.71h18.901L94.062,95.158L94.062,95.158z"/>
	<path fill="#CD1141" d="M58.257,122.391c2.048-0.721,4.122-1.413,6.229-2.065V95.158h-6.229 M59.877,96.778
		c1.152,0,1.834,0,2.987,0c0,2.676,0,20.377,0,22.366c-0.998,0.316-1.988,0.64-2.987,0.974
		C59.877,116.597,59.877,99.373,59.877,96.778z"/>
	<path fill="#CD1141" d="M65.612,87.085h-8.491c-3.823,0-6.938,3.114-6.938,6.946v50.917c3.124-1.437,6.357-2.802,9.693-4.07
		c0-6.554,0-10.431,0-11.034c0.99-0.348,1.98-0.69,2.987-1.027c0,0.918,0,4.672,0,10.97c3.148-1.122,6.375-2.158,9.694-3.11V94.031
		C72.559,90.199,69.444,87.085,65.612,87.085 M70.928,135.456c-2.185,0.639-4.334,1.326-6.442,2.044v-10.928
		c-2.107,0.674-4.189,1.378-6.229,2.125v11.067c-2.192,0.85-4.343,1.736-6.442,2.671V94.031c0-2.939,2.371-5.32,5.307-5.32h8.491
		c2.936,0,5.317,2.381,5.317,5.32L70.928,135.456L70.928,135.456z"/>
	<path fill="#CD1141" d="M167.728,115.423c2.1,0.418,4.175,0.87,6.23,1.357V95.158h-6.23 M169.351,96.778c1.151,0,1.834,0,2.986,0
		c0,2.458,0,14.962,0,17.967c-0.98-0.218-1.979-0.43-2.986-0.64C169.351,112.028,169.351,99.296,169.351,96.778z"/>
	<path fill="#CD1141" d="M175.094,87.085h-8.49c-3.832,0-6.938,3.114-6.938,6.946v38.247c3.285,0.563,6.52,1.211,9.686,1.933
		c0-6.313,0-9.881,0-10.666c1.007,0.218,2.006,0.443,2.986,0.674c0,0.588,0,4.223,0,10.697c3.303,0.815,6.537,1.707,9.693,2.684
		V94.031C182.03,90.199,178.917,87.085,175.094,87.085 M180.409,135.399c-2.125-0.617-4.267-1.207-6.451-1.758v-10.717
		c-2.049-0.496-4.129-0.957-6.23-1.387v10.641c-2.124-0.458-4.266-0.88-6.441-1.267V94.031c0-2.939,2.382-5.32,5.317-5.32h8.49
		c2.927,0,5.316,2.381,5.316,5.32L180.409,135.399L180.409,135.399z"/>
	<path fill="#CD1141" d="M117.289,121.529c2.065-0.081,4.139-0.132,6.229-0.153V95.158h-6.229 M118.911,96.778
		c1.152,0,1.833,0,2.978,0c0,2.671,0,20.369,0,23.002c-0.999,0.017-1.988,0.042-2.978,0.073
		C118.911,117.104,118.911,99.444,118.911,96.778z"/>
	<path fill="#CD1141" d="M124.645,87.085h-8.482c-3.832,0-6.946,3.114-6.946,6.946v28.817c0,1.859,0.734,3.596,2.048,4.881
		c1.322,1.284,3.072,1.967,4.932,1.919l8.491-0.221c3.806-0.102,6.896-3.276,6.896-7.078V94.031
		C131.583,90.199,128.468,87.085,124.645,87.085 M129.962,122.349c0,2.938-2.382,5.38-5.317,5.457l-8.482,0.219
		c-2.944,0.077-5.324-2.24-5.324-5.176V94.031c0-2.939,2.38-5.32,5.324-5.32h8.482c2.936,0,5.317,2.381,5.317,5.32V122.349z"/>
	<path fill="#CD1141" d="M147.112,87.085c0,0,0,5.47,0,9.267c-1.544-4.104-3.481-9.267-3.481-9.267h-9.189v42.53
		c3.269,0.132,6.502,0.349,9.694,0.636c0-6.712,0-12.549,0-14.716c1.493,3.968,2.884,7.68,2.977,7.939c0,0.146,0,3.018,0,7.07
		c3.278,0.346,6.513,0.769,9.695,1.268V87.085 M155.186,129.923c-2.134-0.312-4.276-0.59-6.451-0.841v-5.906l-6.229-16.588v21.896
		c-2.125-0.176-4.276-0.315-6.442-0.428V88.71h6.442l6.229,16.588V88.71h6.451V129.923z"/>
	<path fill="#CD1141" d="M37.64,79.622c0,0,0,5.466,0,9.267c-1.544-4.109-3.473-9.267-3.473-9.267H24.96v69.508h9.702
		c0,0,0-29.388,0-41.058c1.494,3.968,2.884,7.676,2.978,7.94c0,0.576,0,33.117,0,33.117h9.694V79.622 M45.712,147.509h-6.442
		v-31.795l-6.229-16.588v48.384H26.59V81.244h6.452l6.229,16.588V81.244h6.442V147.509z"/>
	<path fill="#CD1141" d="M194.576,131.726c0-10.748,0-44.642,0-44.642h-9.695v51.413c6.322,2.078,12.33,4.483,17.954,7.168v-10.539
		C200.138,133.923,197.382,132.793,194.576,131.726 M201.205,143.117c-4.66-2.13-9.574-4.069-14.703-5.794V88.71h6.451v44.159
		c2.816,1.051,5.571,2.159,8.252,3.329V143.117z"/>
	<path fill="#B99E66" d="M194.189,165.582h-1.246v3.404h-0.853v-3.404h-1.237v-0.734h3.336 M199.865,168.985h-0.854v-3.293h-0.018
		l-1.213,3.293h-0.802l-1.16-3.293h-0.026v3.293h-0.844v-4.138h1.459l0.973,2.705h0.017l0.999-2.705h1.468L199.865,168.985
		L199.865,168.985z"/>
</g>
</svg>
