<?xml version="1.0" encoding="utf-8"?>
<!-- Generator: Adobe Illustrator 16.0.4, SVG Export Plug-In . SVG Version: 6.00 Build 0)  -->
<!DOCTYPE svg PUBLIC "-//W3C//DTD SVG 1.1//EN" "http://www.w3.org/Graphics/SVG/1.1/DTD/svg11.dtd">
<svg version="1.1" id="Layer_1" xmlns="http://www.w3.org/2000/svg" xmlns:xlink="http://www.w3.org/1999/xlink" x="0px" y="0px"
	 width="250px" height="250px" viewBox="0 0 250 250" enable-background="new 0 0 250 250" xml:space="preserve">
<g>
	<g id="layer4">
		<path id="path16452" fill="#FFFFFF" d="M144.596,28.235c-1.955,0-4.38,0.437-7.56,1.218c-5.963,1.442-9.104,4.752-12.131,7.929
			c-1.517,1.584-2.942,3.077-4.683,4.326l-2.735,2.111c-1.256,1.036-1.444,1.188-4.283,1.899c-7.837,1.969-18.688,7.117-19.144,7.33
			c0.109-0.102-0.801,0.314-0.801,0.314c-3.118,1.239-7,2.782-11.713,5.605c-1.65,0.984-3.797,1.816-6.709,2.588
			c-3.16,0.762-6.502,1.807-9.384,1.888c-7.642-0.548-15.538-1.787-23.319-2.771l-1.062-0.102c-2.537-0.244-3.827-0.295-5.687,1.056
			c-0.569,0.131-1.285,0.599-2.123,1.381c-0.915,0.131-2.323,0.477-2.938,1.706c-2.854,0.74-5.156,0.68-5.213,3.198
			c0,2.021,2.423,2.964,4.398,3.736c0.668,0.67,1.936,1.361,4.228,1.736c0.883,0.568,2.106,0.802,3.336,0.903
			c1.292,1.167,4.337,2.752,11.279,2.681c8.166-0.731,15.704-1.269,22.597-1.726c0.383,0.152,1.56,0.629,3.13,1.249
			c-2.086,1.086-4.33,2.589-5.841,4.893c-0.236,0.376-0.776,1.178-0.776,2.132c0,0.406,0.098,0.833,0.34,1.269
			c0.989,1.765,3.002,2.477,17.785,1.808c0.945,0.172,6.199,1.118,12.204,1.806c0,0.246-0.073,0.448-0.073,0.448v0.098
			c0,2.655,1.614,3.933,2.147,4.37c-0.084-0.104,0.698,0.497,0.698,0.497l2.353,1.463c0,0,4.034,2.231,5.702,3.165
			c-3.021,2.335-5.125,4.498-5.684,7.872c-2.135,2.913-2.365,5.887-1.031,8.879c0,0.104-2.475,6.397-3.5,9.334
			c-0.254-0.929-0.649-1.788-1.311-2.439c-0.995-1.014-2.651-2.931-3.075-3.656c-0.734-1.261-1.911-2.104-3.275-2.337
			c-1.505-0.25-3.064,0.233-4.398,1.365c-2.305,1.935-5.095,2.366-9.348,1.401c-4.003-0.936-6.684,0.098-7.958,3.035
			c-0.491,1.296-0.795,2.341-1.176,3.663c-1.407-17.046-8.305-23.382-14.256-25.545c-6.044-2.212-12.191-1.64-17.289,1.598
			c-4.206,2.68-7.428,7.005-8.835,11.884c-0.7,1.31-1.221,2.734-1.629,4.167c-4.221,4.78-7.703,10.655-10.048,17.095
			c-2.653,5.819-4.355,12.316-4.872,18.669c-0.146,1.818-0.228,3.589-0.228,5.322c0,9.697,2.311,17.869,6.787,23.831
			c3.306,4.423,8.741,7.392,14.16,7.772c6.168,0.449,11.935-1.685,17.157-6.312c10.052-10.182,16.143-24.856,18.385-38.087
			c1.408-0.751,2.882-1.684,4.344-2.862c-0.546,1.252-1.116,2.47-1.589,3.729c-2.833,6.312-4.61,13.157-4.61,17.687v0.854
			c0.322,5.671,2.493,9.31,6.43,10.841c3.294,1.27,7.964,0.546,11.374-1.745c1.376-0.936,4.634-3.368,7.867-6.944
			c2.426,2.261,5.471,2.378,6.63,2.378c5.975,0,13.436-5.052,18.864-12.277c1.984,1.807,4.332,3.114,7.085,3.342
			c7.407,0.553,14.225-4.399,17.47-9.23c2.062-3.096,3.439-5.85,4.507-8.781c0.582,1.948,1.468,3.805,2.898,5.206
			c1.942,1.948,4.592,2.968,7.437,2.876c-12.489,4.528-55.313,20.021-55.313,20.021c-22.777,8.251-45.556,16.486-68.327,24.751
			c-0.516,0.191-0.98,0.657-1.195,1.187l-1.61,3.939c-0.266,0.7-0.176,1.277,0.227,1.959c1.017,1.432,2.025,2.865,3.033,4.296
			c0.346,0.509,0.929,0.812,1.535,0.842c9.294,0.142,22.2,2.876,28.967,7.726c0.807,0.583,1.896,0.46,2.577-0.259
			c10.112-9.803,21.048-14.663,33.957-20.919c4.167-2.009,60.07-25.495,93.509-39.132c16.287-6.594,29.135-11.836,31.639-13.015
			c3.245-1.519,13.971-7.3,15.718-18.048c0.358-1.292,0.588-2.914,0.588-4.571c0-5.341-3.196-9.593-8.88-12.211v0.11
			c-0.521-2.82-2.052-6.618-5.132-12.512c-0.649-1.229-1.492-2.599-1.492-3.915c0.121-1.505,0.631-2.955,1.031-4.466
			c0.212-0.731-0.146-1.426-0.491-1.941c-0.486-0.517-1.208-0.71-1.893-0.538c-3.919,0.984-7.844,1.969-11.763,2.952
			c-0.66,0.234-0.994,0.602-1.425,1.1c-1.644,1.918-3.397,5.175-6.053,11.271c0,0-0.505,1.057-1.171,2.446
			c-0.104-1.058-0.141-2.115-0.401-3.097c-1.638-5.746-7.43-9.261-12.932-7.817c-2.523,0.658-4.95,2.022-7.164,3.92
			c0.734-2.531,1.336-5.088,1.596-7.705c0.097-0.621,0.097-1.242,0.097-1.844c0-3.642-1.231-6.617-3.646-8.657
			c-2.717-2.305-6.866-1.615-8.68-0.924c-8.371,3.229-15.946,16.55-19.884,26.978l-3.148,8.438c0,0-0.467,1.715-0.952,3.46
			c-0.407-1.291-0.837-2.428-1.291-3.423c-2.288-5.186-5.963-7.042-8.529-8.007c-4.562-1.678-9.79-0.812-14.37,2.416
			c-1.444,1.014-2.614,2.304-3.56,3.705c-0.467,0.578-0.977,1.414-1.462,2.256c0.121-0.277,0.103-0.59,0.133-0.823
			c0-0.388-0.2-0.731-0.412-1.075c0.261-0.542,0.321-0.683,0.582-1.211c0.14-0.098,0.382-0.123,0.382-0.123
			c1.123-0.485,2.815-2.636,3.355-3.602c0.351-0.639,0.49-1.302,0.49-1.929c0-0.633-0.248-1.1-0.472-1.598
			c0.103-0.516,0.133-1.063,0.133-1.063c-0.242-0.854-0.953-3.46-11.035-8.714c-0.103-0.098-1.521-0.873-2.517-1.451
			c0.23-0.16,0.583-0.356,1.025-0.559c0.376-0.098,1.293-0.19,1.293-0.19l3.196-0.344c26.968-3.048,30.808-15.931,33.1-23.648
			l0.098-0.325c0.577-1.918,0.867-4.04,0.867-6.264v-0.914l-0.151-3.919v-0.559c0,0,0.127-2.324,0.127-2.345
			c0,0.214,1.584-1.898,1.584-1.898c1.583-1.969,3.421-4.345,3.899-6.722c0.734-0.416,1.833-1.015,1.833-1.015l7.145-2.924
			c0.692-0.285,1.183-0.944,1.244-1.685v-0.193c0-0.7-0.322-1.34-0.91-1.715c-2.323-1.482-3.55-1.655-5.956-1.99
			c-0.158,0-3.228-0.345-3.228-0.345c-0.098,0-1.268-0.183-2.08-0.315c-0.655-0.781-1.783-1.898-3.962-3.066
			c-1.322-0.721-2.796-1.066-4.761-1.045L144.596,28.235z M171.653,117.195L171.653,117.195c-0.387,1.746-0.648,3.565-0.721,5.495
			c-2.548,3.356-4.969,5.949-6.527,6.951c-0.576,0.375-0.977,0.541-1.298,0.669c-0.103-0.326-0.103-0.675-0.103-1.095
			c0-0.994,0.163-2.303,0.424-3.877c3.075-2.58,5.781-5.309,8.182-8.143H171.653z M45.699,118.045c0.406,0,0.827,0.147,1.233,0.381
			c1.906,1.124,3.146,9.297,3.146,13.863H50.06c-4.245-1.869-7.26-7.007-7.336-11.246c-0.03-1.105,0.241-1.647,1.023-2.384
			c0.611-0.405,1.276-0.651,1.954-0.614H45.699z M205.077,127.055c0.97,2.285,3.414,3.421,5.343,4.158
			c-3.148,1.149-7.509,2.735-12.816,4.652C200.8,133.001,203.342,130.261,205.077,127.055L205.077,127.055z M110.972,134.789
			c0.121,0,0.127,0.823-0.103,2.883c-0.116,1.506-0.57,2.612-0.57,3.95l-0.752,3.676c-1.699,2.212-1.819,2.984-2.614,3.453
			c1.383-3.3,3.536-13.943,3.997-13.962H110.972z M94.667,134.888c-0.765,2.188-1.311,3.767-1.311,3.767s-3.02,8.886-3.487,10.237
			c-1.553,2.354-3.688,4.517-5.326,5.838c0.193-1.867,0.637-3.938,1.48-6.334C88.298,143.474,91.623,138.28,94.667,134.888z
			 M126.834,136.908c1.335,0.523,2.608,0.929,3.962,1.164c-0.122,0.658-0.189,0.901-0.401,1.375
			c-0.843,1.974-2.347,3.736-2.687,3.736c-0.292,0-0.983-2.396-0.983-5.062C126.725,137.733,126.828,137.316,126.834,136.908z
			 M176.16,137.167c2.27,2.016,5.084,3.177,8.444,3.474c-6.047,2.188-12.708,4.607-19.817,7.176
			C169.016,145.146,173.11,141.175,176.16,137.167L176.16,137.167z M32.05,142.188c4.405,4.309,9.767,6.583,16.302,6.768
			c-0.706,3.877-1.737,8.049-3.052,11.676c-2.061,4.485-4.402,7.833-6.539,9.296c-1.569,1.069-2.187,1.15-3.64,0.843
			c-4.023-0.843-5.688-8.549-5.688-15.713C29.692,150.872,30.095,146.182,32.05,142.188L32.05,142.188z"/>
	</g>
	<g id="layer2">
		<path id="path16680" d="M144.363,30.215c-1.733,0.101-3.948,0.426-6.836,1.137c-8.236,2-10.591,7.98-16.134,11.94
			c-4.216,3.045-3.045,3.178-7.655,4.324c-7.735,1.95-18.786,7.198-18.786,7.198c-3.281,1.311-7.327,2.834-12.38,5.839
			c-1.983,1.198-4.367,2.05-7.188,2.792c-3.161,0.843-6.636,1.909-9.851,1.96h-0.423c-0.938-0.102-1.912-0.164-2.918-0.254
			c-7.29-0.731-16.284-2.224-20.19-2.548c-3.575-0.326-4.079-0.569-5.726,0.782c0,0-0.968-0.102-2.199,1.461
			c-0.569,0.101-3.206,0.294-1.421,1.634c-10.027,0.539-3.709,2.701-2.009,3.381c0,0,0.441,1.127,3.924,1.574
			c0,0,0.24,0.69,3.431,0.822c0,0,1.585,2.71,10.35,2.609c7.405-0.436,12.06-0.943,15.698-1.249c2.484-0.243,4.88-0.274,7.222-0.457
			c2.735,1.188,5.696,2.274,8.285,3.25c0,0-6.66,1.513-9.632,6.041c-1.134,1.746-1.304,2.833,15.796,2.061
			c0,0,7.036,1.289,14.496,2.05c-0.764,1.794-0.721,3.896,0.917,5.125c3.051,2.114,6.338,3.749,9.717,5.617
			c1.195,0.805,0.685,1.37-0.171,2.009c-3.767,2.096-5.119,4.406-5.829,7.534c-0.612,0.897-1.073,1.881-1.382,2.912
			c-0.607,2.071-0.412,4.081,0.509,5.604c-3.384,8.137-6.374,17.157-8.88,24.551c-1.17,3.558-2.329,6.984-3.336,9.867
			c-2.287,3.535-5.799,6.618-7.637,7.73c-0.716,0.412-1.232,0.437-1.304,0.383c-0.08-0.099-0.34-0.529-0.328-1.729
			c0-2.556,0.673-5.5,1.747-8.536c2.748-5.978,6.636-11.749,9.802-15.005c1.286-1.353,2.985-4.75,2.669-6.459
			c0.073-1.032-0.339-2.04-1.007-2.71c-0.983-1.001-2.821-3.079-3.391-4.031c-0.437-0.75-1.098-1.235-1.893-1.382
			c-0.915-0.142-1.893,0.165-2.771,0.928c-2.809,2.352-6.236,2.912-11.088,1.795c-3.039-0.708-4.841-0.124-5.666,1.892
			c-1.249,3.023-1.929,5.512-2.353,7.803c-0.541,0.682-1.462,1.413-2.348,1.961c0.103-21.121-7.045-28.304-13.234-30.548
			c-5.46-2.003-10.987-1.474-15.546,1.42c-3.913,2.489-6.785,6.464-8.038,10.896c-0.754,1.389-1.352,2.881-1.744,4.406
			c-4.229,4.707-7.63,10.527-9.915,16.814c-2.592,5.671-4.243,11.896-4.758,18.14c-0.93,11.533,1.194,21.127,6.162,27.75
			c2.952,3.978,7.838,6.651,12.719,6.975c5.606,0.413,10.892-1.541,15.697-5.817c5.756-5.71,10.263-12.825,13.009-19.93
			c2.381-5.757,4.11-12.402,4.925-17.919c3.524-1.74,7.261-4.745,9.135-7.878c0.729,0.204,1.498,0.301,2.256,0.319
			c-2.044,3.374-3.718,6.987-4.985,10.429c-3.1,6.906-4.708,13.758-4.489,17.716c0.109,1.777,0.424,7.239,5.156,9.058
			c2.681,1.039,6.69,0.405,9.554-1.529c1.71-1.161,5.543-4.001,8.983-8.321c1.862,3.405,5.29,3.393,6.618,3.393
			c5.896,0,13.605-5.544,18.616-13.096c1.801,2.466,4.398,3.952,7.485,4.191c6.605,0.498,12.744-3.987,15.662-8.356
			c1.894-2.821,3.488-5.659,4.684-9.219c1.17-2.433,2.049-5.033,2.741-8.332c0.115-0.105,0.212-0.185,0.321-0.265
			c-0.34,2.709-0.389,5.624-0.249,7.602c0.219,2.377,1.292,4.683,2.966,6.335c1.584,1.573,3.73,2.391,6.065,2.305
			c6.333-0.252,15.213-7.711,20.054-14.963c2.293,2.924,5.429,4.454,9.48,4.651c6.303,0.283,12.035-3.595,17.519-11.908
			c0.85-1.271,1.662-2.705,2.463-4.229c0.261,1.833,1.093,3.576,2.275,4.787c1.474,1.482,4.427,3.068,7.886,2.631
			c5.762-0.743,10.166-4.468,12.07-9.807c1.649,1.426,1.88,2.802,1.88,3.165c-1.323,1.615-3.105,2.943-4.7,3.938
			c-2.942,1.838-6.855,3.301-8.936,4.094c-7.801,2.93-61.477,22.336-108.838,39.464c-25.864,9.351-52.089,18.864-74.222,26.864
			l-1.611,3.959l3.015,4.294c12.485,0.099,21.388,2.184,28.7,7.209l1.327,0.964l1.139-1.21c7.764-8.148,22.673-15.417,33.712-20.29
			c29.887-13.225,61.355-25.976,93.334-39.039c16.257-6.62,29.104-11.85,31.548-12.985c6.048-2.827,13.272-8.604,14.576-16.53
			c0.347-1.309,0.54-2.705,0.54-4.247c0-4.811-3.166-8.646-8.741-10.882c-0.096-2.962-4.015-10.902-6.284-14.915
			c-0.6-1.321-0.673-3.054-0.261-4.577l0.783-3.209l-11.622,2.993c-1.995,1.353-4.671,7.878-6.146,11.234
			c-1.376,3.165-3.688,7.786-5.543,11.479l-0.097,0.104c-4.562,9.106-7.559,12.56-11.04,12.707c-0.315,0-0.649,0-0.928-0.099
			c3.378-2.194,5.628-4.578,7.036-6.458c2.051-2.692,3.815-6.2,4.646-9.556c1.116-3.127,1.322-6.354,0.521-9.144
			c-1.322-4.726-6.022-7.608-10.48-6.422c-4.429,1.167-8.547,4.646-11.617,9.832c-0.648,1.087-1.982,3.521-3.093,6.76
			c-1.504,3.147-3.378,8.217-3.439,13.827c-2.457,3.312-5.313,6.538-7.376,7.873c-2.074,1.309-3.13,1.26-3.287,1.179
			c-0.475-0.264-0.88-0.582-1.062-1.812c-0.225-1.604,0-3.694,0.419-6.354c5.805-4.731,10.433-9.93,13.733-15.46
			c1.789-2.975,3.487-6.612,4.786-10.294c1.516-3.729,2.468-7.589,2.881-11.528c0.405-3.785-0.595-6.82-2.839-8.729
			c-1.862-1.564-5.083-1.178-6.673-0.559c-7.601,2.914-14.903,15.624-18.755,25.787c-1.268,2.925-2.329,5.776-3.082,8.296
			c-0.764,2.538-1.382,4.762-1.959,7.036c-0.636,0.479-1.249,0.947-1.844,1.34c-0.34-3.614-1.262-5.967-2.189-8.081
			c-1.965-4.45-4.976-6.028-7.376-6.938c-3.943-1.469-8.632-0.596-12.66,2.268c-2.134,1.512-3.421,3.22-4.452,5.794
			c-1.17,2.268-2.02,4.573-2.183,6.938c-1.57,2.545-7.389,13.25-6.054,25.342c-1.85,2.482-3.555,4.598-6.12,5.433
			c-0.395,0.13-1.414,0.099-1.656-0.177c-0.444-0.444-0.328-1.482-0.159-2.188c1.372-5.728,7.644-24.343,11.332-34.057l1.383-3.656
			l-0.928,0.258c0.2-0.437,0.266-0.978,0.339-1.4c0.601-0.873,1.092-1.832,1.383-2.865c0.43-0.105,0.782-0.172,0.953-0.246
			c0.448-0.19,1.819-1.701,2.426-2.759c0.588-1.076-0.121-2.132-0.121-2.132c1.541-2.538-9.342-8.05-10.094-8.461
			c-3.208-1.715-3.687-2.152-3.76-2.219c-0.977-1.444,1.117-2.734,2.711-3.466c1.632-0.239,3.264-0.406,4.889-0.59
			c26.047-2.931,29.231-14.922,31.506-22.547c0.37-1.269,0.873-3.391,0.765-6.457c-0.23-6.681-0.279-2.356,0-7.097
			c0.097-1.594,5.89-6.386,5.623-9.706c0,0,2.492-1.452,4.931-2.457c1.33-0.549,3.246-1.372,5.198-2.082
			c-1.892-1.198-3.135-1.442-4.599-1.645c-2.335-0.325-3.978-0.365-6.695-0.771c0,0-0.679-1.604-3.779-3.279
			c-1.062-0.579-2.341-0.843-4.101-0.792L144.363,30.215z M173.588,90.459c0.098,1.85-0.412,3.361-1.084,4.935
			c-1.814,4.258-4.429,8.64-7.262,12.296c0.771-2.366,1.56-4.848,2.597-7.208C169.239,97.292,171.41,92.013,173.588,90.459z
			 M213.854,104.888c0.334,0.964,0.746,1.94,1.165,2.905c-1.402,0.437-2.536,1.027-3.446,1.642
			C212.331,107.8,213.096,106.221,213.854,104.888L213.854,104.888z M192.247,106.344c0.897,0.639,0.534,2.107,0.072,3.115
			c-1.013,2.077-3.208,3.509-6.041,4.996c0.098-0.928,0.377-1.96,0.771-2.863c1.183-2.679,2.542-4.197,3.294-4.682
			C190.889,106.553,191.714,105.963,192.247,106.344z M45.718,116.091c7.303-0.406,6.546,16.1,6.44,18.883
			c-2.543-0.307-4.786-1.426-6.801-3.393c-2.845-2.801-5.124-7.748-4.259-12.885C41.8,117.404,43.02,116.169,45.718,116.091
			L45.718,116.091z M131.857,116.761c0.654-0.117,1.346,0.116,1.934,0.533c1.201,0.842,1.935,3.498,1.723,7.109
			c-1.691-0.104-2.917-1.056-3.997-2.175c-1.074-1.388-1.613-2.956-1.596-4.417C130.455,117.195,131.146,116.876,131.857,116.761z
			 M218.481,118.131c-0.34,0.435-1.28,0.891-2.553,0.891c-0.632,0-1.171-0.221-1.511-0.628c1.03-0.447,2.632-0.656,4.27-0.606
			C218.628,117.915,218.628,117.946,218.481,118.131L218.481,118.131z M125.111,134.103c2.608,1.4,5.544,2.212,8.268,2.278
			c-0.321,1.271-0.509,2.593-1.079,3.688c-2.294,4.375-3.519,5.027-4.871,5.106c-2.948-1.216-2.839-8.038-2.306-11.072H125.111z
			 M31.614,138.912c4.845,5.826,11.054,8.426,19.166,8.021c-0.645,4.517-2.006,9.905-3.619,14.342
			c-2.589,5.636-6.655,12.586-12.457,11.405c-6.904-1.463-7.925-14.906-6.957-23.008C28.191,145.562,29.507,142.091,31.614,138.912z
			"/>
		<path id="path3840" d="M218.985,151.094v-3.646h-1.28v-0.748h3.446v0.748h-1.28v3.646H218.985z"/>
		<path id="path3842" d="M222.012,151.094v-4.395h1.317l0.782,3.005l0.776-3.005h1.328v4.395h-0.826v-3.462l-0.86,3.462h-0.843
			l-0.861-3.462v3.462H222.012z"/>
	</g>
	<g id="layer6">
		<path id="path16496" fill="#F1491C" d="M129.691,83.223c8.546-2.985,11.979-8.123,14.345-12.407
			c0.327-0.589,0.57-1.158,0.788-1.716c2.537-6.498,2.815-9.869,2.105-12.529c-0.097-0.63-0.321-1.158-0.57-1.401
			c0,0,1.141,2.863-2.978,6.224c-0.812-0.224-1.783-0.62-2.984-1.311c0,0,1.909-0.101,3.262,0.366c0,0-2.474-2.681-6.501-4.782
			c0,0,1.632-0.284,2.655-0.437c-1.164-0.568-3.717-0.873-6.957-3.168c-2.001-2.244-1.521-3.462-1.521-3.462
			c-1.243,2.295-0.382,3.828-0.382,3.828s1.474,1.147,2.007,1.686c1.937,1.898,2.045,2.498,2.045,2.498
			c-1.674-1.514-8.08-2.863-8.08-2.863l2.548,1.614c-2.809-1.056-6.436-1.381-6.436-1.381l1.395,0.996
			c-4.349-0.214-6.774,0.385-8.085,0.964c-1.025,0.437-1.334,0.762-1.334,0.853c-0.103,0.102-0.103,0.112-0.103,0.112
			s0.26,0,0.655-0.102c1.328,0.121,3.949,0.386,4.27,0.477l-0.662-0.792c0,0,2.1-0.579,4.78,0.375l-0.673-0.721v-0.101
			c0.098,0,2.536,0.193,4.733,1.35l-0.717-0.863l-0.097-0.102c0.31,0.102,5.483,1.401,7.188,3.351
			c-1.687-0.853-5.162-2.061-9.771-0.437l0.982-1.218c0,0-2.736,0.335-6.618,2.01l0.812-0.883c-1.456,0.639-3.3,1.309-4.33,2.913
			c-0.65,1.005,0.26,2.894,2.274,2.295c0.2,1.188,1.376,1.787,2.547,1.401c0.419,1.218,1.553,2.011,3.318,1.371
			c1.25,2.518,3.464,1.482,4.125,1.046c0.322,0.812,1.335,0.954,1.855,1.045c-1.042,2.294-2.983,3.412-5.312,4.132
			c-1.693,3.177-10.112,6.172-19.963,8.833c-4.774,1.015-9.638,1.959-9.899,2.163c-0.207,0.153-0.11,0.437,0.31,0.518
			c0.314,0.103,3.287,0.752,4.882,0.967c0.364,0.099,1.043,0.099,1.413,0.147c0,0-0.703,1.371-0.697,2.735
			c0,1.604,1.298,2.537,1.746,2.759l2.087-0.295c-0.141-0.437-0.231-0.934,0.2-1.671c1.322-2.305,6.399-2.772,7.751-2.938
			C116.625,86.126,122.212,85.832,129.691,83.223L129.691,83.223z"/>
		<path id="path16500" fill="#F1491C" d="M83.609,71.771c0.637-2.01,4.205-3.869,4.205-3.869c5.252-6.487,17.548-8.995,17.548-8.995
			c-1.183-1.341-5.466-1.646-5.466-1.646c0.073-0.314-0.079-2.192-0.079-2.192c-9.475,1.401-13.714,4.518-16.868,6.355
			c-3.276,1.918-6.164,2.487-10.621,3.807c-1.142,0.346-4.811,0.772-6.558,0.944l-0.424,0.244l3.53,1.005l-4.242,0.305
			c2.058,0.102,6.129,0.548,6.129,0.548c-0.357,0.102-4.683,0.477-4.683,0.477c0.94-0.112,8.602,1.432,8.602,1.432
			c-0.345,0.163-5.011,0.386-5.011,0.386c3.373,0.102,8.505,1.198,8.505,1.198c-0.304,0.102-4.604,0.741-4.604,0.741
			c0.497-0.173,6.557,2.669,6.557,2.669c0.703-1.29,3.469-3.411,3.469-3.411"/>
		<path id="path16548" fill="#F1491C" d="M39.031,71.263c1.714,0,17.515,0.984,28.449,0.731c0,0-26.567-1.046-33.848-1.656
			C33.633,70.338,36.962,71.243,39.031,71.263"/>
		<path id="path16552" fill="#F1491C" d="M28.612,67.861c0,0,1.722,0.995,4.328,1.137c2.622,0.152,21.961,1.392,31.886,1.696
			C64.827,70.694,35.901,68.623,28.612,67.861"/>
		<path id="path16556" fill="#F1491C" d="M61.367,67.395c0,0-21.683-2.193-25.805-1.989c-1.19,0.101-0.891,0.507-0.891,0.507
			C36.423,65.72,61.367,67.395,61.367,67.395"/>
		<path id="path16560" fill="#F1491C" d="M44.22,63.516c-3.751-0.386-3.967,0-3.967,0c3.583,0.163,23.129,2.843,23.129,2.843
			s-15.417-2.427-19.162-2.823"/>
		<path id="path16564" fill="#F1491C" d="M44.82,73.375c3.76,0.131,18.508-0.346,18.508-0.346s-19.177-0.192-22.737-0.527
			C40.591,72.502,41.083,73.263,44.82,73.375"/>
		<path id="path16568" fill="#F1491C" d="M61.959,66.755c0,0-13.664-1.797-18.715-2.305c-7.335-0.761-6.452,0.102-6.452,0.102
			c3.053-0.142,25.167,2.264,25.167,2.264"/>
		<path id="path16668" fill="#F1491C" d="M108.709,87.933c-3.919,0.812-3.488,3.238-3.488,3.238l1.663-0.27
			C106.375,89.131,108.709,87.933,108.709,87.933"/>
		<path id="path16676" fill="#F1491C" d="M118.529,102.319c0,0,0.553,0.836,0.292,1.77c0,0.326,0,0.675,0,1.014
			c0.983-1.008,1.735-2.083,1.261-2.759c0,0,2.753-2.458-13.369-10.349c0,0-0.509,0.11-1.183,0.172l2.936,1.708
			c1.783,0.971,11.616,5.905,10.069,8.444"/>
		<path id="path16712" fill="#F1491C" d="M220.089,119.206c-1.104,1.203-2.322,1.757-4.179,1.757c-3.73,0-5.314-4.399-2.434-7.202
			c1.742-1.665,4.707-2.225,8.365-1.812C222.412,115.438,221.399,117.762,220.089,119.206 M191.077,101.318
			c1.291-0.842,3.008-1.34,3.979-0.523c1.05,0.873,1.262,2.305,0.892,4.406c-1.024,5.838-4.628,9.401-11.896,12.407
			C184.052,109.815,188.863,102.786,191.077,101.318 M138.189,125.947c-3.877,1.289-6.351-0.609-8.038-2.354
			c-1.449-1.518-2.231-3.528-2.14-5.679c0.096-2.71,1.389-5.248,3.365-6.464c1.534-0.935,3.536-0.935,5.168,0.233
			C139.354,113.693,139.784,119.876,138.189,125.947 M129.823,146.483c-0.872,0.579-2.007,0.773-2.813,0.603
			c-4.331-0.927-4.713-8.48-3.851-13.016c0.442-2.42,0.831-5.068,1.984-7.343c3.839,3.035,8.818,4.185,12.294,3.533
			C136.206,136.88,133.251,144.205,129.823,146.483 M55.069,136.971c-4.944,0.326-8.258-1.235-11.057-3.987
			c-3.215-3.159-5.214-7.738-5.214-11.929c0-4.146,1.693-7.859,4.422-9.696c2.06-1.395,4.475-1.603,6.859-0.609
			C55.854,113.196,56.292,126.495,55.069,136.971 M49.818,159.966c-1.854,4.554-4.906,10.521-8.881,13.212
			c-2.422,1.654-4.105,1.962-6.619,1.42c-8.267-1.764-9.597-15.86-8.482-25.176c0.769-6.349,3.438-12.796,7.39-17.718
			c5.182,7.443,11.818,10.184,21.383,9.078C54.078,146.557,52.117,154.355,49.818,159.966 M173.099,85.709
			c3.808-3.704,4.761,0.344,3.596,4.154c-2.645,8.579-8.855,19.486-15.311,24.654C163.083,106.111,170.022,88.695,173.099,85.709
			 M228.557,110.289c0.625-2.691-3.239-10.169-4.9-13.341c-0.521-0.995-0.929-1.763-1.183-2.304
			c-0.813-1.776-0.94-3.797-0.432-5.758l-7.994,2.016c-1.692,1.954-3.73,6.341-5.436,10.263c-1.412,3.25-3.719,7.835-5.653,11.688
			c-4.349,8.696-7.807,13.562-12.647,13.764c-2.941,0.142-4.476-1.48-6.07-4.712c5.573-2.224,9.65-5.494,12.229-8.911
			c3.317-4.388,4.215-9.402,3.195-12.998c-0.981-3.484-4.543-6.022-8.157-5.069c-3.968,1.057-7.699,4.29-10.452,8.966
			c-2.583,4.338-5.113,11.171-4.549,17.791c-2.16,3.206-6.594,9.15-9.997,11.3c-1.94,1.247-3.948,1.917-5.211,1.235
			c-1.109-0.585-1.801-1.488-2.05-3.239c-0.351-2.618,0.17-6.01,1.188-10.901c13.291-10.263,19.437-21.827,20.618-33.208
			c0.279-2.582-0.12-5.302-2.165-7.039c-1.141-0.954-3.627-0.67-4.762-0.223c-7.916,3.046-15.965,18.6-19.054,28.837
			c-1.291,4.289-2.08,7.491-2.831,10.889c0,0-4.592,3.761-6.206,4.137c0-5.15-1.025-7.934-2.165-10.508
			c-1.65-3.736-4.118-5.1-6.291-5.912c-3.53-1.309-7.468-0.387-10.778,1.948c-2.402,1.721-4.816,4.96-4.276,9.415
			c-3.039,3.656-5.641,10.367-6.065,15.571c-0.268,3.251-0.268,6.488,0.254,9.133c-1.596,2.992-6.115,9.314-9.766,9.856
			c-1.353,0.189-2.651,0-3.343-0.873c-0.747-0.948-0.916-2.255-0.522-3.909c1.414-5.88,7.716-24.61,11.416-34.326
			c-1.056,0.301-7.928,2.544-9.08,2.87c-3.179,8.001-8.468,24.747-11.495,33.079c-2.354,4.142-6.563,7.988-8.917,9.39
			c-1.959,1.167-4.568,1.253-4.562-3.012c0.079-9.506,8.097-23.086,13.757-28.919c0.777-0.823,0.504-1.936,0.073-2.401
			c-0.874-0.886-2.936-3.189-3.664-4.431c-0.108-0.172-0.285-0.381-0.594-0.442c-0.321-0.105-0.771,0.111-1.213,0.499
			c-3.258,2.746-7.303,3.439-12.727,2.212c-3.099-0.719-3.378,0.263-3.657,1.198c-0.261,0.934-0.498,3.423-0.704,4.596
			c-0.563,3.11-4.397,5.85-7.611,7.265c0.708-17.98-3.59-29.019-11.872-32.036c-4.852-1.757-9.75-1.388-13.879,1.236
			c-4.359,2.777-7.504,7.823-7.803,13.303c-8.551,8.487-13.256,20.771-14.117,31.463c-0.893,11.036,1.108,20.187,5.773,26.405
			c2.738,3.675,7.205,5.942,11.327,6.237c5.074,0.376,9.888-1.456,14.294-5.364c9.481-8.406,15.517-25.104,16.108-37.246
			c4.274-1.302,10.079-5.782,11.293-9.567c2.426,1.647,5.908,0.743,9.11,0.153c-8.874,8.965-13.83,24.568-13.484,30.763
			c0.17,2.82,0.807,6.146,3.918,7.361c2.129,0.824,5.514,0.189,7.812-1.357c3.428-2.33,7.776-6.219,10.827-11.099
			c0.528,5.671,3.761,5.857,5.848,5.857c5.501,0,14-6.208,18.725-15.087c1.401,3.988,4.229,5.918,7.503,6.183
			c5.763,0.435,11.265-3.491,13.939-7.492c3.239-4.854,5.326-9.555,6.253-17.058c0,0,3.536-2.194,5.963-4.129
			c-0.843,2.463-1.449,8.688-1.182,11.884c0.169,2.053,1.091,3.857,2.358,5.12c1.184,1.186,2.797,1.818,4.647,1.744
			c6.192-0.265,16.038-8.942,20.126-16.752c2.292,4.731,5.72,6.243,9.577,6.439c5.696,0.253,10.797-3.404,15.825-11.047
			c2.476-3.719,4.75-8.905,6.818-13.36c2.231-4.978,4.465-10.01,6.63-12.106c-0.097,3.466,3.81,10.797,5.193,12.838
			c-9.16-0.609-12.557,4.842-12.738,7.822c-0.122,2.015,0.739,4.026,1.794,5.069c1.136,1.149,3.531,2.428,6.298,2.072
			c5.325-0.689,10.189-4.578,11.27-10.975c4.089,2.089,4.992,4.965,4.95,6.402c-0.146,4.463-4.275,7.535-7.364,9.476
			c-3.093,1.93-7.128,3.455-9.292,4.265c-7.826,2.926-61.488,22.337-108.833,39.453c-34.295,12.406-64.386,23.283-71.774,25.994
			l1.022,1.443c15.417,0.829,22.207,2.851,28.747,7.472c8.504-8.978,22.129-14.889,33.975-20.562
			c4.513-2.193,60.791-25.81,93.735-39.211c16.226-6.6,29.066-11.848,31.45-12.942c6.424-3.01,12.375-6.919,12.375-15.005
			c0-5.255-4.447-8.143-8.656-9.538"/>
		<path id="path16716" fill="#F1491C" d="M110.111,111.985c2.706,0,5.611-2.526,6.515-5.666c0.922-3.104-0.54-5.636-3.246-5.636
			c-2.7,0-5.623,2.532-6.538,5.636C105.943,109.459,107.405,111.985,110.111,111.985"/>
	</g>
	<g id="layer7">
		<path id="path16508" fill="#B0B7BB" d="M104.118,63.791c-1.523,0.386-3.64,1.126-4.689,2.437c0,0,3.227,1.502,10.082-0.488
			c-6.357,1.686-9.323,0.285-9.323,0.285C101.08,64.917,102.704,64.217,104.118,63.791z"/>
		<path id="path16512" fill="#B0B7BB" d="M103.687,68.49c-7.146,0.793-10.688,0-10.688,0c0.771-1.055,1.517-1.339,2.274-1.806
			c-0.958,0.395-2.341,1.157-3.002,2.171c0,0,3.421,0.793,10.682,0c-1.188,0.661-2.111,1.513-2.111,1.513
			c7.425,0.955,12.727-1.259,14.097-1.919c-2.123,0.833-6.854,2.366-13.387,1.574C101.552,70.024,102.534,69.161,103.687,68.49
			L103.687,68.49z"/>
		<path id="path16516" fill="#B0B7BB" d="M109.941,72.329c3.821-0.087,7.102-1.144,7.691-3.151
			C116.516,71.349,112.439,72.084,109.941,72.329z"/>
		<path id="path16520" fill="#B0B7BB" d="M120.344,70.248c-1.377,2.375-4.143,3.279-6.218,3.482
			C116.013,73.832,119.082,73.171,120.344,70.248z"/>
		<path id="path16524" fill="#B0B7BB" d="M123.619,70.979c-1.116,2.325-3.367,3.98-6.004,3.686
			C119.604,74.695,121.866,73.619,123.619,70.979z"/>
		<path id="path16528" fill="#B0B7BB" d="M91.585,79.274c-7.327,1.167-10.287,0.182-10.287,0.182s0.267-0.406,0.855-0.822
			c-0.995,0.528-1.717,1.32-1.717,1.32s3.009,0.822,10.336-0.345c12.575-2.01,17.142-3.98,18.325-4.589
			C107.163,75.862,102.274,77.568,91.585,79.274"/>
		<path id="path16532" fill="#B0B7BB" d="M89.347,71.303c-0.466,0.254-1.461,0.863-2.044,1.715c0,0,2.857,1.28,11.289-0.243
			c-8.08,1.351-10.554-0.112-10.554-0.112C88.401,72.096,88.893,71.649,89.347,71.303L89.347,71.303z"/>
		<path id="path16540" fill="#B0B7BB" d="M131.396,69.09c0.511-0.132,1.207-0.434,2.312-1.581c1.831-1.899,2.171-2.905,2.856-4.037
			c-0.631,0.815-1.965,2.475-2.989,3.409c-1.172,1.067-1.814,1.475-2.586,1.75c-1.903,4.655-5.64,5.586-5.835,5.63
			c-0.691,2.14-8.043,4.928-17.766,7.299c6.884-1.24,17.554-4.288,18.155-6.775C126.95,74.471,130.043,72.786,131.396,69.09z"/>
		<path id="path16572" fill="#B0B7BB" d="M128.182,68.146c2.03-1.32,3.79-4.071,4.36-5.114c-1.661,2.211-3.512,3.936-5.132,4.869
			c-1.928,1.118-3.178,0.326-3.87-0.801C123.819,68.197,125.414,69.933,128.182,68.146z"/>
		<path id="path16580" fill="#B0B7BB" d="M115.752,64.098c0.399,0.345,0.781,0.626,1.923,0.434c0.66-0.162,2.134-1.066,2.929-1.695
			c0.558-0.446,1.213-1.086,1.801-1.807c-1.031,1.076-2.123,1.815-2.554,2.099c-1.34,0.874-2.134,0.998-2.317,1.028
			c-1.322,0.233-2.093-0.439-2.274-1.109C115.261,63.382,115.43,63.803,115.752,64.098z"/>
		<path id="path16584" fill="#B0B7BB" d="M125.136,61.921c-1.777,1.917-3.331,3.276-4.975,3.605
			c-0.976,0.196-1.771,0.085-2.432-1.052c0.097,0.426,0.339,1.052,1.092,1.407c0.37,0.153,1.371,0.254,2.123-0.182
			C122.249,64.938,124.074,63.637,125.136,61.921L125.136,61.921z"/>
		<path id="path16596" fill="#B0B7BB" d="M150.114,34.063l0.898,2.335c0,0-0.952,1.096-2.075,3.127c0,0,6.685-2.467,13.188-3.057
			c0,0-0.431-0.254-0.886-0.375c-1.062-0.284-4.409-0.874-8.297-0.894c-0.402,0-1.032-0.263-1.493-0.558
			C150.636,34.124,150.114,34.063,150.114,34.063z M152.432,35.951c0.691,0,1.474,0.102,2.062,0.152l-2.984,0.894
			C151.51,36.997,150.951,35.951,152.432,35.951z"/>
		<path id="path16600" fill="#B0B7BB" d="M151.521,40.063c0,0-0.26,1.097-0.303,1.756c2.153-1.563,5.963-3.421,10.293-4.965
			c-4.452,1.046-8.249,2-12.277,3.462C150.029,40.216,151.521,40.063,151.521,40.063z"/>
		<path id="path16612" fill="#B0B7BB" d="M145.013,38.642c0.184-0.325,0-0.366-0.17-0.101c-0.557,0.66-1.443,0.994-2.213,1.045
			c-0.971,0.102-1.754-0.863-1.784-1.848c-0.096-1.96,1.716-2.559,2.888-1.96c0.733,0.376,1.03,0.772,1.463,1.473
			c0.508,0.102,1.073-0.103,1.382-0.163c-0.479-0.569-1.851-1.869-3.245-1.979c-2.838-0.447-3.427,2.68-3.427,2.68
			c0.526,1.807,1.826,2.417,2.614,2.406c1.425,0,2.226-1.136,2.492-1.574V38.642z"/>
		<path id="path16592" fill="#B0B7BB" d="M120.222,65.709c0.334,1.086,0.995,1.716,1.996,1.787c0.661,0,1.462-0.132,2.134-0.569
			c1.803-1.208,3.736-3.004,4.701-4.315c-1.638,1.757-3.069,2.751-4.725,3.797C122.126,67.811,120.805,66.785,120.222,65.709z"/>
		<path id="path16544" fill="#B0B7BB" d="M129.594,69.364c0.062-0.147,0.062-0.188,0.164-0.437c-1.08,0.066-1.989-0.393-2.244-0.732
			C127.816,69.087,129.03,69.283,129.594,69.364z"/>
		<path id="path16536" fill="#B0B7BB" d="M84.095,76.115c0.158-0.52,0.595-0.929,1.037-1.39c-0.559,0.406-1.364,1.096-1.559,1.767
			c0.498,0.371,4.156,1.269,22.085-2.741C99.18,75.08,89.25,77.034,84.095,76.115z"/>
	</g>
	<g id="layer8">
		<path id="path16608" fill="#FFFFFF" d="M143.442,37.576h0.644c0,0-0.171-1.279-1.608-1.158
			C142.478,36.418,143.364,36.52,143.442,37.576"/>
		<path id="path16616" fill="#FFFFFF" d="M150.897,37.271c0,0-0.662,0.883-0.972,1.482c0,0,4.89-1.828,10.095-2.488
			C156.884,36.367,155.769,36.063,150.897,37.271z"/>
		<path id="path16620" fill="#FFFFFF" d="M162.131,36.479c0,0-0.437-0.274-0.892-0.385c-0.261-0.102-3.524-0.864-8.304-0.924
			c0,0-0.861-0.153-1.668-0.681c-0.789-0.518-1.158-0.426-1.158-0.426l0.297,0.7c0,0,1.104,1.147,2.698,0.955
			C154.609,35.525,159.049,35.565,162.131,36.479z"/>
		<path id="path16624" fill="#FFFFFF" d="M106.61,63.222c0,0-1.14,0.163-2.492,0.569c-1.414,0.426-3.058,1.126-3.949,2.234
			c0,0,2.997,1.401,9.341-0.285c0.588-0.162,1.213-0.325,1.862-0.559c0,0-7.267,1.675-9.669,0.539
			C101.704,65.72,102.704,64.349,106.61,63.222"/>
		<path id="path16628" fill="#FFFFFF" d="M103.135,69.577l2.026-1.675c0,0-8.517,1.229-10.215-0.142c0,0,0.462-0.853,2.002-1.747
			c0,0-0.771,0.224-1.644,0.65c-0.862,0.426-1.838,1.025-2.354,1.848c0,0,3.421,0.782,10.688,0
			c-1.183,0.649-2.117,1.523-2.117,1.523c6.515,0.832,11.404-0.741,13.442-1.584c0.667-0.284,1.031-0.457,1.031-0.457
			c-8.729,2.508-12.859,1.574-12.859,1.574"/>
		<path id="path16636" fill="#FFFFFF" d="M120.349,70.228c-1.34,1.309-2.953,2.923-6.271,3.502
			C116.213,73.558,118.839,72.877,120.349,70.228z"/>
		<path id="path16640" fill="#FFFFFF" d="M123.619,70.948c-1.892,1.645-3.373,3.116-6.023,3.726
			C119.871,74.776,122.31,73.172,123.619,70.948z"/>
		<path id="path16644" fill="#FFFFFF" d="M81.201,79.477c0,0,3.058,0.965,10.384-0.203c10.688-1.715,15.572-3.412,17.524-4.255
			c0.801-0.354,1.092-0.558,1.092-0.558c-18.397,5.858-27.678,4.508-27.678,4.508c0-0.437,1.237-1.168,1.237-1.168
			c-0.6,0.172-1.158,0.498-1.607,0.833C81.571,79.061,81.201,79.477,81.201,79.477"/>
		<path id="path16648" fill="#FFFFFF" d="M90.312,70.684c0,0-0.437,0.224-0.953,0.619c-0.454,0.335-0.983,0.802-1.346,1.371
			c0,0,2.506,1.483,10.572,0.102c1.535-0.253,3.257-0.629,5.223-1.126c0,0-11.761,1.938-14.163,0.497
			C89.645,72.146,89.214,71.669,90.312,70.684"/>
		<path id="path16672" fill="#FFFFFF" d="M108.958,72.41L108.958,72.41c2.202-0.149,7.661-0.723,8.777-3.441
			c-2.099,1.878-5.49,3.117-8.79,3.441"/>
		<path id="path16652" fill="#FFFFFF" d="M106.884,73.497c0,0-24.482,4.314-20.721,0.416c0,0-0.576,0.366-1.122,0.884
			c-0.419,0.385-0.837,0.862-0.958,1.33c0.583,0.102,4.525,1.269,20.867-2.213"/>
		<path id="path16656-0" fill="#FFFFFF" d="M131.002,68.638c0.406-0.141,0.801-0.325,1.213-0.602c1.837-1.377,3.372-3.162,4.7-5.04
			c0,0-5.453,7.037-9.136,5.267c-0.157-0.073-0.314-0.172-0.453-0.277l0,0c0.078,0.105,0.169,0.234,0.296,0.339l0.079,0.08
			c0.449,0.326,1.153,0.583,2.039,0.535c-0.067,0.181-0.128,0.288-0.183,0.417c-1.461,3.223-5.386,4.103-5.386,4.103
			c-1.268,3.205-11.877,6.732-20.909,9.075c4.737-1.031,20.635-4.809,21.896-8.256C125.159,74.277,128.999,73.444,131.002,68.638z"
			/>
		<path id="path16660-9" fill="#FFFFFF" d="M125.197,61.872c0.175-0.172,0.285-0.283,0.285-0.283s-5.77,5.131-7.68,2.79
			c-0.079-0.086-0.109-0.126-0.169-0.237c0.466-0.084,0.94-0.29,1.322-0.462c1.662-0.928,2.729-1.918,3.251-2.435
			c0.238-0.239,0.359-0.38,0.359-0.38s-4.726,4.271-7.256,2.132l0,0l0,0l-0.061-0.067c0,0.037,0,0.078,0,0.116
			c0.121,0.43,0.662,1.395,2.336,1.107c0.073,0.196,0.139,0.301,0.188,0.394c0.285,0.566,0.904,1.377,2.486,0.981
			C122.649,64.932,124.529,62.505,125.197,61.872z"/>
		<path id="path16664-4" fill="#FFFFFF" d="M123.589,67.323c0.479,0.701,1.668,1.807,3.845,0.584
			c0.274-0.166,0.662-0.392,0.978-0.632c2.116-1.616,3.415-3.232,4.016-4.012c0.224-0.301,0.292-0.431,0.292-0.431
			s-6.164,6.698-8.894,4.578c-0.06-0.062-0.128-0.1-0.17-0.136c-0.109-0.102-0.199-0.234-0.297-0.375l0,0
			c0.201-0.073,0.625-0.258,1.256-0.639c1.91-1.149,3.852-3.011,4.573-3.718c0.177-0.19,0.285-0.302,0.285-0.302
			s-0.146,0.136-0.394,0.351c-0.08,0.08-0.206,0.166-0.401,0.332c-1.813,1.53-6.345,4.938-8.243,2.966
			c-0.128-0.131-0.219-0.281-0.286-0.392c0.061,0.183,0.085,0.326,0.165,0.474c0.345,0.64,1.449,1.533,3.038,0.928
			C123.352,66.898,123.456,67.155,123.589,67.323L123.589,67.323z"/>
	</g>
</g>
</svg>
