<?xml version="1.0" encoding="utf-8"?>
<!-- Generator: Adobe Illustrator 16.0.4, SVG Export Plug-In . SVG Version: 6.00 Build 0)  -->
<!DOCTYPE svg PUBLIC "-//W3C//DTD SVG 1.1//EN" "http://www.w3.org/Graphics/SVG/1.1/DTD/svg11.dtd">
<svg version="1.1" id="Layer_1" xmlns="http://www.w3.org/2000/svg" xmlns:xlink="http://www.w3.org/1999/xlink" x="0px" y="0px"
	 width="250px" height="250px" viewBox="0 0 250 250" enable-background="new 0 0 250 250" xml:space="preserve">
<g>
	<path fill="#1C3465" d="M237.006,126.001c0,14.791-2.94,29.579-8.602,43.245c-5.66,13.665-14.035,26.2-24.495,36.658
		c-10.459,10.461-22.993,18.836-36.659,24.497c-13.665,5.66-28.453,8.602-43.247,8.602c-14.791,0-29.576-2.94-43.241-8.602
		c-13.668-5.661-26.201-14.037-36.662-24.497c-10.46-10.458-18.835-22.993-24.496-36.658c-5.661-13.665-8.603-28.454-8.603-43.245
		c0-14.792,2.941-29.578,8.603-43.243C25.265,69.091,33.64,56.556,44.1,46.096C54.561,35.636,67.094,27.26,80.762,21.6
		c13.666-5.661,28.451-8.601,43.241-8.601c14.793,0,29.582,2.94,43.247,8.601c13.666,5.661,26.2,14.036,36.659,24.496
		c10.46,10.46,18.835,22.996,24.495,36.662C234.065,96.423,237.006,111.208,237.006,126.001z"/>
	<path fill="#1C3465" d="M201.238,223.31v-4.399h-1.571v-0.894h4.208v0.894h-1.569v4.399H201.238L201.238,223.31z M204.965,223.31
		v-5.293h1.6l0.96,3.61l0.951-3.61h1.603v5.293h-0.991v-4.168l-1.053,4.168h-1.027l-1.048-4.168v4.168H204.965z"/>
	<path fill="#FFFFFF" d="M123.842,46.004c-10.389,0-20.77,2.062-30.364,6.04c-9.598,3.977-18.392,9.855-25.734,17.2
		c-7.345,7.345-13.219,16.144-17.192,25.739c-3.973,9.594-6.03,19.965-6.027,30.349l0,0c0,10.384,2.054,20.755,6.027,30.35
		c3.973,9.595,9.847,18.394,17.192,25.739c7.342,7.346,16.136,13.226,25.734,17.202c9.594,3.975,19.975,6.036,30.364,6.036
		c10.389,0,20.762-2.062,30.358-6.036l0.052-0.027c9.577-3.975,18.353-9.846,25.682-17.177c7.343-7.346,13.22-16.146,17.19-25.74
		c3.973-9.595,6.03-19.965,6.028-30.349l0,0c0-10.383-2.056-20.753-6.028-30.35c-3.971-9.595-9.848-18.394-17.19-25.739
		c-7.345-7.344-16.138-13.224-25.733-17.199l-0.097-0.039c-9.569-3.95-19.909-6.002-30.261-6.002L123.842,46.004L123.842,46.004z
		 M123.842,49.489c9.921,0,19.847,1.974,29.013,5.773c9.169,3.798,17.579,9.42,24.596,16.439l0,0
		c7.014,7.02,12.636,15.436,16.431,24.604c3.798,9.169,5.768,19.101,5.765,29.024l0,0c0,9.926-1.967,19.854-5.765,29.025
		c-3.795,9.17-9.419,17.588-16.436,24.606c-7.015,7.018-15.427,12.642-24.596,16.44c-9.167,3.795-19.093,5.771-29.013,5.771
		c-9.924,0-19.85-1.976-29.016-5.771c-9.166-3.799-17.585-9.423-24.602-16.44l-0.066-0.071
		c-6.944-6.967-12.522-15.304-16.306-24.389l-0.062-0.146c-3.796-9.171-5.769-19.1-5.766-29.025l0,0
		c0-9.924,1.97-19.855,5.766-29.024c3.796-9.17,9.42-17.589,16.434-24.606c7.017-7.018,15.436-12.641,24.602-16.438
		c9.167-3.799,19.092-5.773,29.016-5.773L123.842,49.489z"/>
	<path fill="#FFFFFF" d="M123.908,18.205c-14.015,0-28.02,2.787-40.969,8.149c-12.946,5.366-24.816,13.296-34.73,23.209
		c-9.911,9.91-17.844,21.778-23.208,34.73c-5.364,12.949-8.148,26.955-8.148,40.972c0,14.016,2.784,28.026,8.148,40.978
		c5.364,12.949,13.297,24.819,23.208,34.73c9.914,9.912,21.784,17.842,34.73,23.206c12.949,5.364,26.954,8.15,40.969,8.15
		c14.016,0,28.015-2.786,40.961-8.15c12.913-5.349,24.756-13.251,34.647-23.123l0.083-0.083c9.91-9.911,17.846-21.781,23.209-34.73
		c5.365-12.952,8.15-26.962,8.15-40.978c0-14.018-2.785-28.023-8.15-40.972c-5.363-12.951-13.299-24.819-23.209-34.73
		c-9.91-9.914-21.781-17.844-34.73-23.208C151.923,20.991,137.924,18.205,123.908,18.205L123.908,18.205z M123.908,21.705
		c13.555,0,27.115,2.702,39.638,7.89c12.523,5.188,24.011,12.864,33.597,22.447c9.582,9.584,17.264,21.08,22.452,33.603
		c5.186,12.521,7.881,26.068,7.881,39.62c0,13.55-2.696,27.105-7.881,39.625l-0.034,0.077
		c-5.186,12.491-12.854,23.962-22.418,33.525c-9.584,9.584-21.072,17.258-33.596,22.446c-12.523,5.188-26.083,7.884-39.638,7.884
		s-27.113-2.696-39.635-7.884c-12.526-5.188-24.019-12.86-33.604-22.446c-9.584-9.584-17.266-21.079-22.452-33.604
		c-5.186-12.52-7.884-26.074-7.884-39.625c0-13.532,2.687-27.059,7.858-39.563l0.026-0.057
		c5.185-12.522,12.867-24.019,22.451-33.603c9.585-9.583,21.078-17.259,33.604-22.447C96.795,24.407,110.353,21.705,123.908,21.705
		L123.908,21.705z"/>
	<path fill="#FFFFFF" d="M32.633,103.637c-0.157,0.553-0.349,0.956-0.575,1.207c-0.226,0.254-0.643,0.305-1.243,0.151
		c-0.45-0.072-0.75-0.283-0.901-0.632c-0.152-0.346-0.088-1.066,0.192-2.154c0.18-0.837,0.4-1.42,0.662-1.746
		s0.778-0.385,1.547-0.183l1.029-4.011l-0.646-0.167c-1.42-0.347-2.517-0.314-3.29,0.1c-0.77,0.417-1.351,1.084-1.739,2.004
		c-0.389,0.919-0.72,1.959-0.99,3.125c-0.375,1.364-0.599,2.563-0.666,3.599c-0.067,1.034,0.173,1.905,0.721,2.614
		c0.548,0.706,1.559,1.253,3.031,1.639c1.469,0.372,2.586,0.4,3.351,0.083c0.769-0.317,1.354-0.908,1.763-1.775
		c0.408-0.866,0.809-1.937,1.199-3.215l0.3-0.902c0.275-0.942,0.521-1.53,0.74-1.764c0.216-0.234,0.647-0.252,1.284-0.055
		c0.64,0.149,0.997,0.442,1.068,0.882c0.074,0.436-0.025,1.137-0.295,2.101c-0.231,1.011-0.506,1.682-0.822,2.011
		c-0.318,0.325-0.868,0.38-1.651,0.158l-1.03,4.012c1.685,0.426,2.969,0.457,3.855,0.1c0.883-0.359,1.539-1.011,1.965-1.961
		c0.429-0.948,0.796-2.096,1.109-3.442c0.562-2.26,0.724-3.931,0.482-5.021c-0.244-1.087-0.727-1.829-1.454-2.224
		c-0.729-0.394-1.536-0.683-2.426-0.866c-1.727-0.496-2.984-0.408-3.776,0.262c-0.792,0.67-1.531,2.126-2.225,4.368L32.633,103.637
		L32.633,103.637z M46.707,86.35l2.874,0.434l1.89-3.976l-16.727-2.502l-2.812,5.926L44.46,97.561l1.926-4.053l-2.17-1.916
		L46.707,86.35z M43.491,85.778l-1.723,3.626l-5.489-4.786l0.026-0.039l7.193,1.198H43.491z M44.938,70.676l0.105-0.138
		l12.633,3.963l4.492-5.828L49.35,58.799l-2.633,3.416l10.001,7.381l-0.105,0.136l-12.674-3.912L39.487,71.6l12.816,9.874
		l2.635-3.419L44.938,70.676L44.938,70.676z M70.415,61.068l7.248-4.957c1.836-1.248,2.815-2.565,2.94-3.947
		c0.126-1.384-0.447-2.978-1.723-4.779l-1.911-2.794c-1.274-1.884-2.619-2.926-4.038-3.131c-1.42-0.202-3.045,0.339-4.885,1.626
		l-6.767,4.629L70.415,61.068L70.415,61.068z M66.96,48.376l3.118-2.131c0.604-0.444,1.15-0.624,1.633-0.54
		c0.489,0.084,1.015,0.55,1.59,1.395l1.911,2.794c0.496,0.706,0.739,1.354,0.736,1.945c0,0.59-0.328,1.111-0.976,1.563l-3.115,2.132
		L66.96,48.376L66.96,48.376z M81.89,35.297l-3.878,1.892l7.091,14.542l3.878-1.89L81.89,35.297z M91.985,35.04l6.982-2.309
		l-1.109-3.359l-11.083,3.662l5.078,15.364l11.226-3.709l-1.109-3.361l-7.129,2.357l-0.989-2.991l6.557-2.165l-0.942-2.848
		l-6.554,2.167L91.985,35.04L91.985,35.04z M118.898,31.002c-0.226-1.664-0.686-2.822-1.382-3.472
		c-0.693-0.647-1.584-0.983-2.668-1.006c-1.084-0.026-2.322,0.066-3.711,0.279c-1.579,0.177-2.917,0.485-4.017,0.922
		c-1.096,0.439-1.896,1.135-2.396,2.096c-0.498,0.959-0.637,2.312-0.421,4.058l0.535,4.15c0.221,1.713,0.669,2.969,1.351,3.772
		c0.68,0.801,1.605,1.279,2.771,1.431c1.169,0.155,2.594,0.11,4.274-0.125c1.896-0.221,3.338-0.562,4.333-1.02
		c0.991-0.457,1.626-1.177,1.903-2.155c0.277-0.976,0.293-2.355,0.046-4.137l-0.362-2.802l-7.297,0.938l0.383,2.974l2.953-0.381
		c0.162,1.084,0.067,1.84-0.279,2.266c-0.347,0.429-1.059,0.697-2.131,0.809c-1.1,0.187-1.934,0.124-2.504-0.193
		c-0.568-0.316-0.938-1.166-1.109-2.542l-0.334-2.61c-0.206-1.273-0.169-2.206,0.113-2.796c0.28-0.588,1.161-0.971,2.643-1.146
		c0.666-0.121,1.284-0.136,1.854-0.044c0.567,0.093,0.939,0.525,1.112,1.294L118.898,31.002L118.898,31.002z M129.821,42.68
		c2.215,0.226,4.033,0,5.452-0.7c1.414-0.694,2.23-2.25,2.446-4.667l0.336-4.562c0.14-2.424-0.441-4.084-1.74-4.978
		c-1.3-0.893-3.064-1.389-5.29-1.489c-2.217-0.226-4.033,0-5.45,0.701c-1.418,0.694-2.235,2.25-2.45,4.669l-0.334,4.559
		c-0.141,2.425,0.439,4.084,1.739,4.977C125.832,42.084,127.594,42.58,129.821,42.68z M130.098,38.936
		c-1.104-0.039-1.873-0.236-2.304-0.59c-0.429-0.352-0.609-1.112-0.537-2.278l0.267-3.637c0.1-1.153,0.388-1.872,0.864-2.157
		c0.478-0.283,1.265-0.365,2.362-0.244c1.109,0.04,1.885,0.238,2.326,0.59c0.441,0.352,0.613,1.104,0.514,2.258l-0.267,3.634
		c-0.072,1.166-0.353,1.893-0.84,2.177C131.993,38.974,131.2,39.057,130.098,38.936z M151.756,47.11l1.479-3.87l3.568,1.363
		c2.044,0.812,3.592,0.922,4.639,0.331c1.045-0.593,1.943-1.949,2.698-4.065c0.768-1.952,0.917-3.519,0.449-4.7
		c-0.467-1.181-1.63-2.119-3.492-2.812l-7.601-2.903l-5.77,15.114L151.756,47.11L151.756,47.11z M154.572,39.734l1.617-4.232
		l2.761,1.056c0.771,0.277,1.211,0.614,1.33,1.007c0.117,0.39,0.024,0.965-0.293,1.72c-0.337,0.95-0.671,1.515-1.002,1.69
		c-0.329,0.175-0.881,0.113-1.651-0.185L154.572,39.734L154.572,39.734z M172.024,54.168l-0.756,2.805l3.737,2.327l4.371-16.337
		l-5.567-3.464l-12.67,11.174l3.81,2.371l2.149-1.942L172.024,54.168z M172.957,51.037l-3.407-2.121L174.919,44l0.039,0.026
		l-2.001,7.014V51.037z M176.036,60.211l6.387,6.022c1.613,1.525,3.107,2.204,4.487,2.032c1.376-0.173,2.812-1.074,4.299-2.701
		l2.324-2.466c1.564-1.646,2.299-3.182,2.195-4.613c-0.102-1.428-0.979-2.902-2.629-4.424l-5.966-5.623L176.036,60.211
		L176.036,60.211z M187.699,54.129l2.747,2.588c0.562,0.499,0.854,0.991,0.876,1.485c0.025,0.491-0.318,1.107-1.023,1.847
		l-2.323,2.465c-0.584,0.631-1.167,1.01-1.745,1.132c-0.577,0.123-1.155-0.084-1.735-0.619l-2.746-2.589L187.699,54.129z
		 M197.48,71.226l3.578-2.524l1.929,2.73c0.411,0.562,0.581,1.027,0.508,1.392c-0.073,0.362-0.404,0.745-0.993,1.143
		c-0.717,0.555-1.286,0.876-1.708,0.96c-0.421,0.083-0.884-0.239-1.387-0.971L197.48,71.226L197.48,71.226z M188.418,72.34
		l2.488,3.526l3.508-2.476l1.927,2.73c0.364,0.532,0.478,1.017,0.342,1.457c-0.137,0.441-0.463,0.826-0.979,1.158l-1.85,1.307
		l2.488,3.525l2.661-1.88c0.744-0.536,1.161-1.156,1.256-1.856c0.095-0.702-0.103-1.425-0.591-2.176l0.142-0.1
		c1.133,0.996,2.124,1.39,2.971,1.181c0.851-0.208,1.807-0.726,2.867-1.553c1.604-1.133,2.412-2.266,2.418-3.401
		c0-1.135-0.536-2.458-1.627-3.971l-4.803-6.804L188.418,72.34L188.418,72.34z M211.01,84.856l3.041,6.698l3.221-1.463
		l-4.825-10.627l-14.731,6.692l4.89,10.764l3.221-1.464l-3.105-6.834l2.869-1.305l2.854,6.287l2.729-1.24l-2.853-6.287
		L211.01,84.856L211.01,84.856z M214.721,103.01c-0.12-0.562-0.141-1.006-0.062-1.337c0.081-0.329,0.421-0.571,1.022-0.72
		c0.433-0.149,0.797-0.105,1.095,0.131c0.297,0.233,0.579,0.896,0.85,1.99c0.236,0.822,0.318,1.438,0.242,1.852
		c-0.081,0.411-0.507,0.706-1.28,0.891l0.99,4.022l0.648-0.159c1.416-0.365,2.366-0.912,2.849-1.641
		c0.485-0.732,0.681-1.595,0.589-2.586c-0.09-0.994-0.294-2.068-0.602-3.223c-0.315-1.383-0.686-2.543-1.114-3.488
		c-0.429-0.942-1.053-1.598-1.869-1.962c-0.819-0.367-1.968-0.369-3.447,0c-1.469,0.368-2.468,0.869-2.994,1.511
		c-0.523,0.639-0.763,1.438-0.714,2.396c0.051,0.955,0.203,2.09,0.461,3.399l0.165,0.938c0.201,0.961,0.263,1.595,0.181,1.906
		c-0.082,0.308-0.453,0.527-1.107,0.655c-0.635,0.169-1.086,0.08-1.358-0.272c-0.27-0.352-0.515-1.014-0.729-1.993
		c-0.275-0.999-0.353-1.722-0.227-2.16c0.125-0.439,0.584-0.745,1.376-0.922l-0.985-4.021c-1.687,0.424-2.833,1.002-3.444,1.734
		c-0.608,0.734-0.878,1.621-0.806,2.658c0.071,1.037,0.288,2.221,0.65,3.557c0.569,2.257,1.219,3.807,1.946,4.651
		c0.727,0.845,1.505,1.269,2.332,1.274c0.827,0,1.674-0.121,2.548-0.383c1.756-0.378,2.821-1.051,3.201-2.013
		c0.382-0.963,0.348-2.597-0.102-4.9l-0.304-1.77L214.721,103.01L214.721,103.01z"/>
	<path fill="#FFFFFF" d="M46.746,185.913l3.968,4.354c0.763,0.899,1.5,1.443,2.204,1.637c0.703,0.192,1.543-0.155,2.521-1.043
		c0.537-0.457,0.883-0.931,1.043-1.418c0.157-0.485,0-1.046-0.5-1.677l0.087-0.08c0.571,0.444,1.097,0.605,1.579,0.485
		c0.483-0.124,0.979-0.43,1.487-0.92c0.865-0.802,1.233-1.554,1.097-2.254c-0.134-0.702-0.586-1.452-1.358-2.25l-3.927-4.307
		L46.746,185.913L46.746,185.913z M55.146,182.261l1.674,1.837c0.263,0.304,0.378,0.546,0.35,0.732
		c-0.028,0.184-0.169,0.382-0.421,0.593c-0.313,0.301-0.583,0.432-0.812,0.396c-0.228-0.035-0.51-0.246-0.842-0.63l-1.436-1.573
		L55.146,182.261z M52.139,185.003l1.546,1.694c0.329,0.342,0.511,0.633,0.547,0.868c0.034,0.239-0.113,0.506-0.447,0.802
		c-0.324,0.301-0.619,0.423-0.881,0.369c-0.262-0.054-0.552-0.26-0.868-0.618l-1.505-1.652L52.139,185.003L52.139,185.003z
		 M63.639,199.51l-0.768,1.839l2.332,1.918l4.443-10.711l-3.472-2.856l-9.621,6.452l2.378,1.956l1.636-1.127L63.639,199.51z
		 M64.554,197.466l-2.124-1.749l4.094-2.856l0.026,0.026l-1.993,4.587L64.554,197.466z M76.203,202.366
		c-0.328-0.219-0.552-0.427-0.673-0.627c-0.118-0.201-0.067-0.483,0.157-0.842c0.141-0.281,0.342-0.435,0.599-0.463
		c0.259-0.026,0.716,0.165,1.372,0.57c0.51,0.289,0.844,0.552,1.004,0.791s0.095,0.591-0.197,1.05l2.411,1.5l0.242-0.39
		c0.521-0.857,0.724-1.582,0.61-2.17c-0.113-0.591-0.428-1.109-0.95-1.551c-0.521-0.445-1.135-0.874-1.841-1.293
		c-0.814-0.525-1.554-0.916-2.216-1.174c-0.663-0.256-1.285-0.279-1.86-0.066c-0.575,0.214-1.14,0.761-1.695,1.646
		c-0.544,0.884-0.793,1.608-0.745,2.175c0.051,0.564,0.316,1.071,0.799,1.516c0.482,0.444,1.102,0.927,1.856,1.449l0.529,0.38
		c0.56,0.372,0.897,0.657,1.001,0.847c0.11,0.19,0.034,0.476-0.229,0.854c-0.228,0.388-0.493,0.56-0.796,0.516
		c-0.3-0.041-0.74-0.251-1.312-0.626c-0.617-0.36-0.997-0.676-1.146-0.95c-0.151-0.275-0.072-0.647,0.234-1.112l-2.414-1.5
		c-0.621,1.014-0.909,1.85-0.855,2.501c0.051,0.649,0.344,1.215,0.875,1.688c0.535,0.476,1.208,0.952,2.024,1.436
		c1.361,0.832,2.424,1.282,3.185,1.349c0.763,0.064,1.346-0.101,1.754-0.496c0.408-0.393,0.765-0.862,1.066-1.406
		c0.681-1.028,0.881-1.871,0.606-2.523c-0.275-0.656-1.076-1.44-2.401-2.354L76.203,202.366L76.203,202.366z M88.492,206.95
		l4.612,2.044l0.983-2.216l-7.314-3.247l-4.502,10.143l7.412,3.287l0.983-2.219l-4.705-2.086l0.875-1.976l4.327,1.92l0.832-1.881
		l-4.327-1.918L88.492,206.95L88.492,206.95z M95.49,219.088l5.681,1.554c1.128,0.35,2.039,0.417,2.735,0.203
		c0.699-0.216,1.223-0.959,1.575-2.229c0.208-0.676,0.249-1.261,0.121-1.757c-0.126-0.495-0.564-0.878-1.32-1.147l0.031-0.115
		c0.722,0.072,1.253-0.074,1.594-0.434c0.342-0.363,0.596-0.887,0.763-1.574c0.303-1.142,0.214-1.971-0.277-2.491
		c-0.49-0.522-1.274-0.913-2.355-1.175l-5.622-1.536L95.49,219.088L95.49,219.088z M100.632,211.506l2.396,0.655
		c0.383,0.118,0.614,0.26,0.686,0.432c0.075,0.173,0.064,0.416-0.036,0.727c-0.103,0.422-0.262,0.678-0.475,0.769
		c-0.213,0.092-0.562,0.066-1.048-0.08l-2.055-0.56L100.632,211.506z M99.559,215.43l2.211,0.606
		c0.462,0.11,0.771,0.258,0.927,0.439c0.16,0.183,0.175,0.488,0.051,0.917c-0.112,0.427-0.295,0.688-0.544,0.782
		c-0.252,0.097-0.606,0.078-1.063-0.058l-2.154-0.589L99.559,215.43L99.559,215.43z M117.012,221.417l0.375,1.957l3.001,0.315
		l-2.194-11.388l-4.471-0.471l-4.472,10.687l3.059,0.322l0.742-1.84L117.012,221.417z M116.65,219.206l-2.735-0.288l1.841-4.641
		h0.03l0.865,4.926L116.65,219.206z M127.822,212.459l-2.956,0.139l0.526,11.084l7.579-0.36l-0.12-2.571l-4.626,0.219
		L127.822,212.459L127.822,212.459z M139.109,211.172l-2.903,0.568l2.123,10.89l7.449-1.453l-0.492-2.525l-4.545,0.886
		L139.109,211.172L139.109,211.172z M163.979,209.908l0.143,0.293c0.272,0.565,0.308,0.986,0.105,1.262
		c-0.2,0.277-0.583,0.536-1.146,0.78c-0.766,0.375-1.32,0.446-1.662,0.213s-0.673-0.728-0.996-1.484l-0.748-1.56
		c-0.363-0.69-0.511-1.227-0.445-1.61c0.063-0.38,0.466-0.741,1.204-1.084c0.452-0.236,0.849-0.363,1.188-0.39
		c0.342-0.025,0.643,0.165,0.898,0.573l0.188,0.385l2.749-1.317l-0.188-0.386c-0.487-0.979-0.994-1.631-1.518-1.959
		c-0.524-0.328-1.114-0.419-1.779-0.27c-0.662,0.148-1.449,0.449-2.355,0.904c-0.989,0.454-1.792,0.939-2.406,1.455
		c-0.617,0.518-0.98,1.137-1.094,1.863c-0.113,0.726,0.087,1.636,0.606,2.727l1.24,2.586c0.581,1.195,1.201,1.966,1.864,2.312
		c0.663,0.347,1.377,0.42,2.148,0.216c0.77-0.203,1.606-0.534,2.511-0.994c0.591-0.265,1.138-0.562,1.642-0.893
		c0.502-0.331,0.895-0.786,1.181-1.361c0.252-0.591,0.312-1.15,0.181-1.679c-0.132-0.53-0.338-1.064-0.62-1.604l-0.14-0.293
		L163.979,209.908L163.979,209.908z M169.787,198.595l-2.47,1.633l6.11,9.258l6.333-4.182l-1.416-2.146l-3.865,2.549
		L169.787,198.595L169.787,198.595z M181.879,189.318l4.716,5.447c0.416,0.47,0.582,0.851,0.496,1.144
		c-0.087,0.292-0.371,0.635-0.854,1.022c-0.454,0.428-0.854,0.7-1.199,0.818c-0.342,0.118-0.714-0.049-1.108-0.502l-4.8-5.549
		l-2.237,1.938l4.839,5.591c0.562,0.683,1.107,1.168,1.633,1.451c0.526,0.281,1.143,0.292,1.85,0.027
		c0.703-0.261,1.607-0.872,2.709-1.828c1.241-1.037,1.963-2.008,2.166-2.91c0.206-0.904-0.173-1.9-1.13-2.991l-4.841-5.594
		L181.879,189.318L181.879,189.318z M195.731,191.445l3.836-4.469c0.798-0.867,1.249-1.664,1.353-2.386
		c0.105-0.721-0.342-1.515-1.342-2.376c-0.52-0.477-1.031-0.762-1.535-0.859c-0.501-0.098-1.037,0.136-1.603,0.7l-0.09-0.077
		c0.37-0.62,0.468-1.163,0.288-1.628c-0.18-0.462-0.544-0.916-1.095-1.362c-0.9-0.762-1.689-1.033-2.37-0.815
		c-0.68,0.22-1.368,0.764-2.066,1.626l-3.797,4.424L195.731,191.445L195.731,191.445z M191.078,183.556l1.618-1.885
		c0.269-0.299,0.499-0.444,0.686-0.438c0.186,0,0.398,0.122,0.639,0.348c0.338,0.271,0.501,0.523,0.491,0.755
		c0,0.234-0.181,0.536-0.518,0.914l-1.388,1.618L191.078,183.556L191.078,183.556z M194.168,186.206l1.491-1.741
		c0.299-0.367,0.562-0.585,0.797-0.65c0.23-0.064,0.513,0.052,0.847,0.348c0.339,0.284,0.497,0.56,0.476,0.829
		c-0.026,0.268-0.19,0.578-0.509,0.936l-1.453,1.694l-1.652-1.415H194.168L194.168,186.206z"/>
	<path fill="#FFFFFF" stroke="#FFFFFF" stroke-width="0.16" d="M159.448,96.692c-3.27-2.93-9-6.747-17.26-6.747
		c-4.321,0-41.379,0.026-41.379,0.026v0.74c0,0,0.953,0.034,1.281,0.026c1.433,0.026,2.312,0.555,3.11,1.408
		c0.799,0.85,1.266,1.125,1.266,3.352c0,4.625,0,14.978,0,14.978H94.882c-0.804,0-1.397-0.363-1.824-0.848
		c-0.424-0.486-0.578-0.965-0.578-1.664V87.001c0-2.268,0.75-3.816,1.91-5.345c1.158-1.525,3.658-2.915,6.2-2.915H128.4
		c0.727,0,1.346,0.193,1.864,0.723c0.521,0.526,0.742,1.032,0.742,1.615c0,0.583-0.121,1.325-1.063,2.035
		c-1.068,0.721-2.347,0.7-2.347,0.7v0.784h15.908v-5.768c0-3.208-1.033-6.053-3.563-8.345c-2.526-2.292-5.039-3.421-11.13-3.421
		h-27.437l-0.01-0.003c-6.251,0-11.747,2.89-15.163,6.675c-3.416,3.786-5.398,8.966-5.398,14.108v20.479
		c0,3.963,1.844,7.61,4.258,9.852c2.417,2.242,5.367,3.955,10.075,3.958c11.324,0,33.229,0,34.32,0c0.672,0,1.335,0.336,1.749,0.806
		c0.413,0.47,0.613,1.031,0.613,1.533v19.063c0,2.045-0.853,4.059-2.026,5.401c-1.174,1.347-3.27,2.926-6.448,2.926h-5.201v-25.341
		h-11.686v25.341H94.872c-0.742,0-1.292-0.29-1.73-0.729c-0.439-0.438-0.67-1.07-0.67-1.672c0-0.778,0.043-11.123,0.043-11.123
		s0-1.2,0.316-1.854c0.262-0.542,0.532-1.103,0.943-1.541c0.503-0.537,1.117-1,1.798-1.274c0.806-0.326,2.583-0.396,2.583-0.396
		v-0.778H80.806v16.966c0,3.241,1.171,7.039,4.042,9.918c2.871,2.88,6.279,4.179,10.027,4.179h11.585v15.385
		c0,1.138-0.457,2.35-1.49,3.356c-1.033,1.009-2.319,1.395-2.9,1.54c-0.578,0.147-0.696,0.17-1.73,0.306v0.663l41.662-0.026
		c6.837,0,13.918-2.919,18.561-7.858c3.598-3.829,7.16-9.369,7.16-17.783c0-4.535-0.185-34.728,0-44.053
		C167.89,106.604,162.719,99.62,159.448,96.692z M156.032,160.853c0,3.256-1.367,6.477-3.583,8.657
		c-2.216,2.179-5.586,3.581-8.717,3.581h-25.59v-9.537h6.754c4.073,0,8.875-1.204,13.073-5.244
		c4.199-4.042,5.524-9.412,5.524-13.243v-20.167c0-4.129-1.372-7.645-4.081-10.327c-2.71-2.68-6.287-4.103-10.039-4.103h-11.231
		v-8.786h25.352c3.785,0,6.815,1.343,9.032,3.716c2.219,2.375,3.506,5.485,3.506,8.159V160.853L156.032,160.853z"/>
</g>
</svg>
