<?xml version="1.0" encoding="utf-8"?>
<!-- Generator: Adobe Illustrator 16.0.4, SVG Export Plug-In . SVG Version: 6.00 Build 0)  -->
<!DOCTYPE svg PUBLIC "-//W3C//DTD SVG 1.1//EN" "http://www.w3.org/Graphics/SVG/1.1/DTD/svg11.dtd">
<svg version="1.1" id="Layer_1" xmlns="http://www.w3.org/2000/svg" xmlns:xlink="http://www.w3.org/1999/xlink" x="0px" y="0px"
	 width="250px" height="250px" viewBox="0 0 250 250" enable-background="new 0 0 250 250" xml:space="preserve">
<g>
	<path fill="#FFFFFF" d="M125.146,11.887C78.601,12.23,19.122,39.637,4.662,115.747l-0.028,0.148l120.513,120.416L245.5,116.01
		C231.017,32.971,160.438,11.613,125.146,11.887"/>
	<path fill="#CD1141" d="M125.192,17.668c32.92-0.255,98.771,19.675,112.362,96.905c-0.028,0-112.396,112.311-112.396,112.311
		c0-0.06-112.004-111.967-112.371-112.328C26.293,43.56,81.776,17.988,125.192,17.668"/>
	<path fill="#FFFFFF" d="M125.184,28.089c-56.949,0.519-94.375,43.796-100.68,84.254l-0.102,0.658l100.791,100.396l100.301-100.396
		l-0.104-0.649c-6.148-40.467-43.347-83.744-100.184-84.263h-0.014"/>
	<path fill="#00529B" d="M125.192,30.694c55.099,0.51,91.222,42.206,97.499,81.422c-0.964,0.964-95.705,95.803-97.499,97.597
		c-1.804-1.794-97.016-96.622-97.99-97.597C33.627,72.9,69.978,31.205,125.192,30.694"/>
	<path fill="#FFFFFF" d="M205.408,96.46h-2.122v5.777h-1.43V96.46h-2.122v-1.255h5.674 M215.023,102.237h-1.429v-5.596h-0.037
		l-2.039,5.596h-1.382l-1.976-5.596h-0.025v5.596h-1.438v-7.032h2.484l1.642,4.589h0.029l1.694-4.589h2.477V102.237z"/>
	<path fill="#FFFFFF" d="M67.363,78.394l-0.992,0.064V92.37l1.271-0.241c4.729-0.899,7.394-3.968,6.962-8.007
		C74.155,80.036,71.716,78.112,67.363,78.394"/>
	<path fill="#FFFFFF" d="M173.505,104.561c0-0.158-0.011-0.301-0.02-0.437c0,0-0.251-0.682-0.251-0.705
		c-0.464-0.292-1.196-0.338-2.029-0.129c-1.456,0.361-2.819,1.372-3.488,2.569l-0.025,0.032c-1.467,1.744-2.152,3.945-1.967,4.984
		c0.047,0.255,0.14,0.426,0.344,0.542l0.872,0.297c1.389-0.019,3.615-1.293,4.959-2.846
		C172.984,107.592,173.505,105.802,173.505,104.561"/>
	<path fill="#FFFFFF" d="M192.287,98.653c0,0-0.584-0.436-0.981-0.718c-0.213-0.366-1.809-3.009-1.809-3.009l-7.751,5.536
		l0.083,1.302c0.027,0.431,0.037,0.848,0.037,1.266c0,3.046-0.761,5.623-2.169,7.653c1.178-2.119,1.604-4.052,1.604-5.577
		c0-1.423-0.307-2.513-0.538-3.135c-1.613-4.329-6.37-6.963-11.293-6.253c-1.716,0.251-6.026,1.469-8.985,6.667
		c-0.676-2.814-1.918-7.937-1.975-8.196c0.168-0.172,2.598-2.62,4.247-4.289l11.006-0.028v-15.65c0,0-3.115,0-3.644,0
		c0-0.626,0-24.199,0-24.199c-0.057-0.172-3.645-5.977-3.645-5.977l-0.093-0.152l-11.106-0.051c-0.12,0.023-8.587,3.218-8.587,3.218
		l-21.742-0.018c0,0-20.871,0-20.876,0c0-0.019-8.354-3.177-8.354-3.177c-0.117-0.023-11.047,0.028-11.047,0.028h-0.177
		l-3.686,5.957c0,0-0.046,23.746-0.046,24.372c-0.088,0-0.26,0-0.459,0c-1.377-1.452-3.101-2.684-5.168-3.635
		c-9.087-4.177-21.925-2.271-28.623,4.256c-4.334,4.237-6.449,9.416-5.657,13.838c0.482,2.727,2.073,4.873,4.368,5.901
		c3.129,1.406,5.499,0.816,6.936,0.083c0.982-0.51,1.794-1.224,2.467-2.011c0,8.976,0,17.895,0,18.692
		c-2.397,2.804-3.821,5.684-3.821,8.261c0,0.788,0.117,1.544,0.353,2.263c0.741,2.252,2.619,3.797,5.145,4.242
		c2.819,0.501,5.901-0.385,8.257-2.36c2.281-1.915,3.588-4.649,3.588-7.515c0,0,0-11.988,0-14.594
		c4.78-1.812,9.341-4.02,12.359-7.654c0,10.538,0,26.027,0,26.035c-0.023,0.19-0.042,0.39-0.042,0.581
		c0,1.812,0.807,3.388,2.285,4.4c1.933,1.321,4.761,1.409,6.88,0.227c1.837-1.033,2.86-2.804,2.86-4.891
		c0-0.111-0.004-0.223-0.009-0.329c0,0,0.004-11.669,0.004-12.268c0.06-0.028,0.092-0.051,0.143-0.065
		c0.014,0.046,0.02,0.057,0.037,0.097c0,0.672,0,11.511,0,11.511c0.042,3.083,1.798,5.405,4.701,6.401
		c-0.051,0.238-0.106,0.487-0.157,0.725H59.022l-0.147,0.022c-2.796,0.356-4.692,2.443-4.692,5.109c0,0.098,0,0.188,0.014,0.282
		c0.125,2.744,2.258,4.872,4.952,4.951c0,0,14.984,0,34.404,0c-3.347,6.204-6.561,9.44-9.041,11.897
		c-2.975,2.943-5.025,4.968-5.025,9.967c0,0.428,0.019,0.867,0.042,1.34l0.02,0.292c0,0,32.479,0,39.92,0
		c0.061-1.687-0.167-2.98-0.375-4.122c0,0-0.284-2.938-0.284-2.951c0.093-1.021-0.37-1.658-0.955-2.471
		c-0.51-0.71-1.089-1.517-1.297-2.685l-0.599-0.862c0,0-0.835-1.646-0.835-1.668c0.056-0.565-0.199-0.945-0.644-1.567
		c0,0-0.97-1.906-0.974-1.938c-0.231-1.346,0.083-2.208,0.353-2.974c0.241-0.671,0.449-1.251,0.288-2.188
		c0,0-0.006-0.057-0.006-0.069c0.473,0,0.941,0,1.41,0c0.037,0.249,0.064,0.491,0.064,0.71c0,0.829-0.224,1.455-0.431,2.026
		c-0.186,0.519-0.357,0.982-0.357,1.594c0,0.191,0.019,0.398,0.06,0.621l0.737,1.387c0.437,0.607,0.914,1.279,0.914,2.229
		c0,0.089,0,0.182-0.014,0.278l0.45,0.579c0,0,0.973,1.642,0.973,1.617c0.149,0.83,0.584,1.438,1.052,2.082
		c0.635,0.882,1.349,1.878,1.22,3.409l0.264,2.591c0.222,1.194,0.454,2.563,0.388,4.37c0.047,0,0.098,0,0.111,0
		c0,0.445,0,1.675,0,1.896c-0.407,0.312-2.604,2.123-2.804,5.003c-0.009,0.135-0.019,0.268-0.019,0.402
		c0,1.942,0.978,3.876,2.92,5.758l-0.097,4.349v0.318h8.904v-4.899c1.855-1.66,2.829-3.584,2.829-5.526c0-0.135,0-0.269-0.011-0.402
		c-0.203-2.88-2.409-4.692-2.819-5.002c0-0.223,0-1.451,0-1.897c0.642,0,41.438,0,41.438,0l0.019-0.292
		c0.037-0.473,0.047-0.917,0.047-1.344c0-4.994-2.051-7.02-5.025-9.963c-2.477-2.453-5.685-5.685-9.03-11.896
		c13.137,0,22.391,0,22.992,0c2.022,2.596,4.673,4.015,7.51,3.821c2.848-0.2,5.333-1.953,6.491-4.568l0.083-0.189l0.047-0.199
		c0.808-3.325-0.13-5.405-1.057-6.554c-2.023-2.509-5.406-2.703-6.778-2.672h-11.403c1.084-0.166,2.151-0.443,3.188-0.87
		c1.929-0.793,3.542-2.013,4.989-3.357c5.479,4.804,9.855,4.641,12.572,3.625c4.071-1.516,6.731-5.911,7.176-9.271
		c0.111-0.792,0.167-1.553,0.167-2.275C203.313,106.665,197.479,102.428,192.287,98.653 M159.67,104.003
		c-0.724,1.609-1.316,3.524-1.705,5.818c0-2.276,0-4.613,0-4.613c-0.103-1.251-0.399-2.276-0.817-3.124
		C158.131,102.835,159.049,103.53,159.67,104.003z M159.976,90.286c0,0-3.978,3.5-4.042,3.427c0,0.014,1.771,5.763,1.771,5.763
		c0.009,0.018,0.009,0.037,0.009,0.055c0,0.06-0.026,0.121-0.082,0.157c-0.065,0.046-0.157,0.046-0.224-0.005
		c0,0-4.293-3.318-4.293-3.491c-0.017,0.014-4.504,3.491-4.504,3.491c-0.064,0.051-0.158,0.051-0.224,0.005
		c-0.057-0.037-0.084-0.097-0.084-0.157c0-0.02,0.01-0.038,0.01-0.055c0,0,1.725-5.568,1.836-5.573
		c-0.01-0.004-4.107-3.616-4.107-3.616c-0.038-0.032-0.065-0.087-0.065-0.143c0-0.023,0-0.042,0.021-0.064
		c0.026-0.074,0.092-0.121,0.176-0.121l4.562,0.125l2.096-5.976c0.026-0.079,0.102-0.129,0.177-0.129
		c0.083,0,0.156,0.052,0.186,0.129c0,0,1.929,5.494,1.929,5.832c0,0.014,0,0.014-0.01,0.019c0.019,0,4.739,0,4.739,0
		c0.083,0,0.147,0.046,0.175,0.121C160.051,90.151,160.031,90.234,159.976,90.286z M138.215,73.776c0.604,0,12.769,0,13.25,0
		c0.047,0.19,0.547,2.68,1.15,5.642c-0.557,1.41-2.383,5.935-3.088,7.705c-1.901-5.892-6.305-10.083-11.312-10.268
		C138.215,76.48,138.215,74.268,138.215,73.776z M116.95,89.957c0.421,0,0.709,0,0.709,0c0.074,0,0.145,0.046,0.181,0.121
		c0.023,0.074,0,0.157-0.055,0.208c0,0-0.362,0.315-0.849,0.742c-1.168,1.02-3.148,2.736-3.199,2.685
		c0.003,0.014,1.775,5.763,1.775,5.763c0.008,0.018,0.008,0.037,0.008,0.055c0,0.06-0.028,0.121-0.083,0.157
		c-0.07,0.046-0.158,0.046-0.218-0.005c0,0-4.292-3.318-4.297-3.491c-0.014,0.014-4.502,3.491-4.502,3.491
		c-0.069,0.051-0.162,0.051-0.231,0.005c-0.051-0.037-0.074-0.097-0.074-0.157c0-0.02,0-0.038,0.005-0.055
		c0,0,1.715-5.568,1.827-5.573c-0.004-0.004-4.098-3.616-4.098-3.616c-0.038-0.032-0.061-0.087-0.061-0.143
		c0-0.023,0-0.042,0.015-0.064c0.023-0.074,0.092-0.121,0.171-0.121l4.566,0.125l2.095-5.975c0.028-0.079,0.097-0.13,0.181-0.13
		c0.074,0,0.153,0.052,0.177,0.13c0,0,1.933,5.493,1.933,5.832c0,0.014-0.003,0.014-0.003,0.014
		C112.93,89.957,115.633,89.957,116.95,89.957z M96.111,89.929c0,0,3.2-15.656,3.296-16.152c0.492,0,12.657,0,13.255,0
		c0,0.492,0,2.703,0,3.078c-6.23,0.227-11.59,6.621-12.257,14.84l-0.15,4.804c-0.417-0.32-0.853-0.612-1.331-0.835
		c-2.188-1.039-4.478-0.779-6.342-0.241c0-1.595,0-3.625,0-5.503L96.111,89.929z M80.507,90.142
		c-2.574,5.285-8.248,7.807-14.335,9.897v16.198c0,2.23-1.001,4.303-2.832,5.842c-1.896,1.594-4.455,2.341-6.667,1.952
		c-1.66-0.288-2.819-1.22-3.283-2.605c-0.152-0.464-0.227-0.963-0.227-1.492c0-2.322,1.451-5.184,4.071-7.876c0,0,0-31.265,0-31.979
		c-2.489,1.163-4.325,3.514-4.325,4.979c0,0.106,0.009,0.212,0.028,0.307c0.181,0.838,1.104,0.992,1.85,0.973l0.251-0.003L55,86.586
		c-0.033,0.186-0.779,4.618-3.742,6.212c-1.464,0.788-3.199,0.737-5.174-0.144c-1.668-0.747-2.781-2.29-3.152-4.339
		c-0.659-3.736,1.228-8.21,5.058-11.961c6.012-5.864,18.039-7.626,26.262-3.848c1.071,0.492,2.003,1.08,2.869,1.721
		c2.225,1.659,3.723,3.778,4.4,6.263c0.353,1.28,0.501,2.652,0.413,4.108C81.8,86.749,81.276,88.556,80.507,90.142z
		 M153.615,126.213c0.556,0.111,1.104,0.178,1.641,0.204h-1.594C153.652,126.354,153.633,126.279,153.615,126.213z M186.679,128.746
		c2.123-0.051,6.897,0.687,5.519,6.351c-1.623,3.691-7.233,5.016-10.738-0.64H59.218c-3.296-0.098-3.885-5.221-0.046-5.711H186.679z
		 M156.405,126.417c2.04-0.097,3.96-0.689,5.508-1.552c0.548-0.307,0.835-0.649,1.242-0.969c2.605,1.34,5.118,2.18,7.529,2.522
		h-14.279V126.417z M201.032,116.266c-0.315,2.35-2.328,6.244-5.814,7.552c-2.178,0.815-5.785,0.896-10.589-3.602
		c0.094-0.163,2.318-4.01,3.979-4.469c1.742,1.761,3.299,2.444,4.404,1.924c0.881-0.417,1.408-1.599,1.408-3.102
		c0-0.235-0.009-0.477-0.037-0.727c-0.24-2.295-1.724-5.225-5.043-6.124c-0.343,1.271-3.561,12.485-11.747,15.859
		c-4.349,1.789-9.365,0.987-14.882-2.235c-0.194,0.515-0.945,1.16-1.836,1.661c-3.254,1.812-8.038,2.279-11.803-1.678
		c-0.604,0.459-8.864,6.536-15.764-0.473c-0.48,0.44-4.088,3.537-8.348,3.366c-2.11-0.087-3.983-1.028-5.61-2.726
		c-0.408,0.417-2.846,2.776-6.263,2.814c-2.118,0.022-4.135-0.932-5.985-2.763c-1.363,1.965-5.499,3.101-8.6,2.285
		c-2.351-0.616-3.663-2.225-3.704-4.538l0.004-11.816c-0.478-2.179-2.109-2.012-2.587-1.91c-1.103,0.232-2.012,1.117-1.864,1.869
		v12.689c0.069,1.414-0.556,2.568-1.767,3.25c-1.419,0.793-3.361,0.736-4.635-0.126c-1.039-0.713-1.502-1.864-1.313-3.212v-35.57
		c-0.195-1.651,0.444-3.074,1.757-3.912c1.354-0.867,3.115-0.918,4.391-0.134c1.108,0.682,1.701,1.882,1.701,3.412
		c0,0.208-0.009,0.432-0.037,0.653c0,0,0,13.408,0,14.108c0.959-0.557,4.544-2.421,7.566-0.997c2.104,0.992,3.403,3.379,3.854,7.125
		v10.177c0.12,1.456,1.515,2.179,2.832,2.146c1.191-0.028,2.411-0.701,2.452-2.132l0.005-9.435c-0.13-1.803,0.5-3.277,1.724-4.038
		c1.016-0.644,2.299-0.667,3.338-0.069c1.242,0.719,1.918,2.189,1.858,4.042v8.78c-0.079,1.021,0.307,1.859,1.076,2.355
		c0.788,0.505,1.818,0.542,2.619,0.103c0.849-0.472,1.308-1.4,1.294-2.619V90.448c-0.115-2.972,0.421-5.049,1.637-6.333
		c0.936-0.993,2.276-1.488,4.088-1.521c2.068-0.056,3.736,0.77,4.812,2.383c0.996,1.488,1.479,3.579,1.479,6.139
		c0,4.635-1.602,10.807-4.697,17.727c-0.278,1.464-0.389,2.555-0.389,3.394c0,1.548,0.374,2.267,0.75,3.013
		c0,0,0.157,0.306,0.163,0.338c1.187,1.016,2.508,1.377,3.615,0.987c0.956-0.334,2.206-1.372,2.764-4.372l0.009-22.239
		c-0.213-2.689,0.251-4.664,1.382-5.865c1.308-1.381,3.255-1.534,4.989-1.506c1.604,0.051,3.049,1.043,4.088,2.795
		c0.39,0.668,0.705,1.506,0.965,2.415c0.389,1.35,0.593,2.953,0.584,4.799c-0.038,4.219-1.271,9.643-4.599,16.109
		c-1.261,4.678,0.111,6.806,1.028,7.658c1.095,1.006,2.689,1.294,4.173,0.76c1.612-0.584,2.706-1.993,2.948-3.75v-8.15
		c-0.193-2.225,1.576-3.895,3.365-4.052c1.56-0.129,3.321,0.848,3.606,4.028l-0.007,10.209c0.425,1.051,1.354,1.631,2.234,1.414
		c0.862-0.208,1.79-1.288,1.586-3.658c0.917-13.003,7.992-15.024,10.134-15.336c3.939-0.57,7.715,1.483,8.994,4.887
		c1.632,4.409-1.392,9.615-8.03,13.815c-0.018,0.088-0.036,0.2,0.12,0.315c0.688,0.552,3.329,0.446,6.075-0.974
		c2.863-1.484,7.585-5.304,7.111-14.438l4.82-3.435l0.121,0.194c0,0,0.686,1.146,0.686,1.177l1.363,0.997
		c5.201,3.783,10.135,7.376,10.135,13.89C201.171,114.902,201.125,115.57,201.032,116.266z"/>
	<path fill="#FFFFFF" d="M125.006,87.879c-0.259-0.158-0.546-0.176-0.835-0.052l-0.125,0.065v14.023l0.248-0.042
		c1.158-0.175,1.872-3,2.234-8.877C126.462,91.408,126.049,88.52,125.006,87.879"/>
	<path fill="#FFFFFF" d="M139.234,87.879c-0.26-0.158-0.549-0.176-0.834-0.052l-0.13,0.065v14.023l0.249-0.042
		c1.151-0.175,1.882-3.087,2.235-8.896C140.699,91.408,140.271,88.52,139.234,87.879"/>
	<path fill="#CD1141" d="M59.218,134.457h122.241c3.505,5.655,9.115,4.329,10.738,0.64c1.379-5.664-3.396-6.401-5.519-6.351H59.17
		C55.333,129.236,55.921,134.359,59.218,134.457"/>
	<path fill="#CD1141" d="M77.121,74.228c-0.867-0.641-1.798-1.229-2.869-1.721c-8.225-3.778-20.25-2.016-26.262,3.848
		c-3.829,3.75-5.717,8.225-5.058,11.961c0.371,2.049,1.483,3.592,3.152,4.339c1.975,0.88,3.708,0.932,5.174,0.144
		c2.963-1.595,3.709-6.026,3.742-6.212l0.037-0.254l-0.251,0.003c-0.747,0.02-1.669-0.134-1.85-0.973
		c-0.019-0.093-0.028-0.199-0.028-0.306c0-1.464,1.837-3.816,4.326-4.979c0,0.714,0,31.979,0,31.979
		c-2.62,2.693-4.071,5.554-4.071,7.876c0,0.529,0.074,1.028,0.227,1.492c0.464,1.386,1.623,2.318,3.283,2.605
		c2.212,0.39,4.77-0.356,6.667-1.952c1.832-1.54,2.832-3.611,2.832-5.842V100.04c6.087-2.09,11.761-4.612,14.335-9.897
		c0.77-1.586,1.294-3.394,1.427-5.544c0.088-1.457-0.06-2.828-0.413-4.108C80.845,78.005,79.346,75.886,77.121,74.228 M67.642,92.13
		l-1.271,0.241V78.459l0.992-0.064c4.353-0.283,6.792,1.641,7.241,5.729C75.035,88.162,72.37,91.231,67.642,92.13z"/>
	<path fill="#CD1141" d="M191.036,100.378l-1.363-0.997c0-0.032-0.687-1.177-0.687-1.177l-0.12-0.195l-4.821,3.435
		c0.475,9.133-4.246,12.953-7.111,14.437c-2.745,1.419-5.387,1.525-6.074,0.974c-0.155-0.116-0.138-0.228-0.12-0.315
		c6.639-4.2,9.661-9.407,8.03-13.816c-1.28-3.403-5.054-5.457-8.994-4.887c-2.142,0.311-9.218,2.333-10.134,15.336
		c0.203,2.369-0.725,3.449-1.586,3.658c-0.881,0.218-1.808-0.361-2.235-1.414l0.009-10.209c-0.286-3.18-2.047-4.159-3.606-4.029
		c-1.789,0.158-3.56,1.827-3.366,4.052v8.15c-0.241,1.756-1.335,3.167-2.949,3.75c-1.483,0.533-3.077,0.246-4.171-0.759
		c-0.919-0.853-2.29-2.981-1.029-7.659c3.328-6.467,4.562-11.891,4.599-16.11c0.009-1.844-0.193-3.449-0.584-4.798
		c-0.26-0.908-0.575-1.747-0.965-2.415c-1.039-1.753-2.485-2.744-4.088-2.796c-1.735-0.027-3.682,0.126-4.989,1.507
		c-1.131,1.201-1.596,3.176-1.381,5.865l-0.011,22.238c-0.556,3-1.808,4.038-2.762,4.372c-1.108,0.39-2.429,0.028-3.617-0.987
		c-0.005-0.033-0.162-0.338-0.162-0.338c-0.376-0.747-0.751-1.464-0.751-3.013c0-0.839,0.11-1.929,0.391-3.393
		c3.097-6.921,4.696-13.092,4.696-17.728c0-2.56-0.482-4.65-1.48-6.138c-1.076-1.612-2.743-2.438-4.812-2.382
		c-1.812,0.032-3.152,0.528-4.088,1.521c-1.214,1.283-1.752,3.361-1.637,6.333v23.579c0.015,1.219-0.444,2.147-1.293,2.619
		c-0.802,0.44-1.832,0.404-2.619-0.103c-0.77-0.497-1.154-1.335-1.076-2.355v-8.78c0.06-1.854-0.616-3.324-1.858-4.042
		c-1.039-0.598-2.322-0.575-3.338,0.069c-1.223,0.761-1.854,2.235-1.724,4.038l-0.005,9.435c-0.042,1.432-1.26,2.104-2.452,2.132
		c-1.317,0.032-2.712-0.69-2.833-2.146v-10.179c-0.449-3.746-1.748-6.133-3.853-7.125c-3.022-1.423-6.607,0.439-7.566,0.997
		c0-0.701,0-14.108,0-14.108c0.028-0.222,0.037-0.444,0.037-0.653c0-1.529-0.593-2.731-1.701-3.412
		c-1.275-0.783-3.037-0.731-4.391,0.134c-1.312,0.839-1.952,2.262-1.757,3.912v35.566c-0.19,1.35,0.272,2.499,1.312,3.213
		c1.275,0.862,3.218,0.919,4.636,0.126c1.21-0.682,1.836-1.836,1.767-3.25v-12.687c-0.149-0.751,0.761-1.636,1.864-1.868
		c0.478-0.102,2.109-0.269,2.587,1.91l-0.004,11.817c0.042,2.313,1.354,3.922,3.703,4.538c3.102,0.815,7.238-0.319,8.6-2.285
		c1.85,1.832,3.868,2.786,5.985,2.763c3.417-0.036,5.855-2.396,6.263-2.814c1.627,1.696,3.501,2.638,5.609,2.726
		c4.262,0.172,7.868-2.925,8.349-3.366c6.899,7.009,15.159,0.932,15.764,0.472c3.765,3.959,8.548,3.491,11.803,1.679
		c0.892-0.501,1.643-1.146,1.836-1.661c5.517,3.221,10.532,4.024,14.882,2.235c8.187-3.375,11.404-14.589,11.747-15.86
		c3.32,0.9,4.803,3.83,5.044,6.125c0.026,0.25,0.037,0.492,0.037,0.728c0,1.503-0.528,2.685-1.41,3.102
		c-1.104,0.52-2.66-0.163-4.404-1.924c-1.66,0.46-3.885,4.307-3.978,4.469c4.804,4.498,8.41,4.418,10.59,3.602
		c3.485-1.308,5.498-5.202,5.812-7.552c0.095-0.695,0.141-1.363,0.141-1.998C201.171,107.753,196.237,104.16,191.036,100.378
		 M124.293,101.875l-0.246,0.042V87.893l0.125-0.065c0.289-0.125,0.574-0.106,0.835,0.052c1.043,0.64,1.456,3.529,1.521,5.118
		C126.167,98.876,125.451,101.7,124.293,101.875z M138.52,101.875l-0.249,0.042V87.893l0.13-0.065
		c0.285-0.125,0.574-0.106,0.834,0.052c1.037,0.64,1.465,3.529,1.521,5.1C140.401,98.789,139.671,101.7,138.52,101.875z
		 M166.068,111.416c-0.204-0.116-0.297-0.287-0.344-0.542c-0.186-1.039,0.5-3.241,1.967-4.984l0.025-0.032
		c0.669-1.197,2.03-2.207,3.488-2.569c0.833-0.209,1.566-0.163,2.029,0.129c0,0.023,0.251,0.705,0.251,0.705
		c0.009,0.134,0.02,0.277,0.02,0.437c0,1.242-0.521,3.032-1.605,4.306c-1.345,1.553-3.57,2.828-4.959,2.846L166.068,111.416z"/>
	<path fill="#00529B" d="M110.992,84.105c-0.023-0.079-0.103-0.129-0.177-0.129c-0.083,0-0.152,0.052-0.181,0.129l-2.095,5.976
		l-4.567-0.125c-0.079,0-0.148,0.046-0.171,0.121c-0.015,0.023-0.015,0.042-0.015,0.064c0,0.056,0.023,0.111,0.061,0.143
		c0,0,4.093,3.612,4.098,3.616c-0.111,0.005-1.827,5.573-1.827,5.573c-0.005,0.018-0.005,0.037-0.005,0.056
		c0,0.06,0.023,0.121,0.074,0.157c0.07,0.046,0.163,0.046,0.232-0.005c0,0,4.487-3.477,4.5-3.491
		c0.005,0.172,4.298,3.491,4.298,3.491c0.06,0.051,0.148,0.051,0.217,0.005c0.056-0.037,0.083-0.097,0.083-0.157
		c0-0.02,0-0.038-0.008-0.056c0,0-1.772-5.749-1.775-5.762c0.051,0.051,2.03-1.665,3.199-2.685c0.487-0.426,0.849-0.742,0.849-0.742
		c0.055-0.051,0.079-0.135,0.055-0.208c-0.038-0.075-0.106-0.121-0.181-0.121c0,0-0.287,0-0.709,0c-1.317,0-4.02,0-4.028,0
		c0,0,0.004-0.005,0.004-0.019C112.925,89.599,110.992,84.105,110.992,84.105"/>
	<path fill="#00529B" d="M155.108,89.957c0.01-0.005,0.01-0.005,0.01-0.019c0-0.338-1.929-5.832-1.929-5.832
		c-0.027-0.079-0.103-0.129-0.186-0.129c-0.075,0-0.148,0.052-0.177,0.129l-2.096,5.976l-4.562-0.125
		c-0.084,0-0.149,0.046-0.176,0.121c-0.021,0.023-0.021,0.042-0.021,0.064c0,0.056,0.028,0.111,0.065,0.143
		c0,0,4.098,3.612,4.107,3.616c-0.111,0.005-1.836,5.573-1.836,5.573c0,0.018-0.01,0.037-0.01,0.056c0,0.06,0.027,0.121,0.084,0.157
		c0.064,0.046,0.157,0.046,0.223-0.005c0,0,4.488-3.477,4.505-3.491c0,0.172,4.293,3.491,4.293,3.491
		c0.065,0.051,0.157,0.051,0.224,0.005c0.056-0.037,0.082-0.097,0.082-0.157c0-0.02,0-0.038-0.009-0.056
		c0,0-1.771-5.749-1.771-5.762c0.064,0.074,4.042-3.427,4.042-3.427c0.056-0.051,0.074-0.135,0.046-0.208
		c-0.027-0.075-0.093-0.121-0.175-0.121C159.847,89.957,155.126,89.957,155.108,89.957"/>
</g>
</svg>
