<?xml version="1.0" encoding="utf-8"?>
<!-- Generator: Adobe Illustrator 16.0.4, SVG Export Plug-In . SVG Version: 6.00 Build 0)  -->
<!DOCTYPE svg PUBLIC "-//W3C//DTD SVG 1.1//EN" "http://www.w3.org/Graphics/SVG/1.1/DTD/svg11.dtd">
<svg version="1.1" id="Layer_1" xmlns="http://www.w3.org/2000/svg" xmlns:xlink="http://www.w3.org/1999/xlink" x="0px" y="0px"
	 width="250px" height="250px" viewBox="0 0 250 250" enable-background="new 0 0 250 250" xml:space="preserve">
<g>
	<path fill="#FFFFFF" d="M235.344,112.196l-0.018-17.557c0-1.369,0.772-1.737,1.751-2.082l4.104-0.806l-10.769-19.198l4.699,0.587
		v-9.894c0-2.703,0.46-3.225,1.413-3.574l3.755-0.963L230.736,36h-32.657l-1.442,2.468l-1.437-2.223l-82.401-0.035l-2.186,5.639
		l-3.342-5.67H15.866L11.16,58.356c0,0,0.555,0.165,1.238,0.465c0.933,0.407,2.029,1.465,2.029,4.243c0,0-0.052,48.074-0.052,49.801
		c0,1.12-0.7,1.641-1.471,1.874c-0.932,0.293-1.904,0.414-1.904,0.414l5.161,22.725l21.362-7.363l2.634-13.12
		c4.775,3.05,14.607,9.172,33.571,20.962c-0.217,0.682-0.367,1.373-0.467,2.082c-6.062,2.631-9.567,7.754-9.975,8.373l-4.66,7.089
		l3.634,0.789c-5.934,9.542-4.288,18.965-2.12,23.376l3.28,6.678c-1.389-0.073-3.052,0.238-5.004,1.553
		c-4.317,2.915-4.365,7.646-2.585,10.818l0.111,0.179l4.15,6.169l0.202,0.241c2.437,2.783,6.729,4.354,10.843,1.58
		c2.998-2.021,3.588-4.267,3.767-6c0.022-0.223,0.038-0.441,0.038-0.669l3.341-2.157c0.283,0.494,0.466,0.81,0.503,0.871
		l4.708,7.893l5.127-7.626c0.336-0.498,3.258-4.925,6.282-11.889l3.008-1.938c0.13,0.15,0.253,0.284,0.376,0.423l-0.629,1.518
		l1.771,2.601c0.209,0.315,5.277,7.702,11.601,13.452c0,0,0.139,0.126,0.285,0.257c0.894,1.621,2.075,2.744,3.515,3.361
		c1.146,1.54,2.429,2.296,3.545,2.646c1.258,1.34,2.868,2.361,4.8,3.048l4.121,1.468l2.554-3.548
		c0.361-0.49,1.411-1.642,2.176-2.006l0.889-0.422l0.572,0.181l0.871-0.877l0.478-0.224l0.048-0.294l1.103-1.103
		c0.077-0.081,0.18-0.188,0.294-0.318l1.622,0.271l2.125-2.788c0.245-0.32,0.788-1.101,1.261-2.162l9.462-12.137l-0.097-1.914
		l21.405,13.841c0,0.219,0.02,0.442,0.036,0.665c0.184,1.729,0.77,3.982,3.771,6c4.114,2.771,8.412,1.203,10.842-1.585l0.204-0.231
		l4.208-6.263l0.053-0.087c1.775-3.172,1.729-7.911-2.586-10.815c-2.998-2.021-5.314-1.694-6.997-1.185
		c-0.184,0.056-0.369,0.119-0.544,0.187l-19.804-13.95c3.275-0.324,6.125-2.048,8.043-4.961c1.727-2.625,2.516-5.698,2.301-8.804
		l1.466-1.083l3.169-2.18l-1.021-3.942c-0.087-0.344-0.366-1.312-0.984-2.541c0.059-0.066,0.094-0.113,0.128-0.154l1.442-1.444
		l0.194-0.606c0.065-0.224,0.095-0.425,0.104-0.622c0.885-1.662,1.977-4.525,1.706-6.424c-0.033-0.237-0.086-0.46-0.138-0.688
		c0.017-0.171,0.025-0.354,0.032-0.533c0.093-0.087,0.186-0.171,0.278-0.262l2.589-2.587l-1.02-2.909l16.86-10.499l1.301,2.786
		c0,0,1.267,0.408,30.229,9.703l2.223,0.733l9.346-20.737l-3.012-0.958C236.053,114.958,235.344,114.458,235.344,112.196"/>
	<path fill="#231F20" d="M232.866,113.089c0-4.018-0.024-20.902-0.024-20.902s-0.298-2.189,4.219-2.599l-11.02-19.7
		c0,0-2.424,2.743-6.291,2.03l-4.814-1.213v-2.648l17.696,2.194V60.137c0,0,0.147-3.529,4.023-3.529l-7.524-17.927h-29.424
		l-3.012,5.137l-2.9-5.194l-79.064-0.026l-3.5,9.291l-5.323-9.032H54.961l-0.315,5.67l-3.082-5.67H18.12l-3.531,16.82
		c0,0,2.586-0.581,2.586,5.501v51.562c0,0,0.829,4.624-2.833,4.624l3.858,17.16l17.185-5.922l3.105-15.441
		c2.444,1.697,12.081,7.715,38.633,24.217c-0.787,1.444-1.24,3.093-1.24,4.852c0,0.035,0.004,0.075,0.004,0.114
		c-6.341,2.073-10.107,7.692-10.29,7.974l-2.566,3.907l3.792,0.82c-7.79,9.484-6.399,19.483-4.203,23.936l2.969,6.054l2.828-6.123
		c1.096-2.38,2.647-4.646,4.378-6.722c0.411,4.307,1.333,8.37,2.433,11.946c-3.945,2.78-7.135,5.024-8.958,6.307
		c-0.41-0.311-0.902-0.582-1.488-0.762c-1.106-0.334-2.546-0.652-4.776,0.852c-3.276,2.211-2.778,5.566-1.766,7.371l4.054,6.037
		l0.099,0.111c1.166,1.33,4.074,3.387,7.413,1.133c2.25-1.515,2.512-2.962,2.629-4.105c0.063-0.604,0-1.181-0.144-1.706
		c1.538-1.002,4.027-2.614,7.119-4.616c0.955,1.956,1.653,3.14,1.748,3.303l2.599,4.352l2.828-4.206
		c0.191-0.293,3.295-4.951,6.369-12.196c1.831-1.181,3.695-2.392,5.564-3.597c1.093,1.27,2.09,2.389,2.833,3.203
		c0.035,0.138,0.048,0.234,0.039,0.282l-0.649,1.578l0.977,1.431c0.208,0.297,5.104,7.449,11.202,12.988l0.609,0.555
		c0.685,1.411,1.594,2.316,2.703,2.702c0.125,0.039,0.251,0.072,0.38,0.1l0.05,0.049c1.062,1.754,2.281,2.322,3.253,2.445
		c0.931,1.186,2.296,2.245,4.26,2.937l2.277,0.813l1.404-1.961c0.41-0.555,1.786-2.174,3.167-2.835l1.559-0.738l0.026-0.206
		l0.279,0.087l1.383-1.374c0.142-0.14,0.543-0.581,0.947-1.317l1.694,0.282l1.176-1.536c0.202-0.267,0.806-1.111,1.205-2.264
		l0.147-0.007l8.786-11.282l-0.057-1.193c0-0.005-0.018-0.38-0.035-0.954c0.578-0.645,1.286-1.466,2.072-2.41
		c10.552,6.816,20.817,13.448,24.764,16.011c-0.135,0.528-0.205,1.106-0.145,1.71c0.118,1.142,0.387,2.591,2.636,4.105
		c3.342,2.253,6.247,0.196,7.412-1.138l0.095-0.11l4.062-6.033c1.006-1.803,1.505-5.162-1.771-7.364
		c-2.233-1.505-3.672-1.188-4.775-0.857c-0.589,0.18-1.075,0.446-1.487,0.762c-3.806-2.67-13.552-9.545-23.697-16.698
		c0.61-0.985,1.193-1.974,1.706-2.959c2.659,0.341,5.95-0.302,8.236-3.767c1.995-3.032,2.143-6.192,1.702-8.565l2.072-1.53
		l-0.004-0.03l2.355-1.616l-0.562-2.174c-0.074-0.285-0.494-1.772-1.608-3.456c0.59-0.731,1.185-1.463,1.359-1.664l1.059-1.062
		c0.009-0.018-0.013-0.219-0.037-0.477c0.812-1.243,1.936-4.184,1.761-5.418c-0.049-0.336-0.125-0.636-0.236-0.897
		c0.136-0.468,0.181-1.077-0.083-1.88c0.447-0.256,0.862-0.554,1.229-0.919l1.433-1.434l-0.669-1.904
		c-0.219-0.62-0.387-1.065-0.53-1.407c9.348-5.807,16.203-10.081,21.168-13.184l2.06,4.423c0,0,17.906,5.666,29.159,9.36
		l7.212-15.916C236.08,117.692,232.866,117.107,232.866,113.089 M186.509,58.111l1.35,2.481l8.287-2.727v11.518l-2.708,0.647v-5.137
		l-6.95-1.475L186.509,58.111z M162.307,82.432V58.886l5.308-1.838v26.605c0,0,0.442,1.213-2.529,1.213
		C162.115,84.866,162.307,82.432,162.307,82.432z M161.528,100.443l3.545-12.892l3.933,14.585c0,0,7.462,1.947,14.074,3.772
		c-1.095,0.775-1.799,1.276-1.799,1.276c-5.37,3.816-10.078,7.338-14.708,10.857c-1.733-5.894-5.597-12.921-11.502-18.662
		C158.125,99.865,160.841,100.308,161.528,100.443z M143.82,58.43v24.007l-4.411-25.828L143.82,58.43z M109.892,52.816l2.487,0.6
		l-1.367,8.73l-1.205-0.692L109.892,52.816z M110.114,67.93l-1.513,9.33l-0.958-6.336L110.114,67.93z M73.587,54.653h1.286v33.65
		l-1.286,0.511V54.653z M72.857,105.3l1.407-6.03l1.247,5.295c0,0,11.792-2.854,22.113-4.822
		c-6.454,6.569-10.37,14.914-12.601,22.025c-6.083-4.647-11.996-9.152-19.04-14.157c0,0-0.135-0.098-0.38-0.267L72.857,105.3z
		 M36.078,92.05l5.284-1.312c0,0,3.8-1.09,6.328,1.434l7.226-11.087v10.581c0,0,0.257,2.254-2.88,2.254l1,4.489
		c-0.569-0.407-0.974-0.695-1.124-0.805c-0.41-0.345-0.786-0.64-1.147-0.879c-2.231-1.504-4.857-2.31-7.395-2.267
		c-3.884,0.069-5.756,2.847-7.125,4.875c-0.053,0.078-0.111,0.165-0.166,0.244C36.078,95.691,36.078,92.05,36.078,92.05z
		 M39.435,111.045c-1.394-1.339-2.331-2.555-2.917-4.091c-0.95-2.486,0.274-4.368,1.611-6.35c1.337-1.987,2.622-3.829,5.28-3.873
		c2.074-0.04,4.234,0.625,6.081,1.873c0.336,0.227,0.675,0.499,1.026,0.796l14.155,10.06c6.555,4.665,13.231,9.562,19.729,14.396
		c-0.247,0.889-0.821,2.915-1.013,3.742c-1.855-1.772-3.917-3.65-3.917-3.65l-0.185-1.125c-0.479-0.441-6.123-5.54-11.335-9.023
		l-0.573-0.092c1.515,1.216,7.267,6.472,15.735,14.905c-0.483,2.139-0.321,2.485-0.5,4.034c-0.525,0.189-1.025,0.423-1.505,0.689
		c-2.645-1.286-5.51-2.738-8.491-4.322c-8.05-5.011-16.158-10.061-22.207-13.855c-0.602-0.459-1.198-0.914-1.78-1.376l0.398-0.478
		h0.004l0.013,0.013c0.179,0.101,17.417,10.359,30.278,15.136c-2.125-2.36-13.493-14.844-21.852-21.27l-0.022-0.017l-0.009-0.022
		l-0.812-1.399l-9.627-6.835l-0.977-0.232c2.952,2.193,17.99,13.621,26.406,25.05l0.253,0.339l-0.403-0.141
		c-0.197-0.07-20.023-7.16-32.431-18.228l-0.009-0.01l-0.004-0.008l-1.054-1.309c-0.689-1.34-0.133-3.054-0.133-3.054
		c-2.267,3.592-1.398,5.032-1.398,5.032c0.48,1.261,1.232,2.306,2.562,3.583c0.355,0.289,2.505,1.68,5.835,3.781
		c1.388,0.971,9.871,6.28,18.752,11.729c8.214,5.111,13.204,8.218,14.841,9.238c-0.29,0.267-0.569,0.55-0.83,0.849
		C58.764,123.304,40.165,111.737,39.435,111.045z M68.533,203.301c-2.903,1.953-4.763-1.246-4.763-1.246l-3.424-5.086
		c0,0-1.935-2.615,0.932-4.555c3.077-2.072,4.849,0.91,4.849,0.91s3.996-2.818,9.83-6.931c0.199,0.572,0.396,1.134,0.597,1.677
		l-9.285,6.261l2.586,4.14c-0.004,0-0.004,0.003-0.004,0.003S71.526,201.285,68.533,203.301z M76.692,188.451
		c0.281,0.734,0.555,1.436,0.833,2.1l-4.404,2.865c-0.726,0.398-2.146,1.052-2.603,0.378c-0.622-0.923,1.676-2.316,1.676-2.316
		L76.692,188.451z M70.948,197.758l-0.645-0.952l7.738-5.03c0.162,0.372,0.317,0.727,0.471,1.071
		C76.034,194.449,72.66,196.646,70.948,197.758z M94.329,182.56c0.227-0.586,0.44-1.194,0.659-1.803l1.381-0.9
		c0.246,0.306,0.497,0.601,0.744,0.896C96.18,181.355,95.253,181.961,94.329,182.56z M176.322,198.186
		c-3.332-2.165-13.808-8.975-24.736-16.08c0.239-0.291,0.479-0.598,0.724-0.908l24.653,16.033L176.322,198.186z M181.139,193.749
		c0,0,1.765-2.975,4.847-0.908c2.871,1.933,0.931,4.552,0.931,4.552l-3.426,5.082c0,0-1.854,3.204-4.762,1.25
		c-2.992-2.018-1.312-4.827-1.312-4.827s-0.004-0.006-0.013-0.017l2.594-4.131l-9.635-6.493l0.106,0.548l4.602,3.102
		c0,0,2.298,1.386,1.672,2.311c-0.45,0.679-1.874,0.017-2.599-0.377l-21.031-13.675c0.535-0.7,1.069-1.417,1.603-2.166l7.098,4.319
		l0.244-0.259l-6.894-4.683c0.303-0.432,0.604-0.871,0.903-1.312C168.958,185.16,181.139,193.749,181.139,193.749z M175.111,136.617
		c-0.6,0.605-1.457,0.985-2.307,1.224c1.111,1.686,0.717,2.399,0.535,2.722c-0.031,0.046-0.057,0.089-0.083,0.133
		c0.285,0.245,0.429,0.562,0.495,0.98c0.116,0.871-1.155,3.988-1.638,4.468c-0.088,0.089-0.18,0.171-0.284,0.238
		c-0.049,0.352-0.201,0.672-0.443,0.921c-0.162,0.175-1.075,1.302-1.833,2.245l-0.384,0.48c1.536,1.891,2.049,3.78,2.078,3.896
		l0.279,1.084l-2.425,1.672l0.022,0.066l-2.003,1.469c0.515,1.755,0.962,5.011-1.229,8.347c-2.162,3.295-5.471,3.439-7.768,2.839
		c-3.173,6.533-9.51,13.855-11.602,16.187c0,0.953,0.04,1.63,0.04,1.641l0.026,0.596l-7.978,10.247l-0.6,0.04
		c-0.21,1.457-1.063,2.631-1.203,2.81l-0.586,0.767l-1.984-0.333c-0.396,1.222-1.01,1.877-1.101,1.976l-0.695,0.688l-1.155-0.366
		l-0.175,1.224l-0.776,0.368c-2.053,0.985-3.764,3.324-3.78,3.348l-0.703,0.979l-1.139-0.405c-2.033-0.725-3.268-1.84-3.983-3.037
		c-0.821,0.165-1.976-0.118-3.024-2.269l-0.072-0.148c-0.29,0.036-0.585,0.014-0.878-0.092c-0.922-0.312-1.536-1.309-1.909-2.144
		l-0.847-0.775c-5.959-5.418-10.753-12.41-10.954-12.704l-0.491-0.718l0.334-0.796c0.237-0.574,0.06-1.252-0.121-1.698
		c-1.721-1.896-5.122-5.718-7.798-9.309c-3.54,12.538-9.444,21.422-9.719,21.827l-1.411,2.102l-1.3-2.17
		c-0.333-0.56-8.11-13.768-8.362-28.969c-2.818,2.888-5.524,6.293-7.222,9.964l-1.411,3.062l-1.489-3.023
		c-0.063-0.126-5.865-12.373,5.803-24.208l-4.203-0.913l1.286-1.952c0.179-0.281,4.127-6.17,10.656-7.661
		c-0.068-0.438-0.111-0.87-0.111-1.31c0-4.034,2.808-7.442,6.613-8.341c0.749-9.202,7.54-37.294,32.231-42.914
		c12.208-2.781,23.464-0.922,32.566,5.374c10.107,6.99,15.848,18.177,16.946,25.716c1.412,4.262,6.136,3.078,6.786,2.891h0.01
		c0.008-0.006,0.008-0.006,0.019-0.011l-0.011,0.005c0.535-0.166,1.131-0.062,1.572,0.288c0,0,0.547,0.438,0.56,0.454l0.059,0.697
		c0.033,0.48-0.142,0.953-0.49,1.334l0.095-0.118c-0.727,0.958-1.505,1.742-2.336,2.358c1.104-0.188,1.601,0.42,1.812,0.836
		c0.043,0.082,0.11,0.228,0.714,1.887l0.23,0.643c0.138,0.281,0.33,0.763,0.631,1.624l0.334,0.949L175.111,136.617z
		 M210.744,106.525c-0.587,1.541-1.523,2.757-2.915,4.096c-0.638,0.612-15.228,9.706-32.158,20.238
		c-0.212-0.567-0.267-0.679-0.318-0.777c-0.03-0.064-0.088-0.162-0.167-0.285c2.6-1.615,5.177-3.226,7.677-4.784
		c8.881-5.442,17.362-10.751,18.754-11.722c3.334-2.105,5.479-3.487,5.835-3.781c1.33-1.277,2.088-2.324,2.568-3.583
		c0,0,0.866-1.444-1.398-5.038c0,0,0.557,1.715-0.142,3.06l-1.045,1.309l-0.011,0.004l-0.008,0.008
		c-12.407,11.078-32.232,18.166-32.436,18.23l-0.327,0.123c-0.019-0.012-0.026-0.019-0.039-0.019l0.223-0.306
		c8.418-11.417,23.45-22.847,26.407-25.039l-0.984,0.223l-9.628,6.844l-0.806,1.396l-0.017,0.021l-0.017,0.018
		c-5.769,4.433-12.976,11.758-17.583,16.643c-0.013,0.008-0.025,0.008-0.044,0.013l0.022-0.009
		c-0.758,0.215-2.552,1.184-3.777-0.394c6.192-5.913,10.704-9.041,11.951-10.039l-0.572,0.087
		c-5.208,3.484-11.15,8.223-11.631,8.666l-0.435,0.306c-0.064-0.441-0.483-1.31-0.581-1.771c5.13-3.786,10.325-7.581,15.454-11.226
		l14.153-10.057c0.35-0.31,0.69-0.573,1.028-0.796c1.846-1.252,4.004-1.92,6.081-1.878c2.652,0.048,3.938,1.888,5.278,3.869
		C210.474,102.162,211.698,104.047,210.744,106.525z M176.433,126.264l-0.11-1.391c0-0.005-0.129-0.113-0.298-0.25
		c11.002-5.072,22.055-11.644,22.196-11.726l0.017-0.014l0,0l0.398,0.477c-0.582,0.468-1.177,0.922-1.781,1.378
		c-5.64,3.539-13.08,8.173-20.593,12.848C176.412,127.166,176.468,126.721,176.433,126.264z M214.009,110.152l-2.306-0.559
		c0.485-0.722,0.862-1.457,1.168-2.249c1.392-3.633-0.48-6.412-1.847-8.437c-1.366-2.026-3.241-4.81-7.124-4.871
		c-0.777-0.022-1.567,0.058-2.346,0.202l-12.384-9.06c-0.524,1.568-2.362,3.598-2.362,3.598v-9.299l7.833,0.669v-4.751l8.199,12.747
		c1.392-1.566,4.85-1.785,4.85-1.785l6.319,1.771L214.009,110.152L214.009,110.152z"/>
	<path fill="#EF3E42" d="M51.73,74.328c0-0.009,0.013-19.539,0.013-19.539c0.018-1.62,2.416-2.375,2.416-2.375l-0.333-0.752
		l-0.031-0.071c-0.686-1.439-4.44-9.525-4.44-9.525l-28.602,0.021l-2.441,12.011c0,0,2.173,0.266,2.181,2.31
		c0,0.005,0.008,59.148,0.008,59.148c-0.079,2.406-2.211,3.315-2.211,3.315l0.228,0.477c0.282,1.538,1.905,9.724,1.905,9.724
		l0.245,1.149c0,0.006,11.276-3.885,11.276-3.885l0.56-0.197l0.116-0.583l2.21-10.969c0,0-2.129-0.046-2.094-1.879
		c0-0.004,0.118-23.179,0.118-23.179c0.642-0.091,9.347-2.384,9.347-2.384c1.742-0.358,3.437,0.5,3.451,0.503l0.821,0.373
		c0.003,0,0.482-0.762,0.482-0.762l7.051-10.8C54.004,76.464,51.718,75.846,51.73,74.328 M33.018,77.216L33.014,53.95
		c1.585-0.049,4.518-0.153,6.156-0.211l-0.035,22.204C38.216,76.056,33.691,77.141,33.018,77.216z"/>
	<path fill="#EF3E42" d="M229.551,115.769l-0.033-26.312c-0.059-2.075,2.281-2.408,2.281-2.408l-7.175-12.782l-0.893,0.521
		c-0.019,0.009-1.713,0.985-3.378,0.771c-0.15-0.034-7.28-1.859-7.674-1.913c-0.438-0.057-1.006-0.134-1.033-2.008l-0.211-17.899
		c0,0,4.333,0.158,5.46,0.211l0.125,11.032c0.008,0,12.462,1.252,12.462,1.252c-0.011,0-0.023-9.825-0.023-9.825
		c0-2.333,2.292-2.568,2.292-2.568c-0.004-0.01-4.844-11.776-4.844-11.776c-0.008,0-25.702,0.03-25.702,0.03
		c0.008,0-4.754,10.13-4.754,10.13c0,0.005,2.424,0.936,2.452,2.578c0,0.003,0.218,15.613,0.218,15.613
		c0.02,1.596-2.267,2.394-2.267,2.394s5.793,8.786,6.821,10.44l0.467,0.758l0.814-0.355c0.02-0.008,1.764-0.748,3.5-0.46
		c0.35,0.074,7.074,2.123,7.235,2.153c0.625,0.117,1.286,0.384,1.308,2.116l0.385,26.934c-0.577-0.14-5.427-1.204-8.279-1.833
		c-0.841,0.615-3.282,2.2-8.489,5.46c0.88,2.013,1.594,3.632,1.594,3.632c-0.006-0.008,24.848,7.96,24.848,7.96l4.73-10.432
		C231.791,119.185,229.56,117.955,229.551,115.769"/>
	<path fill="#EF3E42" d="M170.863,53.202c0,0.004,0.511,35.313,0.511,35.313c0.009,1.221-2.192,1.483-2.192,1.483l2.539,9.518
		l14.671,4.101c3.768-2.678,8.342-5.928,8.967-6.371c0.401-0.347,0.778-0.636,1.146-0.88c0.342-0.232,0.7-0.442,1.058-0.64
		c0.179-0.42,0.281-0.669,0.281-0.669c0.008-0.009-7.618-5.111-7.618-5.111l-0.552,0.917c-0.742,1.234-2.514,1.498-3.863,1.498
		c-0.867,0.004-1.658-0.083-2.214-0.163c-0.015-0.744-0.079-12.825-0.141-16.562c2.065,0.319,7.867,1.277,7.867,1.277l-0.123-9.499
		c0-0.004-6.012-0.762-8.043-0.995l0.04-13.966c0.512,0.069,0.885,0.193,1.589,0.403c1.423,0.437,3.316,1.305,4.215,2.953
		l0.424,0.778l7.771-2.731c0-0.003-4.796-11.766-4.796-11.766c0,0.013-21.45-0.018-21.45-0.018c0.009,0-2.286,9.22-2.286,9.22
		C168.665,51.297,170.875,51.666,170.863,53.202"/>
	<path fill="#EF3E42" d="M55.977,96.482c0-0.004,0.598,2.465,1.189,4.923c1.717,1.221,3.579,2.547,5.148,3.664
		c3.402-1.025,7.746-2.33,7.746-2.33l2.375-10.178c0,0-2.089-0.097-2.08-1.384l0.067-37.392c0.022-1.439,2.164-2.082,2.164-2.082
		l-2.212-9.631c0.004,0-11.696-0.018-11.696-0.018c0,0.004-2.472,10.209-2.472,10.209s2.078,0.778,2.101,2.038l-0.106,39.327
		C58.142,95.433,55.977,96.482,55.977,96.482"/>
	<path fill="#EF3E42" d="M147.066,51.666l0.167,33.002c0,1.19-2.18,1.638-2.18,1.638s1.312,4.607,2.013,7.072
		c0.937,0.537,1.854,1.097,2.748,1.709c0.102,0.079,0.201,0.157,0.308,0.229l8.991,1.443l2.402-8.743c0,0-2.242-0.511-2.196-2.043
		c0,0.004-0.306-33.988-0.306-33.988c2.073,0.214,4.132,3.212,4.132,3.212l7.131-2.573c0,0.009-4.91-10.585-4.91-10.585
		c0-0.015-24.754,0.004-24.754,0.004c-0.008,0-4.767,9.684-4.767,9.684l7.064,2.751C142.919,54.483,145.019,51.906,147.066,51.666"
		/>
	<path fill="#EF3E42" d="M140.292,83.609c0.011,0.04-4.821-30.625-4.995-31.693c-0.213-1.199,2.096-1.458,2.096-1.458
		c0.002,0.006-2.346-8.441-2.346-8.441c0.014,0-18.761,0.027-18.761,0.027c-0.008,0-2.292,8.41-2.292,8.41s2.16,0.525,1.984,1.627
		c-0.125,0.818-4.835,30.535-5.071,31.915l-0.004,0.029l-0.005,0.04c-0.264,0.955-0.91,1.483-1.423,1.768
		c-1.236-0.075-2.977-0.359-3.148-1.375c-0.005-0.03-2.188-14.441-2.188-14.441c0.274-0.333,4.406-5.333,4.406-5.333
		s-2.063-1.073-2.058-2.398c0,0.004,0.041-9.855,0.041-9.855c0.005-1.272,2.4-1.798,2.4-1.798l-4.814-8.563
		c-0.004-0.014-25.556,0.004-25.556,0.004c0.013-0.009-2.472,9.517-2.472,9.517s2.121,0.424,2.114,1.839
		c0-0.005-0.066,17.432-0.066,17.432L77.911,89.28c-0.066,1.619-2.19,2.388-2.19,2.388l2.375,9.219
		c0-0.003,11.728-2.878,11.728-2.878c-0.004,0,2.479-9.408,2.479-9.408s-2.223-0.232-2.189-1.593c0-0.005,0.1-10.655,0.125-13.921
		c0.235-0.022,1.628-0.188,1.902-0.214c0.067-0.009,0.137-0.018,0.205-0.026l3.758,23.888c0.004-0.004,3.397-0.555,6.207-1.01
		c1.533-1.13,3.182-2.166,4.943-3.081c0.667-1.312,1.491-2.927,2.164-4.249c0.251,0.888,0.548,1.926,0.82,2.879
		c1.801-0.731,3.708-1.34,5.734-1.808c2.385-0.542,4.738-0.91,7.044-1.115c0.509-1.747,0.942-3.251,0.942-3.251
		c0,0.008-2.342-0.385-2.249-1.261c0.01-0.062,1.012-6.118,1.161-7.125l5.768,0.004c0.096,0.714,0.912,6.088,1.021,6.902
		c0.136,1.176-2.197,1.553-2.197,1.553c0-0.004,0.412,1.414,0.885,3.028c4.437,0.127,8.681,0.914,12.668,2.358
		c0.67-2.296,1.428-4.905,1.428-4.905S140.59,85.097,140.292,83.609 M94.366,57.831l-0.05,6.304l-3.998,0.33l0.059-6.149l0.06-6.551
		l3.623-0.091l0.355-0.004L94.366,57.831z M124.172,68.669c0.325-1.999,0.977-6.086,1.602-10.02l1.579,10
		C127.354,68.649,124.361,68.669,124.172,68.669z"/>
	<path fill="#EF3E42" d="M116.685,92.536c-26.342,6.004-30.98,38.311-31.054,42.734c-3.647,0.229-6.537,3.252-6.537,6.958
		c0,0.923,0.179,1.801,0.505,2.612c-6.949,0.591-11.317,7.237-11.317,7.237l4.929,1.067c-13.922,11.782-7.712,24.417-7.712,24.417
		c5.138-11.141,18.846-19.703,18.846-19.703c0.086,0.83,0.068,1.592-0.021,2.297c0.088,0.072,0.17,0.15,0.254,0.227
		c-0.103-0.092-0.205-0.179-0.318-0.267l-0.031,0.503c-0.953,6.276-8.495,7.48-8.495,7.48c-0.014,1.015,0.166,2.721,0.166,2.721
		c1.018,13.855,8.017,25.59,8.017,25.59s7.17-10.663,10.442-25.016c0.089-0.399,0.177-0.806,0.262-1.216
		c0.038-0.172,0.073-0.347,0.11-0.517c0.117-0.569,0.223-1.156,0.326-1.734c2.784-16.062-4.498-20.138-4.498-20.138l0.085-0.318
		c0.185-0.162,0.36-0.327,0.523-0.508c0.329-0.355,0.624-0.743,0.875-1.164c0.25-0.416,0.457-0.861,0.618-1.33
		c0.157-0.473,0.269-0.964,0.328-1.47c0.026-0.256,0.04-0.513,0.04-0.771c0-0.171-0.004-0.335-0.018-0.504
		c-0.036-0.494-0.121-0.973-0.256-1.435c0.5-0.418,1-0.82,1.501-1.213c0.068-0.058,0.139-0.113,0.208-0.169
		c0.156-0.119,0.308-0.243,0.466-0.366l0.027-0.276l0.285,0.037c0.088-0.068,0.178-0.131,0.269-0.199
		c0.449-0.348,0.896-0.685,1.348-1.016c0.077-0.059,0.154-0.115,0.229-0.167c9.257-6.774,18.646-10.88,27.357-13.272
		c6.574-1.855,11.481-2.397,13.26-2.538c4.961-0.66,10.677-0.512,10.677-0.512l-0.019,0.015c1.201,0.018,2.342,0.057,3.432,0.112
		c-1.962-3.421-2.043-7.176-0.095-8.63c1.53-1.146,3.879-0.55,5.967,1.27c-1.89-4.359-4.831-9.61-9.348-14.502
		c0,0,11.587,8.845,14.188,23.197c1.056,0.215,1.664,0.381,1.758,0.404c0.014,0.004,0.023,0.009,0.023,0.009
		C162.732,111.167,148.091,85.391,116.685,92.536 M67.705,169.594c0,0,1.384-2.447,4.032-3.29c-4.793,3.667-5.837,8.261-5.837,8.261
		c-1.817-11.964,7.222-16.707,7.222-16.707C67.543,163.953,67.705,169.594,67.705,169.594z M84.708,160.506
		c-0.013-0.013-0.022-0.03-0.04-0.04C84.683,160.476,84.695,160.493,84.708,160.506z"/>
	<path fill="#231F20" d="M89.877,148.535c0-0.005,0-0.011-0.006-0.011l0.006,0.006c-0.011-0.011-0.015-0.019-0.015-0.019
		c0.917,3.203-0.72,9.494-0.72,9.494c1.312-1.941,1.76-3.728,1.805-5.21c0.688,4.046,1.151,10.95-0.646,20.711
		c-0.708-0.149-1.447-0.193-2.203-0.102c-3.733,0.441-6.396,3.825-5.956,7.553c0.326,2.761,2.265,4.938,4.763,5.702
		c-0.131,0.406-0.26,0.811-0.4,1.221c0,0,11.826-21.492,3.899-38.282C90.167,148.998,89.934,148.622,89.877,148.535"/>
	<path fill="#231F20" d="M111.375,102.765c0.487,2.013,4.668,2.588,9.329,1.288c4.668-1.31,8.045-3.995,7.561-6.014
		c-0.496-2.013-4.67-2.586-9.335-1.285C114.265,98.057,110.883,100.758,111.375,102.765"/>
	<path fill="#231F20" d="M140.327,103.73c4.027,2.109,7.973,2.502,8.823,0.874c0.847-1.623-1.724-4.639-5.751-6.742
		c-4.02-2.101-7.974-2.49-8.822-0.871C133.733,98.609,136.306,101.628,140.327,103.73"/>
	<path fill="#231F20" d="M93.778,119.105c1.551,0.968,4.754-1.369,7.157-5.22c2.403-3.855,3.091-7.757,1.537-8.729
		c-0.109-0.067-0.22-0.115-0.339-0.15c1.821-2.717,6.438-8.433,14.426-11.114c0,0-13.572,4.267-21.015,16.072
		c0,0,0.037-0.03,0.085-0.069c-0.103,0.157-0.21,0.313-0.312,0.485C92.914,114.235,92.225,118.138,93.778,119.105"/>
	<path fill="#231F20" d="M90.203,138.614c0.582,0.161,1.236-0.079,1.895-0.627c-0.139,0.24-0.21,0.38-0.21,0.38l0.864-0.806
		c-0.133,0.186-0.272,0.36-0.401,0.544c0,0,12.076-13.004,35.797-19.384c0,0-3.822,0.291-9.212,1.833
		c2.337-2.398,3.111-5.351,1.653-7.347c-1.859-2.539-6.608-2.553-10.615-0.037c-4.005,2.516-5.753,6.618-3.894,9.156
		c0.738,1.009,1.944,1.618,3.374,1.824c-3.947,1.913-8.049,4.485-11.767,7.933c3.316-5.125,6.062-6.62,6.062-6.62
		c-3.622,1.812-6.756,5.374-8.893,8.293c0.278-0.681,0.529-1.399,0.738-2.167c1.219-4.379,0.776-8.318-0.986-8.811
		c-1.763-0.487-4.177,2.66-5.39,7.032C87.997,134.185,88.441,138.127,90.203,138.614"/>
	<path fill="#231F20" d="M135.505,118.372c4.579,0.694,8.688-1.245,9.173-4.32c0.488-3.085-2.827-6.145-7.403-6.84
		c-4.577-0.695-8.691,1.238-9.177,4.32C127.612,114.611,130.925,117.676,135.505,118.372"/>
	<path fill="#231F20" d="M86.548,167.18c0.738-2.714-0.202-5.423-2.287-7.063l-0.031,0.503c-0.953,6.276-8.495,7.48-8.495,7.48
		c-0.014,1.015,0.166,2.721,0.166,2.721c0.694,0.549,1.39,0.876,2.293,1.131C81.814,172.938,85.555,170.807,86.548,167.18"/>
	<path fill="#231F20" d="M65.899,174.564c0,0,1.043-4.594,5.837-8.261c-2.647,0.843-4.032,3.29-4.032,3.29
		s-0.162-5.641,5.417-11.736C73.121,157.859,64.083,162.602,65.899,174.564"/>
	<path fill="#231F20" d="M82.971,155.14c2.361-1.539,3.557-4.018,3.091-6.02c-0.05,0.005-0.098,0.01-0.149,0.01
		c-2.223,0-4.194-1.051-5.464-2.679c-0.839,0.196-1.691,0.552-2.496,1.076c-2.828,1.853-3.997,5.054-2.613,7.155
		C76.725,156.785,80.143,156.991,82.971,155.14"/>
	<path fill="#231F20" d="M90.135,141.219c0,0,1.04,3.219-1.276,5.731C92.904,145.205,90.135,141.219,90.135,141.219"/>
	<path fill="#231F20" d="M86.129,147.624c0,0-5.192-2.371-5.045-7.448c0,0-1.296,3.124,0.512,5.379
		C83.399,147.815,86.129,147.624,86.129,147.624"/>
	<path fill="#231F20" d="M166.001,134.518l0.158-0.644c0,0,3.963,1.071,6.961-0.647c0,0-0.573-1.567-0.648-1.711
		c-0.062-0.145-6.737,3.214-9.845-2.997c0,0,5.672,4.522,10.538-1.882c0,0,0.1-0.105,0.052-0.148
		c-0.044-0.031-0.096-0.01-0.096-0.01s-6.91,2.09-8.835-4.009c0,0-0.627-0.175-1.782-0.413c-2.6-14.352-14.187-23.197-14.187-23.197
		c4.517,4.894,7.458,10.146,9.347,14.503c-2.088-1.82-4.437-2.417-5.969-1.271c-1.946,1.454-1.864,5.21,0.096,8.631
		c-1.086-0.056-2.237-0.096-3.432-0.111l0.02-0.017c0,0-5.715-0.148-10.679,0.512c-3.963,0.319-23.521,2.591-42.46,17.196
		l-0.288-0.036l-0.026,0.277c-0.726,0.563-1.453,1.146-2.175,1.747c0.176,0.615,0.274,1.263,0.274,1.938
		c0,2.092-0.923,3.965-2.383,5.24l-0.085,0.321c0,0,7.282,4.075,4.499,20.137c-0.219,1.274-0.48,2.53-0.762,3.751
		c2.661,4.24,7.88,10.082,9.838,12.227c0.33,0.705,0.741,1.964,0.24,3.189c0,0,4.817,7.072,10.709,12.424
		c0,0,1.072-3.64,4.499-5.567l0.533,1.174c0,0-3.318,2.787-3.854,5.57c0,0,0.856,1.823,1.287,1.392
		c0.426-0.424,1.282-2.887,3.639-5.247l1.177,1.396c0,0-2.566,2.031-3.212,4.923c0,0,0.91,1.607,1.286,1.387
		c0.377-0.209,0.107-1.276,1.18-2.673c0,0-1.18,4.071,3.643,5.779c0,0,1.921-2.672,4.385-3.854l0.322-2.249l2.034,0.647
		c0,0,0.855-0.861,0.963-2.679l2.573,0.428c0,0,1.388-1.82,0.749-3.314l1.494-0.115l7.176-9.205c0,0-0.051-1.008-0.044-2.337
		c1.567-1.711,9.375-10.464,12.359-17.584c0,0,4.606,2.356,7.28-1.711c2.68-4.071,0.641-8.031,0.641-8.031l2.039-1.501
		c0,0-0.753-2.25-1.927-3.423l0.43-0.967c0,0,1.71,1.393,2.249,3.751l1.71-1.178c0,0-0.968-3.749-4.604-5.57
		c0,0,1.711-0.533,3.208-0.219c0,0,1.715-2.136,1.932-2.35c0.212-0.214-1.609-1.286-1.609-1.286s2.146,0.325,2.354,0.113
		c0.221-0.224,1.217-2.865,1.183-3.11c-0.035-0.246-3.858-0.754-3.858-0.754s3.498-1.137,3.645-1.391
		c0.144-0.249-1.072-1.927-2.249-3.103c0,0,3.102,0,4.284-1.183c0,0-0.5-1.422-0.639-1.601
		C173.191,133.694,171.031,135.853,166.001,134.518 M164.123,135.586c0,1.824,2.036,4.821,2.036,4.821
		c-3.532-1.396-4.604-5.251-4.604-5.251L164.123,135.586z M159.092,146.938c0,0,0.648,4.282-2.143,4.71
		c0,0,2.681-9.315,2.681-11.672C159.63,139.977,163.913,140.618,159.092,146.938z M137.143,121.26l7.674,0.625
		c0.307,0.308,0.654,0.67,1.043,1.103c-2.675,1.731-12.436,7.764-25.855,12.675c-3.652-0.443-10.789-0.594-17.458,3.405l-4.08-0.428
		C100.989,136.403,115.021,124.785,137.143,121.26z M109.409,167.069c5.134-8.136,10.49-2.784,10.49-2.784
		c-11.243-3.32-14.132,16.6-14.132,16.6S104.264,175.204,109.409,167.069z M130.11,173.043c-0.285,0.123-0.583,0.249-0.894,0.38
		c-1.688,0.692-3.374,0.968-4.958,0.989l-0.061-3.137c0.547-0.043,1.268-0.118,2.267-0.244c0.83-0.107,1.567-0.336,2.211-0.645
		L130.11,173.043z M129.398,170.014c2.039-1.206,3.026-3.013,3.026-3.013c1.433,0.926,2.005,3.315,2.005,3.315
		s-0.64,0.976-3.588,2.385L129.398,170.014z M124.812,175.161l0.211,0.533c-0.764,0.587-1.479,1.059-2.165,1.453l-0.323-1.317
		C123.875,175.528,124.812,175.161,124.812,175.161z M123.441,174.408c-1.894-0.075-3.606-0.495-4.942-0.957l0.278-2.908
		c1.177,0.146,2.213,0.447,2.729,0.521c0.835,0.136,1.008,0.275,1.887,0.249l0.062,3.063L123.441,174.408z M122.126,177.541
		c-0.891,0.441-1.713,0.745-2.471,0.92l0.062-2.261c0.706-0.024,1.394-0.104,2.025-0.219L122.126,177.541z M114.543,174.35
		c0.377,0.439,0.812,0.783,1.282,1.052l-1.287,2.2c-1.633-1.112-2.348-2.719-2.348-2.719
		C113.047,173.818,114.543,174.35,114.543,174.35z M113.508,173.214c0.726-2.32,2.647-2.801,4.463-2.731l-0.256,2.685
		C115.259,172.307,113.508,173.214,113.508,173.214z M116.559,175.742c0.738,0.289,1.547,0.416,2.359,0.456l-0.072,2.404
		c-1.466,0.177-2.662-0.107-3.613-0.587L116.559,175.742z M122.163,190.287c0,0,2.231-2.581,2.573-2.892l0.644,1.071
		C125.38,188.467,123.577,189.951,122.163,190.287z M131.23,191.062c-2.773-1.961-5.071-5.071-5.824-6.153l1.085-5.705l-3.903,1.86
		l1.855,4.166c-1.135,1.148-3.494,3.543-5.569,5.837c-3.95-0.626-9.561-4.506-11.483-6.459c1.099-7.059,3.231-8.21,3.231-8.21
		c4.529,6.814,13.379,3.72,15.914,0.306c2.214-2.97,8.485-4.463,13.286,0.858c2.013,2.236,2.3,3.82,2.581,6.734
		C141.952,185.562,135.746,190.611,131.23,191.062z M144.315,180.777c-3.107-19.599-12.746-17.562-12.746-17.562
		c0.855-0.755,5.139-2.679,9.211,3.641S144.315,180.777,144.315,180.777z M154.384,147.899c0,0-3.002,3.105-4.499,4.498
		c0,0,1.926,7.283-3.536,16.389l0.535,0.424l6.107-8.03c0,0,2.118,10.297-8.017,21.81c0.036-0.69,0.101-1.377,0.194-2
		c1.286-8.135-1.707-16.278-8.349-19.384c-0.889-0.412-1.698-0.626-2.443-0.697c0.25-2.079,0.369-7.201-4.41-7.113l1.603-6.644
		l4.82-0.533l-3.212-1.825c0,0,1.076-0.813,2.679-1.764c0.139,1.716,1.569,3.064,3.315,3.064c1.844,0,3.335-1.491,3.335-3.335
		c0-0.884-0.35-1.694-0.918-2.288c0.888-0.236,1.775-0.385,2.617-0.385c0,0,2.034,2.465-1.069,5.89l3.534-2.354l-1.396-4.39
		l-4.599-0.433c0,0,2.671-2.355,3.747-2.249c1.067,0.11,3.746,4.497,3.746,4.497l0.533-0.213c0,0-1.177-4.927-5.241-7.605
		c-4.069-2.673-6.642-1.495-6.642-1.495s-3.433,5.565-6.321,6.962c-2.887,1.391-2.887,1.501-3.105,0.215l-1.176,0.429
		c0,0-1.283,6.098,3.319,3.744c0,0,0.215,0.424-0.859,1.392c0,0,2.036,5.891-1.284,12.208c0,0,6.247-3.709,5.855,4.235
		c-3.646,0.439-5.151,4.732-5.318,5.404c-0.214,0.854,0.11,1.606-0.961,2.035c-1.072,0.431-2.035,0.212-2.894,0
		c-0.857-0.218-0.857-0.968-0.857-0.968c-1.122-4.409-3.817-5.62-5.732-5.897c-0.201-1.514-0.573-6.658,3.921-5.378l-1.074-1.926
		c0,0-5.375,0.005-3.828,7.225c-0.667-0.006-1.103,0.092-1.103,0.092c-12.287,2.145-11.262,18.763-11.148,20.229
		c-2.12-2.104-7.865-8.892-6.417-19.428c0,0,2.572,4.394,5.246,7.925l0.753-0.968c0,0-3.858-4.227-3.002-15.468l-5.032-4.284
		l1.711-2.359l-2.78-3.428l2.142-2.572l-0.27-0.555l4.002,0.424c-0.266,2.894-0.44,13.587,11.724,13.344
		c13.249-0.268,13.066-12.89,10.613-17.512c12.859-4.968,22.047-10.735,24.321-12.229c0.555,0.675,1.142,1.438,1.76,2.289
		c0,0,2.46-0.969,3.532-1.396l1.499,1.285l-4.393,1.611l0.962,1.497c0,0,2.897-1.177,4.289-1.707l0.961,1.172
		c0,0-3.319,1.497-4.602,1.821l0.64,1.5c0,0,3.643-1.181,4.82-1.719l0.644,1.501l-5.247,1.719l0.858,2.136
		c0,0,3.213-0.857,4.813-2.136c0,0-1.179,2.244-4.392,5.563c0,0,0.862,1.713,2.146,3.32l-2.785,2.781L154.384,147.899z
		 M138.009,142.67c0-0.674,0.548-1.207,1.217-1.207c0.666,0,1.209,0.533,1.209,1.207c0,0.67-0.543,1.209-1.209,1.209
		C138.556,143.877,138.009,143.34,138.009,142.67z M163.988,148.328c0,0,2.384,10.605-6.931,11.351c0,0-0.108-0.18-0.18-0.679
		c-0.069-0.495,0.394-1.143,0.394-1.143s7.066-0.961,4.708-11.241l2.896-3.426l2.146,1.39L163.988,148.328z"/>
	<path fill="#231F20" d="M138.64,149.29c0,0,3.854,0.859,6.852-0.961l-1.711-1.389C143.78,146.938,141.745,149.074,138.64,149.29"/>
	<path fill="#231F20" d="M82.451,161.126c-1.703,1.253-4.015,3.072-6.388,5.296C77.517,166.033,81.299,164.689,82.451,161.126"/>
	<path fill="#231F20" d="M127.333,178.757c4.971-3.067,7,0.286,7,0.286l1.523-2.417
		C130.499,174.974,127.333,178.757,127.333,178.757"/>
	<path fill="#231F20" d="M114.125,181.064l1.18,2.464c0,0,3.728,0.813,5.656-2.399C120.96,181.129,116.896,182.651,114.125,181.064"
		/>
	<path fill="#231F20" d="M65.344,118.935l0.111-0.238c-5.661-5.364-12.721-9.827-13.542-10.338l-0.223,0.197
		c2.955,2.314,4.887,4.621,4.91,4.646l-0.158,0.197c-5.363-2.523-12.797-7.692-13.452-8.581c-0.164-0.224-0.133-0.38-0.075-0.473
		c0.228-0.363,1.348-0.275,2.052-0.179l-1.641-1.518c-2.487-0.761-3.274-0.53-3.49-0.202c-0.341,0.512,0.433,1.632,0.771,2.036
		C48.664,110.643,63.904,118.226,65.344,118.935"/>
	<path fill="#231F20" d="M68.116,198.068c0,0-0.067,1.646-1.205,2.41c-1.139,0.767-2.055,0.846-2.055,0.846l0.022,0.034l0.022,0.04
		c0.166,0.271,0.761,1.031,1.492,1.198c0.431,0.092,0.892-0.03,1.411-0.38c1.787-1.208,1.151-2.659,0.915-3.085L68.116,198.068"/>
	<path fill="#231F20" d="M65.848,194.651c0,0-1.564-0.514-2.679,0.279c-1.121,0.792-1.519,1.623-1.519,1.623l-0.026-0.04
		l-0.026-0.028c-0.197-0.246-0.7-1.081-0.593-1.821c0.064-0.433,0.341-0.822,0.852-1.187c1.756-1.251,2.898-0.14,3.209,0.233
		L65.848,194.651"/>
	<path fill="#231F20" d="M203.936,102.22l-1.638,1.527c0.701-0.102,1.825-0.189,2.05,0.174c0.062,0.097,0.096,0.25-0.077,0.474
		c-0.65,0.888-8.088,6.051-13.445,8.585l-0.156-0.201c0.019-0.025,1.952-2.336,4.908-4.646l-0.226-0.197
		c-0.819,0.511-7.882,4.979-13.54,10.331l0.111,0.25c1.441-0.719,16.683-8.297,24.735-14.458c0.339-0.403,1.109-1.524,0.775-2.035
		C207.212,101.693,206.429,101.458,203.936,102.22"/>
	<path fill="#231F20" d="M179.29,198.631c0,0,0.069,1.646,1.207,2.412c1.139,0.768,2.057,0.846,2.057,0.846l-0.023,0.034
		l-0.021,0.04c-0.164,0.27-0.762,1.032-1.495,1.199c-0.428,0.097-0.892-0.027-1.413-0.381c-1.781-1.199-1.151-2.662-0.913-3.084
		L179.29,198.631"/>
	<path fill="#231F20" d="M181.558,195.215c0,0,1.557-0.517,2.678,0.28c1.12,0.792,1.524,1.623,1.524,1.623l0.024-0.034l0.026-0.035
		c0.196-0.245,0.698-1.072,0.594-1.812c-0.064-0.441-0.339-0.83-0.856-1.192c-1.749-1.249-2.897-0.142-3.203,0.23L181.558,195.215"
		/>
	<path fill="#FFC425" d="M164.02,158.721c-0.096-0.351-0.219-0.691-0.36-1.024c-0.024-0.074-0.07-0.141-0.118-0.201l-1.245,1.109
		c0.069,0.175,0.129,0.36,0.177,0.548c0.435,1.518,0.312,3.095-0.308,4.21c-0.269,0.469-0.745,1.076-1.536,1.299
		c-1.709,0.479-3.746-1.229-4.452-3.736c-0.533-1.887-0.2-3.849,0.819-4.883c0.311-0.316,0.311-0.827-0.004-1.133
		c-0.319-0.315-0.821-0.311-1.138,0.004c-1.436,1.447-1.916,3.986-1.221,6.451c0.954,3.4,3.845,5.574,6.426,4.844
		c1.047-0.297,1.913-1.006,2.501-2.061C164.404,162.646,164.569,160.667,164.02,158.721"/>
	<path fill="#FFC425" d="M227.494,115.7c0,0-0.035-26.31-0.035-26.308c-0.004-1.447,0.335-2.436,1.049-3.023
		c0.134-0.109,0.281-0.2,0.429-0.271c-1.45-2.626-3.902-7.029-5.106-9.151c-0.883,0.359-2.286,0.771-3.758,0.583
		c-0.162-0.022-7.263-1.851-7.658-1.909c-1.872-0.254-2.802-1.576-2.825-4.026c0,0-0.238-20.062-0.228-20.065l9.572,0.419
		l0.119,11.102l8.357,0.836l-0.016-7.544c0-1.466,0.335-2.503,1.035-3.154c0.21-0.194,0.451-0.342,0.708-0.456l-1.156-2.796
		c-0.893-2.161-1.875-4.559-2.43-5.873l-23.045,0.022c-0.612,1.309-1.751,3.803-2.616,5.71l-0.7,1.537
		c0.875,0.415,1.737,1.342,1.768,3.372l0.218,15.604c0.027,1.262-0.274,2.157-0.918,2.744c-0.148,0.131-0.306,0.241-0.475,0.334
		c1.474,2.243,4.011,6.139,5.202,8.013c0.874-0.259,2.328-0.553,3.85-0.298c0.441,0.093,7.081,2.118,7.239,2.158
		c1.338,0.248,2.948,1.168,2.984,4.121c0,0,0.427,29.696,0.427,29.69c0,0-8.812-2.105-12.68-3.033
		c-1.067,0.688-2.504,1.602-4.39,2.795l1.313,3.075c3,0.949,18.26,5.809,22.237,7.1c0.345-0.764,2.758-6.165,3.251-7.256
		C228.082,118.984,227.494,117.632,227.494,115.7"/>
	<path fill="#FFC425" d="M173.016,53.104l0.42,35.318c0.013,1.103-0.298,1.917-0.914,2.423c-0.241,0.198-0.528,0.321-0.834,0.409
		l0.007,0.034c0,0,1.541,5.864,1.699,6.448c0.778,0.187,10.063,2.742,15.315,4.221c2.292-1.632,4.357-3.119,5.618-4.021
		c0.499-1.189,0.969-2.196,0.969-2.196c-1.205-0.82-3.297-2.219-4.531-3.042c-1.086,1.086-2.766,1.659-4.949,1.659
		c-1.856,0.004-4.573-0.627-4.573-0.646l-0.026-20.52c0,0,6.044,0.914,8.01,1.23l-0.099-5.261c-1.993-0.249-7.999-0.954-7.999-0.954
		l-0.121-18.011c0,0,2.504,0.062,4.38,0.626c1.579,0.486,3.636,1.423,4.939,3.186c1.12-0.395,2.938-1.028,4.15-1.453l-1.025-2.516
		l-2.433-5.981l-18.483,0.008c-0.33,1.278-1.472,5.938-1.472,5.938C172.236,50.462,172.99,51.543,173.016,53.104"/>
	<path fill="#FFC425" d="M58.362,97.257c0,0,1,4.324,1.368,5.903c0.146,0.11,0.295,0.214,0.437,0.315
		c1.848-0.569,6.776-2.062,8.152-2.447c0.278-1.261,1.693-7.018,1.693-7.018c-0.273-0.066-0.552-0.185-0.812-0.394
		c-0.624-0.504-0.918-1.331-0.907-2.525c0,0,0.072-37.396,0.072-37.4c0.022-1.623,0.69-2.767,1.833-3.244
		c0,0-1.232-5.202-1.492-6.384l-8.418-0.008c0,0-1.595,6.538-1.695,6.945c0.378,0.144,0.66,0.349,0.857,0.538
		c0.622,0.6,0.933,1.514,0.912,2.731l-0.107,39.325C60.24,95.344,59.581,96.583,58.362,97.257"/>
	<path fill="#FFC425" d="M163.869,52.664c-1.61-2.026-5.176-3.046-5.627-3.174l-1.312-0.355l0.333,36.797
		c0.019,1.523,0.665,2.603,1.833,3.137c-0.256,0.901-1.203,4.335-1.457,5.264c-1.435-0.254-7.018-1.146-8.522-1.357
		c-0.146-0.515-1.567-5.618-1.567-5.618c0.341-0.104,0.647-0.262,0.901-0.489c0.559-0.509,0.849-1.273,0.841-2.272
		c0-0.004-0.175-35.61-0.175-35.61l-1.238,0.266c-0.45,0.092-3.957,0.885-5.575,2.713l-3.602-1.409
		c0.932-1.864,2.473-4.958,3.216-6.511l22.13,0.018l3.399,7.291C166.884,51.557,164.094,52.581,163.869,52.664"/>
	<path fill="#FFC425" d="M46.527,84.029l-0.868,1.374c-0.884-0.267-2.326-0.652-3.853-0.341c0.017-0.004-11.005,2.691-11.005,2.691
		c0-0.005-0.123,24.878-0.123,24.878c-0.013,1.417,0.328,2.371,1.037,2.913c0.228,0.179,0.497,0.29,0.783,0.363
		c-0.256,1.155-1.778,8.604-1.778,8.604s-8.013,2.754-8.523,2.931l-0.234-1.087c0,0-1.035-5.385-1.278-6.684
		c1.238-0.783,1.833-2.175,1.833-4.18l0.031-59.144c0.004-1.487-0.338-2.534-1.048-3.186c-0.197-0.178-0.474-0.372-0.842-0.503
		c0.261-1.465,1.466-7.395,1.466-7.395l0.256-1.19c4.277-0.009,21.974-0.009,25.71,0.009c0.363,0.818,2.809,6.152,3.338,7.259
		c-0.897,0.421-1.721,1.353-1.749,3.356l-0.013,19.534c-0.018,1.208,0.534,2.03,1.164,2.591c0.145,0.126,0.303,0.242,0.471,0.329
		C50.517,78.354,46.527,84.029,46.527,84.029 M30.908,51.893l-0.055,28.031l10.369-2.174c0,0.003,0.028-26.229,0.028-26.229
		L30.908,51.893z"/>
	<path fill="#FFC425" d="M104.655,93.179c-1.134,0.174-6.858,1.116-6.858,1.116c-0.343-2.184-3.738-23.849-3.738-23.849
		c0.004,0.008-5.859,0.695-5.859,0.695c0-0.004-0.149,16.048-0.149,16.048c-0.009,1.054,0.295,1.854,0.906,2.372
		c0.201,0.166,0.484,0.336,0.857,0.446c-0.197,0.727-1.408,5.304-1.655,6.205c0,0-7.282,1.733-8.603,2.087
		c0,0-1.232-4.682-1.479-5.68c1.206-0.63,1.878-1.793,1.895-3.378l0.426-35.855c0.009-1.125-0.286-1.982-0.877-2.552
		c-0.251-0.241-0.551-0.416-0.892-0.538c0.252-1.02,1.649-6.232,1.649-6.232l22.625-0.006c0,0,2.826,5.049,3.09,5.527
		c-0.972,0.476-1.519,1.426-1.524,2.774c0,0.005-0.045,9.854-0.045,9.854c-0.005,0.999,0.277,1.778,0.833,2.302
		c0.127,0.113,0.26,0.214,0.405,0.297c-0.037,0.044-0.067,0.087-0.103,0.131l-3.595,4.416c-0.004-0.018,2.379,15.582,2.379,15.582
		c0.095,0.731,0.622,2.281,3.298,2.503C107.642,87.441,105.192,92.15,104.655,93.179 M95.423,49.521l-1.411,0.026l-4.629,0.118
		l-0.994,0.027c0.008,0,0,0.993,0,0.993l-0.072,7.547l-0.064,7.277l-0.013,1.126c0.013,0,1.133-0.097,1.133-0.097l5.328-0.433
		l0.722-0.053l0.937-0.079c0,0.005,0.008-0.945,0.008-0.945l0.054-7.251l0.057-7.22l0.009-1.062
		C96.483,49.49,95.423,49.521,95.423,49.521z"/>
	<path fill="#FFC425" d="M139.903,86.812l0.066-0.228c-0.894-0.504-1.576-1.457-1.815-2.683c0,0-4.831-30.657-4.998-31.654
		c-0.183-0.81-0.008-1.615,0.485-2.219c0.237-0.302,0.644-0.608,1.235-0.818l-0.216-0.727l-1.271-4.412l-0.011-0.021l-15.653-0.005
		c0,0-1.187,4.314-1.417,5.211c0.476,0.17,0.882,0.442,1.177,0.818c0.466,0.592,0.632,1.38,0.463,2.132
		c-0.206,1.382-4.894,30.691-5.131,32.065l0.014-0.069c-0.125,1.195-0.843,2.244-1.815,2.791l1.044,3.611
		c1.26-0.429,2.994-0.927,3.911-1.138c1.147-0.252,2.278-0.502,3.403-0.655c0.437-0.07,0.868-0.131,1.301-0.185l0.637-2.24
		c-0.551-0.135-0.993-0.385-1.312-0.762c-0.479-0.568-0.621-1.338-0.427-2.243l1.401-8.77c0,0,9.346-0.014,9.35-0.014
		c0,0,1.143,7.854,1.245,8.629c0.181,0.942,0.037,1.71-0.443,2.275c-0.302,0.364-0.731,0.608-1.256,0.758l0.049,0.175
		c0,0,0.397,1.234,0.58,1.877c0.019,0.01,0.04,0.01,0.059,0.018c2.908,0.232,5.728,0.752,8.432,1.567
		C139.399,88.5,139.903,86.812,139.903,86.812 M121.599,70.656c0,0,2.933-18.108,3.063-18.833l2.03,0.012
		c0.062,0.477,2.958,18.846,2.951,18.839L121.599,70.656z"/>
</g>
</svg>
