<?xml version="1.0" encoding="utf-8"?>
<!-- Generator: Adobe Illustrator 16.0.4, SVG Export Plug-In . SVG Version: 6.00 Build 0)  -->
<!DOCTYPE svg PUBLIC "-//W3C//DTD SVG 1.1//EN" "http://www.w3.org/Graphics/SVG/1.1/DTD/svg11.dtd">
<svg version="1.1" id="Layer_1" xmlns="http://www.w3.org/2000/svg" xmlns:xlink="http://www.w3.org/1999/xlink" x="0px" y="0px"
	 width="250px" height="250px" viewBox="0 0 250 250" enable-background="new 0 0 250 250" xml:space="preserve">
<g>
	<path fill="#FFFFFF" d="M125.012,9C61.186,9,9.267,60.933,9.267,124.75c0,63.826,51.918,115.75,115.745,115.75
		s115.745-51.924,115.745-115.75C240.757,60.933,188.838,9,125.012,9"/>
	<path fill="#FFFFFF" d="M231.737,124.75c-0.009-0.666-0.038-1.331-0.049-1.996h-33.29c-0.527-18.001-7.584-35.851-21.321-49.586
		c-28.568-28.575-74.897-28.575-103.467,0c-13.788,13.784-20.856,31.699-21.34,49.758l-33.945-0.039
		c-0.015,0.637-0.023,1.245-0.038,1.843c0,0.182-0.01,0.352-0.01,0.543c0,0.482,0.029,0.959,0.039,1.434h33.95
		c0.442,18.125,7.514,36.098,21.345,49.93c28.57,28.562,74.894,28.562,103.467-0.01c13.87-13.861,20.937-31.918,21.346-50.092
		h33.285c0.012-0.475,0.039-0.949,0.039-1.434C231.747,124.986,231.742,124.863,231.737,124.75"/>
	<path fill="#CD1141" d="M125.012,18.015c-58.23,0-105.686,46.879-106.687,104.873l0,0l33.945,0.039
		c0.484-18.059,7.553-35.974,21.34-49.758c28.57-28.575,74.898-28.575,103.467,0c13.737,13.735,20.794,31.585,21.321,49.586h33.29
		c0.011,0.665,0.04,1.33,0.049,1.996h0.01C231.747,65.892,183.87,18.015,125.012,18.015"/>
	<path fill="#004784" d="M125.012,12.924c-61.76,0-111.822,50.071-111.822,111.826c0,61.756,50.062,111.826,111.822,111.826
		c61.756,0,111.818-50.068,111.818-111.826C236.83,62.994,186.768,12.924,125.012,12.924 M96.348,192.023
		c0.661,0.037,1.287-0.01,1.98-0.152c0.788,0.875,1.472,1.357,2.204,1.787C99.125,193.154,97.734,192.623,96.348,192.023z
		 M231.747,125.102c0,0.482-0.028,0.959-0.039,1.434h-33.285c-0.408,18.174-7.476,36.23-21.346,50.092
		c-20.062,20.061-48.854,25.98-74.133,17.875l0.551-0.807c-1.606-0.398-3.629-1.748-4.821-2.887c-2.641,0.674-4.076-0.543-5.9-1.074
		l-0.166,0.561c-6.844-3.43-13.289-7.951-18.999-13.66c-2.712-2.707-5.073-5.613-7.263-8.596c0.723,0.426,1.554,0.893,2.232,1.129
		l-0.651-1.102c0,0-1.862-1.225-3.363-2.441c-1.21-1.814-2.318-3.668-3.348-5.557c2.166,1.977,3.642,2.316,5.282,3.098l-0.494-2.348
		c-1.401-0.447-4.184-1.635-6.245-3.658c-4.698-9.594-7.243-19.986-7.496-30.455H18.315c-0.01-0.475-0.039-0.949-0.039-1.434
		c0-0.189,0.01-0.361,0.01-0.541c0,0.01-0.01,0.01-0.01,0.02c0-0.618,0.039-1.235,0.047-1.862
		C19.326,64.894,66.781,18.015,125.012,18.015c58.859,0,106.735,47.877,106.735,106.735h-0.01
		C231.742,124.863,231.747,124.986,231.747,125.102z"/>
	<path fill="#FFFFFF" d="M47.739,158.045c1.272-0.465,2.151-1.359,2.654-2.668c0.694-1.807,0.566-4.361-0.346-6.84l-2.564-6.994
		l-0.395,0.381c0,0-1.416,1.369-1.425,1.379c-0.024-0.02-1.729,0.598-1.729,0.598s-3.411,1.227-3.443,1.244
		c0-0.094-2.057-0.949-2.057-0.949l-0.319-0.133c0,0-1.021,2.25-1.135,2.498c-0.252,0.096-5.708,2.09-5.718,2.09
		c-0.009-0.02-1.868-0.123-1.868-0.123l-0.536-0.029l2.313,6.441c0,0,1.805-1.891,1.81-1.9c0.024,0.02,4.616-1.689,5.894-2.154
		c0.048,0.133,0.333,0.939,0.423,1.205c-0.271,0.295-6.555,7.229-6.555,7.229l1.834,5.225c0,0,1.624-2.479,1.667-2.545
		c0.109-0.115,5.32-5.568,5.705-5.977C43.564,157.883,45.829,158.738,47.739,158.045 M47.696,151.557
		c-0.266,0.703-0.859,1.244-1.709,1.559c-0.926,0.332-1.905,0.273-2.66-0.143h-0.01c-0.583-0.305-1.011-0.816-1.253-1.463
		c0,0-0.414-1.111-0.618-1.664c0.575-0.199,5.086-1.709,5.647-1.9c0.161,0.438,0.522,1.436,0.522,1.436
		c0.166,0.455,0.242,0.883,0.242,1.271C47.858,150.979,47.806,151.281,47.696,151.557z"/>
	<path fill="#FFFFFF" d="M64.543,176.074c0,0-7.557,2.641-7.585,2.65c0-0.047-2.261-0.607-2.261-0.607l-0.285-0.066
		c0,0-0.897,1.908-1.007,2.146c-0.285,0.096-6.327,2.119-6.327,2.119s0.039,0.018,0.042,0.018c-0.285,0.021-0.808,0.096-1.947,0.268
		c-0.005,0-0.903,0.15-0.903,0.15l3.866,4.438c0,0,0.903-1.908,1.002-2.137c0.214-0.086,2.427-0.971,2.788-1.104
		c0.281,0.324,3.833,4.352,4.103,4.664c-0.19,0.342-1.339,2.355-1.448,2.547c-0.233,0.076-2.271,0.693-2.271,0.693l5.035,5.746
		c0,0,0.655-2.936,0.655-2.953c0.005,0.057,1.302-2.111,1.302-2.111s2.047-3.398,2.061-3.418c0.024,0.057,2.015-0.723,2.015-0.723
		l0.266-0.104c0,0-0.403-2.736-0.408-2.746c0.057,0.01,3.505-7.096,3.505-7.096l0.104-0.209l-1.98-2.279 M60.354,180.871
		c-0.665,1.15-2.47,4.285-2.831,4.912c-0.47-0.533-2.118-2.412-2.612-2.973C55.643,182.553,59.095,181.318,60.354,180.871z"/>
	<path fill="#FFFFFF" d="M95.336,200.926c-0.042-0.029-2.575,5.148-2.575,5.148s-0.741,1.51-1.24,2.518
		c-0.333-1.824-2.441-13.451-2.441-13.451l-4.94-2.422l0.042,0.607c0,0,0.147,2.299,0.147,2.316
		c-0.029-0.047-1.348,2.641-1.348,2.641s-0.827,1.691-0.936,1.918c-0.251,0.098-2.375,0.914-2.375,0.914s0.689,2.584,0.693,2.602
		c-0.076-0.01-1.795,3.469-1.795,3.469s-0.998,2.023-1.012,2.041c-0.023-0.029-1.577,1.102-1.577,1.102l-0.465,0.352l5.628,2.793
		c0,0-0.338-2.84-0.341-2.85c0.042,0,3.571-7.086,4.84-9.641c0.328,1.879,2.793,16.129,2.793,16.129l2.318,1.178
		c0,0,3.747-7.674,3.762-7.713c0.042,0.066,1.943-0.816,1.943-0.816l0.266-0.125c0,0-0.58-2.365-0.589-2.383
		c0.086,0,1.511-2.926,1.511-2.926s0.931-1.92,0.94-1.939c0.038,0.012,1.51-1.158,1.51-1.158l0.438-0.342l-5.443-2.754
		C95.089,198.131,95.336,200.916,95.336,200.926"/>
	<path fill="#FFFFFF" d="M130.279,216.609c-0.032,0-0.043,1.768-0.043,1.768l-0.01,3.457c-0.398,0.123-0.854,0.492-2.261,0.484
		c-3.439-0.029-5.462-3.107-5.947-6.146c0.033-0.027,1.547-1.539,1.547-1.539l0.229-0.229c0,0-1.402-1.662-1.59-1.889
		c0.014-0.078,0.1-0.6,0.1-0.6c0.706-2.432,2.621-5.043,5.88-4.967c2.347,0.047,4.095,0.617,4.917,1.605
		c0-0.01,0.29,0.361,0.29,0.361l0.607,0.748l0.114-3.723l-0.243-0.162c-1.676-1.139-3.12-1.539-5.699-1.557
		c-4.955-0.047-9.461,2.992-10.967,7.381c-0.004,0.02-0.247,0.912-0.256,0.932c-0.014-0.039-1.425,1.434-1.425,1.434l-0.209,0.219
		l1.577,2.07c0.836,4.959,5.614,8.721,11.057,8.768c3.818,0.029,4.935-0.521,6.231-1.168l0.76-0.381c0,0,0.038-6.963,0.038-6.992
		c0.049,0,0.987-1.68,0.987-1.68l0.3-0.533l-7.214-0.047C129.049,214.225,130.274,216.59,130.279,216.609"/>
	<path fill="#FFFFFF" d="M169.772,211.309c-0.01-0.039-3.021,1.281-3.021,1.281s-1.168,0.514-1.625,0.713
		c-0.146-0.342-2.242-5.348-2.479-5.928c0.533-0.229,3.235-1.396,3.24-1.396c0.01,0.01,1.975-0.094,1.975-0.094l0.5-0.029
		l-1.729-4.17c0,0-1.885,1.748-1.89,1.748c-0.005-0.01-3.14,1.348-3.14,1.348s-0.038,0.02-0.059,0.029
		c-0.237-0.551-1.837-4.266-2.069-4.807c0.494-0.209,4.646-2.004,4.797-2.07c0.19,0.02,3.524,0.199,3.524,0.199l-1.706-4.047
		l-0.479,0.209l-12.696,5.51l2.232,1.635c0,0.094,2.066,4.91,2.237,5.338c-0.114,0.248-1.094,2.348-1.094,2.348
		s2.242,0.824,2.5,0.92c0.104,0.256,2.271,5.559,2.271,5.576c-0.028,0.01-0.182,1.939-0.182,1.939l-0.047,0.588l12.995-5.662
		l-1.677-3.922C172.152,208.562,169.787,211.299,169.772,211.309"/>
	<path fill="#FFFFFF" d="M195.47,181.166c0.274-0.779,0.484-1.566,0.484-2.309c0-1.5-0.538-2.859-1.564-3.742
		c-1.034-0.883-2.245-1.227-3.628-1.018c-1.905,0.277-4.065,1.654-5.771,3.668l-4.815,5.672c0,0,2.47,0.73,2.479,0.73l0,0
		c0,0.059,4.041,3.582,4.078,3.619c-0.015,0-0.015,0.039-0.015,0.115c0,0.465,0.19,2.137,0.19,2.137l0.037,0.352
		c0,0,2.471-0.219,2.735-0.248c0.22,0.191,4.638,3.99,4.638,3.99c0,0.057,0.798,1.682,0.798,1.682l0.231,0.484l4.471-5.176
		c0,0-2.518-0.656-2.522-0.656c0-0.029-3.753-3.211-4.782-4.086c0.171-0.207,0.674-0.779,0.84-0.969
		c0.395,0.088,9.495,2.186,9.495,2.186l3.638-4.17c0,0-2.974-0.209-3.017-0.209C203.42,183.199,196.058,181.318,195.47,181.166
		 M192.157,181.518c0,0.646-0.228,1.254-0.669,1.758c0,0.01-0.759,0.91-1.131,1.367c-0.47-0.426-3.989-3.619-4.427-4.018
		c0.296-0.342,0.993-1.148,0.993-1.148c0.565-0.674,1.192-1.055,1.837-1.141c0.751-0.113,1.507,0.133,2.195,0.721
		c0.749,0.658,1.177,1.541,1.2,2.404C192.157,181.48,192.157,181.498,192.157,181.518z"/>
	<path fill="#FFFFFF" d="M220.053,150.197c-0.727-1.643-2.128-2.838-3.933-3.381c-0.798-0.246-1.757-0.189-2.365-0.037h-0.005
		c-1.012,0.285-1.904,0.93-2.284,1.271c-0.01,0.01-1.227,1.207-1.227,1.207c-0.028,0.037-0.427,0.512-0.57,0.684
		c-0.256,0-1.786,0.02-1.786,0.02s-0.579,2.301-0.598,2.404c-0.037,0-0.219,0.209-0.219,0.209c-1.388,1.451-2.3,1.463-2.727,1.328
		c-0.888-0.342-2.408-1.709-1.676-3.732c0.598-1.672,1.234-2.535,2.333-3.154l0.278-0.15l0.016-0.391l-0.77-1.738l-0.476,0.238
		c-1.344,0.701-2.526,2.422-3.329,4.836c-1.078,3.238-0.437,7.389,2.878,8.701c0.527,0.189,1.302,0.426,2.058,0.285
		c0.912-0.191,1.87-0.676,2.716-1.369c0.01-0.008,0.546-0.502,0.546-0.502c-0.016,0.01,0.213-0.172,0.242-0.199
		c0.019,0.064,1.515,0.094,1.515,0.094h0.271c0,0,0.74-2.602,0.74-2.611c0.028,0.01,1.786-1.977,1.786-1.977
		c0.68-0.635,1.62-1.006,2.223-0.863c1.026,0.285,1.729,0.902,2.152,1.719c0.522,1.025,0.584,2.318,0.177,3.732
		c-0.856,2.404-2.532,3.145-3.792,3.354l-0.437,0.076l-0.043,0.447l0.708,1.805l0.37-0.037c1.481-0.143,4.075-1.908,5.177-5.396
		C220.855,154.416,220.871,152.041,220.053,150.197"/>
	<path fill="#FFFFFF" d="M64.676,70.784c0-0.066-4.668-4.009-4.745-4.076c0.005,0,0.009-0.009,0.009-0.039
		c0-0.313-0.313-2.052-0.313-2.052l-0.062-0.323c0,0-2.1,0.219-2.355,0.237c-0.204-0.171-3.454-2.907-3.914-3.286
		c0.361-0.437,1.928-2.337,1.938-2.356c0.015,0.028,2.523-1.093,2.523-1.093l0.542-0.237l-3.406-2.669l-0.214,0.276L44.333,67.506
		l3.282,2.698c0,0,0.788-3.154,0.793-3.154c0.019,0.01,1.52-1.776,2.032-2.384c0.465,0.389,3.728,3.068,3.927,3.229
		c0.023,0.257,0.271,2.395,0.271,2.395s2.156-0.096,2.398-0.104c0.2,0.171,4.754,3.999,4.754,3.999c0,0.067,0.784,1.758,0.784,1.758
		l0.237,0.513l4.418-5.282C67.231,71.173,64.691,70.784,64.676,70.784"/>
	<path fill="#FFFFFF" d="M79.466,45.82c-0.099,0.266-0.907,2.375-0.907,2.375s2.251,0.646,2.513,0.722
		c0.133,0.276,2.74,5.547,2.746,5.566c-0.034,0.01-0.048,1.749-0.048,1.749l-0.004,0.598l12.33-6.47l-1.866-3.742
		c0,0-2.047,2.745-2.047,2.755c-0.02-0.028-3.952,2.051-4.774,2.489c-0.29-0.551-2.722-5.31-2.997-5.851
		c0.523-0.266,3.363-1.757,3.373-1.757c0,0.019,1.757-0.219,1.757-0.219l0.499-0.066l-1.824-3.658c0,0-1.634,1.748-1.639,1.748
		c-0.009-0.02-2.584,1.33-3.33,1.719c-0.276-0.522-2.167-4.169-2.437-4.692c0.556-0.285,4.979-2.584,4.992-2.584
		c0,0.029,2.688-0.02,2.688-0.02l0.575-0.019l-2.009-3.885l-0.318,0.17L74.574,39.14l2.194,1.359
		C76.77,40.595,79.105,45.126,79.466,45.82"/>
	<path fill="#FFFFFF" d="M155.714,48.906c0.172-0.17,1.977-1.976,2.271-2.271c0.409,0.19,5.539,2.612,5.946,2.802
		c-0.048,0.417-0.322,2.896-0.351,3.135c-0.181,0.161-1.691,1.444-1.691,1.444l6.46,3.021l-0.504-2.688
		c0.02,0,0.875-6.203,0.884-6.289c0.059,0.039,1.81-1.529,1.81-1.529l0.247-0.219c0,0-1.781-2.261-1.791-2.271
		c0.087-0.01,0.467-8.217,0.467-8.217l0.01-0.237l-2.537-1.215l-0.181,0.161c0,0-6.213,5.747-6.231,5.757
		c-0.011-0.048-2.356,0.313-2.356,0.313l-0.303,0.048c0,0,0.014,2.109,0.014,2.384c-0.223,0.209-4.896,4.407-4.896,4.407
		c0.049-0.038-1.681,1.044-1.681,1.044l-0.551,0.342l4.902,2.298C155.646,51.13,155.704,49.154,155.714,48.906 M160.074,44.613
		c0.579-0.551,3.799-3.553,4.812-4.503c-0.158,1.377-0.652,5.671-0.742,6.431C163.483,46.218,160.771,44.946,160.074,44.613z"/>
	<path fill="#FFFFFF" d="M189.653,76.247c1.559,0.484,3.185,0.304,4.713-0.514c0.737-0.389,1.378-1.102,1.653-1.606
		c0.561-0.95,0.712-2.09,0.712-2.441l0.028-1.748c0-0.028-0.057-0.722-0.075-0.949c0.185-0.19,1.227-1.254,1.227-1.254
		s-1.179-2.004-1.207-2.052c0.011-0.009,0.015-0.066,0.015-0.133c0-0.095-0.004-0.341-0.004-0.399c0-1.548,0.412-2.584,1.178-2.916
		c0.932-0.408,3.044-0.36,3.961,1.615c0.77,1.671,0.921,2.773,0.569,4.065l-0.09,0.314l1.795,0.694l0.119-0.361
		c0.603-1.9-0.381-4.379-1.012-5.69c-1.486-3.012-4.793-5.472-8.014-4.085c-0.494,0.2-1.188,0.58-1.606,1.188
		c-0.516,0.76-0.854,1.767-0.958,2.841l-0.048,0.76c0-0.037-0.028,0.341-0.038,0.39c-0.057-0.047-1.093,0.95-1.093,0.95l-0.199,0.19
		c0,0,1.273,2.317,1.273,2.327c0,0,0,0.028,0,0.076c0,0.437,0.113,2.631,0.113,2.631c-0.028,0.988-0.475,1.995-1.055,2.355
		c-0.741,0.475-1.69,0.618-2.613,0.38c-0.872-0.219-2.127-0.874-3.135-2.708c-1.119-2.432-0.426-4.228,0.353-5.301l0.266-0.361
		l-1.886-0.817l-0.172,0.209c-1.073,1.321-1.411,4.341,0.119,7.353C185.884,73.89,187.65,75.62,189.653,76.247"/>
	<path fill="#FFFFFF" d="M120.215,43.729c0.185-0.237,3.485-4.502,4-5.167c0.474,0.703,3.542,5.282,3.552,5.3
		c-0.004,0-0.004,0.01-0.004,0.029c0,0.228,0.142,1.454,0.142,1.454l0.033,0.313l6.807-0.01l-2.484-2.432
		c0-0.01-3.785-5.633-4.422-6.583c0.182-0.285,0.86-1.368,0.86-1.368s-0.874-0.978-1.146-1.282c0.318-0.437,4.594-6.156,4.594-6.156
		l1.972-2.28l-6.122-0.01l0.207,0.494c0,0,0.486,1.13,0.609,1.425c-0.214,0.285-3.216,4.275-3.72,4.939
		c-0.469-0.721-3.292-5.034-3.301-5.054c0,0,0-0.009,0-0.038c0-0.228-0.133-1.453-0.133-1.453l-0.038-0.314l-6.346,0.01l2.024,2.318
		c0,0.01,3.534,5.377,4.137,6.298c-0.175,0.285-0.869,1.407-0.869,1.407s1.017,0.978,1.321,1.283
		c-0.342,0.465-4.921,6.507-4.921,6.507c-0.005,0-1.748,1.653-1.748,1.653l-0.665,0.627l6.09-0.066
		C120.641,45.573,120.271,43.996,120.215,43.729"/>
	<polyline fill="#FFFFFF" points="210.752,89.146 213.375,97.21 221.858,97.21 214.99,102.189 217.611,110.244 210.752,105.266 
		203.899,110.244 206.516,102.189 199.661,97.21 208.141,97.21 	"/>
	<polyline fill="#FFFFFF" points="38.562,89.146 41.18,97.21 49.653,97.21 42.805,102.189 45.417,110.244 38.562,105.266 
		31.709,110.244 34.326,102.189 27.473,97.21 35.94,97.21 	"/>
	<path fill="#004784" d="M192.291,225.977h-2.304v6.297h-1.567v-6.297h-2.305v-1.367h6.175 M202.765,232.273h-1.559v-6.098h-0.037
		l-2.214,6.098h-1.51l-2.138-6.098h-0.048v6.098h-1.558v-7.664h2.707l1.786,5.004h0.028l1.862-5.004h2.68L202.765,232.273
		L202.765,232.273z"/>
	<path fill="#004784" d="M120.138,53.447c0,0-1.044-0.845-1.786-1.368c-0.541,0.048-1.083,0.114-1.615,0.181
		c0.494,0.18,2.298,0.893,2.545,1.311"/>
	<path fill="#004784" d="M116.785,54.464c0,0-1.121-0.968-2.736-1.852c-0.656,0.096-1.296,0.228-1.938,0.341
		c1.197,0.313,2.318,1.025,3.52,1.615"/>
	<path fill="#004784" d="M110.411,56.212l1.943-0.617c0,0-2.532-1.245-3.449-1.264c-0.461-0.219-0.707-0.409-1.079-0.475
		c-0.874,0.219-1.738,0.456-2.602,0.703c0.561,0.084,1.729,0.323,2.156,0.807C108.683,55.139,109.584,55.793,110.411,56.212"/>
	<path fill="#004784" d="M105.387,58.483l1.957-0.693c-0.214-0.361-2.745-1.463-4.161-1.482c-0.518-0.408-1.064-0.533-1.52-0.627
		c-0.755,0.257-1.492,0.514-2.242,0.798c0.252,0.057,1.625,0.371,2.289,0.941C103.068,57.19,104.413,57.864,105.387,58.483"/>
	<path fill="#004784" d="M96.333,59.328c1.458-0.143,3.031,0.741,3.98,1.339l2.09-0.532c-1.121-1.007-3.183-1.814-4.361-1.748
		c-0.494-0.741-1.548-0.362-2.213-0.437l-2.583,1.168C93.583,59.119,96.058,58.691,96.333,59.328"/>
	<path fill="#004784" d="M95.321,63.925l1.829-1.387c-1.434-0.77-3.666-1.197-4.84-1.141c-0.583-0.208-0.503-0.399-1.173-0.475
		l-2.513,1.358c0.318,0.019,2.437,0.066,2.727,0.684C92.8,62.843,94.395,63.346,95.321,63.925"/>
	<path fill="#004784" d="M84.696,67.982c1.705-0.313,4.208-0.998,6.65-0.447l1.833-1.624c-2.755-0.484-5.68-0.341-7.162,0.047
		c-0.36-0.551-1.192-1.121-1.192-1.121l-1.748,1.472C83.907,66.566,84.193,67.269,84.696,67.982"/>
	<path fill="#004784" d="M79.794,73.472c1.416-0.693,4.513-1.187,7.652-0.769l1.62-2.081c-4.759-0.342-6.711,0.265-8.193,0.978
		c-0.508-0.855-1.249-1.358-1.249-1.358l-1.449,1.33C79.011,71.829,79.282,72.779,79.794,73.472"/>
	<path fill="#004784" d="M76.555,77.509c-0.494-0.864-1.392-1.738-1.392-1.738l-1.145,1.805c1.049,0.57,0.95,1.254,1.453,1.967
		c1.421-0.712,4.318-2.07,7.467-1.634l1.606-2.081C79.624,75.942,76.907,76.369,76.555,77.509"/>
	<path fill="#004784" d="M73.079,83.769c-0.499-1.188-1.824-2.612-1.824-2.612L70.4,83.199c0.76,0.57,1.229,1.976,1.752,2.688
		c1.416-0.731,3.235-2.119,6.365-1.662l1.487-2.422C76.014,81.803,73.435,82.62,73.079,83.769"/>
	<path fill="#004784" d="M70.148,89.82c-0.632-1.577-2.052-2.935-2.052-2.935l-0.845,2.271c1.054,0.58,1.226,1.986,1.738,2.67
		c1.41-0.693,3.538-2.004,6.697-1.586l1.306-2.394C73.15,87.845,70.49,88.671,70.148,89.82"/>
	<path fill="#004784" d="M67.251,97.079c-0.713-1.406-2.271-3.164-2.271-3.164l-0.698,2.355c1.044,0.59,1.534,1.985,2.043,2.708
		c1.42-0.722,3.149-1.889,6.298-1.453l1.007-2.271C68.847,95.548,67.607,95.947,67.251,97.079"/>
	<path fill="#004784" d="M64.368,103.594c-0.503-0.864-2.266-3.011-2.266-3.011l-0.475,2.355c1.064,0.588,1.539,1.985,2.062,2.698
		c1.402-0.713,3.757-2.004,6.896-1.586l0.793-2.347C66.757,101.979,64.738,102.436,64.368,103.594"/>
	<path fill="#004784" d="M62.672,111.441c-0.503-0.864-2.679-3.875-2.679-3.875l-0.494,2.518c1.05,0.968,1.824,2.764,2.337,3.496
		c1.41-0.722,3.624-2.688,6.749-2.242l0.494-2.108C64.511,109.58,63.783,110.083,62.672,111.441"/>
	<path fill="#004784" d="M60.757,121.596c0.607-1.207,2.92-2.347,6.08-2.09l0.389-2.29c-3.747,0.209-5.433,0.827-5.928,1.9
		c-0.55-0.855-3.334-3.743-3.334-3.743l-0.365,2.432C59.447,119.412,60.212,120.931,60.757,121.596"/>
	<path fill="#004784" d="M59.689,129.965c0.12-0.125,0.271-0.551,0.584-0.941c0.565-0.674,2.18-1.635,5.658-1.49l0.199-2.148
		c-4.009,0.039-5.3,1.027-5.638,1.416c-0.314,0.285-0.437,0.816-0.527,1.119c-0.618-1.641-3.264-4.283-3.264-4.283l-0.161,2.347
		C57.466,126.402,59.176,129.262,59.689,129.965"/>
	<path fill="#004784" d="M65.437,143.406l-0.062-2.299c-3.026-1.348-4.574-1.111-5.687-0.457c-0.508-0.873-3.542-1.994-3.542-1.994
		l0.147,2.318c1.226,0.283,2.721,1.045,3.244,1.756C60.949,142.01,62.953,142.076,65.437,143.406"/>
	<path fill="#004784" d="M59.337,136.576c0.651-1.092,1.387-1.662,6.075-0.674l0.019-2.232c-5.529-0.275-5.448,0.229-5.624,0.941
		c-0.471-0.883-3.658-3.609-3.658-3.609l0.047,2.584C57.239,134.211,58.858,135.834,59.337,136.576"/>
	<path fill="#004784" d="M60.06,149.125c0.276-0.723,1.149-0.322,2.29,0.191c1.021,0.463,1.771,1.006,2.935,1.643l-0.062-2.318
		c-2.541-1.635-5.04-2.877-5.391-1.748c-0.499-0.855-3.149-2.062-3.149-2.062l0.594,2.576
		C58.645,147.768,59.547,148.412,60.06,149.125"/>
	<path fill="#004784" d="M60.672,154.959c1.202-0.152,2.261,0.312,4.844,2.164l-0.19-2.193c-2.636-2.203-3.919-2.08-4.859-2.08
		c-0.518-0.941-2.607-2.09-2.607-2.09l0.323,2.336C59.295,153.551,60.151,154.18,60.672,154.959"/>
	<path fill="#004784" d="M168.349,135.066c-0.827-0.58-2.242-1.387-4.846-4.246l-1.929,1.178c0.874,0.656,4.804,5.197,6.641,4.514
		c0,0-0.825,5.623-0.679,8.529l2.104-1.357c-0.066-1.529,0.032-7.969,0.409-9.48C170.134,134.125,168.87,135.428,168.349,135.066"/>
	<path fill="#004784" d="M173.933,131.199c-1.98-2.887-3.301-4.17-4.444-4.959l-1.417,1.055c0.599,0.172,2.194,1.768,4.455,5.131
		l1.354-1.113c0.189,3.734,0.488,7.287,0.076,8.988l1.633-1.266c0.333-2.734,0.242-5.908-0.146-8.814"/>
	<path fill="#004784" d="M100.512,187.189c-2.646,0.664-5.092-0.512-6.906-1.055l-0.503,1.549c2.555,1.33,5.025,1.129,6.887,0.721
		c1.03,1.463,1.899,2.279,4.17,3.135l0.817-1.186C102.555,190.066,101.605,188.822,100.512,187.189"/>
	<path fill="#004784" d="M102.374,182.953c-2.654,0.674-5.453-0.297-7.287-0.838l-0.764,1.748c2.769,0.951,5.339,1.15,7.214,0.752
		c0.951,1.578,1.986,3.068,4.266,3.924l0.845-1.492C104.753,186.268,102.993,185.26,102.374,182.953"/>
	<path fill="#004784" d="M105.358,177.367l-0.285,0.445c-2.641,0.676-5.842,0.096-7.675-0.445l-0.936,1.662
		c2.55,0.789,4.779,0.922,7.613,0.598l0.152-0.256c1.03,1.891,1.296,3.021,3.952,4.578l1.302-1.49
		C107.799,181.785,105.756,179.086,105.358,177.367"/>
	<path fill="#004784" d="M107.97,173.975l-0.147,0.209c-2.546,0.484-5.557-0.836-7.376-1.367l-1.044,1.568
		c2.555,1.34,5.054,1.443,7.295,1.443l0.133-0.189c0.941,2.061,1.844,4.207,4.104,5.072l1.292-1.502
		C110.554,178.545,108.374,175.695,107.97,173.975"/>
	<path fill="#004784" d="M103.144,169.121c0.233,0.115,0.494,0.227,0.76,0.352v-1.158"/>
	<path fill="#004784" d="M146.86,156.848c-1.368-1.434-1.32-5.68-1.178-7.979l-0.628,0.381c-2.569-0.418-5.338-2.973-6.625-4.713
		l-0.157,0.059c0-5.244,0-11.02,0-13.395c0-4.836,6.698-6.688,6.698-6.688s-1.826-0.723-3.562-2.033l-2.717,0.769
		c-0.066,0.02-5.961,1.729-5.961,5.729v23.643c0,1.605,0.661,2.672,3.871,2.672h1.671c0-0.152,0.01-0.305,0-0.467
		c0,0,0-3.135,0-7.162c1.673,1.465,3.426,2.67,4.756,2.822l0.579-0.344c0.023,2.879-0.224,4.58,0.462,6.594l-1.416-1.32v14.344
		h-38.634l6.07,5.727h2.631c0.39,0.639,0.841,1.133,1.392,1.283l1.259-1.283h31.96v-15.711l-2.313-2.146"/>
	<path fill="#004784" d="M154.469,144.564l-0.631,0.371c-2.569-0.418-5.333-2.973-6.626-4.721l-2.394,0.996
		c2.172,2.262,5.045,4.73,6.991,4.961l0.582-0.342c0.027,3.391-0.409,5.119,0.872,7.703l2.385-0.998
		C154.27,151.109,154.326,146.855,154.469,144.564"/>
	<path fill="#004784" d="M163.437,140.139l-0.086-0.143c-0.845,0.295-1.918,0.039-2.887-0.787c-0.959-0.818-4.141-4.59-4.141-4.59
		l-2.624,1.436c1.521,1.566,6.498,5.52,7.515,5.547l0.146-0.104c0.016,3.334-0.403,5.053,0.869,7.609l2.385-0.988
		C163.243,146.684,163.304,142.428,163.437,140.139"/>
	<path fill="#004784" d="M178.493,127.59c-0.979-1.701-2.974-3.979-4.493-5.024l-1.368,1.207c1.368,0.808,4.171,3.411,5.016,5.452
		l0.902-0.969c0.271,3.248,0.258,6.896-0.122,8.598l1.68-1.33c0.276-2.936,0.097-6.318-0.428-8.797"/>
	<path fill="#004784" d="M182.7,124.302c0.423,1.092,0.752,2.424,0.423,8.997l1.601-1.492c0.048-4.93-0.223-6.279-0.75-8.758"/>
	<path fill="#004784" d="M186.701,120.095c0.741,2.489,1.206,6.725,0.797,9.176l1.472-1.947c0.258-2.773-0.616-6.241-1.13-8.721"/>
	<path fill="#004784" d="M189.815,115.573l-0.574,0.988c1.61,2.062,2.228,4.389,2.407,7.485l1.141-1.747
		C192.752,119.059,190.614,114.842,189.815,115.573"/>
	<path fill="#004784" d="M191.802,112.268l-0.313,0.38l0.233-0.38c-0.855-1.729-1.896-3.591-3.539-4.73l-0.889,1.187
		c1.345,0.836,2.752,2.85,3.605,4.893l0.437-0.723c0.741,0.645,2.075,1.614,2.945,6.649l0.668-1.748
		C194.215,112.999,191.982,111.204,191.802,112.268"/>
	<path fill="#004784" d="M193.627,108.486l-0.144,0.408c-0.854-1.7-1.405-2.869-3.324-4.616l-0.655,1.054
		c1.791,1.606,2.584,2.489,3.42,4.835l0.419-0.892l-0.048,0.133c1.007,0.836,2.146,2.166,2.835,5.843l0.518-2.081
		C196.447,110.51,193.987,107.575,193.627,108.486"/>
	<path fill="#004784" d="M177.856,118.755l-1.358,1.207c1.358,0.808,4.161,3.41,4.998,5.452l1.125-1.196
		C181.766,122.499,179.51,119.886,177.856,118.755"/>
	<path fill="#004784" d="M181.971,114.852l-1.292,1.035c0.941,0.627,4.208,3.363,5.043,5.416l0.987-1.359
		C185.854,118.205,183.68,116,181.971,114.852"/>
	<path fill="#004784" d="M188.61,117.388l0.807-1.207c-0.854-1.738-2.284-3.933-3.933-5.073l-1.121,1.188
		C185.709,113.123,187.751,115.346,188.61,117.388"/>
	<path fill="#004784" d="M194.302,106.358l0.502-1.044c-0.856-1.748-1.307-2.213-3.221-4.142l-0.352,1.064
		C192.566,103.386,193.465,104.325,194.302,106.358"/>
	<path fill="#004784" d="M194.671,105.836c0.599,0.418,1.187,1.027,1.805,2.004c-0.181-0.779-0.385-1.558-0.588-2.328l-0.714-0.797"
		/>
	<path fill="#004784" d="M194.016,99.624c-0.28-0.351-0.661-0.77-1.217-1.32l-0.295,0.997c0.997,1.083,1.967,2.224,2.746,3.98
		C194.87,102.046,194.452,100.83,194.016,99.624"/>
	<polyline fill="#004784" points="151.153,112.572 156.987,118.09 166.504,118.09 166.504,86.657 161.229,81.728 161.229,112.572 	
		"/>
	<path fill="#004784" d="M132.73,115.25c0,3.723,5.989,6.108,6.051,6.136l2.465,0.968c-1.539-1.197-2.974-2.831-2.974-4.892
		c0-4.456,0-20.082,0-20.082l0.95,0.057c3.685,0.314,6.345,1.292,8.227,2.717c-3.06-3.059-7.988-4.73-14.719-4.75
		C132.73,97.287,132.73,115.25,132.73,115.25"/>
	<path fill="#004784" d="M113.66,95.349c-12.284,0-17.294,4.256-17.308,14.819l-0.009,2.404H84.198l5.538,5.196h11.542l0.015-1.938
		c0-10.82,1.054-17.64,12.53-18.781c0-0.826,0-1.444,0-1.701C113.779,95.349,113.66,95.349,113.66,95.349"/>
	<path fill="#CD1141" d="M130.768,152.621v-23.645c0-3.703,3.149-5.746,5.339-6.772c-2.167-1.207-5.339-3.506-5.339-6.954V93.326
		l1.03,0.057c0,0,0.937,0.047,0.888,0.047c12.91,0,20.311,5.832,20.311,16.025c0,0,0,0.58,0,1.149c1.32,0,4.949,0,6.27,0
		c0-1.767,0-25.269,0-27.036c-1.899,0-71.301,0-73.192,0c0,1.767,0,25.269,0,27.036c1.449,0,7.062,0,8.398,0
		c0.047-0.551,0.095-1.102,0.095-1.102l-0.166,0.551c0-11.533,5.937-16.671,19.26-16.671h2.128v21.867c0,3.742-2.723,5.88-4.669,7
		c1.967,1.006,4.669,2.983,4.669,6.726v23.426c0,3.039-2.101,4.854-5.605,4.854c0,0-3.016,0-4.317,0c0,1.529,0,9.004,0,10.535
		c1.81,0,33.005,0,34.82,0c0-1.531,0-9.006,0-10.535c-1.273,0-4.085,0-4.085,0C132.726,157.256,130.768,155.699,130.768,152.621"/>
</g>
</svg>
