<?xml version="1.0" encoding="utf-8"?>
<!-- Generator: Adobe Illustrator 16.0.4, SVG Export Plug-In . SVG Version: 6.00 Build 0)  -->
<!DOCTYPE svg PUBLIC "-//W3C//DTD SVG 1.1//EN" "http://www.w3.org/Graphics/SVG/1.1/DTD/svg11.dtd">
<svg version="1.1" id="Layer_1" xmlns="http://www.w3.org/2000/svg" xmlns:xlink="http://www.w3.org/1999/xlink" x="0px" y="0px"
	 width="250px" height="250px" viewBox="0 0 250 250" enable-background="new 0 0 250 250" xml:space="preserve">
<g>
	<g>
		<path fill="#FF0028" d="M136.156,200.87c63.491,0,99.844-41.45,99.844-79.073C236,76.745,185.682,45,131.95,45v0.003
			c-43.134,0-73.036,25.525-89.294,44.85C20.333,116.394,8,119.775,8,119.775c17.289,15.146,25.424,22.852,33.448,31.537
			C64.091,175.811,82.842,200.87,136.156,200.87L136.156,200.87z"/>
		<g>
			<path d="M135.052,190.187c-46.124,0-64.259-19.782-85.617-42.465c-8.758-9.297-14.237-17.698-28.419-28.163l2.915,6.74
				c13.634,11.158,19.269,19.219,28.026,28.515c21.356,22.683,39.181,40.534,85.303,40.534c40.386,0,71.639-19.946,86.34-44.502
				l-2.213-5.166C206.689,170.235,175.432,190.187,135.052,190.187z"/>
			<path d="M136.231,74.695c-45.106,0-62.818,29.986-62.818,44.344c0,8.327,2.426,15.645,6.554,21.881
				c-2.704-5.07-3.339-12.711-3.339-17.654c0-14.365,17.029-43.309,61.138-43.309c26.522,0,46.543,12.246,53.264,22.873h33.4
				c-0.612-1.213-2.104-5.266-2.104-5.266h-31.893C183.712,86.938,162.757,74.695,136.231,74.695z"/>
			<path fill="#FFFFFF" d="M49.435,147.722c21.358,22.682,39.494,42.464,85.617,42.464c40.38,0,71.638-19.953,86.335-44.507h-31.538
				c-14.756,11.207-32.834,20.247-55.812,20.247c-21.213,0-43.374-8.846-54.069-25.006c-4.127-6.236-6.554-13.555-6.554-21.881
				c0-14.358,17.711-44.344,62.818-44.344c26.525,0,47.479,12.245,54.201,22.87h31.893c-14.791-29.209-52.976-46.813-91.161-46.813
				c-37.506,0-66.161,21.632-82.613,41.115c-21.797,25.821-27.536,27.693-27.536,27.693
				C35.198,130.023,40.677,138.425,49.435,147.722z"/>
		</g>
		<g>
			<polygon points="155.025,116.107 147.927,116.107 147.927,112.708 137.324,112.708 137.324,119.619 140.816,119.619 
				140.816,116.2 147.809,116.2 151.42,119.602 158.516,119.602 158.516,110.166 155.025,106.674 			"/>
			<polygon points="125.546,138.271 128.993,141.764 129.039,141.764 158.516,141.764 158.516,132.54 155.025,129.047 
				155.025,138.271 			"/>
			<polygon points="137.324,125.543 137.324,132.449 140.816,132.449 140.816,129.038 149.546,129.038 149.546,123.111 
				146.051,119.619 146.051,125.543 			"/>
			<polygon points="125.546,112.708 128.993,116.2 129.039,116.2 130.23,116.2 130.23,112.708 			"/>
			<polygon points="84.984,112.708 88.471,116.2 89.713,116.2 89.713,112.708 			"/>
			<polygon points="84.984,138.271 88.471,141.764 105.029,141.764 105.029,135.95 101.536,132.457 101.536,138.271 			"/>
			<polygon points="110.385,123.929 114.066,132.457 116.052,132.457 113.875,127.421 119.131,123.111 119.131,116.163 
				115.64,112.672 115.64,119.619 			"/>
			<polygon points="96.805,125.471 96.805,132.457 100.297,132.457 100.297,128.963 105.002,128.963 103.504,125.471 			"/>
			<polygon points="118.019,138.271 109.004,138.271 112.496,141.764 121.512,141.764 121.512,135.95 118.019,132.457 			"/>
			<polygon points="108.542,116.2 108.542,114.205 106.75,112.708 96.805,112.708 96.805,119.648 100.297,119.648 100.297,116.2 			
				"/>
			<polygon fill="#FFFFFF" points="137.324,112.708 147.927,112.708 147.927,116.107 155.025,116.107 155.025,106.674 
				125.546,106.674 125.501,106.674 125.501,112.708 125.546,112.708 130.23,112.708 130.23,116.2 130.23,132.449 125.546,132.449 
				125.546,132.457 125.501,132.457 125.501,138.271 125.546,138.271 155.025,138.271 155.025,129.047 147.927,129.047 
				147.927,132.449 140.816,132.449 137.324,132.449 137.324,125.543 146.051,125.543 146.051,119.619 140.816,119.619 
				137.324,119.619 			"/>
			<path fill="#FFFFFF" d="M118.019,132.457h-1.966h-1.986l-3.682-8.528l5.254-4.31v-6.947l-7.136-6h-23.52v6.034h4.729v3.493
				v16.257h-4.729v5.814h16.553v-5.814h-1.239h-3.493v-6.986h6.7l1.499,3.492l4,9.309h9.015V132.457z M100.297,119.648h-3.493
				v-6.941h9.945l1.792,1.497v1.996v2.018l-1.71,1.43H100.297z"/>
			<polygon points="162.518,112.708 165.958,116.2 166.006,116.2 167.197,116.2 167.197,112.708 			"/>
			<polygon points="184.896,116.2 184.896,114.205 183.106,112.708 174.291,112.708 174.291,132.449 177.781,132.449 177.781,116.2 
							"/>
			<polygon points="191.99,132.42 184.858,138.271 162.518,138.271 165.958,141.764 166.006,141.764 186.125,141.764 
				195.482,134.096 195.482,116.163 191.99,112.672 			"/>
			<polygon points="215.319,125.543 206.372,125.543 199.275,119.619 210.517,129.038 217.101,129.038 217.101,127.03 			"/>
			<polygon points="227.645,129.038 224.154,125.543 224.197,132.339 217.066,138.338 208.22,138.338 208.188,138.338 
				206.329,136.769 206.329,138.419 199.275,138.419 202.767,141.912 209.819,141.912 209.819,140.259 211.681,141.828 
				211.712,141.828 218.489,141.828 227.675,134.295 			"/>
			<polygon points="217.101,116.107 217.101,114.208 215.288,112.693 208.3,112.703 206.479,114.224 206.479,118.141 
				208.25,119.619 209.97,119.619 209.97,117.713 211.79,116.196 216.995,116.188 220.594,119.602 227.645,119.602 227.645,110.166 
				224.154,106.674 224.154,116.107 			"/>
			<polygon points="208.059,132.4 209.954,132.414 206.329,128.981 206.329,130.963 			"/>
			<path fill="#FFFFFF" d="M191.99,132.42v-19.748l-7.132-6h-22.341h-0.051v6.034h0.051h4.68v3.493v16.25h-4.68v0.008h-0.051v5.815
				h0.051h22.341L191.99,132.42z M177.781,132.449h-3.49v-19.742h8.815l1.79,1.497v1.996v14.82l-1.71,1.429H177.781z"/>
			<polygon fill="#FFFFFF" points="206.329,136.769 208.188,138.338 208.22,138.338 217.066,138.338 224.197,132.339 
				224.154,125.543 217.06,119.619 209.97,119.619 208.25,119.619 206.479,118.141 206.479,114.224 208.3,112.703 215.288,112.693 
				217.101,114.208 217.101,116.107 224.154,116.107 224.154,106.674 217.101,106.674 217.101,108.211 215.274,106.674 
				206.517,106.674 199.275,112.672 199.275,119.619 206.372,125.543 215.319,125.543 217.101,127.03 217.101,129.038 
				217.101,131.012 215.38,132.455 209.954,132.414 208.059,132.4 206.329,130.963 206.329,128.981 199.275,128.981 
				199.275,138.419 206.329,138.419 			"/>
		</g>
	</g>
	<path d="M217.163,180.109h-2.271v6.169h-1.532v-6.169h-2.265v-1.344h6.069L217.163,180.109L217.163,180.109z M227.43,186.272
		h-1.534v-5.976h-0.034l-2.176,5.976h-1.474l-2.101-5.976h-0.036v5.981h-1.537v-7.513h2.655l1.748,4.907h0.033l1.821-4.907h2.635
		L227.43,186.272L227.43,186.272z"/>
</g>
</svg>
