<?xml version="1.0" encoding="utf-8"?>
<!-- Generator: Adobe Illustrator 16.0.4, SVG Export Plug-In . SVG Version: 6.00 Build 0)  -->
<!DOCTYPE svg PUBLIC "-//W3C//DTD SVG 1.1//EN" "http://www.w3.org/Graphics/SVG/1.1/DTD/svg11.dtd">
<svg version="1.1" id="Layer_1" xmlns="http://www.w3.org/2000/svg" xmlns:xlink="http://www.w3.org/1999/xlink" x="0px" y="0px"
	 width="250px" height="250px" viewBox="0 0 250 250" enable-background="new 0 0 250 250" xml:space="preserve">
<g>
	<path fill="#FFFFFF" d="M218.961,146.641c-8.235-5.837-18.158-7.134-27.756-8.432c-18.355-2.4-32.817-4.281-34.893-34.309
		c-3.048-43.647-4.087-53.7-15.11-61.678c-0.392-3.047-2.595-20.494-2.595-20.494c-0.714-5.901-6.161-10.117-12.063-9.338
		l-33.53,4.215c-2.854,0.324-5.383,1.815-7.199,4.085c-1.167,1.558-1.945,3.309-2.14,5.189c-4.67-0.26-9.209,2.529-10.831,7.134
		c0,0-5.772,16.278-6.875,19.327c-6.68,2.983-12.062,12.452-18.03,31.519l-3.373,11.025c-6.549,21.662-11.803,38.785-21.596,49.355
		C14.54,153.255,10,163.113,10,172.127c0,2.725,0.39,5.383,1.232,7.848c2.529,7.523,10.052,17.316,31.844,21.272
		c11.933,2.075,25.812,10.636,39.172,18.938c9.209,5.708,19.066,11.804,27.952,15.5c5.707,2.4,15.501,6.616,42.804-0.258
		c1.427-0.325,4.41-1.559,5.383-6.292c0.194-0.972,0.323-2.141,0.323-3.372c0-9.209-6.419-25.229-23.802-40.08
		c12.388,1.231,26.333,4.215,36.578,7.782c16.993,5.966,48.902,10.053,67.256-3.243c1.491-0.973,3.178-3.177,3.308-7.198
		C242.051,174.658,235.046,157.988,218.961,146.641"/>
	<path fill="#C62033" d="M216.627,149.946c-21.984-15.628-60.834,4.476-64.401-45.787c-3.178-45.657-4.345-52.662-14.851-59.666
		l-2.854-22.311c-0.453-3.631-3.827-6.291-7.459-5.772l-33.53,4.216c-3.243,0.389-5.642,3.048-5.837,6.161
		c1.168,0.454,3.308,1.167,5.902,2.075l-0.26-2.14c-0.064-0.584,0.325-1.103,0.908-1.168c0.584-0.064,1.104,0.325,1.168,0.909
		l0.389,3.177c1.427,0.52,2.983,1.038,4.54,1.622l-0.649-4.994c-0.064-0.778,0.454-1.427,1.168-1.492
		c0.713-0.064,1.426,0.454,1.492,1.167l0.778,6.356c1.362,0.454,2.66,0.974,3.957,1.427l-0.973-7.912
		c-0.13-0.908,0.519-1.751,1.427-1.816c0.908-0.13,1.751,0.519,1.88,1.427l1.168,9.533c1.296,0.454,2.528,0.908,3.567,1.297
		l-1.428-11.22c-0.129-0.908,0.519-1.751,1.428-1.815c0.907-0.129,1.75,0.518,1.815,1.426l1.622,12.907
		c0.455,0.194,0.779,0.259,0.779,0.259c1.231,0.454,2.334,1.103,3.242,1.88l-1.945-15.759c-0.066-0.713,0.455-1.427,1.167-1.492
		c0.712-0.065,1.426,0.454,1.492,1.167l2.592,20.948c0.391,1.103,0.585,2.27,0.585,3.438c0,1.167-0.194,2.399-0.649,3.632
		c0,0-5.836,16.472-6.939,19.456c1.297,2.594,1.88,5.253,1.88,8.042c0,8.235-4.864,17.121-9.338,25.293
		c-1.881,3.437-3.697,6.745-5.059,9.793c-6.875,16.797-10.182,27.174-10.182,34.244c0,3.762,0.908,6.55,2.789,8.949
		c0.064-4.474,0.908-7.913,1.362-9.598c4.41,1.425,17.511,5.511,24.061,6.939c0,0-0.519,13.489,1.103,23.152
		c0.778,0.584,1.426,1.167,1.88,1.557c0.844,0.583,1.687,1.167,2.53,1.815c14.786,0.844,32.361,4.54,43.711,8.497
		c17.64,6.161,47.409,9.079,63.623-2.789C241.014,184.062,235.241,163.177,216.627,149.946 M130.825,47.022
		c-0.584,0.065-1.104-0.324-1.168-0.908l-2.92-23.477c-0.062-0.584,0.325-1.103,0.91-1.168c0.583-0.065,1.102,0.325,1.167,0.908
		l2.918,23.478C131.798,46.375,131.408,46.958,130.825,47.022 M232.063,182.699c-5.643,3.761-13.231,5.643-21.273,6.227
		c-1.75,0.063-2.853-0.584-3.242-1.946l-5.837-15.825c-0.583-1.298-0.648-2.529,1.168-3.437c0,0,11.933-5.188,13.295-5.903
		c1.362-0.712,2.983-2.011,4.605-0.388c7.977,8.43,11.284,17.64,11.284,21.207C232.128,182.569,232.063,182.634,232.063,182.699"/>
	<path fill="#C62033" d="M124.664,182.959c-1.622-1.299-11.09-9.469-24.516-18.55c-13.425-9.079-10.312-22.634,1.751-52.078
		c5.902-13.295,19.392-29.898,11.739-41.118l7.523-21.207c1.232-3.503-0.584-7.33-4.085-8.562L85.231,30.161
		c-3.502-1.232-7.329,0.584-8.561,4.085l-7.459,21.272c-5.836,1.297-11.154,9.857-17.315,29.509
		c-8.367,26.85-13.749,48.835-25.876,61.936c-17.317,18.613-19.262,43.584,17.769,50.263c21.273,3.696,46.372,25.682,67.644,34.567
		c5.123,2.141,13.425,6.484,40.599-0.324C157.933,230.302,155.664,204.49,124.664,182.959 M41.649,190.741
		c-11.544-2.66-18.743-7.395-20.949-13.944c-2.205-6.68,0.713-15.436,7.848-23.932c8.107,3.113,14.917,6.876,19.975,10.312
		C44.957,170.766,42.492,180.299,41.649,190.741 M115.39,46.309c0.518,0.194,0.842,0.778,0.647,1.362l-7.977,22.246
		c-0.194,0.519-0.779,0.843-1.362,0.648c-0.52-0.195-0.843-0.778-0.648-1.362l7.977-22.245
		C114.222,46.375,114.806,46.114,115.39,46.309 M109.033,44.04c0.713,0.259,1.103,1.038,0.843,1.751l-7.783,21.661
		c-0.258,0.713-1.037,1.103-1.75,0.843c-0.713-0.26-1.038-1.038-0.842-1.75l7.781-21.727C107.542,44.169,108.32,43.78,109.033,44.04
		 M102.678,41.77c0.843,0.324,1.297,1.232,0.973,2.14l-7.587,21.144c-0.325,0.843-1.233,1.297-2.141,1.037
		c-0.843-0.324-1.297-1.231-0.973-2.139l7.524-21.144C100.862,41.899,101.835,41.445,102.678,41.77 M75.049,59.215
		c-0.518-0.195-0.843-0.778-0.647-1.362l7.912-22.245c0.195-0.519,0.778-0.843,1.362-0.649c0.519,0.195,0.842,0.778,0.648,1.362
		l-7.978,22.245C76.152,59.15,75.568,59.41,75.049,59.215 M81.405,61.485c-0.713-0.26-1.102-1.038-0.843-1.751l7.719-21.663
		c0.259-0.713,1.037-1.102,1.751-0.842c0.714,0.259,1.038,1.038,0.843,1.75l-7.783,21.727
		C82.832,61.355,82.054,61.745,81.405,61.485 M87.696,63.755c-0.843-0.324-1.297-1.232-0.973-2.14l7.522-21.143
		c0.325-0.844,1.233-1.297,2.142-0.973c0.842,0.324,1.297,1.231,0.972,2.139l-7.523,21.144
		C89.512,63.625,88.604,64.08,87.696,63.755 M148.725,226.15c-10.053,2.399-17.057,3.115-22.181,3.05
		c-1.816,0.259-3.307-0.65-3.631-2.789l-1.881-16.538c0.065-1.688,0.583-3.113,2.66-3.179c4.929,0.065,10.83-0.453,12.646-1.037
		c2.725-0.908,3.438-0.583,3.761-0.13c6.681,8.95,8.692,16.604,8.692,20.171C148.79,225.893,148.725,226.022,148.725,226.15"/>
	<polygon fill="#C62033" points="208.91,200.859 209.883,200.859 209.883,203.646 210.532,203.646 210.532,200.859 211.568,200.859 
		211.568,200.339 208.91,200.339 	"/>
	<polygon fill="#C62033" points="214.033,202.675 213.125,200.339 212.218,200.339 212.218,203.646 212.801,203.646 
		212.801,201.053 212.866,201.053 213.839,203.646 214.293,203.646 215.266,201.053 215.266,201.053 215.266,203.646 
		215.851,203.646 215.851,200.339 214.942,200.339 	"/>
</g>
</svg>
