<?xml version="1.0" encoding="utf-8"?>
<!-- Generator: Adobe Illustrator 16.0.4, SVG Export Plug-In . SVG Version: 6.00 Build 0)  -->
<!DOCTYPE svg PUBLIC "-//W3C//DTD SVG 1.1//EN" "http://www.w3.org/Graphics/SVG/1.1/DTD/svg11.dtd">
<svg version="1.1" id="Layer_1" xmlns="http://www.w3.org/2000/svg" xmlns:xlink="http://www.w3.org/1999/xlink" x="0px" y="0px"
	 width="250px" height="250px" viewBox="0 0 250 250" enable-background="new 0 0 250 250" xml:space="preserve">
<g id="layer1" transform="translate(-258.07108,-451.64)">
	<g id="g8" transform="matrix(1.25,0,0,1.25,302.34967,479.91637)">
		<path id="path10" fill="#4C3576" d="M14.432,79.738L7.891,93.301h15.38l42.992-32.699L30.174,93.18h2.664L66.99,68.716
			L39.499,93.301h3.027l28.096-18.771L49.188,93.18l3.028,0.12l25.189-14.896L58.634,93.18l2.907,0.242l24.585-13.202L68.08,93.18
			h55.224l-12.112-16.108l-4.845,0.727l-4.723-8.113l-24.22-21.799L63.964,35.533l-16.35,20.83l-9.083-2.786L23.393,77.677
			l-4.118-0.726L17.459,80.1L14.432,79.738z"/>
	</g>
	<g id="g12" transform="matrix(1.25,0,0,1.25,329.69467,485.976)">
		<path id="path14" fill="#FFFFFF" d="M7.33,69.924l10.536-17.318l9.084,2.422l15.017-19.619l10.826,12.607l-0.484,1.332
			l-2.47-1.586l-2.786,2.544l-1.454-6.297l-3.51,4.239l-1.818-2.665L25.738,57.693l-2.907-2.423l-7.629,9.325l-1.332-1.211
			L7.33,69.924z"/>
	</g>
	<g id="g16" transform="matrix(1.25,0,0,1.25,416.86892,526.4985)">
		<path id="path18" fill="#FFFFFF" d="M10.98,40.534l-3.201-5.956l-2.238,1.311c0,0,2.29,2.465,2.895,2.829
			C9.042,39.08,10.98,40.534,10.98,40.534z"/>
	</g>
	<g id="g20" transform="matrix(1.25,0,0,1.25,259.00247,451.64)">
		<path id="path22" fill="#161413" d="M153.688,110.109h35.418v-2.665c0,0-6.298-0.12-6.298,0
			c-0.859-9.299-8.345-35.25-32.875-53.423c-12.554-9.859-29.236-17.219-50.928-17.908c-27.733,0.969-38.754,8.841-50.258,16.228
			c-30.155,21.314-34.03,54.861-34.03,54.861H8.781v2.785h36.643l1.319-2.663h-7.807c0,0,6.661-42.146,56.071-47.353
			c-0.121,0.122,3.876-4.359,3.876-4.359l4.359,4.359c0,0,6.66,0.727,11.02,2.059c4.359,1.332,8.477,3.148,8.477,3.148
			s-14.404,1.342-15.016,16.713c1.072,13.371,12.472,15.743,15.622,15.743c3.148,0,15.502-0.363,17.075-15.743
			c0-3.513-0.848-5.693-0.848-5.693s6.177,4.482,11.748,13.564c5.571,9.082,6.903,17.439,6.903,17.439h-6.7L153.688,110.109z"/>
	</g>
	<g id="g24" transform="matrix(1.25,0,0,1.25,410.17392,557.21187)">
		<path id="path26" fill="#161413" d="M5.678,36.127v-2.18h12.777v2.481c0,0-2.3-0.484-2.967,1.091
			c-0.666,1.574-0.484,10.474-0.484,10.474s-0.182,8.66,0.121,9.388c0.302,0.725,0.544,2.359,1.876,2.542
			c1.333,0.181,1.514,0.423,1.514,0.423v1.938H5.74v-2.12c0,0,1.937-0.122,2.541-1.151c0.606-1.029,0.484-2.059,0.484-2.059v-9.265
			l-0.12-8.839c0,0,0.182-1.031-0.423-1.635C7.617,36.611,6.768,36.127,5.678,36.127z"/>
	</g>
	<g id="g28" transform="matrix(1.25,0,0,1.25,302.34967,556.04687)">
		<path id="path30" fill="#161413" d="M21.818,33.971c7.871,0,13.625,5.33,13.625,14.955c0,9.628-5.753,14.655-14.35,15.139
			c-8.479-0.484-13.202-5.752-13.202-15.259C7.891,39.3,14.189,34.456,21.818,33.971z M14.552,49.654
			c1.09,11.686,5.812,11.928,8.175,11.928c2.362,0,7.388-3.512,5.873-14.109c-1.513-10.597-5.873-11.02-8.053-11.02
			C18.791,36.697,13.462,37.967,14.552,49.654z"/>
	</g>
	<g id="g32" transform="matrix(1.25,0,0,1.25,264.82889,551.07437)">
		<path id="path34" fill="#161413" d="M24.284,64.651v2.424H8.661v-2.362c0,0,3.209-0.243,3.754-1.634
			c0.546-1.395,0.424-1.818,0.424-1.818s0-20.285,0-21.556c0-1.271-1.151-1.998-2.24-2.302c-1.091-0.302-1.877-0.302-1.877-0.302
			v-2.544c0,0,1.755,0.12,3.754,0c1.998-0.122,5.571-0.484,9.082-0.484c3.512,0,14.533,0.061,14.533,9.022
			c0.424,6.963-6.419,8.659-6.419,8.659s-0.181,0.788,0.485,1.149c0.666,0.364,0.847,0.728,0.847,0.728s2.483,4.48,2.846,5.147
			c0.364,0.664,1.937,4.178,2.846,4.843c0.907,0.667,3.209,1.091,3.209,1.091v2.421H30.46l-8.113-13.38c0,0-0.909-0.364-1.273-0.364
			c-0.363,0-0.968,0.181-0.968,0.181l-0.121,7.448c0,0-0.182,1.998,0.787,2.786C21.74,64.592,24.284,64.651,24.284,64.651z
			 M22.891,50.545c0.968-0.122,5.509-1.212,5.086-7.329c0-6.358-4.663-6.72-6.298-6.72c-1.634,0-1.695,0.241-1.695,0.241v13.927
			C19.985,50.665,21.922,50.665,22.891,50.545z"/>
	</g>
	<g id="g36" transform="matrix(1.25,0,0,1.25,315.55642,536.62562)">
		<path id="path38" fill="#FFFFFF" d="M13.191,34.976l-3.028-0.605L7.62,38.244L13.191,34.976z"/>
	</g>
	<g id="g40" transform="matrix(1.25,0,0,1.25,428.19642,537.55812)">
		<path id="path42" fill="#FFFFFF" d="M5.307,35.197l3.513-0.847l2.422,3.269L5.307,35.197z"/>
	</g>
	<g id="g44" transform="matrix(1.25,0,0,1.25,388.26767,491.8805)">
		<path id="path46" fill="#FFFFFF" d="M21.023,35.288c0,0,5.329,0.242,8.115,2.664c6.538,4.965,5.328,9.446,5.328,9.446l-0.848,0.12
			c0,0-0.606-1.816-1.09-1.816c-0.484,0-0.545,0.363-0.545,0.363l0.304,1.091h-1.03c0,0-0.363-1.635-1.03-1.635
			c-0.666,0-0.423,0.665-0.423,0.665l-0.062,1.09l-0.847-0.061c0,0-0.786-1.938-1.394-1.392c-0.605,0.545-0.181,0.787-0.181,0.787
			s0.607,0.969-0.06,0.969c-0.665,0-1.271-0.787-1.271-0.787s-0.364-0.909-0.727-0.606c-0.362,0.303-0.302,0.727-0.302,0.727
			l0.484,0.968l-0.727,0.303c0,0-1.332-1.09-1.635-1.09c-0.303,0-0.968,0.484-0.545,0.727c0.423,0.241,0.848,0.484,0.848,0.787
			c0,0.303-0.425,0.425-0.425,0.425l-0.605,0.181c0,0-1.211-1.271-1.634-0.787c-0.424,0.484,0.181,0.969,0.181,0.969l0.424,0.606
			l-0.484,0.363c0,0-0.848-0.122-1.091-0.302c-0.242-0.183-0.786-0.486-0.969-0.122c-0.18,0.363,0.183,0.727,0.183,0.727
			l0.847,0.605l-0.969,0.605c0,0-1.211-0.726-1.452-0.484c-0.243,0.243-0.365,0.909-0.365,0.909l0.97,0.545l-0.182,0.484
			l-0.605,0.182c0,0-0.909-0.303-1.212-0.182c-0.303,0.121-0.303,0.908-0.303,0.908s0.424,0.484,0.667,0.484
			c0.241,0,0.909,0.061,0.484,0.425c-0.424,0.363-0.605,0.363-0.605,0.363s-1.514-0.363-1.757,0.303
			c-0.241,0.666,0.666,0.787,0.666,0.787s0.909-0.06,0.848,0.243c-0.061,0.302-0.303,0.605-0.303,0.605l-0.968,0.121
			c0,0-0.848,0.121-0.909,0.666c-0.062,0.544,0.666,0.605,0.666,0.605s1.03-0.182,0.848,0.423c-0.181,0.606-1.149,0.667-1.149,0.667
			s-0.787,0-0.787,0.485c0,0.484,0.362,0.726,0.362,0.726s1.394-0.121,1.273,0.424c-0.121,0.545-0.666,0.484-0.666,0.484
			s-8.114-3.27-8.114-11.686c-0.122-1.454-0.062-3.089-0.062-3.089s0.182-0.727,0.607-0.12c0.423,0.605,0.484,0.666,0.847,0.666
			c0.364,0,0.243-0.909,0.243-0.909l-0.122-0.727c0,0,0.302-0.242,0.606-0.242c0.302,0,0.848,1.514,1.21,1.514
			c0.363,0,0.848-0.363,0.848-0.363s-0.06-0.485-0.18-0.727c-0.122-0.242-0.365-0.605-0.365-0.605l0.908-0.364
			c0,0,0.484,0.606,0.727,0.848c0.241,0.242,0.666,0.484,0.909,0.363c0.241-0.121,0.121-0.605,0.121-0.605l-0.605-1.029l0.908-0.303
			c0,0,0.969,1.029,1.271,1.029c0.304,0,0.546-0.363,0.546-0.363s0.06-0.363-0.121-0.666c-0.182-0.303-0.727-0.485-0.182-0.909
			c0.545-0.423,0.908,0,0.908,0s0.606,0.727,0.909,0.727c0.302,0,0.787-0.545,0.484-0.968c-0.302-0.425-0.727-0.425-0.727-0.425
			l0.243-0.666c0,0,0.545-0.182,1.03,0.06c0.484,0.243,1.452,0.485,1.452-0.06c0-0.545-0.423-0.727-0.423-0.727l-0.545-0.242
			c0,0,0.061-0.666,0.363-0.666c0.303,0,0.605-0.182,1.03,0c0.423,0.182,0.484,0.242,0.848,0.121
			c0.363-0.121,0.241-0.666-0.243-0.969c-0.484-0.302-0.848-0.061-0.787-0.606c0.061-0.544,0.908-0.362,0.908-0.362l1.211,0.06
			l0.424-0.726c0,0-0.242-0.425-0.484-0.425c-0.243,0-0.848-0.121-0.848-0.545c0-0.423,0.484-0.423,0.908-0.423
			c0.424,0,1.271,0,1.331-0.243c0.062-0.242,0.062-0.787,0.062-0.787s-0.847,0.06-1.09-0.061
			C21.083,35.711,21.023,35.288,21.023,35.288z"/>
	</g>
	<g id="g48" transform="matrix(1.25,0,0,1.25,272.51929,554.57062)">
		<path id="path50" fill="#C9CCD1" d="M8.503,34.002h3.452v27.793H8.503V34.002z"/>
	</g>
	<g id="g52" transform="matrix(1.25,0,0,1.25,289.22217,554.57062)">
		<path id="path54" fill="#C9CCD1" d="M8.16,34.002c0,0,6.177,0.725,6.177,6.6c0,5.873-6.055,7.024-6.055,7.024
			s1.877-1.696,1.877-7.085C10.158,35.152,8.16,34.002,8.16,34.002z"/>
	</g>
	<g id="g56" transform="matrix(1.25,0,0,1.25,284.56029,575.31187)">
		<path id="path58" fill="#C9CCD1" d="M8.256,34.242c0,0,1.938-0.667,2.543-0.667c0.606,0,1.575,0,1.575,0s1.755,1.757,2.18,2.665
			c0.423,0.909,5.086,8.781,5.086,8.781h-5.086L8.256,34.242z"/>
	</g>
	<g id="g60" transform="matrix(1.25,0,0,1.25,304.21492,560.70687)">
		<path id="path62" fill="#C9CCD1" d="M13.604,33.875c0,0-2.663,3.937-2.179,10.962c0,7.689,3.452,11.928,3.452,11.928
			s-7.025,0.061-7.025-11.141C7.974,36.237,13.604,33.875,13.604,33.875z"/>
	</g>
	<g id="g64" transform="matrix(1.25,0,0,1.25,326.66479,559.93062)">
		<path id="path66" fill="#C9CCD1" d="M7.392,33.891c0,0,7.084,1.696,7.084,11.08c0,9.386-5.329,12.173-5.329,12.173
			s1.696-2.241,1.696-11.931C10.056,36.858,7.392,33.891,7.392,33.891z"/>
	</g>
	<g id="g68" transform="matrix(1.25,0,0,1.25,258.07108,597.52937)">
		<path id="path70" fill="#161413" d="M8.8,33.119h181.172v3.03h-7.63v4.601H16.551v-4.845H8.8V33.119z"/>
	</g>
	<g id="g72" transform="matrix(1.25,0,0,1.25,340.25979,556.27937)">
		<path id="path74" fill="#161413" d="M7.113,49.165c0-8.478,5.329-15.2,15.198-15.2c3.755,0,6.116,1.393,6.116,1.393
			s1.393-0.907,1.756-0.907c0.364,0,0.364,0.484,0.364,0.484l0.363,9.264h-1.695c0,0-1.453-7.568-7.327-7.568
			c-5.873,0-8.296,6.235-8.296,12.412c0,6.177,3.391,12.111,8.477,12.111c5.087,0,7.994-6.721,7.994-6.721s0.18-0.423,0.605-0.423
			c0.424,0,0.969,0.181,0.969,0.181l0.06,0.604l-2.18,8.661c0,0-2.179-0.243-3.148-0.243c-0.969,0-6.296,0.605-7.145,0.605
			C18.375,63.818,7.113,62.608,7.113,49.165z"/>
	</g>
	<g id="g76" transform="matrix(1.25,0,0,1.25,342.04692,561.09562)">
		<path id="path78" fill="#C9CCD1" d="M10.648,45.312c0,6.6,3.453,10.96,3.453,10.96s-7.024-1.151-7.024-10.657
			c0-9.508,6.176-11.748,6.176-11.748s0.363,0.122,0.121,0.607C13.131,34.958,10.648,38.713,10.648,45.312z"/>
	</g>
	<g id="g80" transform="matrix(1.25,0,0,1.25,416.27267,560.20187)">
		<path id="path82" fill="#C9CCD1" d="M5.553,33.886h3.209v23.494H5.553V33.886z"/>
	</g>
	<g id="g84" transform="matrix(1.25,0,0,1.25,372.49855,557.13437)">
		<path id="path86" fill="#161413" d="M6.451,36.189l0.121-2.18h12.777v2.239c0,0-2.846-0.059-3.027,1.515
			c-0.182,1.574-0.242,9.022-0.242,9.022l7.81-8.839c0,0,0.363-0.424,0.243-0.849c0-0.786-1.332-0.969-1.332-0.969v-2.18h10.415
			v2.362c0,0-3.087-0.122-4.3,0.908c-1.695,0.848-7.266,7.63-7.266,7.63s2.423,3.027,3.816,5.084
			c1.393,2.06,4.905,7.812,5.449,8.235c0.545,0.424,0.788,1.334,2.241,1.756c1.452,0.425,1.695,0.242,1.695,0.242v2.241H21.165
			v-2.362c0,0,2.18,0.241,2.18-0.787c0-1.029-0.848-3.089-2.362-4.845c-1.514-1.757-3.694-4.724-4.723-4.846
			c-0.061,1.092,0,8.359,0,8.359s0.12,1.21,1.03,1.816c0.907,0.606,2.12,0.423,2.12,0.423v2.241H6.511v-2.18
			c0,0,2.725,0,2.968-1.635c0.242-1.635,0.242-1.998,0.242-1.998V38.551c0,0,0-1.454-1.151-1.877
			C7.42,36.248,6.451,36.189,6.451,36.189z"/>
	</g>
	<g id="g88" transform="matrix(1.25,0,0,1.25,428.74017,557.28937)">
		<path id="path90" fill="#161413" d="M5.66,36.246v-2.3h21.195l0.422,6.841h-1.997c0,0,0.545-3.815-2.18-3.815s-7.63,0-7.63,0
			v9.507c0,0,2.12,0.242,2.907,0.242s3.209-0.303,3.33-1.332c0.122-1.029,0.545-2.18,0.545-2.18h1.453v9.627H22.13
			c0,0-0.208-2.807-1.816-3.087c-1.394-0.242-1.999-0.305-2.543-0.305c-0.546,0-2.241,0.364-2.241,0.364v8.417
			c0,0,0.303,1.091,1.574,1.091c1.272,0,5.329,0,5.752,0c0.424,0,1.998-0.364,2.423-1.03c0.423-0.666,1.513-3.695,1.513-3.695h1.755
			l-0.665,7.691H5.297v-2.362c0,0,2.302,0.181,3.089-0.424c0.786-0.605,0.968-0.848,0.968-0.848L9.233,39.152
			c0,0,0.181-1.877-1.151-2.544C6.751,35.944,5.66,36.246,5.66,36.246z"/>
	</g>
	<g id="g92" transform="matrix(1.25,0,0,1.25,435.84892,560.04687)">
		<path id="path94" fill="#C9CCD1" d="M5.15,33.888h3.209v23.858H5.15V33.888z"/>
	</g>
	<g id="g96" transform="matrix(1.25,0,0,1.25,459.27017,551.07437)">
		<path id="path98" fill="#161413" d="M13.57,34.074c4.179,0,6.722,1.029,6.722,1.029s0.423,0.183,0.666,0
			c0.243-0.18,0.788-0.726,0.788-0.726h1.212l0.545,9.566l-2.119-0.18c0,0-0.97-6.905-7.145-6.905
			c-4.905,0.606-3.695,5.148-2.12,5.936c3.33,3.511,12.716,6.72,12.716,15.38c0,8.658-7.871,10.112-9.628,10.112
			c-1.755,0-6.54-1.271-7.205-1.332C7.334,66.892,6.79,67.86,6.79,67.86H5.76L4.67,57.628l1.755-0.061c0,0,1.454,3.755,2.422,4.663
			c0.97,0.908,2.059,3.027,5.209,3.027c3.148,0,4.238-2.603,4.238-4.904c0-2.3-3.876-5.452-5.329-6.357
			c-1.454-0.911-7.994-3.695-7.994-10.901C4.972,35.89,9.393,34.074,13.57,34.074z"/>
	</g>
	<g id="g100" transform="matrix(1.25,0,0,1.25,461.98892,557.36687)">
		<path id="path102" fill="#C9CCD1" d="M6.189,33.944c0,0-0.121,2.422,1.816,4.482c3.027,4.116,12.777,6.599,12.777,14.108
			c-0.423,5.512-3.088,6.783-3.088,6.783s0.303-1.152,0.303-4.178c0-4.118-6.116-7.509-6.116-7.509s-7.266-4.117-7.266-9.083
			C4.615,34.429,6.189,33.944,6.189,33.944z"/>
	</g>
	<g id="g104" transform="matrix(1.25,0,0,1.25,400.23017,508.03775)">
		<path id="path106" fill="#FFFFFF" d="M5.943,49.671l0.121-0.424c0,0,1.271,0.605,1.392,0.364c0.122-0.243,0.062-0.909,0.062-0.909
			L6.73,48.217c0,0-0.848,0-0.726-0.666c0.12-0.666,0.666-0.182,0.666-0.182l0.786,0.363v-1.271c0,0-0.968-0.363-0.968-0.848
			c0-0.484,0.303-0.484,0.303-0.484l0.968,0.665c0,0,0.484-0.121,0.484-0.423c0-0.303-0.059-0.546-0.059-0.546l-0.971-0.907
			c0,0-0.12-0.666,0.365-0.666c0.484,0,0.848,0.787,0.848,0.787s0.545-0.243,0.484-0.666c-0.06-0.423-0.364-0.787-0.364-0.787
			s-0.545-0.545-0.423-0.909c0.12-0.363,0.545-0.302,0.545-0.302s0.364,0.909,0.727,0.909s0.786-0.546,0.605-0.909
			c-0.182-0.363-0.666-1.15-0.666-1.15s0.061-0.484,0.363-0.484c0.303,0,0.909,0.969,0.909,0.969s0.666,0.242,0.666-0.303
			c0-0.545-0.182-1.151-0.182-1.151s-0.424-0.544,0.061-0.787c0.484-0.242,0.484,0.243,0.605,0.484
			c0.121,0.243,0.424,0.909,0.666,0.606c0.243-0.303,0.424-0.847,0.424-0.847s-0.242-0.425-0.242-0.848
			c0-0.424,0.242-0.606,0.242-0.606s0.484-0.605,0.544-0.242c0.062,0.363,0.062,0.969,0.122,1.15
			c0.061,0.182,0.787,0.182,0.848-0.121c0.06-0.302,0.121-0.484,0.121-0.484s-0.242-0.484-0.061-0.848
			c0.181-0.363-0.06-0.545,0.303-0.545c0.364,0,0.607,0.787,0.607,0.787s0,0.727,0.302,0.666c0.302-0.06,0.666-0.605,0.666-1.089
			c0-0.485,0.181-1.03,0.605-1.089c0.423-0.061,0.06,1.15,0.06,1.15s0.302,0.545,0.545,0.423c0.241-0.121,0.544-0.423,0.544-0.423
			l0.487-1.393h0.665c0,0-0.243,1.271,0.06,1.332c0.304,0.061,0.727-0.121,0.727-0.121s0.18-0.788,0.363-1.029
			c0.181-0.243,0.787-0.303,0.787-0.303s0.182,0,0.12,0.364c-0.059,0.362-0.484,0.968,0,1.089c0.484,0.12,0.909,0,0.909,0
			s0.303-1.575,0.968-1.514c0.667,0.061-0.12,1.09-0.12,1.09s0.061,0.544,0.484,0.666c0.426,0.121,0.97-0.666,0.97-0.666
			s0.302-0.606,0.666-0.485c0.364,0.122-0.363,1.09-0.363,1.09s0.727,0.969,0.727,1.272c0,0.302-0.667,6.237-6.298,10.051
			C13.209,52.638,5.943,49.671,5.943,49.671z"/>
	</g>
	<g id="g108" transform="matrix(1.25,0,0,1.25,388.88892,492.0355)">
		<path id="path110" fill="#FFFFFF" d="M7.023,45.093c-0.241,0.304-0.605,0.243-0.605,0.243l-0.303-0.182
			c0,0,1.938-5.267,5.814-7.508c3.874-2.241,6.357-2.362,6.357-2.362l-0.423,0.908l0.181,0.546c0,0,1.03,0.605,0.605,1.029
			c-0.423,0.425-1.03-0.243-1.03-0.243s0-0.726-0.484-0.241c-0.484,0.484-0.12,1.15-0.12,1.15s0.908,0.787,0.484,1.211
			c-0.424,0.423-0.787-0.364-0.787-0.364s-0.304-0.666-0.667-0.303c-0.362,0.364-0.18,0.969-0.18,0.969s0.848,1.332,0.18,1.393
			c-0.665,0.06-0.968-1.211-0.968-1.211s-0.666,0.666-0.666,0.969c0,0.302,0.787,1.09,0.121,1.514
			c-0.666,0.424-0.787-0.666-0.787-0.666s-0.364-0.848-0.727-0.423c-0.362,0.423-0.12,1.089-0.12,1.089s0.241,1.15-0.304,1.15
			c-0.544,0-0.665-0.423-0.665-0.423s0.059-1.272-0.363-1.03c-0.425,0.242-0.485,0.909-0.485,0.909s0.364,1.453-0.424,1.453
			c-0.786,0-0.423-0.969-0.423-0.969s-0.122-0.97-0.545-0.788c-0.425,0.182-0.425,0.727-0.425,0.727l-0.181,1.272l-0.846,0.18
			c0,0,0.181-0.787,0.059-1.089c-0.121-0.303-0.302-0.425-0.605-0.425c-0.302,0-0.606,0.546-0.606,0.546S7.265,44.791,7.023,45.093z
			"/>
	</g>
	<g id="g112" transform="matrix(1.25,0,0,1.25,404.81392,491.80237)">
		<path id="path114" fill="#161413" d="M6.03,35.289c0,0,1.09,0.545,0.788,0.908c-0.303,0.363-0.666-0.06-0.666-0.06l-0.363-0.484
			L6.03,35.289z"/>
	</g>
	<g id="g116" transform="matrix(1.25,0,0,1.25,446.84017,507.5715)">
		<path id="path118" fill="#C9CCD1" d="M20.427,39.87c1.938,3.452,3.33,8.297-1.332,11.384c-4.663,3.089-9.567-0.363-10.96-3.209
			c-1.392-2.846-3.209-7.206,1.877-10.96C13.947,34.966,18.489,36.42,20.427,39.87z"/>
	</g>
	<g id="g120" transform="matrix(1.25,0,0,1.25,449.48267,510.67937)">
		<path id="path122" fill="#161413" d="M17.648,38.293c0.544,0.908,2.24,3.814-2.423,7.266c-4.663,3.452-8.115,0.666-8.538-0.545
			c-0.424-1.211-1.816-4.784,3.087-7.448C14.68,34.902,17.102,37.384,17.648,38.293z"/>
	</g>
	<g id="g124" transform="matrix(1.25,0,0,1.25,427.65392,482.01362)">
		<path id="path126" fill="#C9CCD1" d="M15.552,35.49c0,0,3.573,3.15,4.602,4.179c1.03,1.029,7.57,6.721,2.18,12.11
			c-5.39,5.39-12.111-1.756-12.777-2.482c-0.666-0.727-1.634-1.816-2.18-2.361c-0.545-0.545-2.057-1.878-2.057-1.878l0.484-0.666
			c0,0,0.907,0.727,1.15,0.788c0.243,0.06,0.848,0,0.848,0s6.902-6.237,7.326-6.721c0.424-0.484,0.303-1.332,0.303-1.635
			c0-0.304-0.484-0.97-0.484-0.97L15.552,35.49z"/>
	</g>
	<g id="g128" transform="matrix(1.25,0,0,1.25,433.01267,487.06362)">
		<path id="path130" fill="#161413" d="M5.936,43.076l7.326-6.781c0,0,0.546-0.909,1.214-0.304c0.664,0.606,3.389,2.664,3.026,5.632
			c-0.363,2.967-3.33,6.176-6.721,5.692c-3.391-0.484-4.845-2.786-4.845-2.786S5.209,44.046,5.936,43.076z"/>
	</g>
	<g id="g132" transform="matrix(1.25,0,0,1.25,401.86267,467.56537)">
		<path id="path134" fill="#C9CCD1" d="M18.14,35.787l2.604,1.574c0,0-1.211,12.838-1.151,13.14
			c0.061,0.303,0.121,0.727,0.484,1.151c0.363,0.423,0.545,0.423,0.545,0.423l-0.121,0.425l-6.417-2.846l0.362-0.787l1.152,0.605
			c0,0,1.028,0.302,1.149-0.666c0.122-0.969,0.183-3.452,0.183-3.452l-4.177-2.241l-2.484,2.241c0,0-0.544,0.726-0.18,1.151
			c0.362,0.423,1.33,0.908,1.33,0.908l-0.241,0.727l-5.33-2.421l0.485-0.727c0,0,0.968,0.907,2.239-0.182
			C9.845,43.719,18.14,35.787,18.14,35.787z"/>
	</g>
	<g id="g136" transform="matrix(1.25,0,0,1.25,412.03892,471.60462)">
		<path id="path138" fill="#161413" d="M9.092,35.704L8.91,40.487l-3.27-1.574L9.092,35.704z"/>
	</g>
	<g id="g140" transform="matrix(1.25,0,0,1.25,374.98392,457.69962)">
		<path id="path142" fill="#C9CCD1" d="M12.637,44.83l1.392,0.182c0,0,0.243,0.181,0.485,0.605c0.242,0.424,2.3,4.723,2.3,4.723
			s0.849,1.09,2.059,1.271c1.211,0.181,3.634,0.363,3.634,0.363s0.12-0.423-0.485-0.787c-0.605-0.363-1.756-1.15-2.542-3.33
			c-0.969-1.757-1.757-3.089-1.757-3.089s3.391-0.544,3.694-3.087c0.303-2.544-1.411-4.114-4.298-4.723
			c-3.138-0.658-5.087-0.666-5.087-0.666l-3.633-0.302l-0.303,0.666l1.938,0.908c0,0-1.03,10.718-1.151,11.02
			c-0.121,0.303-1.211,0.667-1.575,0.667c-0.363,0-0.847-0.061-0.847-0.061L6.4,49.795l7.629,1.03l0.122-0.666l-1.211-0.364
			c0,0-0.968,0-0.848-1.393C12.213,47.01,12.637,44.83,12.637,44.83z"/>
	</g>
	<g id="g144" transform="matrix(1.25,0,0,1.25,383.21892,459.71862)">
		<path id="path146" fill="#161413" d="M6.231,42.124l0.788-6.055c0,0,0.908-0.121,1.816,0.121c0.909,0.242,3.148,1.15,2.725,3.209
			c-0.424,2.058-1.212,3.21-3.269,3.088C6.231,42.367,6.231,42.124,6.231,42.124z"/>
	</g>
	<g id="g148" transform="matrix(1.25,0,0,1.25,344.22092,458.25262)">
		<path id="path150" fill="#C9CCD1" d="M12.3,37.666c3.266-1.688,9.506-1.271,11.081,2.543c1.575,3.815,1.089,7.993-3.936,10.294
			c-5.026,2.301-10.234-0.121-11.323-3.512C7.031,43.601,8.545,39.603,12.3,37.666z"/>
	</g>
	<g id="g152" transform="matrix(1.25,0,0,1.25,348.02829,460.185)">
		<path id="path154" fill="#161413" d="M11.01,36.422c1.756-0.484,4.965,0.243,6.359,4.057c1.391,3.815,0.544,7.084-1.879,7.872
			c-2.421,0.787-5.812,0.485-7.387-4.965C6.953,38.542,9.254,36.907,11.01,36.422z"/>
	</g>
	<g id="g156" transform="matrix(1.25,0,0,1.25,317.80867,469.89562)">
		<path id="path158" fill="#C9CCD1" d="M7.573,39.251l6.6-3.512l0.243,0.545c0,0-0.848,0.363-1.09,0.848
			c-0.242,0.484-0.424,0.726-0.424,0.726l5.268,9.87l3.996-2.24c0,0,0.97-0.666,1.03-1.151c0.061-0.484,0.424-2.604,0.424-2.604
			l0.485,0.121l0.605,3.573l-10.598,5.994l-0.302-0.787c0,0,1.574-0.666,1.15-1.816c-0.423-1.15-4.662-8.599-4.662-8.599
			s-0.302-0.787-0.908-0.787c-0.606,0-1.211,0.362-1.211,0.362L7.573,39.251z"/>
	</g>
	<g id="g160" transform="matrix(1.25,0,0,1.25,294.58229,483.95575)">
		<path id="path162" fill="#C9CCD1" d="M11.138,40.114c3.452-3.997,7.63-4.663,10.84-2.18c3.207,2.482,4.238,6.963,1.028,10.898
			c-3.209,3.936-7.266,4.482-10.96,2.241C9.26,49.014,8.05,44.656,11.138,40.114z"/>
	</g>
	<g id="g164" transform="matrix(1.25,0,0,1.25,297.30079,487.29675)">
		<path id="path166" fill="#161413" d="M9.811,38.046c1.185-1.854,4.118-2.664,7.448-0.545c3.33,2.119,4.965,5.874,2.664,8.236
			c-2.301,2.361-5.45,1.877-7.994-0.182C9.388,43.496,7.995,40.892,9.811,38.046z"/>
	</g>
	<g id="g168" transform="matrix(1.25,0,0,1.25,278.57892,508.89225)">
		<path id="path170" fill="#C9CCD1" d="M13.465,50.441c-3.47-1.219-5.087-6.117-3.148-10.597c1.696-3.149,2.421-3.088,2.906-3.633
			c0.061-0.424,0-0.666,0.122-0.969c0.12-0.303,3.571,1.453,3.571,1.453l-0.303,0.424c0,0-0.302,0.061-0.847,0.061
			c-0.544,0-2.543-0.424-4.36,2.967c-1.816,3.391,1.453,6.298,3.209,7.146c1.757,0.848,6.381,2.077,8.357-2.482
			c1.123-2.604-0.121-4.361-0.121-4.361l-0.727-1.028l0.424-0.788l2.786,2.604c0,0-0.605,0.969-0.727,1.453
			c-0.121,0.484-0.787,3.088-1.09,3.634C23.215,46.868,20.126,52.862,13.465,50.441z"/>
	</g>
	<g id="g172" transform="matrix(1.25,0,0,1.25,484.02017,605.17562)">
		<path id="path174" fill="#161413" d="M4.162,36.037c0-1.695,1.38-3.075,3.09-3.075c1.702,0,3.074,1.38,3.074,3.075
			c0,1.71-1.372,3.091-3.074,3.091C5.542,39.128,4.162,37.747,4.162,36.037z M9.956,36.037c0-1.494-1.211-2.704-2.704-2.704
			c-1.502,0-2.711,1.21-2.711,2.704c0,1.509,1.209,2.719,2.711,2.719C8.745,38.756,9.956,37.546,9.956,36.037z M8.787,37.764H8.286
			l-0.985-1.589H6.526v1.589H6.107v-3.445h1.501c0.29,0,0.58,0.016,0.838,0.169c0.259,0.146,0.387,0.452,0.387,0.743
			c0,0.677-0.477,0.927-1.089,0.945L8.787,37.764z M7.172,35.844c0.484,0,1.234,0.079,1.234-0.623c0-0.533-0.469-0.597-0.895-0.597
			H6.526v1.22H7.172z"/>
	</g>
	<g id="g176" transform="matrix(1.25,0,0,1.25,378.67404,560.04687)">
		<path id="path178" fill="#C9CCD1" d="M6.324,33.888h3.209v23.677H6.324V33.888z"/>
	</g>
	<g id="g180" transform="matrix(1.25,0,0,1.25,387.49142,572.98187)">
		<path id="path182" fill="#C9CCD1" d="M6.143,36.045l2.3-2.422c0,0,2.241,2.058,4.421,5.45c2.18,3.391,5.086,7.992,5.086,7.992
			h-4.723c0,0,0.182-1.938-2.059-4.662C9.171,39.377,6.143,36.045,6.143,36.045z"/>
	</g>
</g>
</svg>
