<?xml version="1.0" encoding="utf-8"?>
<!-- Generator: Adobe Illustrator 16.0.4, SVG Export Plug-In . SVG Version: 6.00 Build 0)  -->
<!DOCTYPE svg PUBLIC "-//W3C//DTD SVG 1.1//EN" "http://www.w3.org/Graphics/SVG/1.1/DTD/svg11.dtd">
<svg version="1.1" id="Layer_1" xmlns="http://www.w3.org/2000/svg" xmlns:xlink="http://www.w3.org/1999/xlink" x="0px" y="0px"
	 width="250px" height="250px" viewBox="0 0 250 250" enable-background="new 0 0 250 250" xml:space="preserve">
<g>
	<path fill="#004684" d="M86.761,214.415c3.884-1.946,4.983-4.758,5.532-7.604c0.208-1.075-0.433-1.133-1.151-0.329
		c-4.106,3.824-12.159,4.645-17.378-5.589c-2.699-5.297-5.339-9.497-8.616-12.106c8.371-3.04,14.081-10.182,13.638-17.776
		c-0.55-9.212-9.942-16.145-22.124-15.326c-25.242,1.664-32.529,24.418-24.326,26.39c6.241,1.504,9.397-4.396,9.899-8.64
		c-1.566,1.461-5.07,2.544-4.449-2.475c0.588-4.764,8.636-10.895,18.863-11.672c7.142-0.506,12.939,5.673,13.286,12.728
		c0.293,6.211-3.682,11.948-9.479,14.351c-2.511-0.685-5.392-0.636-8.824,0.304c-0.184-13.025,1.306-20.297,5.224-24.5
		c-2.27,0.772-4.756,2.155-6.857,4.603c-7.407,8.876-4.867,34.634-6.675,43.289c-0.814,4.67-5.937,7.136-8.322,3
		c-5.252,7.771,3.556,14.279,10.487,10.59c3.295-1.746,8.062-6.394,7.18-17.625c-0.502-6.296-0.834-11.745-0.979-16.511
		c2.115-0.488,5.59-0.372,8.129,4.356C62.691,199.241,69.808,222.877,86.761,214.415"/>
	<path fill="#004684" d="M215.693,163.358c0.655-2.799,0.545-5.884-0.284-8.908c-2.848-10.337-0.713-13.913,1.237-15.673
		c-23.055-3.016-23.132,31.879-33.797,35.522c-1.808,0.615-3.555-0.92-3.729-3.238c14.954-17.864,12.38-42.688-0.728-43.948
		c-3.248-0.318-6.528,2.765-6.473,8.41c0,0-0.015,29.477,0.006,32.34c0.016,2.861,0,3.884,0.081,4.511
		c0.055,0.412,0.146,0.779,0.227,1.154c-0.616,0.578-1.237,1.157-1.891,1.706c-4.648,3.911-5.421,2.533-5.84-0.993l0.015-22.097
		l-7.532,1.934c0,0-0.045,0.698-0.033,1.638c-0.994-0.939-2.93-1.157-4.409-1.122c-8.892,0.226-15.68,15.054-13.266,26.39
		c-1.556,1.774-3.76,3.803-6.236,6.022l0.023-26.196l-7.635,2.125l-0.071,19.816c-0.009,0.353-0.02,1.114-0.035,2.164
		c-1.001,3.76-4.019,5.809-5.608,5.577c-1.614-0.242-2.082-3.018-2.043-4.298l0.005-21.175l-7.243,1.841
		c0.178,8.452-3.176,12.101-6.983,13.471c-1.224-4.787-4.086-8.594-8.631-9.325c-2.24-0.358-4.148,0.24-5.518,1.362
		c-10.014,3.249-11.946,19.724-7.701,26.571c2.51,4.173,5.754,5.083,7.531,5.254c10.449,1.011,15.518-9.953,14.968-19.581
		c2.626-0.848,4.81-2.374,6.101-4.352l-0.145,6.275c0.02,4.193,0.569,10.325,5.35,10.337c3.633,0.009,7.132-2.643,10.048-5.958
		c0,0.974-0.004,2.001-0.004,3.041c-4.998,4.81-9.687,10.162-11.62,15.761c-0.12,0.368-0.231,0.743-0.332,1.123
		c-8.419,2.276-15.503,4.111-19.82,5.074C67.45,221.799,59.951,229.022,58.741,238c9.152-10.245,19.884-6.266,22.92-4.439
		c0.727-1.586,4.53-7.054,13.739-10.591c5.58-2.149,11.416-4.249,17.358-6.323c-0.024,7.599,3.422,15.465,10.654,14.231
		c5.57-0.945,9.677-4.664,9.604-19.469l0.006-0.835c31.137-10.077,62.193-18.679,83.75-26.133
		C227.953,180.577,225.602,167.253,215.693,163.358 M94.785,175.444c1.87,0.719,3.249,2.896,4.058,5.61
		c-2.718-0.03-5.017-0.742-5.668-1.117C89.233,177.681,91.84,174.318,94.785,175.444 M93.373,197.308
		c-7.175,0.02-7.074-12.265-4.935-16.471c0.636,0.839,1.499,1.629,2.66,2.292c2.78,1.602,5.739,2.271,8.511,2.229
		C100.019,191.158,98.153,197.299,93.373,197.308 M204.233,164.554c0.024-0.004,0.054-0.004,0.073-0.004
		c0.38-0.045,0.747-0.073,1.104-0.089c0.021-0.004,0.039-0.004,0.059-0.004c0.361-0.017,0.709-0.02,1.076,0
		c0.014,0,0.027,0,0.043,0.004c0.367,0.016,0.736,0.054,1.128,0.111c0.015,0.004,0.022,0.01,0.043,0.01
		c0.045,0.006,0.092,0.02,0.145,0.029c-0.584,2.642-2.062,4.621-5.017,5.225c-6.545,1.339-6.304-4.309-1.278-4.955
		C202.609,164.762,203.448,164.635,204.233,164.554 M207.877,143.798c-2.803,2.714-0.054,10.443,0.299,16.79
		c0.009,0.202,0.004,0.4,0.009,0.597c-2.22-0.327-4.592-0.352-7.792,0.039c-2.563,0.313-4.409,1.191-5.634,2.333
		C197.844,155.845,202.586,144.661,207.877,143.798 M184.996,138.463c2.159,7.672-0.028,17.75-5.735,26.598
		c0.004-8.534,0.028-26.977,0-29.214C179.208,131.844,183.291,132.416,184.996,138.463 M149.072,161.595
		c2.645-5.108,7.578-3.483,8.269-0.571c0.029,5.287-0.112,10.192-0.101,11.819c0.027,4.319-3.151,9.557-6.594,9.353
		C145.616,181.906,145.308,168.838,149.072,161.595 M125.434,198.822c-0.004,2.973-0.009,5.874-0.015,8.254
		c-2.413,0.665-4.785,1.315-7.098,1.942c0.039-0.098,0.067-0.193,0.11-0.295C119.935,205.308,122.46,201.998,125.434,198.822
		 M122.452,225.804c-3.249,0.849-5.239-4.467-5.286-9.946c2.741-0.937,5.488-1.87,8.25-2.779
		C125.395,222.361,125.015,225.128,122.452,225.804 M215.636,181.267c-15.652,4.678-51.503,15.058-82.608,23.705l0.009-13.395
		c2.744-2.418,5.49-4.726,7.934-6.908c0.911,2.575,10.33,7.651,16.302-3.3c2.752,8.536,12.409-1.665,14.65-3.39
		c0.55-0.424,1.077-0.863,1.596-1.308c3.146,4.595,10.057,3.37,14.014-0.438c2.062-1.985,4.11-5.344,5.482-8.405
		c0.332,3.272,3.992,6.372,10.574,5.655c5.354-0.593,8.887-3.147,10.8-6.637c0.361,0.164,0.747,0.333,1.146,0.517
		C223.351,170.963,221.506,179.512,215.636,181.267"/>
	<path fill="#004684" d="M223.389,143.061h-1.741v4.727h-1.176v-4.727h-1.734v-1.032h4.647v1.032H223.389z M231.258,147.787h-1.176
		v-4.577h-0.028l-1.666,4.577h-1.134l-1.604-4.577h-0.038v4.577h-1.167v-5.759h2.039l1.33,3.765h0.029l1.393-3.765h2.022V147.787
		L231.258,147.787z"/>
	<path fill="#004684" d="M223.389,143.061h-1.741v4.727h-1.176v-4.727h-1.734v-1.032h4.647v1.032H223.389z M231.258,147.787h-1.176
		v-4.577h-0.028l-1.666,4.577h-1.134l-1.604-4.577h-0.038v4.577h-1.167v-5.759h2.039l1.33,3.765h0.029l1.393-3.765h2.022V147.787
		L231.258,147.787z"/>
	<path fill="#004684" d="M223.389,143.061h-1.741v4.727h-1.176v-4.727h-1.734v-1.032h4.647v1.032H223.389z M231.258,147.787h-1.176
		v-4.577h-0.028l-1.666,4.577h-1.134l-1.604-4.577h-0.038v4.577h-1.167v-5.759h2.039l1.33,3.765h0.029l1.393-3.765h2.022V147.787
		L231.258,147.787z"/>
	<polygon fill="#004684" points="80.887,50.593 80.887,128.68 122.123,152.811 163.359,128.68 163.359,50.593 	"/>
	<path fill="#8E6C22" d="M161.816,22.297c2.703,0,4.896-2.197,4.896-4.9c0-2.705-2.193-4.896-4.896-4.896
		c-2.698,0-4.896,2.192-4.896,4.896C156.921,20.1,159.118,22.297,161.816,22.297"/>
	<path fill="#8E6C22" d="M161.325,25.497h-1.011c0,6.447-5.219,11.687-11.663,11.687c-6.441,0-11.623-5.243-11.623-11.69h-3.109
		c0,6.447-5.223,11.69-11.66,11.69c-6.439,0-11.624-5.272-11.624-11.71l-3.132,0.029c0,6.447-5.22,11.681-11.662,11.681
		c-6.443,0-11.644-5.263-11.644-11.702l-3.373-0.039v22.943h82.568V25.497h-3.078"/>
	<path fill="#8E6C22" d="M82.56,22.297c2.708,0,4.896-2.197,4.896-4.9c0-2.705-2.188-4.896-4.896-4.896
		c-2.704,0-4.896,2.192-4.896,4.896C77.663,20.1,79.856,22.297,82.56,22.297"/>
	<path fill="#8E6C22" d="M109.193,22.297c2.709,0,4.901-2.197,4.901-4.9c0-2.705-2.192-4.896-4.901-4.896
		c-2.703,0-4.892,2.192-4.892,4.896C104.302,20.1,106.49,22.297,109.193,22.297"/>
	<path fill="#8E6C22" d="M135.53,22.297c2.703,0,4.896-2.197,4.896-4.9c0-2.705-2.193-4.896-4.896-4.896
		c-2.709,0-4.901,2.192-4.901,4.896C130.629,20.1,132.821,22.297,135.53,22.297"/>
	<path fill="#231F20" d="M96.13,73.248c0-4.471-3.007-5.903-5.701-5.874l-0.887-0.029v-2.309h10.144h7.421v2.356
		c-2.511,0.188-5.089,1.725-5.089,5.854l-0.005,13.898l1.224-0.679c2.529-3.566,9.175-13.031,10.549-15.764
		c1.705-3.349-0.892-3.349-3.383-3.349v-2.332h15.565v2.332h-1.104c-1.686,0-3.788,0-6.588,3.45
		c-3.57,4.423-10.678,15.131-10.678,15.131c10.881,0.814,14.973,15.748,17.772,17.773c-1.6-10.666,6.288-23.97,17.864-23.455
		c1.291,0.054,2.892-0.105,6.582,0.906c3.701,1.021,4.034-0.81,4.531-2.838h2.757v17.57h-2.382
		c-0.202-3.045-1.714-13.107-11.458-13.407c-9.914-0.304-11.766,11.166-11.914,18.992c-0.49,28.949,19.667,28.021,23.362,18.688
		c0.53-1.369,0.305-1.744-0.308-2.038c-4.386-2.125,0.702-7.816,3.526-2.839c1.286,2.28-1.025,13.103-13.101,13.103
		c-18.766,0-24.259-26.206-31.232-34.735c-5.445-6.64-9.888-3.658-11.556-2.034l-0.068,4.568l0.038,8.124
		c0,4.478,3.012,5.904,5.706,5.875l0.881,0.029v2.317h-9.527h-9.532v-2.317l0.887-0.029c2.694,0.029,5.701-1.397,5.701-5.875
		L96.13,73.248"/>
	<path fill="#FFFFFF" d="M94.482,71.6c0-4.472-3.003-5.898-5.697-5.874l-0.892-0.024v-2.317h10.149h7.42v2.36
		c-2.52,0.188-5.089,1.72-5.089,5.854l-0.004,13.908l1.218-0.689c2.535-3.57,9.176-13.036,10.553-15.757
		c1.702-3.354-0.892-3.354-3.387-3.354v-2.332h15.565v2.332h-1.098c-1.687,0-3.788,0-6.583,3.46
		c-3.581,4.414-10.685,15.127-10.685,15.127c10.882,0.81,14.973,15.743,17.762,17.773c-1.589-10.665,6.294-23.97,17.87-23.459
		c1.296,0.053,2.892-0.101,6.589,0.911c3.69,1.017,4.027-0.815,4.523-2.844h2.759v17.571h-2.387
		c-0.197-3.046-1.712-13.102-11.451-13.407c-9.917-0.303-11.777,11.171-11.912,18.993c-0.496,28.947,19.662,28.026,23.358,18.688
		c0.539-1.364,0.298-1.74-0.3-2.034c-4.39-2.135,0.694-7.821,3.518-2.844c1.293,2.285-1.025,13.109-13.1,13.109
		c-18.767,0-24.255-26.211-31.232-34.736c-5.441-6.65-9.885-3.658-11.551-2.039l-0.073,4.574l0.044,8.129
		c0,4.462,3.006,5.893,5.7,5.865l0.887,0.029v2.318h-9.534h-9.532v-2.318l0.892-0.029c2.693,0.029,5.697-1.403,5.697-5.865V71.6"/>
</g>
</svg>
