<?xml version="1.0" encoding="utf-8"?>
<!-- Generator: Adobe Illustrator 16.0.4, SVG Export Plug-In . SVG Version: 6.00 Build 0)  -->
<!DOCTYPE svg PUBLIC "-//W3C//DTD SVG 1.1//EN" "http://www.w3.org/Graphics/SVG/1.1/DTD/svg11.dtd">
<svg version="1.1" id="Layer_1" xmlns="http://www.w3.org/2000/svg" xmlns:xlink="http://www.w3.org/1999/xlink" x="0px" y="0px"
	 width="250px" height="250px" viewBox="0 0 250 250" enable-background="new 0 0 250 250" xml:space="preserve">
<path fill="#021540" d="M177.846,52.979c-8.657-5.379-21.785-5.57-31.253-1.074v33.13c10.778-5.117,21.286-5.117,31.253,1.079
	V52.979 M146.593,138.637c10.778,5.117,21.286,5.117,31.253-1.078v-35.555c-9.967-6.195-20.475-6.195-31.253-1.078V138.637z
	 M146.593,198.704l12.4,5.927c5.39-3.231,13.463-7.004,18.853-8.616v-42.028c-9.967,6.199-20.475,6.199-31.253,1.083V198.704z
	 M116.972,60.522v130.908l10.236,1.62V48.943C122.357,49.476,116.972,52.711,116.972,60.522z M64.715,16.615h103.437
	c25.319,0,42.562,17.243,42.562,40.945c0,22.624-6.474,112.053,2.148,149.226c-23.697-1.615-47.405,9.163-63.573,29.633
	c-16.695-9.16-27.468-10.237-46.323-10.237c-15.085,0-36.639,4.849-53.335,11.311c-6.359,2.463-4.31-0.811-0.541-6.19
	c9.695-13.855,29.091-30.979,49.561-39.065V53.248c-7.538,7.547-10.77,15.623-10.77,30.708v82.423
	c0,14.543-5.39,24.78-13.469,31.787c-8.084,7.002-18.317,9.158-23.702,10.236c-5.39,1.074-7.543,0-3.236-5.39
	c4.311-5.389,8.622-9.697,8.622-29.092v-39.323c-4.31,1.61-9.541,6.024-12.39,10.232c-2.832,4.173-5.386,2.98-5.386-1.616
	c0-12.932,8.076-25.315,17.776-30.164v-9.701c-4.31,1.616-9.158,5.927-12.39,10.233c-3.005,4.007-5.386,3.177-5.386-1.615
	c0-12.929,8.076-25.319,17.776-30.167c0-19.932,8.08-26.938,21.012-33.939C58.52,44.65,41.819,23.101,39.884,12.5
	C45.856,15.558,56.631,16.596,64.715,16.615z"/>
</svg>
