<?xml version="1.0" encoding="utf-8"?>
<!-- Generator: Adobe Illustrator 16.0.4, SVG Export Plug-In . SVG Version: 6.00 Build 0)  -->
<!DOCTYPE svg PUBLIC "-//W3C//DTD SVG 1.1//EN" "http://www.w3.org/Graphics/SVG/1.1/DTD/svg11.dtd">
<svg version="1.1" id="Layer_1" xmlns="http://www.w3.org/2000/svg" xmlns:xlink="http://www.w3.org/1999/xlink" x="0px" y="0px"
	 width="250px" height="250px" viewBox="0 0 250 250" enable-background="new 0 0 250 250" xml:space="preserve">
<g>
	<path fill="#FFFFFF" d="M64.866,30.258c-5.896,6.264-11.578,18.695-12.393,27.124c-0.264,2.694-0.392,5.194-0.392,7.538
		c0,8.449,1.729,14.916,5.496,21.22c4.73,7.889,12.217,14.376,21.652,18.754c8.901,4.129,21.719,9.882,23.249,10.508
		c0.525,0.209,1.205,0.529,1.93,0.884c-2.939,2.129-4.668,3.379-6.063,4.399c-7.933-1.811-17.911-0.42-20.229,0.129
		c-9.425,2.229-18.068,6.479-24.341,11.957c-6.39,5.589-11.18,12.006-12.804,17.176c-1.812,5.744-1.23,9.827,1.732,12.126
		c4.356,3.394,9.985-0.08,11.824-1.229c3.794-2.4,10.775-6.788,19.57-8.087c7.653-1.141,17.915-0.097,22.629,2.983
		c0,2.788,0,6.078,0,8.338c-1.135,1.039-2.344,2.145-2.344,2.145c-1.189,1.189-1.819,2.814-1.819,4.498
		c0,0.785,0.134,1.585,0.419,2.355c0.8,2.144,2.599,3.049,2.599,3.049c15.216,9.267,15.211,9.267,25.448,15.511
		c-0.145,0.055-0.45,0.064-0.565,0.114c-1.349,0.595-4.478,2.555-4.478,8.023v22.27l13.236,12.646
		c2.93,2.939,5.779,3.42,7.645,3.294c2.318-0.139,4.419-1.271,5.903-3.184c0,0,8.813-11.307,14.271-18.31
		c4.045,6.258,10.423,16.116,10.423,16.116c-0.07-0.111,0.149,0.344,0.149,0.344c0.739,1.59,2.283,4.889,5.894,5.823
		c1.599,0.416,4.138,0.464,7.084-1.675c3.957-2.879,13.16-10.058,14.74-11.638l0.29-0.295c1.089-1.069,2.749-2.708,2.749-5.403
		v-21.258c0-2.285-1.226-5.175-4.039-6.305c-2.051-0.825-4.4-0.825-7.209,1.459c-1.245,1.02-3.383,2.564-6.499,4.92
		c-1.805-2.88-2.763-4.419-4.129-6.594c2.675-3.374,9.041-11.397,12.597-15.886c0.459,0.365,1.389,1.095,1.389,1.095l0.155,0.105
		c3.744,2.493,6.599,1.569,7.965,0.795c3.718-2.101,3.793-6.779,3.728-8.16l0.012-17.854l-11.253-11.638
		c-1.63-1.838-3.903-2.784-6.242-2.589c-2.391,0.195-4.6,1.545-5.889,3.61c-0.605,0.869-5.953,7.593-11.508,14.51
		c0-5.147,0-20.398,0-23.364c0.691-0.688,1.4-1.403,1.4-1.403c1.005-0.874,3.289-3.697,3.289-6.998c0-0.792-0.136-1.605-0.445-2.43
		c-0.654-1.729-2.204-3.684-5.647-4.493c1.009-3.909,1.414-7.688,1.455-10.602c0.004-0.275,0.009-0.545,0.009-0.821
		c0-7.797-1.804-14.371-5.344-19.555c-4.228-6.164-7.493-8.232-12.011-11.103l-1.17-0.74c-5.265-3.359-32.873-17.87-34.047-18.49
		c-0.099-0.051-10.587-5.244-10.587-5.244c-6.923-3.503-7.417-5.958-7.417-7.288c0-0.085,0.004-0.16,0.009-0.235
		c0.156-0.804,2.04-3.714,5.993-3.714c4.054,0,6.899,0.13,12.236,1.918c8.454,2.834,8.693,6.279,8.698,7.554
		c-0.025,0.309-0.28,3.879-0.28,3.879l17.581,12.012l26.347-33.831L146.12,16.715l-2.829,2.84c-0.955,0.949-1.55,1.489-1.898,1.755
		c-0.417-0.07-1.524-0.26-1.524-0.26l-4.72-1.79c-7.428-2.998-19.859-8.027-31.175-8.027C84.192,11.233,73.805,20.636,64.866,30.258
		"/>
	<path fill="#C4CDD3" d="M67.513,32.817c-5.331,5.668-10.657,17.306-11.392,24.899c-0.243,2.544-0.375,4.908-0.375,7.112
		c0,7.753,1.56,13.646,4.958,19.321c4.336,7.232,11.247,13.201,19.99,17.261c9.303,4.313,21.754,9.892,23.119,10.453
		c2.549,1.035,6.414,3.139,7.433,4.229c-1.335,0.965-11.527,8.358-12.177,8.827c-6.703-2.174-17.246-0.959-20.235-0.25
		c-8.837,2.09-16.905,6.04-22.719,11.117c-5.806,5.074-10.28,10.992-11.683,15.445c-1.27,4.05-1.135,6.708,0.42,7.913
		c1.497,1.165,3.924,0.689,7.413-1.471c3.727-2.353,11.462-7.212,21.094-8.646c7.128-1.064,14.307-0.24,19.681,1.094
		c0,0,4.149,1.281,7.434,3.491c0,1.019,0,11.53,0,12.325c-0.57,0.51-3.489,3.184-3.489,3.184c-0.485,0.48-0.685,1.131-0.685,1.75
		c0,0.359,0.07,0.71,0.185,1.009c0.265,0.721,0.97,1.086,0.97,1.086l36.274,22.109c0,0,8.623-6.578,10.122-7.723
		c0.585,0.983,1.335,2.229,1.746,2.913c-0.785,0.965-10.078,12.321-11.224,13.717c-1.309-1.16-8.106-7.223-8.106-7.223
		c-2.02-1.86-3.594-1.584-4.349-1.255c-1.37,0.6-2.155,2.229-2.155,4.468v20.65l12.117,11.582c1.919,1.914,3.595,2.239,4.668,2.169
		c1.195-0.075,2.289-0.674,3.09-1.694c0,0,14.002-17.98,17.655-22.664c1.379,2.13,13.416,20.75,13.416,20.75l0.405,0.811
		c0.605,1.288,1.511,3.229,3.354,3.709c1.166,0.299,2.451-0.058,3.835-1.061c3.938-2.874,13.011-9.978,14.301-11.272l0.299-0.295
		c0.891-0.881,1.596-1.579,1.596-2.654v-21.3c0-1.004-0.565-2.269-1.665-2.734c-0.734-0.314-1.934-0.384-3.439,1.065
		c0.07-0.061-7.308,5.514-9.812,7.408c-0.968-1.55-7.213-11.501-7.857-12.531c0.819-1.021,15.606-19.666,16.74-21.09
		c1.121,0.885,4.28,3.364,4.28,3.364c1.608,1.068,2.92,1.288,3.969,0.693c1.875-1.06,1.785-4.248,1.764-4.607v-16.501L188.2,143.128
		c-0.829-0.934-1.899-1.4-3.027-1.305c-1.166,0.095-2.291,0.795-2.931,1.814c-0.545,0.864-8.494,10.797-14.081,17.756
		c-1.453-1.161-3.515-1.995-4.629-2.364c0-1.369,0-27.134,0-27.898c0.371-0.369,2.729-2.764,2.729-2.764
		c0.386-0.338,1.959-2.159,1.959-4.063c0-0.365-0.05-0.729-0.185-1.089c-0.6-1.583-2.438-2.384-5.469-2.384
		c-0.051,0-0.999,0.085-1.919,0.174c2.23-5.053,2.879-10.486,2.935-14.335c0.009-0.255,0.016-0.504,0.016-0.76
		c0-7.014-1.574-12.861-4.685-17.396c-3.774-5.509-6.449-7.213-10.894-10.032l-1.184-0.754
		c-5.138-3.273-32.652-17.735-33.821-18.345c-0.024-0.016-10.521-5.214-10.521-5.214c-8.273-4.189-9.593-7.818-9.593-10.852
		c0-0.14,0-0.275,0.011-0.41c0.084-2.5,3.664-7.369,9.893-7.369c4.329,0,7.598,0.15,13.486,2.119
		c7.654,2.57,11.372,6.289,11.372,11.377c-0.004,0.005-0.129,1.81-0.129,1.81l12.752,8.713l21.579-27.703l-15.308-10.237
		l-0.589,0.585c-3.29,3.293-3.421,3.264-6.938,2.564c-0.921-0.185-2.9-0.99-5.415-2.004c-7.177-2.899-19.193-7.757-29.775-7.757
		C85.583,15.002,76.235,23.43,67.513,32.817 M99.894,126.817l13.721-9.962v-0.509c-0.16-2.315-6.728-5.358-9.042-6.358
		c-1.305-0.56-13.946-6.193-23.03-10.412c-8.372-3.884-14.984-9.582-19.107-16.466c-3.01-5.033-5.619-11.562-4.301-25.203
		c0.686-7.098,5.859-18.401,10.852-23.708c8.418-9.053,17.405-17.176,34.851-17.176c10.187,0,21.979,4.764,29.027,7.609
		c2.705,1.099,4.669,1.889,5.779,2.109c3.862,0.774,4.887,0.635,8.147-2.54c1.13,0.754,10.652,7.128,12.146,8.123
		c-1.209,1.555-18.02,23.134-19.079,24.504c-1.305-0.89-9.419-6.433-10.233-6.993c0.026-0.355,0.052-0.73,0.052-0.73
		c0-6.049-4.29-10.522-12.746-13.356c-6.164-2.069-9.744-2.229-14.127-2.229c-7.603,0-11.797,6.069-11.907,9.313
		c-0.2,5.243,3.109,9.297,10.693,13.141c0.015,0,10.512,5.203,10.512,5.203c0.265,0.14,28.587,15.016,33.646,18.25l1.195,0.76
		c4.359,2.774,6.769,4.293,10.317,9.467c2.964,4.344,4.424,10.058,4.31,16.981c-0.061,4.044-0.705,9.933-3.384,15.061l-0.865,1.645
		l5.344-0.5c1.919,0.01,3.224,0.399,3.479,1.084c0.336,0.891-0.79,2.554-1.209,2.924l-3.488,3.554l0.068,0.324v29.788l0.727,0.22
		c1.614,0.47,4.457,1.619,5.237,2.694l0.775,1.065l0.825-1.024c1.439-1.785,14.057-17.467,14.871-18.756
		c0.31-0.491,0.854-0.831,1.39-0.881c0.489-0.035,0.944,0.177,1.354,0.636c0,0,8.357,8.662,9.772,10.117c0,0.774,0,15.735,0,15.735
		c0,0.075,0.005,0.155,0.005,0.24c0,0.984-0.24,2.274-0.744,2.559c-0.32,0.18-0.996-0.035-1.791-0.57
		c0-0.005-5.801-4.559-5.801-4.559l-18.878,23.788l9.784,15.602l11.662-8.814c0.725-0.693,1.164-0.818,1.35-0.744
		c0.239,0.104,0.434,0.571,0.434,0.88V220c0,0.236-0.464,0.691-0.994,1.221l-0.314,0.31c-1.131,1.129-9.933,8.053-14.066,11.057
		c-0.869,0.63-1.589,0.881-2.146,0.739c-0.914-0.238-1.555-1.608-2.019-2.609l-0.541-1.049l-14.954-23.139l-19.411,24.913
		c-0.309,0.391-0.833,0.87-1.619,0.915c-0.939,0.059-2.016-0.489-3.108-1.58c0,0-10.927-10.447-11.532-11.016
		c0-0.824,0-19.792,0-19.792c0-1.624,0.495-2.418,0.949-2.624c0.509-0.22,1.329,0.12,2.183,0.905
		c0.016,0.015,9.689,8.638,9.689,8.638l13.462-16.446l-3.646-6.069c0,0-9.826,7.504-10.807,8.26
		c-1.146-0.695-35.167-21.431-35.22-21.465c-0.036-0.081-0.071-0.181-0.071-0.3c0-0.136,0.035-0.265,0.09-0.325l4.069-3.709
		l0.016-0.455v-13.901l-0.47-0.295c-2.744-1.759-4.963-3.049-8.923-4.049c-6.678-1.69-14.552-1.985-20.035-1.109
		c-10.038,1.599-18.037,6.512-21.871,8.937c-3.692,2.285-4.844,1.789-5.111,1.585c-0.557-0.44-0.825-2.195,0.28-5.714
		c1.278-4.059,5.626-9.762,11.074-14.531c5.575-4.869,13.334-8.659,21.862-10.673c3.349-0.794,13.766-1.83,19.654,0.315l0.51,0.18
		L99.894,126.817z"/>
	<path fill="#231F20" d="M194.953,232.359h-1.521v4.146h-1.033v-4.146h-1.511v-0.899h4.062 M201.846,236.505h-1.023v-4.012h-0.024
		l-1.455,4.012h-0.999l-1.409-4.012h-0.025v4.012h-1.03v-5.045h1.785l1.175,3.295h0.024l1.21-3.295h1.772V236.505L201.846,236.505z"
		/>
	<path fill="#231F20" d="M194.824,170.636v-15.13l-9.463-8.508l-26.207,32.536l-3.68-5.872c3.188-2.386,7.308-5.444,7.769-5.676
		c0.748-0.379,2.639-1.509,3.588-1.509c0.854,0-1.329-3.784-7.567-3.784v-33.48l3.594-3.974c0,0-4.374,0.69-6.438,0.06
		c-0.436-0.136-1.164-0.484-2.065-0.949c1.175-1.875,2.23-4,3.021-6.479c4.288-13.566,1.479-26.088-8.703-33.806
		c-7.144-5.414-36.501-20.27-36.501-20.27s-17.76-8.703-19.674-10.618c-1.369-1.37-4.154-3.5-4.154-10.212
		c0-4.004,4.454-8.418,6.373-9.322c3.079-1.46,4.083-2.15,10.307-2.24c3.524-0.049,6.799,0.795,7.238,0.845
		c3.874,0.41,13.047,3.435,17.785,9.837c1.804,1.81,2.164,7.117,2.164,7.117l7.383,4.73l16.082-20.996l-8.709-5.863
		c-2.459,2.65-7.182,2.834-9.072,1.895c-1.895-0.949-18.131-6.863-20.435-7.598c-4.35-1.39-13.807-2.43-18.911-1.675
		c-5.109,0.76-13.492,2.31-20.055,9.273c-7.653,8.127-7.752,14.655-7.752,18.154c0,5.488,1.42,12.742,7.563,18.885
		c8.863,8.857,22.319,14.406,25.349,16.081c5.383,2.974,22.328,11.842,24.773,13.266c10.411,6.054,14.381,12.487,13.25,20.62
		c-0.059,0.399-0.185,0.774-0.273,1.155c-4.56-2.679-10.968-6.718-13.542-9.287c0,0-1.556,1.654-2.555,2.644l-7.547,5.653
		c0.891-3.669,0.996-9.942,0.841-10.567c-0.196-0.76-0.759-6.813-6.053-10.593c-3.594-2.569-11.632-7.377-18.535-10.782
		c-2.965-1.464-12.607-7.292-17.216-11.132c0,0-7.94-7.402-9.17-11.946c-2.37-5.203-2.464-17.496-1.232-18.726
		c0,0-3.024,3.404-5.105,10.217c-1.015,3.325-1.702,7.658-1.702,10.592c0,4.914,0.848,13.521,6.247,20.805
		c2.374,3.209,6.1,6.859,10.039,9.468c4.824,3.179,9.678,5.048,10.003,5.283c1.325,0.945,13.812,6.213,14.946,6.784
		c1.129,0.569,6.853,3.228,8.068,3.878c4.313,2.305,6.533,3.784,7.894,7.454l-12.943,9.692c0,0,0.57,1.035,0.57,2.644
		c0,0,0,0.455,0,1.225c-1.744-0.574-3.519-1.08-5.294-1.384c-8.508-1.449-13.686-1.361-20.424,0.304
		c-7.474,1.846-15.321,4.859-22.697,12.237c-8.329,8.327-8.227,13.911-8.227,13.911l8.318-4.908
		c6.96-3.914,16.118-6.248,22.607-6.248c15.46,0,23.484,4.463,25.718,6.947c0,7.758,0,14.666,0,14.992
		c0,2.979-0.894,3.354-1.56,3.923c-0.255,0.22-0.47,0.236-1.369,0.851c0,0,1.139,0.425,1.42,0.711
		c0.754,0.564,30.202,18.35,30.202,18.35l11.402-8.354l5.628,8.967l-15.646,19.432l-10.781-9.838v18.351l12.296,11.352
		l21.704-27.253l17.82,28.383l14.38-11.532v-18.159l-11.536,8.697l-11.692-18.646l21.146-26.558 M121.338,129.782l6.717-4.919
		c1.824,1.52,3.975,2.898,6.114,4.13c-0.141,0.123-0.256,0.218-0.256,0.218s-7.743,6.628-12.577,7.31L121.338,129.782
		L121.338,129.782z M133.101,172.905l-11.762-7.183v-17.82c4.928-0.875,16.95-6.603,23.168-12.826
		c0.08,1.173,0.056,13.08,0.036,21.148l-7.224-11.502l-10.998,7.817v13.996l6.083-4.032l4.56,7.261L133.101,172.905z"/>
</g>
</svg>
