<?xml version="1.0" encoding="utf-8"?>
<!-- Generator: Adobe Illustrator 16.0.4, SVG Export Plug-In . SVG Version: 6.00 Build 0)  -->
<!DOCTYPE svg PUBLIC "-//W3C//DTD SVG 1.1//EN" "http://www.w3.org/Graphics/SVG/1.1/DTD/svg11.dtd">
<svg version="1.1" id="Layer_1" xmlns="http://www.w3.org/2000/svg" xmlns:xlink="http://www.w3.org/1999/xlink" x="0px" y="0px"
	 width="250px" height="250px" viewBox="0 0 250 250" enable-background="new 0 0 250 250" xml:space="preserve">
<g>
	<path fill="#FFFFFF" stroke="#FFFFFF" stroke-width="0.5877" d="M96.726,218.294c-1.591,3.14-6.441,12.072-6.189,13.393
		c0.313,1.64,1.341,2.889,1.291,4.545c-0.032,1.025-1.295,3.549-2.277,4.259c-0.822,0.592-3.303,5.248-13.106,0.628l-1.31-0.69
		c-9.481-5.245-7.163-9.981-7.163-10.995c0-1.209,1.304-3.711,2.118-4.337c1.313-1.009,2.927-0.911,4.44-1.612
		c1.218-0.571,4.9-7.97,6.516-11.099l0.025-0.069c-32.293-15.858-54.521-49.071-54.521-87.479c0-53.792,43.609-97.4,97.4-97.4
		c53.792,0,97.401,43.609,97.401,97.4c0,53.793-43.609,97.401-97.401,97.401c-9.49,0-18.66-1.356-27.334-3.889L96.726,218.294z"/>
	<path fill="#FC1921" d="M156.478,88.117c1.642,1.022,3.433,1.979,4.794,3.203l15.641-19.914c3.207,2.794,5.759,5.493,8.255,9.417
		L166.91,96.851c1.475,1.68,3.371,5.003,4.561,7.318l18.76-12.989c0.358,0.7,1.381,4.983,1.218,6.237l-18.414,11.898
		c0.297,1.329,0.504,1.619,0.722,3.383c0,0,21.19-12.021,21.199-12.172c-2.312-22.752-22.096-41.308-45.457-41.308
		c-9.706,0-18.692,3.065-26.053,8.279c-0.124,0.087,1.22,21.321,1.22,21.321c1.493-0.934,3.344-1.804,4.091-2.052L128.383,67.4
		c1.807-1.433,4.266-2.616,6.165-3.302l-0.437,20.984c2.614-0.621,7.283-0.997,8.78-0.683l3.798-22.854
		c4.608-0.435,9.214,0.065,13.264,1.373l-8.844,22.975c1.752,0.536,3.641,1.34,5.365,2.224"/>
	<path fill="none" stroke="#FFFFFF" stroke-width="2.2041" d="M140.984,150.385c18.285,0,33.107-14.826,33.107-33.109
		c0-18.287-14.822-33.11-33.107-33.11c-18.287,0-33.113,14.823-33.113,33.11C107.872,135.559,122.697,150.385,140.984,150.385z"/>
	<path fill="#FC1921" d="M113.749,159.681c-0.921,1.52-8.006,5.736-9.537,3.359c-2.551-3.962,5.247-10.254,3.772-12.015
		c-0.887-1.055-4.55,1.698-7.541,5.143c0,0-1.662,3.185-3.926,7.197l-5.322,0.047c-0.326-0.247,6.772-10.636,5.394-11.845
		c-1.958-1.711-13.438,16.847-18.834,12.907c-0.454-0.334-1.672-1.713-0.049-5.18c-2.416,3.188-8.286,5.769-10.757,3.626
		c-5.303-4.595,9.094-20.011,14.899-14.67c0.455,0.418,0.619,0.823,0.584,1.145l0.781-1.229l5.25-0.047
		c-2.385,6.423-7.332,12.232-6.063,13.146c2.208,1.588,14.903-17.872,19.226-13.633c1.341,1.319,1.25,3.044,0.899,3.984
		c3.062-3.193,9.525-6.269,11.614-4.099c2.543,2.634-5.193,10.418-3.49,11.504c0.966,0.618,3.942-1.654,3.942-1.654 M70.917,159.652
		c2.844,3.155,11.447-6.836,9.694-9.658C78.282,147.066,68.372,156.829,70.917,159.652z"/>
	<path fill="#FC1921" d="M128.59,153.738c4.824,0.385,10.408-2.542,9.379-4.836c-0.606-1.353-4.252-0.821-6.401,0.061
		L128.59,153.738z M144.31,157.766c-5.278,4.795-10.956,6.583-12.828,5.154c-3.119-2.384-0.276-5.483-1.859-6.818
		c-0.434-0.362-1.159-0.457-2.344-0.372l6.133-9.517c3.293-1.686,8.672-2.596,9.575,0.486c1.26,4.304-4.747,8.027-8.914,8.715
		c3.172,0.583,0.035,4.11,3.281,4.535c1.443,0.19,5.656-2.819,7.856-5.863"/>
	<path fill="#FC1921" d="M166.307,156.049c-8.218,5.904-19.038,7.748-21.34,2.716c-3.793-8.296,17.252-18.694,19.74-12.341
		c1.767,4.514-6.612,8.55-13.516,8.613c-0.29,0.002-0.19-0.07-0.216,0.002c-0.604,1.749,0.25,3.665,3.486,3.638
		c3.237-0.027,8.044-1.369,12.61-5.441 M151.464,153.38c4.167-0.542,8.345-4.017,7.647-5.607
		C158.127,145.542,152.361,149.559,151.464,153.38z"/>
	<path fill="#FC1921" d="M195.455,149.59c-2.709,2.758-6.586,4.723-7.075,5.103c-7.665,5.903-19.022,8.069-21.553,3.15
		c-4.297-8.364,17.145-17.963,18.806-12.116c1.21,4.258-6.257,7.896-12.583,8.386c-0.288,0.025-0.19-0.069-0.214,0.005
		c-0.604,1.747,0.25,3.668,3.486,3.636c3.235-0.03,6.742-1.558,11.539-4.494c1.071-0.659,5.583-3.148,7.785-6.187 M173.249,152.314
		c4.746-0.187,9.014-3.974,7.788-5.682C179.514,144.5,173.582,149.363,173.249,152.314z"/>
	<path fill="#FC1921" d="M192.021,151.924c0.357,3.702-3.309,3.806-3.492,3.629c-0.565,0.62-0.13,3.289,2.696,3.428
		c4.696,0.237,4.626-5.941,4.006-8.237c-0.425-1.57-0.114-3.29,0.135-4.802c0.622-3.782,5.523-7.727,7.259-6.492
		c1.187,0.851,0.534,3.666-2.674,6.433c-0.603,0.583-0.993,0.679-0.123,2.469c0.944,1.942,2.562,6.616-0.076,10.183
		c-2.059,2.787-5.587,3.164-8.516,2.667c-1.875-0.319-3.971-1.563-4.837-2.968C182.642,152.155,190.404,147.984,192.021,151.924z"/>
	<path fill="#0C2D82" d="M141.729,133.86c0.706-0.983,1.367-1.896,2.019-2.759c0.155-0.21,0.572-0.917,0.779-1.448
		c1.131-2.901-1.717-7.34-5.718-9.226c-3.977-1.875-8.24-1.482-9.518,0.413c-0.319,0.472-0.705,1.076-0.781,1.323
		c-0.443,1.454-0.941,2.885-1.482,4.444c-6.307-4.212-10.011-8.734-8.296-12.004c3.179-6.064,13.109-5.042,23.479,0.052
		c10.372,5.092,17.386,12.824,14.454,18.39C154.927,136.348,148.98,136.279,141.729,133.86z"/>
	<path fill="#0C2D82" d="M154.163,146.199c-0.53,0.192-1.848,0.896-2.866,1.541c-2.055-2.337-9.28-7.343-13.144-8.686
		c-0.06-0.019,0.979-1.38,0.979-1.38c3.983,1.618,13.473,7.123,14.966,8.493"/>
	<path fill="#0C2D82" d="M172.975,146.967c0.858-0.61,3.197-1.563,3.264-1.651c0.078-0.319,0.123-0.954,0.123-0.954
		c2.491-11.707-2.585-21.233-6.568-24.97c-3.889-3.646-2.039-0.921-0.748,0.748c0.917,1.186,1.357,1.88,1.742,2.613
		c2.026,3.844,1.066,3.368-1.617,0.624c-5.294-5.408-14.508-12.266-22.977-16.499c-11.562-5.781-25.718-8.532-33.562-8.284
		c3.237-1.494,5.014-1.654,8.342-1.991c2.949-0.298,1.793-0.884,0-0.748c-6.303,0.482-20.348,0.703-22.54,11.707
		c-1.863,9.343,5.728,17.309,13.075,20.174c6.385,2.488,13.139,5.456,13.139,5.456l0.686-2.093
		c-3.737-1.993-10.25-4.138-13.698-5.479c-4.485-1.743-12.51-7.919-11.459-16.314c1.745-13.935,27.935-9.347,45.33-0.623
		c7.538,3.782,17.628,11.113,22.587,15.898c5.683,5.483,6.679,7.32,7.052,13.121C175.162,141.246,174.176,144.438,172.975,146.967"
		/>
	<path fill="none" stroke="#FC1921" stroke-width="1.0213" stroke-linecap="round" stroke-linejoin="round" d="M175.269,67.712
		c1.746-2.245,6.205-7.985,7.847-9.219"/>
	<polyline fill="none" stroke="#FC1921" stroke-width="1.0213" stroke-linecap="round" stroke-linejoin="round" points="
		175.769,57.498 179.256,62.479 185.73,64.721 	"/>
	<polyline fill="none" stroke="#FC1921" stroke-width="1.0213" stroke-linecap="round" stroke-linejoin="round" points="
		172.032,60.983 176.766,65.718 181.996,68.206 	"/>
	<path fill="#FC1921" d="M216.965,124.5c0-51.434-41.695-93.131-93.127-93.131c-45.822,0-83.915,33.097-91.682,76.686l9.037-9.571
		c11.2-34.889,43.911-60.14,82.52-60.14c47.854,0,86.65,38.794,86.65,86.651l0.053,0.066c-0.562,16.188-3.734,23.129-9.536,27.312
		l-0.515,4.253c2.546-1.959,10.259-10.116,15.04-19.969c1.3-2.682,1.659-9.604,1.617-12.005L216.965,124.5z"/>
	<path fill="#FC1921" d="M205.722,153.661c-11.764,33.897-43.983,56.977-81.884,57.305c-45.263,0.394-86.264-37.834-86.264-85.69
		l0,0c-0.676-9.671,2.12-15.867,4.403-20.066c2.347-4.322,7.345-10.023,11.774-9.156c6.866,1.348,2.45,10.312-3.381,20.478
		c-5.698,9.938-12.603,20.374-7.047,26.379c4.498,4.862,13.705,3.756,19.336-1.834l-17.373,32.615L53,173.748l33.547-63.326
		l-7.77,0.215L65.06,136.161c-4.42,4.142-11.602,7.944-15.707,5.106c-8.146-5.625,23.758-36.096,12.018-46.005
		c-9.376-7.912-19.562,3.902-22.792,9.504c-2.645,4.591-7.635,11.654-7.751,20.354l0.007-0.374c0,51.43,41.696,93.126,93.127,93.126
		c43.852,0,80.626-30.311,90.512-71.121c0.375-1.498,0.774-3.327,0.774-3.327C212.631,147.537,205.722,153.661,205.722,153.661z"/>
	
		<line fill="none" stroke="#FC1921" stroke-width="1.0213" stroke-linecap="round" stroke-linejoin="round" x1="74.147" y1="76.925" x2="81.992" y2="75.804"/>
	<path fill="none" stroke="#FC1921" stroke-width="1.0213" stroke-linecap="round" stroke-linejoin="round" d="M60.699,63.238
		c18.709,14.943,30.697,37.95,30.697,63.757c0,6.982-0.795,12.938-2.424,19.426"/>
	<path fill="none" stroke="#FC1921" stroke-width="1.0213" stroke-linecap="round" stroke-linejoin="round" d="M81.702,165.849
		c-4.155,7.707-9.54,14.642-15.939,20.511c-2.988,2.739-2.071,1.162-2.071,1.162"/>
	<polyline fill="none" stroke="#FC1921" stroke-width="1.0213" stroke-linecap="round" stroke-linejoin="round" points="
		69.671,62.733 62.944,65.225 60.704,72.073 	"/>
	
		<line fill="none" stroke="#FC1921" stroke-width="1.0213" stroke-linecap="round" stroke-linejoin="round" x1="66.928" y1="68.464" x2="72.908" y2="66.222"/>
	
		<line fill="none" stroke="#FC1921" stroke-width="1.0213" stroke-linecap="round" stroke-linejoin="round" x1="68.922" y1="70.705" x2="75.15" y2="68.71"/>
	
		<line fill="none" stroke="#FC1921" stroke-width="1.0213" stroke-linecap="round" stroke-linejoin="round" x1="71.414" y1="73.695" x2="79.384" y2="72.448"/>
	
		<line fill="none" stroke="#FC1921" stroke-width="1.0213" stroke-linecap="round" stroke-linejoin="round" x1="78.387" y1="82.286" x2="86.981" y2="81.539"/>
	<polyline fill="none" stroke="#FC1921" stroke-width="1.0213" stroke-linecap="round" stroke-linejoin="round" points="
		76.269,93.493 81.501,88.015 90.218,87.766 	"/>
	<polyline fill="none" stroke="#FC1921" stroke-width="1.0213" stroke-linecap="round" stroke-linejoin="round" points="
		78.635,98.851 84.117,93.493 92.46,93.993 	"/>
	
		<line fill="none" stroke="#FC1921" stroke-width="1.0213" stroke-linecap="round" stroke-linejoin="round" x1="63.567" y1="74.937" x2="66.307" y2="68.464"/>
	
		<line fill="none" stroke="#FC1921" stroke-width="1.0213" stroke-linecap="round" stroke-linejoin="round" x1="66.805" y1="78.177" x2="69.544" y2="71.453"/>
	
		<line fill="none" stroke="#FC1921" stroke-width="1.0213" stroke-linecap="round" stroke-linejoin="round" x1="68.551" y1="80.917" x2="72.037" y2="74.316"/>
	
		<line fill="none" stroke="#FC1921" stroke-width="1.0213" stroke-linecap="round" stroke-linejoin="round" x1="70.913" y1="84.03" x2="74.9" y2="78.053"/>
	
		<line fill="none" stroke="#FC1921" stroke-width="1.0213" stroke-linecap="round" stroke-linejoin="round" x1="73.282" y1="87.642" x2="77.765" y2="82.783"/>
	<polyline fill="none" stroke="#FC1921" stroke-width="1.0213" stroke-linecap="round" stroke-linejoin="round" points="
		81.002,105.949 86.731,100.22 95.697,100.967 	"/>
	
		<line fill="none" stroke="#FC1921" stroke-width="1.0213" stroke-linecap="round" stroke-linejoin="round" x1="88.973" y1="107.069" x2="97.067" y2="109.185"/>
	
		<line fill="none" stroke="#FC1921" stroke-width="1.0213" stroke-linecap="round" stroke-linejoin="round" x1="88.848" y1="106.82" x2="86.481" y2="109.185"/>
	
		<line fill="none" stroke="#FC1921" stroke-width="1.0213" stroke-linecap="round" stroke-linejoin="round" x1="90.591" y1="114.916" x2="98.065" y2="117.527"/>
	
		<line fill="none" stroke="#FC1921" stroke-width="1.0213" stroke-linecap="round" stroke-linejoin="round" x1="84.613" y1="120.143" x2="90.466" y2="114.292"/>
	<polyline fill="none" stroke="#FC1921" stroke-width="1.0213" stroke-linecap="round" stroke-linejoin="round" points="
		99.434,127.494 91.215,124.007 84.613,129.235 	"/>
	<polyline fill="none" stroke="#FC1921" stroke-width="1.0213" stroke-linecap="round" stroke-linejoin="round" points="
		84.738,136.956 91.091,132.723 98.81,135.838 	"/>
	<polyline fill="none" stroke="#FC1921" stroke-width="1.0213" stroke-linecap="round" stroke-linejoin="round" points="
		82.872,144.057 90.218,141.066 97.94,144.304 	"/>
	
		<line fill="none" stroke="#FC1921" stroke-width="1.0213" stroke-linecap="round" stroke-linejoin="round" x1="88.973" y1="146.421" x2="92.833" y2="149.663"/>
	
		<line fill="none" stroke="#FC1921" stroke-width="1.0213" stroke-linecap="round" stroke-linejoin="round" x1="87.104" y1="153.895" x2="88.476" y2="155.016"/>
	
		<line fill="none" stroke="#FC1921" stroke-width="1.0213" stroke-linecap="round" stroke-linejoin="round" x1="91.635" y1="157.257" x2="92.877" y2="158.048"/>
	
		<line fill="none" stroke="#FC1921" stroke-width="1.0213" stroke-linecap="round" stroke-linejoin="round" x1="87.354" y1="162.113" x2="89.97" y2="164.48"/>
	
		<line fill="none" stroke="#FC1921" stroke-width="1.0213" stroke-linecap="round" stroke-linejoin="round" x1="81.377" y1="166.349" x2="86.108" y2="170.706"/>
	
		<line fill="none" stroke="#FC1921" stroke-width="1.0213" stroke-linecap="round" stroke-linejoin="round" x1="80.754" y1="166.971" x2="75.4" y2="166.471"/>
	<polyline fill="none" stroke="#FC1921" stroke-width="1.0213" stroke-linecap="round" stroke-linejoin="round" points="
		82.621,176.562 78.387,171.203 72.037,170.459 	"/>
	<polyline fill="none" stroke="#FC1921" stroke-width="1.0213" stroke-linecap="round" stroke-linejoin="round" points="
		68.667,174.686 74.646,175.307 78.631,180.914 	"/>
	<polyline fill="none" stroke="#FC1921" stroke-width="1.0213" stroke-linecap="round" stroke-linejoin="round" points="
		65.18,178.173 70.909,179.917 75.145,184.399 	"/>
	<polyline fill="none" stroke="#FC1921" stroke-width="1.0213" stroke-linecap="round" stroke-linejoin="round" points="
		63.064,181.411 68.171,182.904 71.907,187.139 	"/>
	<polyline fill="none" stroke="#FC1921" stroke-width="1.0213" stroke-linecap="round" stroke-linejoin="round" points="
		67.421,190.005 64.931,186.019 61.693,184.773 	"/>
	<path fill="none" stroke="#FC1921" stroke-width="1.0213" stroke-linecap="round" stroke-linejoin="round" d="M167.551,160.364
		c2.737,4.981,14.696,19.675,21.167,22.915"/>
	
		<line fill="none" stroke="#FC1921" stroke-width="1.0213" stroke-linecap="round" stroke-linejoin="round" x1="163.065" y1="159.867" x2="165.555" y2="159.617"/>
	<polyline fill="none" stroke="#FC1921" stroke-width="1.0213" stroke-linecap="round" stroke-linejoin="round" points="
		171.284,161.609 169.293,163.602 163.813,164.599 	"/>
	
		<line fill="none" stroke="#FC1921" stroke-width="1.0213" stroke-linecap="round" stroke-linejoin="round" x1="166.055" y1="169.079" x2="173.526" y2="168.831"/>
	<polyline fill="none" stroke="#FC1921" stroke-width="1.0213" stroke-linecap="round" stroke-linejoin="round" points="
		180.003,167.837 176.018,172.567 170.041,174.314 	"/>
	<polyline fill="none" stroke="#FC1921" stroke-width="1.0213" stroke-linecap="round" stroke-linejoin="round" points="
		182.99,171.074 179.381,175.558 172.781,178.546 	"/>
	
		<line fill="none" stroke="#FC1921" stroke-width="1.0213" stroke-linecap="round" stroke-linejoin="round" x1="175.769" y1="181.534" x2="181.248" y2="178.297"/>
	<polyline fill="none" stroke="#FC1921" stroke-width="1.0213" stroke-linecap="round" stroke-linejoin="round" points="
		187.725,176.308 184.235,180.539 179.007,184.026 	"/>
	
		<line fill="none" stroke="#FC1921" stroke-width="1.0213" stroke-linecap="round" stroke-linejoin="round" x1="186.229" y1="173.068" x2="182.245" y2="178.546"/>
	
		<line fill="none" stroke="#FC1921" stroke-width="1.0213" stroke-linecap="round" stroke-linejoin="round" x1="176.766" y1="163.852" x2="173.028" y2="168.086"/>
	<polyline fill="none" stroke="#FC1921" stroke-width="1.0213" stroke-linecap="round" stroke-linejoin="round" points="
		189.964,179.045 188.221,182.535 183.489,185.77 	"/>
	<path fill="#FC1921" d="M109.601,184.849c-5.212,9.103-18.381,33.903-22.809,44.138c-1.157,2.673-1.43,3.882-0.281,5.229
		c0.22,0.261,0.577,0.912,0.637,1.147c0.239,0.916-0.805,2.105-1.353,2.465c-1.139,0.742-3.59,0.93-7.994-1.086
		c-4.403-2.017-5.508-4.467-5.575-5.827c-0.032-0.655,0.315-2.197,1.198-2.545c0.225-0.087,0.96-0.182,1.301-0.155
		c1.764,0.138,2.729-1.008,4.213-3.516c6.071-10.265,19.038-34.163,23.568-43.376c2.654-5.402,17.362-33.941,24.519-54.603
		c0.537-1.557,1.034-3.064,1.479-4.521c0.075-0.248,0.46-0.852,0.78-1.323c1.274-1.896,5.542-2.288,9.52-0.414
		c3.996,1.884,6.847,6.324,5.713,9.225c-0.206,0.531-0.621,1.24-0.778,1.449c-0.652,0.862-1.333,1.793-2.038,2.772
		C131.311,148.354,115.524,174.508,109.601,184.849z M76.526,229.04c0.075,0.211,0.348,0.485,1.083,0.312
		c0.296-0.073,0.528-0.348,0.897-0.758c0.62-0.689,1.373-1.747,1.586-2.829c0.139-0.467-0.146-0.246-0.25-0.03
		c-0.107,0.216-2.07,2.707-3.104,2.976C76.596,228.75,76.524,228.676,76.526,229.04z M93.458,204.71
		c-1.342,2.679-9.485,18.352-13.147,23.086c-0.1,0.126-0.193,0.244-0.288,0.355c-0.096,0.136-0.342,0.256-0.438,0.355
		c-0.115,0.123-0.075,0.221-0.147,0.286c-0.062,0.073,0.034,0.14-0.013,0.208c-0.056,0.087-0.254,0.169-0.324,0.251
		c-0.166,0.178-0.107,0.337-0.245,0.467c-0.243,0.238-0.629,0.382-0.629,0.382c-0.43,0.078-0.282,0.653,0.079,0.792
		c0.2,0.077,0.399,0.204,0.601,0.323c0.16,0.096,0.324,0.16,0.487,0.386c0.128,0.178-0.084,0.44-0.096,0.685
		c-0.014,0.189,0.064,0.375-0.075,0.512c-0.194,0.188-0.615,0.285-0.967,0.183c-0.418-0.125-0.959-0.449-1.456-0.688
		c-0.618-0.297-1.166-0.496-1.326-0.476c-0.143,0.02-0.465,0.102-0.563,0.25c-0.069,0.099-0.099,0.229,0.086,0.386
		c0.083,0.068,0.34,0.219,0.486,0.301c0.227,0.128,0.427,0.34,0.714,0.482c0.113,0.057,0.216-0.037,0.32,0.008
		c0.139,0.062,0.278,0.268,0.437,0.348c0.189,0.096,0.444,0.253,0.62,0.333c0.117,0.05,0.231,0.271,0.34,0.344
		c0.067,0.042,0.128-0.058,0.19-0.028c0.21,0.105,0.391,0.141,0.526,0.244c0.231,0.189,0.508,0.383,0.774,0.483
		c0.435,0.163,0.849-0.002,1.02-0.787c0.277-1.261,0.623-2.703,0.899-3.675c0.058-0.209,0.209-0.642,0.419-1.23
		c0.041-0.111-0.06-0.23-0.015-0.351c0.836-2.308,2.553-6.388,3.639-8.744c1.444-3.143,8.023-15.038,8.094-15.255
		C93.53,204.708,94.023,203.731,93.458,204.71z M102.907,186.276c1.096-2.113,33.806-57.827,36.767-62.925
		c0,0,0.868,0.495,0.73,1.215c-2.979,4.487-21.678,35.881-23.234,38.92c-1.554,3.034-12.81,22.274-19.878,36.009
		c0,0,28.608-48.752,29.743-50.777c1.114-1.996,13.494-21.991,14.242-23.132c0,0,0.78-1.287,0.744-1.213
		c-1.948-2.668-5.577-4.155-8.885-4.055c-0.274,1.297-12.198,30.471-15.873,37.554C113.765,164.615,104.321,183.677,102.907,186.276
		L102.907,186.276z M90.748,215.093c1.965-3.684,28.003-50.801,44.687-76.188c0.46-0.697,7.761-11.564,7.797-12.062
		c0.041-0.561-0.373-1.218-0.59-1.398c-0.365,0.584-4.443,7.173-7.996,12.69c-15.291,24.802-42.097,72.259-43.656,75.913
		c-0.057,0.142-0.395,1.084-0.454,1.212c-0.083,0.179,0.041,0.058-0.096,0.24c-0.369,0.484-0.698,1.351-1.021,1.86
		c-0.082,0.129-0.168,0.251-0.252,0.379c-0.033,0.058,0.009,0.147-0.02,0.207c-0.078,0.175-0.195,0.333-0.263,0.515
		c-0.027,0.062,0.014,0.151-0.018,0.203c-0.218,0.355-0.28,0.712-0.542,1.031c-0.037,0.042,0.009,0.142-0.022,0.2
		c-0.02,0.038-0.111,0.046-0.12,0.081c-0.137,0.489-0.489,0.805-0.71,1.231c-0.032,0.057-0.011,0.138-0.009,0.211
		c-0.07-0.02-0.124,0.018-0.136,0.075c-0.039,0.178-0.109,0.333-0.167,0.494c-0.049,0.131-0.198,0.261-0.227,0.38
		c-0.069,0.271-0.335,0.429-0.319,0.715c-0.211,0.072-0.143,0.146-0.148,0.215c-0.007,0.066-0.065,0.123-0.109,0.171
		c-0.179,0.193-0.265,0.459-0.345,0.71c-0.065,0.212-0.235,0.366-0.31,0.57c-0.017,0.042,0.011,0.101-0.014,0.132
		c-0.066,0.107,0.064,0.215,0.043,0.306c-0.029,0.111-0.29,0.299-0.336,0.395c-0.025,0.057-0.053,0.034-0.082,0.083
		c-0.271,0.443-0.21,0.883-0.448,1.326c-0.041,0.078-0.195,0.207-0.243,0.271c-0.322,0.41-0.238,0.932-0.546,1.312
		c0.052,0.216-0.126,0.37-0.152,0.574c-0.006,0.053,0.037,0.095,0.027,0.148c-0.018,0.186-0.084,0.339-0.119,0.51
		c-0.121,0.636-0.229,1.229-0.407,1.903c-0.13,0.501-0.468,0.721-0.532,1.264c-0.018,0.158,0.126,0.162,0.137,0.216
		c0.014,0.082,0.029,0.16,0.09,0.205c0.054,0.043,0.114-0.012,0.13-0.066c0.137-0.408,0.146-0.698,0.331-1.093
		c0.075-0.161-0.158-0.38-0.106-0.557c0.167-0.531,0.749-0.993,0.903-1.525c0.252-0.101,0.041-0.381,0.139-0.577
		c0.03-0.053,0.083-0.064,0.137-0.088c0.095-0.043-0.095-0.185-0.054-0.265c0.131-0.251,0.406-0.481,0.571-0.719
		c0.111-0.159,0.246-0.307,0.311-0.462c0.113-0.272,0.274-0.446,0.274-0.709c0.001-0.309,0.34-0.562,0.326-0.867
		c-0.003-0.08,0.092-0.15,0.11-0.22c0.087-0.401,0.13-0.776,0.28-1.158c0.048-0.125,0.013-0.278,0.013-0.423
		c0.189,0.018-0.025-0.222,0.142-0.218c-0.051-0.177,0.045-0.355,0.104-0.484c0.24-0.521,0.427-1.077,0.54-1.675
		c0.026-0.136,0.142-0.237,0.188-0.368c0.024-0.064-0.019-0.165,0.018-0.203c0.095-0.101,0.142-0.225,0.266-0.313
		c0.023-0.012-0.004-0.085,0.012-0.127c0.058-0.166,0.266-0.238,0.292-0.436c0.006-0.033,0.102-0.042,0.118-0.08
		c0.19-0.487,0.41-0.882,0.532-1.376c0.07-0.276,0.435-0.479,0.411-0.787c-0.002-0.021,0.103-0.037,0.113-0.076
		c0.098-0.319,0.085-0.59,0.28-0.868c0.035-0.054-0.002-0.142,0.017-0.208c0.014-0.058,0.247-0.069,0.259-0.091
		c0.165-0.258,0.032-0.667,0.125-0.931c0.049-0.147,0.326-0.217,0.414-0.333c0.06-0.078,0.045-0.179,0.116-0.237
		c0.016-0.015-0.017-0.048-0.015-0.053c0.041-0.097,0.047-0.15,0.128-0.229c0.039-0.032,0.062-0.104,0.043-0.172
		c0.054,0.044,0.02-0.077,0.073-0.035c-0.002-0.038-0.002-0.07-0.002-0.106 M112.013,165.617
		c2.288-3.146,13.49-26.662,19.088-43.554l-0.718,0.15C129.788,124.416,123.994,142.822,112.013,165.617z"/>
	<path fill="#0C2D82" d="M124.602,88.593c5.667-3.922,19.369-7.295,31.632-0.685c9.034,4.872,15.566,12.89,17.434,24.595
		l-6.849,3.926c-6.474-7.35-12.328-11.707-16.813-13.951c-4.481-2.239-14.942-6.724-24.905-7.22L124.602,88.593z M160.938,94.06
		l-3.37,1.538l-3.354-1.941l0.392,3.668l-2.931,2.531l3.76,0.716l1.449,3.626l1.99-3.302l3.728-0.191l-2.43-2.886L160.938,94.06z
		 M170.553,108.921l-2.231-0.017l-1.338-1.912l-0.72,2.102l-2.245,0.634l1.871,1.348l-0.135,2.352l1.932-1.296l2.081,0.845
		l-0.592-2.195L170.553,108.921z M143.013,87.323l-1.614,2.712l-3.287,0.266l2.051,2.377l-0.825,3.194l2.979-1.322l2.771,1.836
		l-0.205-3.277l2.516-1.941l-3.098-0.843L143.013,87.323z M129.931,88.259l-0.643,1.983l-2.081,0.648l1.669,1.235l-0.067,2.176
		l1.728-1.285l2.054,0.777l-0.611-2.08l1.338-1.619l-2.117-0.088L129.931,88.259z"/>
	<path fill="#0C2D82" d="M187.716,165.753h-1.48v4.03h-1.001v-4.03h-1.477v-0.874h3.957L187.716,165.753L187.716,165.753z
		 M194.421,169.783h-1.001v-3.901h-0.023l-1.419,3.901h-0.967l-1.374-3.901h-0.02v3.901h-1.005v-4.904h1.736l1.142,3.202h0.022
		l1.188-3.202h1.723v4.904H194.421z"/>
</g>
</svg>
